%TF.GenerationSoftware,KiCad,Pcbnew,10.0.1*%
%TF.CreationDate,2026-05-22T20:49:39+03:00*%
%TF.ProjectId,Orbit Mini Mainboard,4f726269-7420-44d6-996e-69204d61696e,rev?*%
%TF.SameCoordinates,Original*%
%TF.FileFunction,Soldermask,Bot*%
%TF.FilePolarity,Negative*%
%FSLAX46Y46*%
G04 Gerber Fmt 4.6, Leading zero omitted, Abs format (unit mm)*
G04 Created by KiCad (PCBNEW 10.0.1) date 2026-05-22 20:49:39*
%MOMM*%
%LPD*%
G01*
G04 APERTURE LIST*
%ADD10C,5.400000*%
%ADD11R,1.400000X1.400000*%
%ADD12C,1.400000*%
%ADD13C,0.750000*%
%ADD14O,2.000000X1.200000*%
%ADD15O,1.800000X1.200000*%
%ADD16C,0.600000*%
%ADD17C,1.600000*%
%ADD18R,1.700000X1.700000*%
%ADD19C,1.700000*%
%ADD20C,1.800000*%
%ADD21R,1.500000X1.500000*%
%ADD22C,1.500000*%
%ADD23R,1.050000X0.900000*%
%ADD24C,1.040000*%
%ADD25C,1.050000*%
%ADD26R,1.800000X1.575000*%
%ADD27C,5.800000*%
%ADD28R,0.864000X0.806000*%
%ADD29R,0.900000X0.800000*%
%ADD30R,0.806000X0.864000*%
%ADD31R,0.800000X0.900000*%
%ADD32R,1.350000X1.410000*%
%ADD33R,3.260000X1.150000*%
%ADD34R,1.150000X3.260000*%
%ADD35R,0.800000X0.800000*%
%ADD36R,1.410000X1.350000*%
%ADD37C,1.100000*%
%ADD38R,1.550000X0.300000*%
%ADD39R,2.750000X1.200000*%
%ADD40R,0.600000X1.100000*%
%ADD41R,1.400000X1.200000*%
%ADD42R,0.600000X1.000000*%
%ADD43R,1.400000X2.400000*%
G04 APERTURE END LIST*
D10*
%TO.C,H12*%
X135450000Y-146725000D03*
%TD*%
D11*
%TO.C,U18*%
X66790000Y-101500000D03*
D12*
X66790000Y-99500000D03*
X66790000Y-97500000D03*
X66790000Y-95500000D03*
%TD*%
D13*
%TO.C,USBC2*%
X65257456Y-135275000D03*
X65257456Y-141075000D03*
D14*
X65757456Y-142505000D03*
D15*
X61577456Y-142505000D03*
X61577456Y-133845000D03*
D14*
X65757456Y-133845000D03*
%TD*%
D16*
%TO.C,U10*%
X79400000Y-135100000D03*
X78400000Y-135100000D03*
X79400000Y-136100000D03*
X78400000Y-136100000D03*
%TD*%
D17*
%TO.C,CN7*%
X60920000Y-75900000D03*
X60920000Y-73900000D03*
%TD*%
D10*
%TO.C,H2*%
X62000000Y-48275000D03*
%TD*%
D18*
%TO.C,U22*%
X73435000Y-128780000D03*
D19*
X73435000Y-131320000D03*
X70895000Y-128780000D03*
X70895000Y-131320000D03*
X68355000Y-128780000D03*
X68355000Y-131320000D03*
X65815000Y-128780000D03*
X65815000Y-131320000D03*
%TD*%
D10*
%TO.C,H5*%
X74420000Y-70070000D03*
%TD*%
D20*
%TO.C,CN11*%
X110567500Y-146740000D03*
X113067500Y-146740000D03*
%TD*%
D21*
%TO.C,CN3*%
X136225000Y-108100000D03*
D22*
X136225000Y-110100000D03*
X136225000Y-112100000D03*
%TD*%
D10*
%TO.C,H10*%
X135450000Y-48275000D03*
%TD*%
%TO.C,H4*%
X122430000Y-103070000D03*
%TD*%
%TO.C,H11*%
X62000000Y-146725000D03*
%TD*%
D11*
%TO.C,U2*%
X61050000Y-101500000D03*
D12*
X61050000Y-99500000D03*
X61050000Y-97500000D03*
X61050000Y-95500000D03*
%TD*%
D10*
%TO.C,H6*%
X74420000Y-103070000D03*
%TD*%
D20*
%TO.C,CN8*%
X126477500Y-146740000D03*
X128977500Y-146740000D03*
%TD*%
D23*
%TO.C,CN1*%
X60660000Y-90260000D03*
D24*
X60660000Y-89010000D03*
D25*
X60660000Y-87760000D03*
D24*
X60660000Y-86500000D03*
X60660000Y-85260000D03*
X60660000Y-84010000D03*
X60660000Y-82750000D03*
X60660000Y-81500000D03*
%TD*%
D26*
%TO.C,H3*%
X129775000Y-107450000D03*
D20*
X129775000Y-109990000D03*
X129775000Y-112530000D03*
%TD*%
D17*
%TO.C,CN2*%
X60700000Y-131125000D03*
X60700000Y-129125000D03*
%TD*%
D20*
%TO.C,CN12*%
X94177500Y-146740000D03*
X96677500Y-146740000D03*
%TD*%
D10*
%TO.C,H9*%
X122420000Y-70070000D03*
%TD*%
D27*
%TO.C,H1*%
X91965000Y-83250000D03*
%TD*%
D13*
%TO.C,USBC1*%
X131350000Y-102850000D03*
X131350000Y-97050000D03*
D14*
X130850000Y-95620000D03*
D15*
X135030000Y-95620000D03*
X135030000Y-104280000D03*
D14*
X130850000Y-104280000D03*
%TD*%
D20*
%TO.C,CN9*%
X134800000Y-137630000D03*
X134800000Y-140130000D03*
%TD*%
D28*
%TO.C,R59*%
X61950000Y-115450000D03*
X61950000Y-113950000D03*
%TD*%
D29*
%TO.C,C1*%
X114060000Y-80090000D03*
X114060000Y-81490000D03*
%TD*%
D30*
%TO.C,R70*%
X72475000Y-93050000D03*
X70975000Y-93050000D03*
%TD*%
%TO.C,R28*%
X109100000Y-83250000D03*
X110600000Y-83250000D03*
%TD*%
D31*
%TO.C,C54*%
X129230000Y-72600000D03*
X127830000Y-72600000D03*
%TD*%
D32*
%TO.C,C2*%
X112500000Y-89630000D03*
X112500000Y-87630000D03*
%TD*%
D33*
%TO.C,C32*%
X84660000Y-95700000D03*
X79560000Y-95700000D03*
%TD*%
D34*
%TO.C,C28*%
X105490000Y-129710000D03*
X105490000Y-124610000D03*
%TD*%
D35*
%TO.C,LED4*%
X120850000Y-87150000D03*
X120850000Y-85650000D03*
%TD*%
D36*
%TO.C,C26*%
X126425000Y-127175000D03*
X124425000Y-127175000D03*
%TD*%
D28*
%TO.C,R42*%
X85400000Y-125010000D03*
X85400000Y-126510000D03*
%TD*%
D22*
%TO.C,M2V*%
X127410000Y-70910000D03*
%TD*%
D36*
%TO.C,C3*%
X119090000Y-77130000D03*
X121090000Y-77130000D03*
%TD*%
D32*
%TO.C,C22*%
X110350000Y-129975000D03*
X110350000Y-131975000D03*
%TD*%
D37*
%TO.C,U14*%
X131670000Y-93250000D03*
D17*
X131670000Y-73250000D03*
D38*
X136400000Y-92500000D03*
X129940000Y-92250000D03*
X136400000Y-92000000D03*
X129940000Y-91750000D03*
X136400000Y-91500000D03*
X129940000Y-91250000D03*
X136400000Y-91000000D03*
X129940000Y-90750000D03*
X136400000Y-90500000D03*
X129940000Y-90250000D03*
X136400000Y-90000000D03*
X129940000Y-89750000D03*
X136400000Y-89500000D03*
X129940000Y-89250000D03*
X136400000Y-89000000D03*
X129940000Y-88750000D03*
X136400000Y-88500000D03*
X129940000Y-88250000D03*
X136400000Y-88000000D03*
X129940000Y-87750000D03*
X136400000Y-87500000D03*
X129940000Y-87250000D03*
X136400000Y-87000000D03*
X129940000Y-86750000D03*
X136400000Y-86500000D03*
X129940000Y-86250000D03*
X136400000Y-86000000D03*
X129940000Y-85750000D03*
X136400000Y-85500000D03*
X129940000Y-85250000D03*
X136400000Y-85000000D03*
X129940000Y-84750000D03*
X136400000Y-84500000D03*
X129940000Y-84250000D03*
X136400000Y-84000000D03*
X129940000Y-83750000D03*
X136400000Y-83500000D03*
X129940000Y-83250000D03*
X136400000Y-83000000D03*
X129940000Y-82750000D03*
X136400000Y-82500000D03*
X129940000Y-82250000D03*
X136400000Y-82000000D03*
X129940000Y-81750000D03*
X136400000Y-81500000D03*
X129940000Y-81250000D03*
X136400000Y-81000000D03*
X129940000Y-80750000D03*
X136400000Y-80500000D03*
X129940000Y-80250000D03*
X136400000Y-80000000D03*
X129940000Y-79750000D03*
X136400000Y-79500000D03*
X129940000Y-79250000D03*
X136400000Y-79000000D03*
X129940000Y-78750000D03*
X136400000Y-78500000D03*
X129940000Y-78250000D03*
X136400000Y-76000000D03*
X129940000Y-75750000D03*
X136400000Y-75500000D03*
X129940000Y-75250000D03*
X136400000Y-75000000D03*
X129940000Y-74750000D03*
X136400000Y-74500000D03*
X129940000Y-74250000D03*
X136400000Y-74000000D03*
D39*
X136180000Y-72900000D03*
X136180000Y-93600000D03*
%TD*%
D36*
%TO.C,C18*%
X65575000Y-67625000D03*
X63575000Y-67625000D03*
%TD*%
D30*
%TO.C,R27*%
X113970000Y-78710000D03*
X112470000Y-78710000D03*
%TD*%
D29*
%TO.C,C8*%
X123250000Y-130325000D03*
X123250000Y-128925000D03*
%TD*%
D30*
%TO.C,R69*%
X76075000Y-89375000D03*
X74575000Y-89375000D03*
%TD*%
D28*
%TO.C,R34*%
X81125000Y-108175000D03*
X81125000Y-109675000D03*
%TD*%
%TO.C,R48*%
X63075000Y-129400000D03*
X63075000Y-130900000D03*
%TD*%
D40*
%TO.C,U9*%
X74000000Y-91425000D03*
X74950000Y-91425000D03*
X75900000Y-91425000D03*
X75900000Y-94025000D03*
X74000000Y-94025000D03*
%TD*%
D41*
%TO.C,OSC1*%
X122090000Y-80630000D03*
X124290000Y-80630000D03*
X124290000Y-82230000D03*
X122090000Y-82230000D03*
%TD*%
D42*
%TO.C,U13*%
X112160000Y-83250000D03*
X113110000Y-83250000D03*
X114060000Y-83250000D03*
X114060000Y-85450000D03*
X112160000Y-85450000D03*
%TD*%
D30*
%TO.C,R57*%
X77675000Y-132025000D03*
X79175000Y-132025000D03*
%TD*%
%TO.C,R60*%
X80100000Y-90320000D03*
X78600000Y-90320000D03*
%TD*%
D31*
%TO.C,C50*%
X63525000Y-122050000D03*
X64925000Y-122050000D03*
%TD*%
D28*
%TO.C,R3*%
X112440000Y-81610000D03*
X112440000Y-80110000D03*
%TD*%
D36*
%TO.C,C52*%
X103210000Y-56230000D03*
X101210000Y-56230000D03*
%TD*%
D30*
%TO.C,R71*%
X66675000Y-121950000D03*
X68175000Y-121950000D03*
%TD*%
D43*
%TO.C,L5*%
X120640000Y-81480000D03*
X116580000Y-81480000D03*
%TD*%
D28*
%TO.C,R10*%
X123380000Y-90090000D03*
X123380000Y-88590000D03*
%TD*%
M02*
