%TF.GenerationSoftware,KiCad,Pcbnew,10.0.1*%
%TF.CreationDate,2026-06-27T01:13:22+03:00*%
%TF.ProjectId,Orbit Mini Mainboard,4f726269-7420-44d6-996e-69204d61696e,rev?*%
%TF.SameCoordinates,Original*%
%TF.FileFunction,Legend,Bot*%
%TF.FilePolarity,Positive*%
%FSLAX46Y46*%
G04 Gerber Fmt 4.6, Leading zero omitted, Abs format (unit mm)*
G04 Created by KiCad (PCBNEW 10.0.1) date 2026-06-27 01:13:22*
%MOMM*%
%LPD*%
G01*
G04 APERTURE LIST*
%ADD10C,0.100000*%
%ADD11O,1.500000X2.550000*%
%ADD12C,5.400000*%
%ADD13R,1.400000X1.400000*%
%ADD14C,1.400000*%
%ADD15C,0.750000*%
%ADD16O,2.000000X1.200000*%
%ADD17O,1.800000X1.200000*%
%ADD18C,0.600000*%
%ADD19C,1.600000*%
%ADD20R,1.700000X1.700000*%
%ADD21C,1.700000*%
%ADD22C,1.800000*%
%ADD23R,1.500000X1.500000*%
%ADD24C,1.500000*%
%ADD25R,1.050000X0.900000*%
%ADD26C,1.040000*%
%ADD27C,1.050000*%
%ADD28R,1.800000X1.575000*%
G04 APERTURE END LIST*
D10*
X132418734Y-135961984D02*
X131942544Y-135961984D01*
X132513972Y-136247699D02*
X132180639Y-135247699D01*
X132180639Y-135247699D02*
X131847306Y-136247699D01*
X131513972Y-136247699D02*
X131513972Y-135247699D01*
X130275877Y-135723889D02*
X129942544Y-135723889D01*
X129799687Y-136247699D02*
X130275877Y-136247699D01*
X130275877Y-136247699D02*
X130275877Y-135247699D01*
X130275877Y-135247699D02*
X129799687Y-135247699D01*
X129371115Y-136247699D02*
X129371115Y-135247699D01*
X129371115Y-135247699D02*
X129133020Y-135247699D01*
X129133020Y-135247699D02*
X128990163Y-135295318D01*
X128990163Y-135295318D02*
X128894925Y-135390556D01*
X128894925Y-135390556D02*
X128847306Y-135485794D01*
X128847306Y-135485794D02*
X128799687Y-135676270D01*
X128799687Y-135676270D02*
X128799687Y-135819127D01*
X128799687Y-135819127D02*
X128847306Y-136009603D01*
X128847306Y-136009603D02*
X128894925Y-136104841D01*
X128894925Y-136104841D02*
X128990163Y-136200080D01*
X128990163Y-136200080D02*
X129133020Y-136247699D01*
X129133020Y-136247699D02*
X129371115Y-136247699D01*
X128371115Y-135247699D02*
X128371115Y-136057222D01*
X128371115Y-136057222D02*
X128323496Y-136152460D01*
X128323496Y-136152460D02*
X128275877Y-136200080D01*
X128275877Y-136200080D02*
X128180639Y-136247699D01*
X128180639Y-136247699D02*
X127990163Y-136247699D01*
X127990163Y-136247699D02*
X127894925Y-136200080D01*
X127894925Y-136200080D02*
X127847306Y-136152460D01*
X127847306Y-136152460D02*
X127799687Y-136057222D01*
X127799687Y-136057222D02*
X127799687Y-135247699D01*
X126752068Y-136152460D02*
X126799687Y-136200080D01*
X126799687Y-136200080D02*
X126942544Y-136247699D01*
X126942544Y-136247699D02*
X127037782Y-136247699D01*
X127037782Y-136247699D02*
X127180639Y-136200080D01*
X127180639Y-136200080D02*
X127275877Y-136104841D01*
X127275877Y-136104841D02*
X127323496Y-136009603D01*
X127323496Y-136009603D02*
X127371115Y-135819127D01*
X127371115Y-135819127D02*
X127371115Y-135676270D01*
X127371115Y-135676270D02*
X127323496Y-135485794D01*
X127323496Y-135485794D02*
X127275877Y-135390556D01*
X127275877Y-135390556D02*
X127180639Y-135295318D01*
X127180639Y-135295318D02*
X127037782Y-135247699D01*
X127037782Y-135247699D02*
X126942544Y-135247699D01*
X126942544Y-135247699D02*
X126799687Y-135295318D01*
X126799687Y-135295318D02*
X126752068Y-135342937D01*
X126371115Y-135961984D02*
X125894925Y-135961984D01*
X126466353Y-136247699D02*
X126133020Y-135247699D01*
X126133020Y-135247699D02*
X125799687Y-136247699D01*
X125609210Y-135247699D02*
X125037782Y-135247699D01*
X125323496Y-136247699D02*
X125323496Y-135247699D01*
X124704448Y-136247699D02*
X124704448Y-135247699D01*
X124037782Y-135247699D02*
X123847306Y-135247699D01*
X123847306Y-135247699D02*
X123752068Y-135295318D01*
X123752068Y-135295318D02*
X123656830Y-135390556D01*
X123656830Y-135390556D02*
X123609211Y-135581032D01*
X123609211Y-135581032D02*
X123609211Y-135914365D01*
X123609211Y-135914365D02*
X123656830Y-136104841D01*
X123656830Y-136104841D02*
X123752068Y-136200080D01*
X123752068Y-136200080D02*
X123847306Y-136247699D01*
X123847306Y-136247699D02*
X124037782Y-136247699D01*
X124037782Y-136247699D02*
X124133020Y-136200080D01*
X124133020Y-136200080D02*
X124228258Y-136104841D01*
X124228258Y-136104841D02*
X124275877Y-135914365D01*
X124275877Y-135914365D02*
X124275877Y-135581032D01*
X124275877Y-135581032D02*
X124228258Y-135390556D01*
X124228258Y-135390556D02*
X124133020Y-135295318D01*
X124133020Y-135295318D02*
X124037782Y-135247699D01*
X123180639Y-136247699D02*
X123180639Y-135247699D01*
X123180639Y-135247699D02*
X122609211Y-136247699D01*
X122609211Y-136247699D02*
X122609211Y-135247699D01*
X120799687Y-136247699D02*
X121133020Y-135771508D01*
X121371115Y-136247699D02*
X121371115Y-135247699D01*
X121371115Y-135247699D02*
X120990163Y-135247699D01*
X120990163Y-135247699D02*
X120894925Y-135295318D01*
X120894925Y-135295318D02*
X120847306Y-135342937D01*
X120847306Y-135342937D02*
X120799687Y-135438175D01*
X120799687Y-135438175D02*
X120799687Y-135581032D01*
X120799687Y-135581032D02*
X120847306Y-135676270D01*
X120847306Y-135676270D02*
X120894925Y-135723889D01*
X120894925Y-135723889D02*
X120990163Y-135771508D01*
X120990163Y-135771508D02*
X121371115Y-135771508D01*
X120180639Y-135247699D02*
X119990163Y-135247699D01*
X119990163Y-135247699D02*
X119894925Y-135295318D01*
X119894925Y-135295318D02*
X119799687Y-135390556D01*
X119799687Y-135390556D02*
X119752068Y-135581032D01*
X119752068Y-135581032D02*
X119752068Y-135914365D01*
X119752068Y-135914365D02*
X119799687Y-136104841D01*
X119799687Y-136104841D02*
X119894925Y-136200080D01*
X119894925Y-136200080D02*
X119990163Y-136247699D01*
X119990163Y-136247699D02*
X120180639Y-136247699D01*
X120180639Y-136247699D02*
X120275877Y-136200080D01*
X120275877Y-136200080D02*
X120371115Y-136104841D01*
X120371115Y-136104841D02*
X120418734Y-135914365D01*
X120418734Y-135914365D02*
X120418734Y-135581032D01*
X120418734Y-135581032D02*
X120371115Y-135390556D01*
X120371115Y-135390556D02*
X120275877Y-135295318D01*
X120275877Y-135295318D02*
X120180639Y-135247699D01*
X118990163Y-135723889D02*
X118847306Y-135771508D01*
X118847306Y-135771508D02*
X118799687Y-135819127D01*
X118799687Y-135819127D02*
X118752068Y-135914365D01*
X118752068Y-135914365D02*
X118752068Y-136057222D01*
X118752068Y-136057222D02*
X118799687Y-136152460D01*
X118799687Y-136152460D02*
X118847306Y-136200080D01*
X118847306Y-136200080D02*
X118942544Y-136247699D01*
X118942544Y-136247699D02*
X119323496Y-136247699D01*
X119323496Y-136247699D02*
X119323496Y-135247699D01*
X119323496Y-135247699D02*
X118990163Y-135247699D01*
X118990163Y-135247699D02*
X118894925Y-135295318D01*
X118894925Y-135295318D02*
X118847306Y-135342937D01*
X118847306Y-135342937D02*
X118799687Y-135438175D01*
X118799687Y-135438175D02*
X118799687Y-135533413D01*
X118799687Y-135533413D02*
X118847306Y-135628651D01*
X118847306Y-135628651D02*
X118894925Y-135676270D01*
X118894925Y-135676270D02*
X118990163Y-135723889D01*
X118990163Y-135723889D02*
X119323496Y-135723889D01*
X118133020Y-135247699D02*
X117942544Y-135247699D01*
X117942544Y-135247699D02*
X117847306Y-135295318D01*
X117847306Y-135295318D02*
X117752068Y-135390556D01*
X117752068Y-135390556D02*
X117704449Y-135581032D01*
X117704449Y-135581032D02*
X117704449Y-135914365D01*
X117704449Y-135914365D02*
X117752068Y-136104841D01*
X117752068Y-136104841D02*
X117847306Y-136200080D01*
X117847306Y-136200080D02*
X117942544Y-136247699D01*
X117942544Y-136247699D02*
X118133020Y-136247699D01*
X118133020Y-136247699D02*
X118228258Y-136200080D01*
X118228258Y-136200080D02*
X118323496Y-136104841D01*
X118323496Y-136104841D02*
X118371115Y-135914365D01*
X118371115Y-135914365D02*
X118371115Y-135581032D01*
X118371115Y-135581032D02*
X118323496Y-135390556D01*
X118323496Y-135390556D02*
X118228258Y-135295318D01*
X118228258Y-135295318D02*
X118133020Y-135247699D01*
X117418734Y-135247699D02*
X116847306Y-135247699D01*
X117133020Y-136247699D02*
X117133020Y-135247699D01*
X131799687Y-137762404D02*
X131847306Y-137810024D01*
X131847306Y-137810024D02*
X131990163Y-137857643D01*
X131990163Y-137857643D02*
X132085401Y-137857643D01*
X132085401Y-137857643D02*
X132228258Y-137810024D01*
X132228258Y-137810024D02*
X132323496Y-137714785D01*
X132323496Y-137714785D02*
X132371115Y-137619547D01*
X132371115Y-137619547D02*
X132418734Y-137429071D01*
X132418734Y-137429071D02*
X132418734Y-137286214D01*
X132418734Y-137286214D02*
X132371115Y-137095738D01*
X132371115Y-137095738D02*
X132323496Y-137000500D01*
X132323496Y-137000500D02*
X132228258Y-136905262D01*
X132228258Y-136905262D02*
X132085401Y-136857643D01*
X132085401Y-136857643D02*
X131990163Y-136857643D01*
X131990163Y-136857643D02*
X131847306Y-136905262D01*
X131847306Y-136905262D02*
X131799687Y-136952881D01*
X131371115Y-137857643D02*
X131371115Y-136857643D01*
X131371115Y-136857643D02*
X131037782Y-137571928D01*
X131037782Y-137571928D02*
X130704449Y-136857643D01*
X130704449Y-136857643D02*
X130704449Y-137857643D01*
X129752068Y-136857643D02*
X130228258Y-136857643D01*
X130228258Y-136857643D02*
X130275877Y-137333833D01*
X130275877Y-137333833D02*
X130228258Y-137286214D01*
X130228258Y-137286214D02*
X130133020Y-137238595D01*
X130133020Y-137238595D02*
X129894925Y-137238595D01*
X129894925Y-137238595D02*
X129799687Y-137286214D01*
X129799687Y-137286214D02*
X129752068Y-137333833D01*
X129752068Y-137333833D02*
X129704449Y-137429071D01*
X129704449Y-137429071D02*
X129704449Y-137667166D01*
X129704449Y-137667166D02*
X129752068Y-137762404D01*
X129752068Y-137762404D02*
X129799687Y-137810024D01*
X129799687Y-137810024D02*
X129894925Y-137857643D01*
X129894925Y-137857643D02*
X130133020Y-137857643D01*
X130133020Y-137857643D02*
X130228258Y-137810024D01*
X130228258Y-137810024D02*
X130275877Y-137762404D01*
X127942544Y-137762404D02*
X127990163Y-137810024D01*
X127990163Y-137810024D02*
X128133020Y-137857643D01*
X128133020Y-137857643D02*
X128228258Y-137857643D01*
X128228258Y-137857643D02*
X128371115Y-137810024D01*
X128371115Y-137810024D02*
X128466353Y-137714785D01*
X128466353Y-137714785D02*
X128513972Y-137619547D01*
X128513972Y-137619547D02*
X128561591Y-137429071D01*
X128561591Y-137429071D02*
X128561591Y-137286214D01*
X128561591Y-137286214D02*
X128513972Y-137095738D01*
X128513972Y-137095738D02*
X128466353Y-137000500D01*
X128466353Y-137000500D02*
X128371115Y-136905262D01*
X128371115Y-136905262D02*
X128228258Y-136857643D01*
X128228258Y-136857643D02*
X128133020Y-136857643D01*
X128133020Y-136857643D02*
X127990163Y-136905262D01*
X127990163Y-136905262D02*
X127942544Y-136952881D01*
X127561591Y-137571928D02*
X127085401Y-137571928D01*
X127656829Y-137857643D02*
X127323496Y-136857643D01*
X127323496Y-136857643D02*
X126990163Y-137857643D01*
X126085401Y-137857643D02*
X126418734Y-137381452D01*
X126656829Y-137857643D02*
X126656829Y-136857643D01*
X126656829Y-136857643D02*
X126275877Y-136857643D01*
X126275877Y-136857643D02*
X126180639Y-136905262D01*
X126180639Y-136905262D02*
X126133020Y-136952881D01*
X126133020Y-136952881D02*
X126085401Y-137048119D01*
X126085401Y-137048119D02*
X126085401Y-137190976D01*
X126085401Y-137190976D02*
X126133020Y-137286214D01*
X126133020Y-137286214D02*
X126180639Y-137333833D01*
X126180639Y-137333833D02*
X126275877Y-137381452D01*
X126275877Y-137381452D02*
X126656829Y-137381452D01*
X125085401Y-137857643D02*
X125418734Y-137381452D01*
X125656829Y-137857643D02*
X125656829Y-136857643D01*
X125656829Y-136857643D02*
X125275877Y-136857643D01*
X125275877Y-136857643D02*
X125180639Y-136905262D01*
X125180639Y-136905262D02*
X125133020Y-136952881D01*
X125133020Y-136952881D02*
X125085401Y-137048119D01*
X125085401Y-137048119D02*
X125085401Y-137190976D01*
X125085401Y-137190976D02*
X125133020Y-137286214D01*
X125133020Y-137286214D02*
X125180639Y-137333833D01*
X125180639Y-137333833D02*
X125275877Y-137381452D01*
X125275877Y-137381452D02*
X125656829Y-137381452D01*
X124656829Y-137857643D02*
X124656829Y-136857643D01*
X124180639Y-137333833D02*
X123847306Y-137333833D01*
X123704449Y-137857643D02*
X124180639Y-137857643D01*
X124180639Y-137857643D02*
X124180639Y-136857643D01*
X124180639Y-136857643D02*
X123704449Y-136857643D01*
X122704449Y-137857643D02*
X123037782Y-137381452D01*
X123275877Y-137857643D02*
X123275877Y-136857643D01*
X123275877Y-136857643D02*
X122894925Y-136857643D01*
X122894925Y-136857643D02*
X122799687Y-136905262D01*
X122799687Y-136905262D02*
X122752068Y-136952881D01*
X122752068Y-136952881D02*
X122704449Y-137048119D01*
X122704449Y-137048119D02*
X122704449Y-137190976D01*
X122704449Y-137190976D02*
X122752068Y-137286214D01*
X122752068Y-137286214D02*
X122799687Y-137333833D01*
X122799687Y-137333833D02*
X122894925Y-137381452D01*
X122894925Y-137381452D02*
X123275877Y-137381452D01*
X121180639Y-137333833D02*
X121037782Y-137381452D01*
X121037782Y-137381452D02*
X120990163Y-137429071D01*
X120990163Y-137429071D02*
X120942544Y-137524309D01*
X120942544Y-137524309D02*
X120942544Y-137667166D01*
X120942544Y-137667166D02*
X120990163Y-137762404D01*
X120990163Y-137762404D02*
X121037782Y-137810024D01*
X121037782Y-137810024D02*
X121133020Y-137857643D01*
X121133020Y-137857643D02*
X121513972Y-137857643D01*
X121513972Y-137857643D02*
X121513972Y-136857643D01*
X121513972Y-136857643D02*
X121180639Y-136857643D01*
X121180639Y-136857643D02*
X121085401Y-136905262D01*
X121085401Y-136905262D02*
X121037782Y-136952881D01*
X121037782Y-136952881D02*
X120990163Y-137048119D01*
X120990163Y-137048119D02*
X120990163Y-137143357D01*
X120990163Y-137143357D02*
X121037782Y-137238595D01*
X121037782Y-137238595D02*
X121085401Y-137286214D01*
X121085401Y-137286214D02*
X121180639Y-137333833D01*
X121180639Y-137333833D02*
X121513972Y-137333833D01*
X120323496Y-136857643D02*
X120133020Y-136857643D01*
X120133020Y-136857643D02*
X120037782Y-136905262D01*
X120037782Y-136905262D02*
X119942544Y-137000500D01*
X119942544Y-137000500D02*
X119894925Y-137190976D01*
X119894925Y-137190976D02*
X119894925Y-137524309D01*
X119894925Y-137524309D02*
X119942544Y-137714785D01*
X119942544Y-137714785D02*
X120037782Y-137810024D01*
X120037782Y-137810024D02*
X120133020Y-137857643D01*
X120133020Y-137857643D02*
X120323496Y-137857643D01*
X120323496Y-137857643D02*
X120418734Y-137810024D01*
X120418734Y-137810024D02*
X120513972Y-137714785D01*
X120513972Y-137714785D02*
X120561591Y-137524309D01*
X120561591Y-137524309D02*
X120561591Y-137190976D01*
X120561591Y-137190976D02*
X120513972Y-137000500D01*
X120513972Y-137000500D02*
X120418734Y-136905262D01*
X120418734Y-136905262D02*
X120323496Y-136857643D01*
X119513972Y-137571928D02*
X119037782Y-137571928D01*
X119609210Y-137857643D02*
X119275877Y-136857643D01*
X119275877Y-136857643D02*
X118942544Y-137857643D01*
X118037782Y-137857643D02*
X118371115Y-137381452D01*
X118609210Y-137857643D02*
X118609210Y-136857643D01*
X118609210Y-136857643D02*
X118228258Y-136857643D01*
X118228258Y-136857643D02*
X118133020Y-136905262D01*
X118133020Y-136905262D02*
X118085401Y-136952881D01*
X118085401Y-136952881D02*
X118037782Y-137048119D01*
X118037782Y-137048119D02*
X118037782Y-137190976D01*
X118037782Y-137190976D02*
X118085401Y-137286214D01*
X118085401Y-137286214D02*
X118133020Y-137333833D01*
X118133020Y-137333833D02*
X118228258Y-137381452D01*
X118228258Y-137381452D02*
X118609210Y-137381452D01*
X117609210Y-137857643D02*
X117609210Y-136857643D01*
X117609210Y-136857643D02*
X117371115Y-136857643D01*
X117371115Y-136857643D02*
X117228258Y-136905262D01*
X117228258Y-136905262D02*
X117133020Y-137000500D01*
X117133020Y-137000500D02*
X117085401Y-137095738D01*
X117085401Y-137095738D02*
X117037782Y-137286214D01*
X117037782Y-137286214D02*
X117037782Y-137429071D01*
X117037782Y-137429071D02*
X117085401Y-137619547D01*
X117085401Y-137619547D02*
X117133020Y-137714785D01*
X117133020Y-137714785D02*
X117228258Y-137810024D01*
X117228258Y-137810024D02*
X117371115Y-137857643D01*
X117371115Y-137857643D02*
X117609210Y-137857643D01*
X132371115Y-139467587D02*
X132371115Y-138467587D01*
X132371115Y-138467587D02*
X131990163Y-138467587D01*
X131990163Y-138467587D02*
X131894925Y-138515206D01*
X131894925Y-138515206D02*
X131847306Y-138562825D01*
X131847306Y-138562825D02*
X131799687Y-138658063D01*
X131799687Y-138658063D02*
X131799687Y-138800920D01*
X131799687Y-138800920D02*
X131847306Y-138896158D01*
X131847306Y-138896158D02*
X131894925Y-138943777D01*
X131894925Y-138943777D02*
X131990163Y-138991396D01*
X131990163Y-138991396D02*
X132371115Y-138991396D01*
X131180639Y-138467587D02*
X130990163Y-138467587D01*
X130990163Y-138467587D02*
X130894925Y-138515206D01*
X130894925Y-138515206D02*
X130799687Y-138610444D01*
X130799687Y-138610444D02*
X130752068Y-138800920D01*
X130752068Y-138800920D02*
X130752068Y-139134253D01*
X130752068Y-139134253D02*
X130799687Y-139324729D01*
X130799687Y-139324729D02*
X130894925Y-139419968D01*
X130894925Y-139419968D02*
X130990163Y-139467587D01*
X130990163Y-139467587D02*
X131180639Y-139467587D01*
X131180639Y-139467587D02*
X131275877Y-139419968D01*
X131275877Y-139419968D02*
X131371115Y-139324729D01*
X131371115Y-139324729D02*
X131418734Y-139134253D01*
X131418734Y-139134253D02*
X131418734Y-138800920D01*
X131418734Y-138800920D02*
X131371115Y-138610444D01*
X131371115Y-138610444D02*
X131275877Y-138515206D01*
X131275877Y-138515206D02*
X131180639Y-138467587D01*
X130418734Y-138467587D02*
X130180639Y-139467587D01*
X130180639Y-139467587D02*
X129990163Y-138753301D01*
X129990163Y-138753301D02*
X129799687Y-139467587D01*
X129799687Y-139467587D02*
X129561592Y-138467587D01*
X129180639Y-138943777D02*
X128847306Y-138943777D01*
X128704449Y-139467587D02*
X129180639Y-139467587D01*
X129180639Y-139467587D02*
X129180639Y-138467587D01*
X129180639Y-138467587D02*
X128704449Y-138467587D01*
X127704449Y-139467587D02*
X128037782Y-138991396D01*
X128275877Y-139467587D02*
X128275877Y-138467587D01*
X128275877Y-138467587D02*
X127894925Y-138467587D01*
X127894925Y-138467587D02*
X127799687Y-138515206D01*
X127799687Y-138515206D02*
X127752068Y-138562825D01*
X127752068Y-138562825D02*
X127704449Y-138658063D01*
X127704449Y-138658063D02*
X127704449Y-138800920D01*
X127704449Y-138800920D02*
X127752068Y-138896158D01*
X127752068Y-138896158D02*
X127799687Y-138943777D01*
X127799687Y-138943777D02*
X127894925Y-138991396D01*
X127894925Y-138991396D02*
X128275877Y-138991396D01*
X126228258Y-138991396D02*
X126228258Y-139181872D01*
X126180639Y-139181872D02*
X126180639Y-138991396D01*
X126133020Y-138943777D02*
X126133020Y-139229491D01*
X126085401Y-139181872D02*
X126085401Y-138991396D01*
X126037782Y-138991396D02*
X126037782Y-139181872D01*
X126228258Y-139134253D02*
X126133020Y-139229491D01*
X126133020Y-139229491D02*
X126037782Y-139134253D01*
X126228258Y-139039015D02*
X126133020Y-138943777D01*
X126133020Y-138943777D02*
X126037782Y-139039015D01*
X126228258Y-138991396D02*
X126133020Y-138943777D01*
X126133020Y-138943777D02*
X126037782Y-138991396D01*
X126037782Y-138991396D02*
X125990163Y-139086634D01*
X125990163Y-139086634D02*
X126037782Y-139181872D01*
X126037782Y-139181872D02*
X126133020Y-139229491D01*
X126133020Y-139229491D02*
X126228258Y-139181872D01*
X126228258Y-139181872D02*
X126275877Y-139086634D01*
X126275877Y-139086634D02*
X126228258Y-138991396D01*
X124656829Y-138467587D02*
X124323496Y-139467587D01*
X124323496Y-139467587D02*
X123990163Y-138467587D01*
X123656829Y-139467587D02*
X123656829Y-138467587D01*
X123228258Y-139419968D02*
X123085401Y-139467587D01*
X123085401Y-139467587D02*
X122847306Y-139467587D01*
X122847306Y-139467587D02*
X122752068Y-139419968D01*
X122752068Y-139419968D02*
X122704449Y-139372348D01*
X122704449Y-139372348D02*
X122656830Y-139277110D01*
X122656830Y-139277110D02*
X122656830Y-139181872D01*
X122656830Y-139181872D02*
X122704449Y-139086634D01*
X122704449Y-139086634D02*
X122752068Y-139039015D01*
X122752068Y-139039015D02*
X122847306Y-138991396D01*
X122847306Y-138991396D02*
X123037782Y-138943777D01*
X123037782Y-138943777D02*
X123133020Y-138896158D01*
X123133020Y-138896158D02*
X123180639Y-138848539D01*
X123180639Y-138848539D02*
X123228258Y-138753301D01*
X123228258Y-138753301D02*
X123228258Y-138658063D01*
X123228258Y-138658063D02*
X123180639Y-138562825D01*
X123180639Y-138562825D02*
X123133020Y-138515206D01*
X123133020Y-138515206D02*
X123037782Y-138467587D01*
X123037782Y-138467587D02*
X122799687Y-138467587D01*
X122799687Y-138467587D02*
X122656830Y-138515206D01*
X122228258Y-139467587D02*
X122228258Y-138467587D01*
X121561592Y-138467587D02*
X121371116Y-138467587D01*
X121371116Y-138467587D02*
X121275878Y-138515206D01*
X121275878Y-138515206D02*
X121180640Y-138610444D01*
X121180640Y-138610444D02*
X121133021Y-138800920D01*
X121133021Y-138800920D02*
X121133021Y-139134253D01*
X121133021Y-139134253D02*
X121180640Y-139324729D01*
X121180640Y-139324729D02*
X121275878Y-139419968D01*
X121275878Y-139419968D02*
X121371116Y-139467587D01*
X121371116Y-139467587D02*
X121561592Y-139467587D01*
X121561592Y-139467587D02*
X121656830Y-139419968D01*
X121656830Y-139419968D02*
X121752068Y-139324729D01*
X121752068Y-139324729D02*
X121799687Y-139134253D01*
X121799687Y-139134253D02*
X121799687Y-138800920D01*
X121799687Y-138800920D02*
X121752068Y-138610444D01*
X121752068Y-138610444D02*
X121656830Y-138515206D01*
X121656830Y-138515206D02*
X121561592Y-138467587D01*
X120704449Y-139467587D02*
X120704449Y-138467587D01*
X120704449Y-138467587D02*
X120133021Y-139467587D01*
X120133021Y-139467587D02*
X120133021Y-138467587D01*
X118609211Y-138991396D02*
X118609211Y-139181872D01*
X118561592Y-139181872D02*
X118561592Y-138991396D01*
X118513973Y-138943777D02*
X118513973Y-139229491D01*
X118466354Y-139181872D02*
X118466354Y-138991396D01*
X118418735Y-138991396D02*
X118418735Y-139181872D01*
X118609211Y-139134253D02*
X118513973Y-139229491D01*
X118513973Y-139229491D02*
X118418735Y-139134253D01*
X118609211Y-139039015D02*
X118513973Y-138943777D01*
X118513973Y-138943777D02*
X118418735Y-139039015D01*
X118609211Y-138991396D02*
X118513973Y-138943777D01*
X118513973Y-138943777D02*
X118418735Y-138991396D01*
X118418735Y-138991396D02*
X118371116Y-139086634D01*
X118371116Y-139086634D02*
X118418735Y-139181872D01*
X118418735Y-139181872D02*
X118513973Y-139229491D01*
X118513973Y-139229491D02*
X118609211Y-139181872D01*
X118609211Y-139181872D02*
X118656830Y-139086634D01*
X118656830Y-139086634D02*
X118609211Y-138991396D01*
X116894925Y-139467587D02*
X116894925Y-138467587D01*
X116894925Y-138467587D02*
X116561592Y-139181872D01*
X116561592Y-139181872D02*
X116228259Y-138467587D01*
X116228259Y-138467587D02*
X116228259Y-139467587D01*
X115561592Y-138467587D02*
X115371116Y-138467587D01*
X115371116Y-138467587D02*
X115275878Y-138515206D01*
X115275878Y-138515206D02*
X115180640Y-138610444D01*
X115180640Y-138610444D02*
X115133021Y-138800920D01*
X115133021Y-138800920D02*
X115133021Y-139134253D01*
X115133021Y-139134253D02*
X115180640Y-139324729D01*
X115180640Y-139324729D02*
X115275878Y-139419968D01*
X115275878Y-139419968D02*
X115371116Y-139467587D01*
X115371116Y-139467587D02*
X115561592Y-139467587D01*
X115561592Y-139467587D02*
X115656830Y-139419968D01*
X115656830Y-139419968D02*
X115752068Y-139324729D01*
X115752068Y-139324729D02*
X115799687Y-139134253D01*
X115799687Y-139134253D02*
X115799687Y-138800920D01*
X115799687Y-138800920D02*
X115752068Y-138610444D01*
X115752068Y-138610444D02*
X115656830Y-138515206D01*
X115656830Y-138515206D02*
X115561592Y-138467587D01*
X114847306Y-138467587D02*
X114275878Y-138467587D01*
X114561592Y-139467587D02*
X114561592Y-138467587D01*
X113942544Y-139467587D02*
X113942544Y-138467587D01*
X113275878Y-138467587D02*
X113085402Y-138467587D01*
X113085402Y-138467587D02*
X112990164Y-138515206D01*
X112990164Y-138515206D02*
X112894926Y-138610444D01*
X112894926Y-138610444D02*
X112847307Y-138800920D01*
X112847307Y-138800920D02*
X112847307Y-139134253D01*
X112847307Y-139134253D02*
X112894926Y-139324729D01*
X112894926Y-139324729D02*
X112990164Y-139419968D01*
X112990164Y-139419968D02*
X113085402Y-139467587D01*
X113085402Y-139467587D02*
X113275878Y-139467587D01*
X113275878Y-139467587D02*
X113371116Y-139419968D01*
X113371116Y-139419968D02*
X113466354Y-139324729D01*
X113466354Y-139324729D02*
X113513973Y-139134253D01*
X113513973Y-139134253D02*
X113513973Y-138800920D01*
X113513973Y-138800920D02*
X113466354Y-138610444D01*
X113466354Y-138610444D02*
X113371116Y-138515206D01*
X113371116Y-138515206D02*
X113275878Y-138467587D01*
X112418735Y-139467587D02*
X112418735Y-138467587D01*
X112418735Y-138467587D02*
X111847307Y-139467587D01*
X111847307Y-139467587D02*
X111847307Y-138467587D01*
X132371115Y-141077531D02*
X132371115Y-140077531D01*
X132371115Y-140077531D02*
X132037782Y-140791816D01*
X132037782Y-140791816D02*
X131704449Y-140077531D01*
X131704449Y-140077531D02*
X131704449Y-141077531D01*
X131228258Y-141077531D02*
X131228258Y-140077531D01*
X130752068Y-141077531D02*
X130752068Y-140077531D01*
X130752068Y-140077531D02*
X130371116Y-140077531D01*
X130371116Y-140077531D02*
X130275878Y-140125150D01*
X130275878Y-140125150D02*
X130228259Y-140172769D01*
X130228259Y-140172769D02*
X130180640Y-140268007D01*
X130180640Y-140268007D02*
X130180640Y-140410864D01*
X130180640Y-140410864D02*
X130228259Y-140506102D01*
X130228259Y-140506102D02*
X130275878Y-140553721D01*
X130275878Y-140553721D02*
X130371116Y-140601340D01*
X130371116Y-140601340D02*
X130752068Y-140601340D01*
X129752068Y-141077531D02*
X129752068Y-140077531D01*
X127942545Y-140982292D02*
X127990164Y-141029912D01*
X127990164Y-141029912D02*
X128133021Y-141077531D01*
X128133021Y-141077531D02*
X128228259Y-141077531D01*
X128228259Y-141077531D02*
X128371116Y-141029912D01*
X128371116Y-141029912D02*
X128466354Y-140934673D01*
X128466354Y-140934673D02*
X128513973Y-140839435D01*
X128513973Y-140839435D02*
X128561592Y-140648959D01*
X128561592Y-140648959D02*
X128561592Y-140506102D01*
X128561592Y-140506102D02*
X128513973Y-140315626D01*
X128513973Y-140315626D02*
X128466354Y-140220388D01*
X128466354Y-140220388D02*
X128371116Y-140125150D01*
X128371116Y-140125150D02*
X128228259Y-140077531D01*
X128228259Y-140077531D02*
X128133021Y-140077531D01*
X128133021Y-140077531D02*
X127990164Y-140125150D01*
X127990164Y-140125150D02*
X127942545Y-140172769D01*
X127561592Y-141029912D02*
X127418735Y-141077531D01*
X127418735Y-141077531D02*
X127180640Y-141077531D01*
X127180640Y-141077531D02*
X127085402Y-141029912D01*
X127085402Y-141029912D02*
X127037783Y-140982292D01*
X127037783Y-140982292D02*
X126990164Y-140887054D01*
X126990164Y-140887054D02*
X126990164Y-140791816D01*
X126990164Y-140791816D02*
X127037783Y-140696578D01*
X127037783Y-140696578D02*
X127085402Y-140648959D01*
X127085402Y-140648959D02*
X127180640Y-140601340D01*
X127180640Y-140601340D02*
X127371116Y-140553721D01*
X127371116Y-140553721D02*
X127466354Y-140506102D01*
X127466354Y-140506102D02*
X127513973Y-140458483D01*
X127513973Y-140458483D02*
X127561592Y-140363245D01*
X127561592Y-140363245D02*
X127561592Y-140268007D01*
X127561592Y-140268007D02*
X127513973Y-140172769D01*
X127513973Y-140172769D02*
X127466354Y-140125150D01*
X127466354Y-140125150D02*
X127371116Y-140077531D01*
X127371116Y-140077531D02*
X127133021Y-140077531D01*
X127133021Y-140077531D02*
X126990164Y-140125150D01*
X126561592Y-141077531D02*
X126561592Y-140077531D01*
X124609212Y-140029912D02*
X125466354Y-141315626D01*
X123513973Y-141077531D02*
X123513973Y-140077531D01*
X123513973Y-140077531D02*
X123275878Y-140077531D01*
X123275878Y-140077531D02*
X123133021Y-140125150D01*
X123133021Y-140125150D02*
X123037783Y-140220388D01*
X123037783Y-140220388D02*
X122990164Y-140315626D01*
X122990164Y-140315626D02*
X122942545Y-140506102D01*
X122942545Y-140506102D02*
X122942545Y-140648959D01*
X122942545Y-140648959D02*
X122990164Y-140839435D01*
X122990164Y-140839435D02*
X123037783Y-140934673D01*
X123037783Y-140934673D02*
X123133021Y-141029912D01*
X123133021Y-141029912D02*
X123275878Y-141077531D01*
X123275878Y-141077531D02*
X123513973Y-141077531D01*
X122561592Y-141029912D02*
X122418735Y-141077531D01*
X122418735Y-141077531D02*
X122180640Y-141077531D01*
X122180640Y-141077531D02*
X122085402Y-141029912D01*
X122085402Y-141029912D02*
X122037783Y-140982292D01*
X122037783Y-140982292D02*
X121990164Y-140887054D01*
X121990164Y-140887054D02*
X121990164Y-140791816D01*
X121990164Y-140791816D02*
X122037783Y-140696578D01*
X122037783Y-140696578D02*
X122085402Y-140648959D01*
X122085402Y-140648959D02*
X122180640Y-140601340D01*
X122180640Y-140601340D02*
X122371116Y-140553721D01*
X122371116Y-140553721D02*
X122466354Y-140506102D01*
X122466354Y-140506102D02*
X122513973Y-140458483D01*
X122513973Y-140458483D02*
X122561592Y-140363245D01*
X122561592Y-140363245D02*
X122561592Y-140268007D01*
X122561592Y-140268007D02*
X122513973Y-140172769D01*
X122513973Y-140172769D02*
X122466354Y-140125150D01*
X122466354Y-140125150D02*
X122371116Y-140077531D01*
X122371116Y-140077531D02*
X122133021Y-140077531D01*
X122133021Y-140077531D02*
X121990164Y-140125150D01*
X121561592Y-141077531D02*
X121561592Y-140077531D01*
X132371115Y-142687475D02*
X132371115Y-141687475D01*
X132371115Y-141687475D02*
X131990163Y-141687475D01*
X131990163Y-141687475D02*
X131894925Y-141735094D01*
X131894925Y-141735094D02*
X131847306Y-141782713D01*
X131847306Y-141782713D02*
X131799687Y-141877951D01*
X131799687Y-141877951D02*
X131799687Y-142020808D01*
X131799687Y-142020808D02*
X131847306Y-142116046D01*
X131847306Y-142116046D02*
X131894925Y-142163665D01*
X131894925Y-142163665D02*
X131990163Y-142211284D01*
X131990163Y-142211284D02*
X132371115Y-142211284D01*
X130799687Y-142592236D02*
X130847306Y-142639856D01*
X130847306Y-142639856D02*
X130990163Y-142687475D01*
X130990163Y-142687475D02*
X131085401Y-142687475D01*
X131085401Y-142687475D02*
X131228258Y-142639856D01*
X131228258Y-142639856D02*
X131323496Y-142544617D01*
X131323496Y-142544617D02*
X131371115Y-142449379D01*
X131371115Y-142449379D02*
X131418734Y-142258903D01*
X131418734Y-142258903D02*
X131418734Y-142116046D01*
X131418734Y-142116046D02*
X131371115Y-141925570D01*
X131371115Y-141925570D02*
X131323496Y-141830332D01*
X131323496Y-141830332D02*
X131228258Y-141735094D01*
X131228258Y-141735094D02*
X131085401Y-141687475D01*
X131085401Y-141687475D02*
X130990163Y-141687475D01*
X130990163Y-141687475D02*
X130847306Y-141735094D01*
X130847306Y-141735094D02*
X130799687Y-141782713D01*
X130371115Y-142687475D02*
X130371115Y-141687475D01*
X129513973Y-142639856D02*
X129609211Y-142687475D01*
X129609211Y-142687475D02*
X129799687Y-142687475D01*
X129799687Y-142687475D02*
X129894925Y-142639856D01*
X129894925Y-142639856D02*
X129942544Y-142544617D01*
X129942544Y-142544617D02*
X129942544Y-142163665D01*
X129942544Y-142163665D02*
X129894925Y-142068427D01*
X129894925Y-142068427D02*
X129799687Y-142020808D01*
X129799687Y-142020808D02*
X129609211Y-142020808D01*
X129609211Y-142020808D02*
X129513973Y-142068427D01*
X129513973Y-142068427D02*
X129466354Y-142163665D01*
X129466354Y-142163665D02*
X129466354Y-142258903D01*
X129466354Y-142258903D02*
X129942544Y-142354141D01*
X128275877Y-142687475D02*
X128275877Y-141687475D01*
X128275877Y-141687475D02*
X127704449Y-142687475D01*
X127704449Y-142687475D02*
X127704449Y-141687475D01*
X127371115Y-141687475D02*
X127037782Y-142687475D01*
X127037782Y-142687475D02*
X126704449Y-141687475D01*
X126371115Y-142687475D02*
X126371115Y-141687475D01*
X126371115Y-141687475D02*
X126037782Y-142401760D01*
X126037782Y-142401760D02*
X125704449Y-141687475D01*
X125704449Y-141687475D02*
X125704449Y-142687475D01*
X124847306Y-142639856D02*
X124942544Y-142687475D01*
X124942544Y-142687475D02*
X125133020Y-142687475D01*
X125133020Y-142687475D02*
X125228258Y-142639856D01*
X125228258Y-142639856D02*
X125275877Y-142544617D01*
X125275877Y-142544617D02*
X125275877Y-142163665D01*
X125275877Y-142163665D02*
X125228258Y-142068427D01*
X125228258Y-142068427D02*
X125133020Y-142020808D01*
X125133020Y-142020808D02*
X124942544Y-142020808D01*
X124942544Y-142020808D02*
X124847306Y-142068427D01*
X124847306Y-142068427D02*
X124799687Y-142163665D01*
X124799687Y-142163665D02*
X124799687Y-142258903D01*
X124799687Y-142258903D02*
X125275877Y-142354141D01*
X132466353Y-143297419D02*
X131847306Y-143297419D01*
X131847306Y-143297419D02*
X132180639Y-143678371D01*
X132180639Y-143678371D02*
X132037782Y-143678371D01*
X132037782Y-143678371D02*
X131942544Y-143725990D01*
X131942544Y-143725990D02*
X131894925Y-143773609D01*
X131894925Y-143773609D02*
X131847306Y-143868847D01*
X131847306Y-143868847D02*
X131847306Y-144106942D01*
X131847306Y-144106942D02*
X131894925Y-144202180D01*
X131894925Y-144202180D02*
X131942544Y-144249800D01*
X131942544Y-144249800D02*
X132037782Y-144297419D01*
X132037782Y-144297419D02*
X132323496Y-144297419D01*
X132323496Y-144297419D02*
X132418734Y-144249800D01*
X132418734Y-144249800D02*
X132466353Y-144202180D01*
X131466353Y-144249800D02*
X131323496Y-144297419D01*
X131323496Y-144297419D02*
X131085401Y-144297419D01*
X131085401Y-144297419D02*
X130990163Y-144249800D01*
X130990163Y-144249800D02*
X130942544Y-144202180D01*
X130942544Y-144202180D02*
X130894925Y-144106942D01*
X130894925Y-144106942D02*
X130894925Y-144011704D01*
X130894925Y-144011704D02*
X130942544Y-143916466D01*
X130942544Y-143916466D02*
X130990163Y-143868847D01*
X130990163Y-143868847D02*
X131085401Y-143821228D01*
X131085401Y-143821228D02*
X131275877Y-143773609D01*
X131275877Y-143773609D02*
X131371115Y-143725990D01*
X131371115Y-143725990D02*
X131418734Y-143678371D01*
X131418734Y-143678371D02*
X131466353Y-143583133D01*
X131466353Y-143583133D02*
X131466353Y-143487895D01*
X131466353Y-143487895D02*
X131418734Y-143392657D01*
X131418734Y-143392657D02*
X131371115Y-143345038D01*
X131371115Y-143345038D02*
X131275877Y-143297419D01*
X131275877Y-143297419D02*
X131037782Y-143297419D01*
X131037782Y-143297419D02*
X130894925Y-143345038D01*
X129228258Y-144297419D02*
X129704448Y-144297419D01*
X129704448Y-144297419D02*
X129704448Y-143297419D01*
X128894924Y-144297419D02*
X128894924Y-143630752D01*
X128894924Y-143297419D02*
X128942543Y-143345038D01*
X128942543Y-143345038D02*
X128894924Y-143392657D01*
X128894924Y-143392657D02*
X128847305Y-143345038D01*
X128847305Y-143345038D02*
X128894924Y-143297419D01*
X128894924Y-143297419D02*
X128894924Y-143392657D01*
X128418734Y-143916466D02*
X127656830Y-143916466D01*
X127180639Y-144297419D02*
X127180639Y-143630752D01*
X127180639Y-143297419D02*
X127228258Y-143345038D01*
X127228258Y-143345038D02*
X127180639Y-143392657D01*
X127180639Y-143392657D02*
X127133020Y-143345038D01*
X127133020Y-143345038D02*
X127180639Y-143297419D01*
X127180639Y-143297419D02*
X127180639Y-143392657D01*
X126561592Y-144297419D02*
X126656830Y-144249800D01*
X126656830Y-144249800D02*
X126704449Y-144202180D01*
X126704449Y-144202180D02*
X126752068Y-144106942D01*
X126752068Y-144106942D02*
X126752068Y-143821228D01*
X126752068Y-143821228D02*
X126704449Y-143725990D01*
X126704449Y-143725990D02*
X126656830Y-143678371D01*
X126656830Y-143678371D02*
X126561592Y-143630752D01*
X126561592Y-143630752D02*
X126418735Y-143630752D01*
X126418735Y-143630752D02*
X126323497Y-143678371D01*
X126323497Y-143678371D02*
X126275878Y-143725990D01*
X126275878Y-143725990D02*
X126228259Y-143821228D01*
X126228259Y-143821228D02*
X126228259Y-144106942D01*
X126228259Y-144106942D02*
X126275878Y-144202180D01*
X126275878Y-144202180D02*
X126323497Y-144249800D01*
X126323497Y-144249800D02*
X126418735Y-144297419D01*
X126418735Y-144297419D02*
X126561592Y-144297419D01*
X125799687Y-143630752D02*
X125799687Y-144297419D01*
X125799687Y-143725990D02*
X125752068Y-143678371D01*
X125752068Y-143678371D02*
X125656830Y-143630752D01*
X125656830Y-143630752D02*
X125513973Y-143630752D01*
X125513973Y-143630752D02*
X125418735Y-143678371D01*
X125418735Y-143678371D02*
X125371116Y-143773609D01*
X125371116Y-143773609D02*
X125371116Y-144297419D01*
X124133020Y-144297419D02*
X124133020Y-143297419D01*
X124133020Y-143297419D02*
X123752068Y-143297419D01*
X123752068Y-143297419D02*
X123656830Y-143345038D01*
X123656830Y-143345038D02*
X123609211Y-143392657D01*
X123609211Y-143392657D02*
X123561592Y-143487895D01*
X123561592Y-143487895D02*
X123561592Y-143630752D01*
X123561592Y-143630752D02*
X123609211Y-143725990D01*
X123609211Y-143725990D02*
X123656830Y-143773609D01*
X123656830Y-143773609D02*
X123752068Y-143821228D01*
X123752068Y-143821228D02*
X124133020Y-143821228D01*
X122990163Y-144297419D02*
X123085401Y-144249800D01*
X123085401Y-144249800D02*
X123133020Y-144202180D01*
X123133020Y-144202180D02*
X123180639Y-144106942D01*
X123180639Y-144106942D02*
X123180639Y-143821228D01*
X123180639Y-143821228D02*
X123133020Y-143725990D01*
X123133020Y-143725990D02*
X123085401Y-143678371D01*
X123085401Y-143678371D02*
X122990163Y-143630752D01*
X122990163Y-143630752D02*
X122847306Y-143630752D01*
X122847306Y-143630752D02*
X122752068Y-143678371D01*
X122752068Y-143678371D02*
X122704449Y-143725990D01*
X122704449Y-143725990D02*
X122656830Y-143821228D01*
X122656830Y-143821228D02*
X122656830Y-144106942D01*
X122656830Y-144106942D02*
X122704449Y-144202180D01*
X122704449Y-144202180D02*
X122752068Y-144249800D01*
X122752068Y-144249800D02*
X122847306Y-144297419D01*
X122847306Y-144297419D02*
X122990163Y-144297419D01*
X122323496Y-143630752D02*
X122133020Y-144297419D01*
X122133020Y-144297419D02*
X121942544Y-143821228D01*
X121942544Y-143821228D02*
X121752068Y-144297419D01*
X121752068Y-144297419D02*
X121561592Y-143630752D01*
X120799687Y-144249800D02*
X120894925Y-144297419D01*
X120894925Y-144297419D02*
X121085401Y-144297419D01*
X121085401Y-144297419D02*
X121180639Y-144249800D01*
X121180639Y-144249800D02*
X121228258Y-144154561D01*
X121228258Y-144154561D02*
X121228258Y-143773609D01*
X121228258Y-143773609D02*
X121180639Y-143678371D01*
X121180639Y-143678371D02*
X121085401Y-143630752D01*
X121085401Y-143630752D02*
X120894925Y-143630752D01*
X120894925Y-143630752D02*
X120799687Y-143678371D01*
X120799687Y-143678371D02*
X120752068Y-143773609D01*
X120752068Y-143773609D02*
X120752068Y-143868847D01*
X120752068Y-143868847D02*
X121228258Y-143964085D01*
X120323496Y-144297419D02*
X120323496Y-143630752D01*
X120323496Y-143821228D02*
X120275877Y-143725990D01*
X120275877Y-143725990D02*
X120228258Y-143678371D01*
X120228258Y-143678371D02*
X120133020Y-143630752D01*
X120133020Y-143630752D02*
X120037782Y-143630752D01*
X118942543Y-144297419D02*
X118942543Y-143297419D01*
X118942543Y-143297419D02*
X118561591Y-143297419D01*
X118561591Y-143297419D02*
X118466353Y-143345038D01*
X118466353Y-143345038D02*
X118418734Y-143392657D01*
X118418734Y-143392657D02*
X118371115Y-143487895D01*
X118371115Y-143487895D02*
X118371115Y-143630752D01*
X118371115Y-143630752D02*
X118418734Y-143725990D01*
X118418734Y-143725990D02*
X118466353Y-143773609D01*
X118466353Y-143773609D02*
X118561591Y-143821228D01*
X118561591Y-143821228D02*
X118942543Y-143821228D01*
X117513972Y-144297419D02*
X117513972Y-143773609D01*
X117513972Y-143773609D02*
X117561591Y-143678371D01*
X117561591Y-143678371D02*
X117656829Y-143630752D01*
X117656829Y-143630752D02*
X117847305Y-143630752D01*
X117847305Y-143630752D02*
X117942543Y-143678371D01*
X117513972Y-144249800D02*
X117609210Y-144297419D01*
X117609210Y-144297419D02*
X117847305Y-144297419D01*
X117847305Y-144297419D02*
X117942543Y-144249800D01*
X117942543Y-144249800D02*
X117990162Y-144154561D01*
X117990162Y-144154561D02*
X117990162Y-144059323D01*
X117990162Y-144059323D02*
X117942543Y-143964085D01*
X117942543Y-143964085D02*
X117847305Y-143916466D01*
X117847305Y-143916466D02*
X117609210Y-143916466D01*
X117609210Y-143916466D02*
X117513972Y-143868847D01*
X117180638Y-143630752D02*
X116799686Y-143630752D01*
X117037781Y-143297419D02*
X117037781Y-144154561D01*
X117037781Y-144154561D02*
X116990162Y-144249800D01*
X116990162Y-144249800D02*
X116894924Y-144297419D01*
X116894924Y-144297419D02*
X116799686Y-144297419D01*
X116466352Y-144297419D02*
X116466352Y-143297419D01*
X116037781Y-144297419D02*
X116037781Y-143773609D01*
X116037781Y-143773609D02*
X116085400Y-143678371D01*
X116085400Y-143678371D02*
X116180638Y-143630752D01*
X116180638Y-143630752D02*
X116323495Y-143630752D01*
X116323495Y-143630752D02*
X116418733Y-143678371D01*
X116418733Y-143678371D02*
X116466352Y-143725990D01*
%LPC*%
D11*
%TO.C,USB3*%
X98000000Y-47685000D03*
X104200000Y-47685000D03*
%TD*%
D12*
%TO.C,H12*%
X135450000Y-146725000D03*
%TD*%
D13*
%TO.C,U18*%
X66790000Y-101500000D03*
D14*
X66790000Y-99500000D03*
X66790000Y-97500000D03*
X66790000Y-95500000D03*
%TD*%
D15*
%TO.C,USBC2*%
X65257456Y-135275000D03*
X65257456Y-141075000D03*
D16*
X65757456Y-142505000D03*
D17*
X61577456Y-142505000D03*
X61577456Y-133845000D03*
D16*
X65757456Y-133845000D03*
%TD*%
D18*
%TO.C,U10*%
X79400000Y-135100000D03*
X78400000Y-135100000D03*
X79400000Y-136100000D03*
X78400000Y-136100000D03*
%TD*%
D19*
%TO.C,CN7*%
X60920000Y-75900000D03*
X60920000Y-73900000D03*
%TD*%
D12*
%TO.C,H2*%
X62000000Y-48275000D03*
%TD*%
D20*
%TO.C,U22*%
X73435000Y-128780000D03*
D21*
X73435000Y-131320000D03*
X70895000Y-128780000D03*
X70895000Y-131320000D03*
X68355000Y-128780000D03*
X68355000Y-131320000D03*
X65815000Y-128780000D03*
X65815000Y-131320000D03*
%TD*%
D12*
%TO.C,H5*%
X123270000Y-101870000D03*
%TD*%
D22*
%TO.C,CN11*%
X110567500Y-146740000D03*
X113067500Y-146740000D03*
%TD*%
D23*
%TO.C,CN3*%
X136225000Y-108100000D03*
D24*
X136225000Y-110100000D03*
X136225000Y-112100000D03*
%TD*%
D12*
%TO.C,H10*%
X135450000Y-48275000D03*
%TD*%
%TO.C,H4*%
X75260000Y-68870000D03*
%TD*%
%TO.C,H11*%
X62000000Y-146725000D03*
%TD*%
D13*
%TO.C,U2*%
X61050000Y-101500000D03*
D14*
X61050000Y-99500000D03*
X61050000Y-97500000D03*
X61050000Y-95500000D03*
%TD*%
D12*
%TO.C,H6*%
X123270000Y-68870000D03*
%TD*%
D22*
%TO.C,CN8*%
X126477500Y-146740000D03*
X128977500Y-146740000D03*
%TD*%
D25*
%TO.C,CN1*%
X60660000Y-90260000D03*
D26*
X60660000Y-89010000D03*
D27*
X60660000Y-87760000D03*
D26*
X60660000Y-86500000D03*
X60660000Y-85260000D03*
X60660000Y-84010000D03*
X60660000Y-82750000D03*
X60660000Y-81500000D03*
%TD*%
D28*
%TO.C,H3*%
X129775000Y-107450000D03*
D22*
X129775000Y-109990000D03*
X129775000Y-112530000D03*
%TD*%
D19*
%TO.C,CN2*%
X60700000Y-131125000D03*
X60700000Y-129125000D03*
%TD*%
D12*
%TO.C,H9*%
X75270000Y-101870000D03*
%TD*%
D22*
%TO.C,CN9*%
X134800000Y-137630000D03*
X134800000Y-140130000D03*
%TD*%
%LPD*%
M02*
