%TF.GenerationSoftware,KiCad,Pcbnew,10.0.1*%
%TF.CreationDate,2026-05-22T20:49:39+03:00*%
%TF.ProjectId,Orbit Mini Mainboard,4f726269-7420-44d6-996e-69204d61696e,rev?*%
%TF.SameCoordinates,Original*%
%TF.FileFunction,Legend,Top*%
%TF.FilePolarity,Positive*%
%FSLAX46Y46*%
G04 Gerber Fmt 4.6, Leading zero omitted, Abs format (unit mm)*
G04 Created by KiCad (PCBNEW 10.0.1) date 2026-05-22 20:49:39*
%MOMM*%
%LPD*%
G01*
G04 APERTURE LIST*
G04 Aperture macros list*
%AMRoundRect*
0 Rectangle with rounded corners*
0 $1 Rounding radius*
0 $2 $3 $4 $5 $6 $7 $8 $9 X,Y pos of 4 corners*
0 Add a 4 corners polygon primitive as box body*
4,1,4,$2,$3,$4,$5,$6,$7,$8,$9,$2,$3,0*
0 Add four circle primitives for the rounded corners*
1,1,$1+$1,$2,$3*
1,1,$1+$1,$4,$5*
1,1,$1+$1,$6,$7*
1,1,$1+$1,$8,$9*
0 Add four rect primitives between the rounded corners*
20,1,$1+$1,$2,$3,$4,$5,0*
20,1,$1+$1,$4,$5,$6,$7,0*
20,1,$1+$1,$6,$7,$8,$9,0*
20,1,$1+$1,$8,$9,$2,$3,0*%
%AMFreePoly0*
4,1,17,0.335278,0.685443,0.349923,0.650088,0.349923,-0.649935,0.335278,-0.685290,0.299923,-0.699935,0.000318,-0.699935,-0.000051,-0.700088,-0.300050,-0.700088,-0.335405,-0.685443,-0.350050,-0.650088,-0.350050,0.649935,-0.335405,0.685290,-0.300050,0.699935,-0.000445,0.699935,-0.000076,0.700088,0.299923,0.700088,0.335278,0.685443,0.335278,0.685443,$1*%
%AMFreePoly1*
4,1,17,0.335431,0.685290,0.350076,0.649935,0.350076,-0.650037,0.335431,-0.685392,0.300076,-0.700037,0.000187,-0.700037,0.000127,-0.700062,-0.299898,-0.700062,-0.335253,-0.685417,-0.349898,-0.650062,-0.349898,0.649910,-0.335253,0.685265,-0.299898,0.699910,-0.000009,0.699910,0.000051,0.699935,0.300076,0.699935,0.335431,0.685290,0.335431,0.685290,$1*%
%AMFreePoly2*
4,1,13,0.335227,0.685443,0.349872,0.650088,0.349872,-0.649884,0.335227,-0.685239,0.299872,-0.699884,-0.300152,-0.699884,-0.335507,-0.685239,-0.350152,-0.649884,-0.350152,0.650088,-0.335507,0.685443,-0.300152,0.700088,0.299872,0.700088,0.335227,0.685443,0.335227,0.685443,$1*%
%AMFreePoly3*
4,1,36,0.060552,0.520444,0.075197,0.485089,0.075197,-0.034988,0.225031,-0.034988,0.225031,0.485089,0.239676,0.520444,0.275031,0.535089,0.525069,0.535089,0.560424,0.520444,0.575069,0.485089,0.575069,-0.034988,0.725183,-0.034988,0.725183,0.485089,0.739828,0.520444,0.775183,0.535089,1.025195,0.535089,1.060550,0.520444,1.075195,0.485089,1.075195,-0.045430,1.085340,-0.049633,
1.099985,-0.084988,1.099985,-0.484988,1.085340,-0.520343,1.049985,-0.534988,-1.049985,-0.534988,-1.085340,-0.520343,-1.099985,-0.484988,-1.099985,-0.084988,-1.085340,-0.049633,-1.049985,-0.034988,-0.274815,-0.034988,-0.274815,0.485089,-0.260170,0.520444,-0.224815,0.535089,0.025197,0.535089,0.060552,0.520444,0.060552,0.520444,$1*%
G04 Aperture macros list end*
%ADD10C,0.150000*%
%ADD11C,0.100000*%
%ADD12C,0.120000*%
%ADD13C,0.060000*%
%ADD14C,0.250000*%
%ADD15C,0.000000*%
%ADD16C,0.300000*%
%ADD17C,0.260000*%
%ADD18C,0.200000*%
%ADD19C,5.400000*%
%ADD20R,1.800000X1.200000*%
%ADD21R,1.550000X0.600000*%
%ADD22R,0.806000X0.864000*%
%ADD23R,1.400000X1.400000*%
%ADD24C,1.400000*%
%ADD25R,0.200000X0.700000*%
%ADD26R,0.500000X0.540000*%
%ADD27R,0.800000X0.900000*%
%ADD28R,1.524000X0.762000*%
%ADD29C,0.750000*%
%ADD30O,2.000000X1.200000*%
%ADD31O,1.800000X1.200000*%
%ADD32FreePoly0,270.000000*%
%ADD33FreePoly1,270.000000*%
%ADD34R,1.300000X0.300000*%
%ADD35FreePoly2,270.000000*%
%ADD36R,0.200000X1.000000*%
%ADD37R,1.600000X2.200000*%
%ADD38R,1.410000X1.350000*%
%ADD39O,1.747000X0.343000*%
%ADD40C,0.600000*%
%ADD41R,2.460000X3.550000*%
%ADD42R,0.800000X0.800000*%
%ADD43R,2.600000X5.400000*%
%ADD44C,1.500000*%
%ADD45C,1.600000*%
%ADD46R,1.728000X1.485000*%
%ADD47R,1.700000X1.700000*%
%ADD48C,1.700000*%
%ADD49R,1.350000X1.410000*%
%ADD50R,1.000000X3.000000*%
%ADD51R,1.100000X2.300000*%
%ADD52R,2.000000X2.000000*%
%ADD53R,0.864000X0.806000*%
%ADD54R,0.532000X1.072000*%
%ADD55R,4.000000X1.500000*%
%ADD56R,1.283000X3.456000*%
%ADD57R,1.000000X3.800000*%
%ADD58R,2.047000X2.192000*%
%ADD59C,1.800000*%
%ADD60R,0.700000X1.100000*%
%ADD61R,5.300000X2.000000*%
%ADD62O,0.343000X1.731000*%
%ADD63R,1.377000X1.133000*%
%ADD64R,0.500000X0.280000*%
%ADD65R,0.280000X0.500000*%
%ADD66RoundRect,0.050000X-0.475000X-0.100000X0.475000X-0.100000X0.475000X0.100000X-0.475000X0.100000X0*%
%ADD67RoundRect,0.060000X0.090000X-0.340000X0.090000X0.340000X-0.090000X0.340000X-0.090000X-0.340000X0*%
%ADD68R,0.600000X0.200000*%
%ADD69RoundRect,0.075000X0.425000X0.075000X-0.425000X0.075000X-0.425000X-0.075000X0.425000X-0.075000X0*%
%ADD70RoundRect,0.075000X-0.075000X0.325000X-0.075000X-0.325000X0.075000X-0.325000X0.075000X0.325000X0*%
%ADD71R,0.200000X0.600000*%
%ADD72RoundRect,0.075000X0.075000X-0.325000X0.075000X0.325000X-0.075000X0.325000X-0.075000X-0.325000X0*%
%ADD73RoundRect,0.075000X-0.425000X-0.075000X0.425000X-0.075000X0.425000X0.075000X-0.425000X0.075000X0*%
%ADD74R,0.700000X0.200000*%
%ADD75R,0.650000X0.200000*%
%ADD76R,0.680000X0.200000*%
%ADD77RoundRect,0.075000X-0.450000X-0.075000X0.450000X-0.075000X0.450000X0.075000X-0.450000X0.075000X0*%
%ADD78R,0.220000X1.000000*%
%ADD79R,0.220000X0.950000*%
%ADD80R,0.300000X1.300000*%
%ADD81R,0.250000X0.600000*%
%ADD82R,0.600000X0.250000*%
%ADD83R,1.500000X1.500000*%
%ADD84R,0.900000X0.800000*%
%ADD85R,0.540000X0.500000*%
%ADD86C,1.000000*%
%ADD87R,1.050000X0.900000*%
%ADD88C,1.040000*%
%ADD89C,1.050000*%
%ADD90R,1.800000X1.575000*%
%ADD91R,1.700000X0.250000*%
%ADD92FreePoly3,0.000000*%
%ADD93R,2.100000X0.400000*%
%ADD94C,5.800000*%
%ADD95R,0.900000X1.500000*%
%ADD96R,1.500000X0.900000*%
%ADD97R,0.900000X0.900000*%
%ADD98R,2.200000X0.800000*%
%ADD99R,2.500000X2.350000*%
%ADD100R,1.050000X0.780000*%
%ADD101R,0.700000X3.330000*%
%ADD102R,1.140000X1.830000*%
%ADD103R,0.860000X2.800000*%
%ADD104R,1.230000X1.860000*%
%ADD105FreePoly0,90.000000*%
%ADD106FreePoly1,90.000000*%
%ADD107FreePoly2,90.000000*%
%ADD108C,1.100000*%
G04 APERTURE END LIST*
D10*
X71000000Y-76850000D02*
X77330301Y-76850000D01*
X77330301Y-87961223D01*
X71000000Y-87961223D01*
X71000000Y-76850000D01*
X131462381Y-52563247D02*
X131195715Y-52563247D01*
X131195715Y-52982295D02*
X131195715Y-52182295D01*
X131195715Y-52182295D02*
X131576667Y-52182295D01*
X131843333Y-52753723D02*
X132224286Y-52753723D01*
X131767143Y-52982295D02*
X132033810Y-52182295D01*
X132033810Y-52182295D02*
X132300476Y-52982295D01*
X132567143Y-52982295D02*
X132567143Y-52182295D01*
X132567143Y-52182295D02*
X133024286Y-52982295D01*
X133024286Y-52982295D02*
X133024286Y-52182295D01*
D11*
X75319360Y-62897419D02*
X75509836Y-62897419D01*
X75509836Y-62897419D02*
X75605074Y-62945038D01*
X75605074Y-62945038D02*
X75700312Y-63040276D01*
X75700312Y-63040276D02*
X75747931Y-63230752D01*
X75747931Y-63230752D02*
X75747931Y-63564085D01*
X75747931Y-63564085D02*
X75700312Y-63754561D01*
X75700312Y-63754561D02*
X75605074Y-63849800D01*
X75605074Y-63849800D02*
X75509836Y-63897419D01*
X75509836Y-63897419D02*
X75319360Y-63897419D01*
X75319360Y-63897419D02*
X75224122Y-63849800D01*
X75224122Y-63849800D02*
X75128884Y-63754561D01*
X75128884Y-63754561D02*
X75081265Y-63564085D01*
X75081265Y-63564085D02*
X75081265Y-63230752D01*
X75081265Y-63230752D02*
X75128884Y-63040276D01*
X75128884Y-63040276D02*
X75224122Y-62945038D01*
X75224122Y-62945038D02*
X75319360Y-62897419D01*
X76176503Y-63897419D02*
X76176503Y-63230752D01*
X76176503Y-63421228D02*
X76224122Y-63325990D01*
X76224122Y-63325990D02*
X76271741Y-63278371D01*
X76271741Y-63278371D02*
X76366979Y-63230752D01*
X76366979Y-63230752D02*
X76462217Y-63230752D01*
X76795551Y-63897419D02*
X76795551Y-62897419D01*
X76795551Y-63278371D02*
X76890789Y-63230752D01*
X76890789Y-63230752D02*
X77081265Y-63230752D01*
X77081265Y-63230752D02*
X77176503Y-63278371D01*
X77176503Y-63278371D02*
X77224122Y-63325990D01*
X77224122Y-63325990D02*
X77271741Y-63421228D01*
X77271741Y-63421228D02*
X77271741Y-63706942D01*
X77271741Y-63706942D02*
X77224122Y-63802180D01*
X77224122Y-63802180D02*
X77176503Y-63849800D01*
X77176503Y-63849800D02*
X77081265Y-63897419D01*
X77081265Y-63897419D02*
X76890789Y-63897419D01*
X76890789Y-63897419D02*
X76795551Y-63849800D01*
X77700313Y-63897419D02*
X77700313Y-63230752D01*
X77700313Y-62897419D02*
X77652694Y-62945038D01*
X77652694Y-62945038D02*
X77700313Y-62992657D01*
X77700313Y-62992657D02*
X77747932Y-62945038D01*
X77747932Y-62945038D02*
X77700313Y-62897419D01*
X77700313Y-62897419D02*
X77700313Y-62992657D01*
X78033646Y-63230752D02*
X78414598Y-63230752D01*
X78176503Y-62897419D02*
X78176503Y-63754561D01*
X78176503Y-63754561D02*
X78224122Y-63849800D01*
X78224122Y-63849800D02*
X78319360Y-63897419D01*
X78319360Y-63897419D02*
X78414598Y-63897419D01*
X79509837Y-63897419D02*
X79509837Y-62897419D01*
X79509837Y-62897419D02*
X79843170Y-63611704D01*
X79843170Y-63611704D02*
X80176503Y-62897419D01*
X80176503Y-62897419D02*
X80176503Y-63897419D01*
X80652694Y-63897419D02*
X80652694Y-63230752D01*
X80652694Y-62897419D02*
X80605075Y-62945038D01*
X80605075Y-62945038D02*
X80652694Y-62992657D01*
X80652694Y-62992657D02*
X80700313Y-62945038D01*
X80700313Y-62945038D02*
X80652694Y-62897419D01*
X80652694Y-62897419D02*
X80652694Y-62992657D01*
X81128884Y-63230752D02*
X81128884Y-63897419D01*
X81128884Y-63325990D02*
X81176503Y-63278371D01*
X81176503Y-63278371D02*
X81271741Y-63230752D01*
X81271741Y-63230752D02*
X81414598Y-63230752D01*
X81414598Y-63230752D02*
X81509836Y-63278371D01*
X81509836Y-63278371D02*
X81557455Y-63373609D01*
X81557455Y-63373609D02*
X81557455Y-63897419D01*
X82033646Y-63897419D02*
X82033646Y-63230752D01*
X82033646Y-62897419D02*
X81986027Y-62945038D01*
X81986027Y-62945038D02*
X82033646Y-62992657D01*
X82033646Y-62992657D02*
X82081265Y-62945038D01*
X82081265Y-62945038D02*
X82033646Y-62897419D01*
X82033646Y-62897419D02*
X82033646Y-62992657D01*
X83271741Y-63897419D02*
X83271741Y-62897419D01*
X83271741Y-62897419D02*
X83605074Y-63611704D01*
X83605074Y-63611704D02*
X83938407Y-62897419D01*
X83938407Y-62897419D02*
X83938407Y-63897419D01*
X84843169Y-63897419D02*
X84843169Y-63373609D01*
X84843169Y-63373609D02*
X84795550Y-63278371D01*
X84795550Y-63278371D02*
X84700312Y-63230752D01*
X84700312Y-63230752D02*
X84509836Y-63230752D01*
X84509836Y-63230752D02*
X84414598Y-63278371D01*
X84843169Y-63849800D02*
X84747931Y-63897419D01*
X84747931Y-63897419D02*
X84509836Y-63897419D01*
X84509836Y-63897419D02*
X84414598Y-63849800D01*
X84414598Y-63849800D02*
X84366979Y-63754561D01*
X84366979Y-63754561D02*
X84366979Y-63659323D01*
X84366979Y-63659323D02*
X84414598Y-63564085D01*
X84414598Y-63564085D02*
X84509836Y-63516466D01*
X84509836Y-63516466D02*
X84747931Y-63516466D01*
X84747931Y-63516466D02*
X84843169Y-63468847D01*
X85319360Y-63897419D02*
X85319360Y-63230752D01*
X85319360Y-62897419D02*
X85271741Y-62945038D01*
X85271741Y-62945038D02*
X85319360Y-62992657D01*
X85319360Y-62992657D02*
X85366979Y-62945038D01*
X85366979Y-62945038D02*
X85319360Y-62897419D01*
X85319360Y-62897419D02*
X85319360Y-62992657D01*
X85795550Y-63230752D02*
X85795550Y-63897419D01*
X85795550Y-63325990D02*
X85843169Y-63278371D01*
X85843169Y-63278371D02*
X85938407Y-63230752D01*
X85938407Y-63230752D02*
X86081264Y-63230752D01*
X86081264Y-63230752D02*
X86176502Y-63278371D01*
X86176502Y-63278371D02*
X86224121Y-63373609D01*
X86224121Y-63373609D02*
X86224121Y-63897419D01*
X86700312Y-63897419D02*
X86700312Y-62897419D01*
X86700312Y-63278371D02*
X86795550Y-63230752D01*
X86795550Y-63230752D02*
X86986026Y-63230752D01*
X86986026Y-63230752D02*
X87081264Y-63278371D01*
X87081264Y-63278371D02*
X87128883Y-63325990D01*
X87128883Y-63325990D02*
X87176502Y-63421228D01*
X87176502Y-63421228D02*
X87176502Y-63706942D01*
X87176502Y-63706942D02*
X87128883Y-63802180D01*
X87128883Y-63802180D02*
X87081264Y-63849800D01*
X87081264Y-63849800D02*
X86986026Y-63897419D01*
X86986026Y-63897419D02*
X86795550Y-63897419D01*
X86795550Y-63897419D02*
X86700312Y-63849800D01*
X87747931Y-63897419D02*
X87652693Y-63849800D01*
X87652693Y-63849800D02*
X87605074Y-63802180D01*
X87605074Y-63802180D02*
X87557455Y-63706942D01*
X87557455Y-63706942D02*
X87557455Y-63421228D01*
X87557455Y-63421228D02*
X87605074Y-63325990D01*
X87605074Y-63325990D02*
X87652693Y-63278371D01*
X87652693Y-63278371D02*
X87747931Y-63230752D01*
X87747931Y-63230752D02*
X87890788Y-63230752D01*
X87890788Y-63230752D02*
X87986026Y-63278371D01*
X87986026Y-63278371D02*
X88033645Y-63325990D01*
X88033645Y-63325990D02*
X88081264Y-63421228D01*
X88081264Y-63421228D02*
X88081264Y-63706942D01*
X88081264Y-63706942D02*
X88033645Y-63802180D01*
X88033645Y-63802180D02*
X87986026Y-63849800D01*
X87986026Y-63849800D02*
X87890788Y-63897419D01*
X87890788Y-63897419D02*
X87747931Y-63897419D01*
X88938407Y-63897419D02*
X88938407Y-63373609D01*
X88938407Y-63373609D02*
X88890788Y-63278371D01*
X88890788Y-63278371D02*
X88795550Y-63230752D01*
X88795550Y-63230752D02*
X88605074Y-63230752D01*
X88605074Y-63230752D02*
X88509836Y-63278371D01*
X88938407Y-63849800D02*
X88843169Y-63897419D01*
X88843169Y-63897419D02*
X88605074Y-63897419D01*
X88605074Y-63897419D02*
X88509836Y-63849800D01*
X88509836Y-63849800D02*
X88462217Y-63754561D01*
X88462217Y-63754561D02*
X88462217Y-63659323D01*
X88462217Y-63659323D02*
X88509836Y-63564085D01*
X88509836Y-63564085D02*
X88605074Y-63516466D01*
X88605074Y-63516466D02*
X88843169Y-63516466D01*
X88843169Y-63516466D02*
X88938407Y-63468847D01*
X89414598Y-63897419D02*
X89414598Y-63230752D01*
X89414598Y-63421228D02*
X89462217Y-63325990D01*
X89462217Y-63325990D02*
X89509836Y-63278371D01*
X89509836Y-63278371D02*
X89605074Y-63230752D01*
X89605074Y-63230752D02*
X89700312Y-63230752D01*
X90462217Y-63897419D02*
X90462217Y-62897419D01*
X90462217Y-63849800D02*
X90366979Y-63897419D01*
X90366979Y-63897419D02*
X90176503Y-63897419D01*
X90176503Y-63897419D02*
X90081265Y-63849800D01*
X90081265Y-63849800D02*
X90033646Y-63802180D01*
X90033646Y-63802180D02*
X89986027Y-63706942D01*
X89986027Y-63706942D02*
X89986027Y-63421228D01*
X89986027Y-63421228D02*
X90033646Y-63325990D01*
X90033646Y-63325990D02*
X90081265Y-63278371D01*
X90081265Y-63278371D02*
X90176503Y-63230752D01*
X90176503Y-63230752D02*
X90366979Y-63230752D01*
X90366979Y-63230752D02*
X90462217Y-63278371D01*
X91557456Y-62897419D02*
X91890789Y-63897419D01*
X91890789Y-63897419D02*
X92224122Y-62897419D01*
X93081265Y-63897419D02*
X92509837Y-63897419D01*
X92795551Y-63897419D02*
X92795551Y-62897419D01*
X92795551Y-62897419D02*
X92700313Y-63040276D01*
X92700313Y-63040276D02*
X92605075Y-63135514D01*
X92605075Y-63135514D02*
X92509837Y-63183133D01*
X93509837Y-63802180D02*
X93557456Y-63849800D01*
X93557456Y-63849800D02*
X93509837Y-63897419D01*
X93509837Y-63897419D02*
X93462218Y-63849800D01*
X93462218Y-63849800D02*
X93509837Y-63802180D01*
X93509837Y-63802180D02*
X93509837Y-63897419D01*
X94509836Y-63897419D02*
X93938408Y-63897419D01*
X94224122Y-63897419D02*
X94224122Y-62897419D01*
X94224122Y-62897419D02*
X94128884Y-63040276D01*
X94128884Y-63040276D02*
X94033646Y-63135514D01*
X94033646Y-63135514D02*
X93938408Y-63183133D01*
X72762475Y-85216353D02*
X73762475Y-84978258D01*
X73762475Y-84978258D02*
X73048189Y-84787782D01*
X73048189Y-84787782D02*
X73762475Y-84597306D01*
X73762475Y-84597306D02*
X72762475Y-84359211D01*
X73762475Y-83978258D02*
X73095808Y-83978258D01*
X72762475Y-83978258D02*
X72810094Y-84025877D01*
X72810094Y-84025877D02*
X72857713Y-83978258D01*
X72857713Y-83978258D02*
X72810094Y-83930639D01*
X72810094Y-83930639D02*
X72762475Y-83978258D01*
X72762475Y-83978258D02*
X72857713Y-83978258D01*
X73762475Y-83502068D02*
X73095808Y-83502068D01*
X73286284Y-83502068D02*
X73191046Y-83454449D01*
X73191046Y-83454449D02*
X73143427Y-83406830D01*
X73143427Y-83406830D02*
X73095808Y-83311592D01*
X73095808Y-83311592D02*
X73095808Y-83216354D01*
X73714856Y-82502068D02*
X73762475Y-82597306D01*
X73762475Y-82597306D02*
X73762475Y-82787782D01*
X73762475Y-82787782D02*
X73714856Y-82883020D01*
X73714856Y-82883020D02*
X73619617Y-82930639D01*
X73619617Y-82930639D02*
X73238665Y-82930639D01*
X73238665Y-82930639D02*
X73143427Y-82883020D01*
X73143427Y-82883020D02*
X73095808Y-82787782D01*
X73095808Y-82787782D02*
X73095808Y-82597306D01*
X73095808Y-82597306D02*
X73143427Y-82502068D01*
X73143427Y-82502068D02*
X73238665Y-82454449D01*
X73238665Y-82454449D02*
X73333903Y-82454449D01*
X73333903Y-82454449D02*
X73429141Y-82930639D01*
X73762475Y-81883020D02*
X73714856Y-81978258D01*
X73714856Y-81978258D02*
X73619617Y-82025877D01*
X73619617Y-82025877D02*
X72762475Y-82025877D01*
X73714856Y-81121115D02*
X73762475Y-81216353D01*
X73762475Y-81216353D02*
X73762475Y-81406829D01*
X73762475Y-81406829D02*
X73714856Y-81502067D01*
X73714856Y-81502067D02*
X73619617Y-81549686D01*
X73619617Y-81549686D02*
X73238665Y-81549686D01*
X73238665Y-81549686D02*
X73143427Y-81502067D01*
X73143427Y-81502067D02*
X73095808Y-81406829D01*
X73095808Y-81406829D02*
X73095808Y-81216353D01*
X73095808Y-81216353D02*
X73143427Y-81121115D01*
X73143427Y-81121115D02*
X73238665Y-81073496D01*
X73238665Y-81073496D02*
X73333903Y-81073496D01*
X73333903Y-81073496D02*
X73429141Y-81549686D01*
X73714856Y-80692543D02*
X73762475Y-80597305D01*
X73762475Y-80597305D02*
X73762475Y-80406829D01*
X73762475Y-80406829D02*
X73714856Y-80311591D01*
X73714856Y-80311591D02*
X73619617Y-80263972D01*
X73619617Y-80263972D02*
X73571998Y-80263972D01*
X73571998Y-80263972D02*
X73476760Y-80311591D01*
X73476760Y-80311591D02*
X73429141Y-80406829D01*
X73429141Y-80406829D02*
X73429141Y-80549686D01*
X73429141Y-80549686D02*
X73381522Y-80644924D01*
X73381522Y-80644924D02*
X73286284Y-80692543D01*
X73286284Y-80692543D02*
X73238665Y-80692543D01*
X73238665Y-80692543D02*
X73143427Y-80644924D01*
X73143427Y-80644924D02*
X73095808Y-80549686D01*
X73095808Y-80549686D02*
X73095808Y-80406829D01*
X73095808Y-80406829D02*
X73143427Y-80311591D01*
X73714856Y-79883019D02*
X73762475Y-79787781D01*
X73762475Y-79787781D02*
X73762475Y-79597305D01*
X73762475Y-79597305D02*
X73714856Y-79502067D01*
X73714856Y-79502067D02*
X73619617Y-79454448D01*
X73619617Y-79454448D02*
X73571998Y-79454448D01*
X73571998Y-79454448D02*
X73476760Y-79502067D01*
X73476760Y-79502067D02*
X73429141Y-79597305D01*
X73429141Y-79597305D02*
X73429141Y-79740162D01*
X73429141Y-79740162D02*
X73381522Y-79835400D01*
X73381522Y-79835400D02*
X73286284Y-79883019D01*
X73286284Y-79883019D02*
X73238665Y-79883019D01*
X73238665Y-79883019D02*
X73143427Y-79835400D01*
X73143427Y-79835400D02*
X73095808Y-79740162D01*
X73095808Y-79740162D02*
X73095808Y-79597305D01*
X73095808Y-79597305D02*
X73143427Y-79502067D01*
X75277180Y-83787782D02*
X75324800Y-83835401D01*
X75324800Y-83835401D02*
X75372419Y-83978258D01*
X75372419Y-83978258D02*
X75372419Y-84073496D01*
X75372419Y-84073496D02*
X75324800Y-84216353D01*
X75324800Y-84216353D02*
X75229561Y-84311591D01*
X75229561Y-84311591D02*
X75134323Y-84359210D01*
X75134323Y-84359210D02*
X74943847Y-84406829D01*
X74943847Y-84406829D02*
X74800990Y-84406829D01*
X74800990Y-84406829D02*
X74610514Y-84359210D01*
X74610514Y-84359210D02*
X74515276Y-84311591D01*
X74515276Y-84311591D02*
X74420038Y-84216353D01*
X74420038Y-84216353D02*
X74372419Y-84073496D01*
X74372419Y-84073496D02*
X74372419Y-83978258D01*
X74372419Y-83978258D02*
X74420038Y-83835401D01*
X74420038Y-83835401D02*
X74467657Y-83787782D01*
X74705752Y-82930639D02*
X75372419Y-82930639D01*
X74705752Y-83359210D02*
X75229561Y-83359210D01*
X75229561Y-83359210D02*
X75324800Y-83311591D01*
X75324800Y-83311591D02*
X75372419Y-83216353D01*
X75372419Y-83216353D02*
X75372419Y-83073496D01*
X75372419Y-83073496D02*
X75324800Y-82978258D01*
X75324800Y-82978258D02*
X75277180Y-82930639D01*
X74705752Y-82597305D02*
X74705752Y-82216353D01*
X74372419Y-82454448D02*
X75229561Y-82454448D01*
X75229561Y-82454448D02*
X75324800Y-82406829D01*
X75324800Y-82406829D02*
X75372419Y-82311591D01*
X75372419Y-82311591D02*
X75372419Y-82216353D01*
X75372419Y-81740162D02*
X75324800Y-81835400D01*
X75324800Y-81835400D02*
X75277180Y-81883019D01*
X75277180Y-81883019D02*
X75181942Y-81930638D01*
X75181942Y-81930638D02*
X74896228Y-81930638D01*
X74896228Y-81930638D02*
X74800990Y-81883019D01*
X74800990Y-81883019D02*
X74753371Y-81835400D01*
X74753371Y-81835400D02*
X74705752Y-81740162D01*
X74705752Y-81740162D02*
X74705752Y-81597305D01*
X74705752Y-81597305D02*
X74753371Y-81502067D01*
X74753371Y-81502067D02*
X74800990Y-81454448D01*
X74800990Y-81454448D02*
X74896228Y-81406829D01*
X74896228Y-81406829D02*
X75181942Y-81406829D01*
X75181942Y-81406829D02*
X75277180Y-81454448D01*
X75277180Y-81454448D02*
X75324800Y-81502067D01*
X75324800Y-81502067D02*
X75372419Y-81597305D01*
X75372419Y-81597305D02*
X75372419Y-81740162D01*
X74705752Y-80549686D02*
X75372419Y-80549686D01*
X74705752Y-80978257D02*
X75229561Y-80978257D01*
X75229561Y-80978257D02*
X75324800Y-80930638D01*
X75324800Y-80930638D02*
X75372419Y-80835400D01*
X75372419Y-80835400D02*
X75372419Y-80692543D01*
X75372419Y-80692543D02*
X75324800Y-80597305D01*
X75324800Y-80597305D02*
X75277180Y-80549686D01*
X74705752Y-80216352D02*
X74705752Y-79835400D01*
X74372419Y-80073495D02*
X75229561Y-80073495D01*
X75229561Y-80073495D02*
X75324800Y-80025876D01*
X75324800Y-80025876D02*
X75372419Y-79930638D01*
X75372419Y-79930638D02*
X75372419Y-79835400D01*
D10*
X107006779Y-144698866D02*
X107768684Y-144698866D01*
X107387731Y-145079819D02*
X107387731Y-144317914D01*
X125546779Y-142658866D02*
X126308684Y-142658866D01*
X125927731Y-143039819D02*
X125927731Y-142277914D01*
X130916779Y-137638866D02*
X131678684Y-137638866D01*
X131297731Y-138019819D02*
X131297731Y-137257914D01*
X132986104Y-56363332D02*
X133024200Y-56401428D01*
X133024200Y-56401428D02*
X133062295Y-56515713D01*
X133062295Y-56515713D02*
X133062295Y-56591904D01*
X133062295Y-56591904D02*
X133024200Y-56706190D01*
X133024200Y-56706190D02*
X132948009Y-56782380D01*
X132948009Y-56782380D02*
X132871819Y-56820475D01*
X132871819Y-56820475D02*
X132719438Y-56858571D01*
X132719438Y-56858571D02*
X132605152Y-56858571D01*
X132605152Y-56858571D02*
X132452771Y-56820475D01*
X132452771Y-56820475D02*
X132376580Y-56782380D01*
X132376580Y-56782380D02*
X132300390Y-56706190D01*
X132300390Y-56706190D02*
X132262295Y-56591904D01*
X132262295Y-56591904D02*
X132262295Y-56515713D01*
X132262295Y-56515713D02*
X132300390Y-56401428D01*
X132300390Y-56401428D02*
X132338485Y-56363332D01*
X133062295Y-56020475D02*
X132262295Y-56020475D01*
X132262295Y-56020475D02*
X133062295Y-55563332D01*
X133062295Y-55563332D02*
X132262295Y-55563332D01*
X133062295Y-54763333D02*
X133062295Y-55220476D01*
X133062295Y-54991904D02*
X132262295Y-54991904D01*
X132262295Y-54991904D02*
X132376580Y-55068095D01*
X132376580Y-55068095D02*
X132452771Y-55144285D01*
X132452771Y-55144285D02*
X132490866Y-55220476D01*
X132262295Y-54268094D02*
X132262295Y-54191904D01*
X132262295Y-54191904D02*
X132300390Y-54115713D01*
X132300390Y-54115713D02*
X132338485Y-54077618D01*
X132338485Y-54077618D02*
X132414676Y-54039523D01*
X132414676Y-54039523D02*
X132567057Y-54001428D01*
X132567057Y-54001428D02*
X132757533Y-54001428D01*
X132757533Y-54001428D02*
X132909914Y-54039523D01*
X132909914Y-54039523D02*
X132986104Y-54077618D01*
X132986104Y-54077618D02*
X133024200Y-54115713D01*
X133024200Y-54115713D02*
X133062295Y-54191904D01*
X133062295Y-54191904D02*
X133062295Y-54268094D01*
X133062295Y-54268094D02*
X133024200Y-54344285D01*
X133024200Y-54344285D02*
X132986104Y-54382380D01*
X132986104Y-54382380D02*
X132909914Y-54420475D01*
X132909914Y-54420475D02*
X132757533Y-54458571D01*
X132757533Y-54458571D02*
X132567057Y-54458571D01*
X132567057Y-54458571D02*
X132414676Y-54420475D01*
X132414676Y-54420475D02*
X132338485Y-54382380D01*
X132338485Y-54382380D02*
X132300390Y-54344285D01*
X132300390Y-54344285D02*
X132262295Y-54268094D01*
X65429524Y-92462295D02*
X65429524Y-93109914D01*
X65429524Y-93109914D02*
X65467619Y-93186104D01*
X65467619Y-93186104D02*
X65505714Y-93224200D01*
X65505714Y-93224200D02*
X65581905Y-93262295D01*
X65581905Y-93262295D02*
X65734286Y-93262295D01*
X65734286Y-93262295D02*
X65810476Y-93224200D01*
X65810476Y-93224200D02*
X65848571Y-93186104D01*
X65848571Y-93186104D02*
X65886667Y-93109914D01*
X65886667Y-93109914D02*
X65886667Y-92462295D01*
X66686666Y-93262295D02*
X66229523Y-93262295D01*
X66458095Y-93262295D02*
X66458095Y-92462295D01*
X66458095Y-92462295D02*
X66381904Y-92576580D01*
X66381904Y-92576580D02*
X66305714Y-92652771D01*
X66305714Y-92652771D02*
X66229523Y-92690866D01*
X67143809Y-92805152D02*
X67067619Y-92767057D01*
X67067619Y-92767057D02*
X67029524Y-92728961D01*
X67029524Y-92728961D02*
X66991428Y-92652771D01*
X66991428Y-92652771D02*
X66991428Y-92614676D01*
X66991428Y-92614676D02*
X67029524Y-92538485D01*
X67029524Y-92538485D02*
X67067619Y-92500390D01*
X67067619Y-92500390D02*
X67143809Y-92462295D01*
X67143809Y-92462295D02*
X67296190Y-92462295D01*
X67296190Y-92462295D02*
X67372381Y-92500390D01*
X67372381Y-92500390D02*
X67410476Y-92538485D01*
X67410476Y-92538485D02*
X67448571Y-92614676D01*
X67448571Y-92614676D02*
X67448571Y-92652771D01*
X67448571Y-92652771D02*
X67410476Y-92728961D01*
X67410476Y-92728961D02*
X67372381Y-92767057D01*
X67372381Y-92767057D02*
X67296190Y-92805152D01*
X67296190Y-92805152D02*
X67143809Y-92805152D01*
X67143809Y-92805152D02*
X67067619Y-92843247D01*
X67067619Y-92843247D02*
X67029524Y-92881342D01*
X67029524Y-92881342D02*
X66991428Y-92957533D01*
X66991428Y-92957533D02*
X66991428Y-93109914D01*
X66991428Y-93109914D02*
X67029524Y-93186104D01*
X67029524Y-93186104D02*
X67067619Y-93224200D01*
X67067619Y-93224200D02*
X67143809Y-93262295D01*
X67143809Y-93262295D02*
X67296190Y-93262295D01*
X67296190Y-93262295D02*
X67372381Y-93224200D01*
X67372381Y-93224200D02*
X67410476Y-93186104D01*
X67410476Y-93186104D02*
X67448571Y-93109914D01*
X67448571Y-93109914D02*
X67448571Y-92957533D01*
X67448571Y-92957533D02*
X67410476Y-92881342D01*
X67410476Y-92881342D02*
X67372381Y-92843247D01*
X67372381Y-92843247D02*
X67296190Y-92805152D01*
X130434649Y-69564819D02*
X130625125Y-69564819D01*
X130625125Y-69564819D02*
X130720363Y-69612438D01*
X130720363Y-69612438D02*
X130815601Y-69707676D01*
X130815601Y-69707676D02*
X130863220Y-69898152D01*
X130863220Y-69898152D02*
X130863220Y-70231485D01*
X130863220Y-70231485D02*
X130815601Y-70421961D01*
X130815601Y-70421961D02*
X130720363Y-70517200D01*
X130720363Y-70517200D02*
X130625125Y-70564819D01*
X130625125Y-70564819D02*
X130434649Y-70564819D01*
X130434649Y-70564819D02*
X130339411Y-70517200D01*
X130339411Y-70517200D02*
X130244173Y-70421961D01*
X130244173Y-70421961D02*
X130196554Y-70231485D01*
X130196554Y-70231485D02*
X130196554Y-69898152D01*
X130196554Y-69898152D02*
X130244173Y-69707676D01*
X130244173Y-69707676D02*
X130339411Y-69612438D01*
X130339411Y-69612438D02*
X130434649Y-69564819D01*
X131291792Y-70564819D02*
X131291792Y-69564819D01*
X131291792Y-69564819D02*
X131863220Y-70564819D01*
X131863220Y-70564819D02*
X131863220Y-69564819D01*
X134294819Y-62527030D02*
X134294819Y-63003220D01*
X134294819Y-63003220D02*
X134771009Y-63050839D01*
X134771009Y-63050839D02*
X134723390Y-63003220D01*
X134723390Y-63003220D02*
X134675771Y-62907982D01*
X134675771Y-62907982D02*
X134675771Y-62669887D01*
X134675771Y-62669887D02*
X134723390Y-62574649D01*
X134723390Y-62574649D02*
X134771009Y-62527030D01*
X134771009Y-62527030D02*
X134866247Y-62479411D01*
X134866247Y-62479411D02*
X135104342Y-62479411D01*
X135104342Y-62479411D02*
X135199580Y-62527030D01*
X135199580Y-62527030D02*
X135247200Y-62574649D01*
X135247200Y-62574649D02*
X135294819Y-62669887D01*
X135294819Y-62669887D02*
X135294819Y-62907982D01*
X135294819Y-62907982D02*
X135247200Y-63003220D01*
X135247200Y-63003220D02*
X135199580Y-63050839D01*
X134314819Y-65578458D02*
X134314819Y-64959411D01*
X134314819Y-64959411D02*
X134695771Y-65292744D01*
X134695771Y-65292744D02*
X134695771Y-65149887D01*
X134695771Y-65149887D02*
X134743390Y-65054649D01*
X134743390Y-65054649D02*
X134791009Y-65007030D01*
X134791009Y-65007030D02*
X134886247Y-64959411D01*
X134886247Y-64959411D02*
X135124342Y-64959411D01*
X135124342Y-64959411D02*
X135219580Y-65007030D01*
X135219580Y-65007030D02*
X135267200Y-65054649D01*
X135267200Y-65054649D02*
X135314819Y-65149887D01*
X135314819Y-65149887D02*
X135314819Y-65435601D01*
X135314819Y-65435601D02*
X135267200Y-65530839D01*
X135267200Y-65530839D02*
X135219580Y-65578458D01*
X134410057Y-66910839D02*
X134362438Y-66863220D01*
X134362438Y-66863220D02*
X134314819Y-66767982D01*
X134314819Y-66767982D02*
X134314819Y-66529887D01*
X134314819Y-66529887D02*
X134362438Y-66434649D01*
X134362438Y-66434649D02*
X134410057Y-66387030D01*
X134410057Y-66387030D02*
X134505295Y-66339411D01*
X134505295Y-66339411D02*
X134600533Y-66339411D01*
X134600533Y-66339411D02*
X134743390Y-66387030D01*
X134743390Y-66387030D02*
X135314819Y-66958458D01*
X135314819Y-66958458D02*
X135314819Y-66339411D01*
X134678152Y-63774649D02*
X135344819Y-63774649D01*
X134297200Y-64012744D02*
X135011485Y-64250839D01*
X135011485Y-64250839D02*
X135011485Y-63631792D01*
X135354819Y-67629411D02*
X135354819Y-68200839D01*
X135354819Y-67915125D02*
X134354819Y-67915125D01*
X134354819Y-67915125D02*
X134497676Y-68010363D01*
X134497676Y-68010363D02*
X134592914Y-68105601D01*
X134592914Y-68105601D02*
X134640533Y-68200839D01*
X67664751Y-139760475D02*
X68312370Y-139760475D01*
X68312370Y-139760475D02*
X68388560Y-139722380D01*
X68388560Y-139722380D02*
X68426656Y-139684285D01*
X68426656Y-139684285D02*
X68464751Y-139608094D01*
X68464751Y-139608094D02*
X68464751Y-139455713D01*
X68464751Y-139455713D02*
X68426656Y-139379523D01*
X68426656Y-139379523D02*
X68388560Y-139341428D01*
X68388560Y-139341428D02*
X68312370Y-139303332D01*
X68312370Y-139303332D02*
X67664751Y-139303332D01*
X68426656Y-138960476D02*
X68464751Y-138846190D01*
X68464751Y-138846190D02*
X68464751Y-138655714D01*
X68464751Y-138655714D02*
X68426656Y-138579523D01*
X68426656Y-138579523D02*
X68388560Y-138541428D01*
X68388560Y-138541428D02*
X68312370Y-138503333D01*
X68312370Y-138503333D02*
X68236179Y-138503333D01*
X68236179Y-138503333D02*
X68159989Y-138541428D01*
X68159989Y-138541428D02*
X68121894Y-138579523D01*
X68121894Y-138579523D02*
X68083798Y-138655714D01*
X68083798Y-138655714D02*
X68045703Y-138808095D01*
X68045703Y-138808095D02*
X68007608Y-138884285D01*
X68007608Y-138884285D02*
X67969513Y-138922380D01*
X67969513Y-138922380D02*
X67893322Y-138960476D01*
X67893322Y-138960476D02*
X67817132Y-138960476D01*
X67817132Y-138960476D02*
X67740941Y-138922380D01*
X67740941Y-138922380D02*
X67702846Y-138884285D01*
X67702846Y-138884285D02*
X67664751Y-138808095D01*
X67664751Y-138808095D02*
X67664751Y-138617618D01*
X67664751Y-138617618D02*
X67702846Y-138503333D01*
X68045703Y-137893809D02*
X68083798Y-137779523D01*
X68083798Y-137779523D02*
X68121894Y-137741428D01*
X68121894Y-137741428D02*
X68198084Y-137703332D01*
X68198084Y-137703332D02*
X68312370Y-137703332D01*
X68312370Y-137703332D02*
X68388560Y-137741428D01*
X68388560Y-137741428D02*
X68426656Y-137779523D01*
X68426656Y-137779523D02*
X68464751Y-137855713D01*
X68464751Y-137855713D02*
X68464751Y-138160475D01*
X68464751Y-138160475D02*
X67664751Y-138160475D01*
X67664751Y-138160475D02*
X67664751Y-137893809D01*
X67664751Y-137893809D02*
X67702846Y-137817618D01*
X67702846Y-137817618D02*
X67740941Y-137779523D01*
X67740941Y-137779523D02*
X67817132Y-137741428D01*
X67817132Y-137741428D02*
X67893322Y-137741428D01*
X67893322Y-137741428D02*
X67969513Y-137779523D01*
X67969513Y-137779523D02*
X68007608Y-137817618D01*
X68007608Y-137817618D02*
X68045703Y-137893809D01*
X68045703Y-137893809D02*
X68045703Y-138160475D01*
X68388560Y-136903332D02*
X68426656Y-136941428D01*
X68426656Y-136941428D02*
X68464751Y-137055713D01*
X68464751Y-137055713D02*
X68464751Y-137131904D01*
X68464751Y-137131904D02*
X68426656Y-137246190D01*
X68426656Y-137246190D02*
X68350465Y-137322380D01*
X68350465Y-137322380D02*
X68274275Y-137360475D01*
X68274275Y-137360475D02*
X68121894Y-137398571D01*
X68121894Y-137398571D02*
X68007608Y-137398571D01*
X68007608Y-137398571D02*
X67855227Y-137360475D01*
X67855227Y-137360475D02*
X67779036Y-137322380D01*
X67779036Y-137322380D02*
X67702846Y-137246190D01*
X67702846Y-137246190D02*
X67664751Y-137131904D01*
X67664751Y-137131904D02*
X67664751Y-137055713D01*
X67664751Y-137055713D02*
X67702846Y-136941428D01*
X67702846Y-136941428D02*
X67740941Y-136903332D01*
X67740941Y-136598571D02*
X67702846Y-136560475D01*
X67702846Y-136560475D02*
X67664751Y-136484285D01*
X67664751Y-136484285D02*
X67664751Y-136293809D01*
X67664751Y-136293809D02*
X67702846Y-136217618D01*
X67702846Y-136217618D02*
X67740941Y-136179523D01*
X67740941Y-136179523D02*
X67817132Y-136141428D01*
X67817132Y-136141428D02*
X67893322Y-136141428D01*
X67893322Y-136141428D02*
X68007608Y-136179523D01*
X68007608Y-136179523D02*
X68464751Y-136636666D01*
X68464751Y-136636666D02*
X68464751Y-136141428D01*
X120743333Y-45593247D02*
X120476667Y-45593247D01*
X120476667Y-46012295D02*
X120476667Y-45212295D01*
X120476667Y-45212295D02*
X120857619Y-45212295D01*
X121162381Y-46012295D02*
X121162381Y-45212295D01*
X121162381Y-45212295D02*
X121467143Y-45212295D01*
X121467143Y-45212295D02*
X121543333Y-45250390D01*
X121543333Y-45250390D02*
X121581428Y-45288485D01*
X121581428Y-45288485D02*
X121619524Y-45364676D01*
X121619524Y-45364676D02*
X121619524Y-45478961D01*
X121619524Y-45478961D02*
X121581428Y-45555152D01*
X121581428Y-45555152D02*
X121543333Y-45593247D01*
X121543333Y-45593247D02*
X121467143Y-45631342D01*
X121467143Y-45631342D02*
X121162381Y-45631342D01*
X122419524Y-45936104D02*
X122381428Y-45974200D01*
X122381428Y-45974200D02*
X122267143Y-46012295D01*
X122267143Y-46012295D02*
X122190952Y-46012295D01*
X122190952Y-46012295D02*
X122076666Y-45974200D01*
X122076666Y-45974200D02*
X122000476Y-45898009D01*
X122000476Y-45898009D02*
X121962381Y-45821819D01*
X121962381Y-45821819D02*
X121924285Y-45669438D01*
X121924285Y-45669438D02*
X121924285Y-45555152D01*
X121924285Y-45555152D02*
X121962381Y-45402771D01*
X121962381Y-45402771D02*
X122000476Y-45326580D01*
X122000476Y-45326580D02*
X122076666Y-45250390D01*
X122076666Y-45250390D02*
X122190952Y-45212295D01*
X122190952Y-45212295D02*
X122267143Y-45212295D01*
X122267143Y-45212295D02*
X122381428Y-45250390D01*
X122381428Y-45250390D02*
X122419524Y-45288485D01*
X123181428Y-46012295D02*
X122724285Y-46012295D01*
X122952857Y-46012295D02*
X122952857Y-45212295D01*
X122952857Y-45212295D02*
X122876666Y-45326580D01*
X122876666Y-45326580D02*
X122800476Y-45402771D01*
X122800476Y-45402771D02*
X122724285Y-45440866D01*
X78049524Y-131912295D02*
X78049524Y-132559914D01*
X78049524Y-132559914D02*
X78087619Y-132636104D01*
X78087619Y-132636104D02*
X78125714Y-132674200D01*
X78125714Y-132674200D02*
X78201905Y-132712295D01*
X78201905Y-132712295D02*
X78354286Y-132712295D01*
X78354286Y-132712295D02*
X78430476Y-132674200D01*
X78430476Y-132674200D02*
X78468571Y-132636104D01*
X78468571Y-132636104D02*
X78506667Y-132559914D01*
X78506667Y-132559914D02*
X78506667Y-131912295D01*
X79306666Y-132712295D02*
X78849523Y-132712295D01*
X79078095Y-132712295D02*
X79078095Y-131912295D01*
X79078095Y-131912295D02*
X79001904Y-132026580D01*
X79001904Y-132026580D02*
X78925714Y-132102771D01*
X78925714Y-132102771D02*
X78849523Y-132140866D01*
X79801905Y-131912295D02*
X79878095Y-131912295D01*
X79878095Y-131912295D02*
X79954286Y-131950390D01*
X79954286Y-131950390D02*
X79992381Y-131988485D01*
X79992381Y-131988485D02*
X80030476Y-132064676D01*
X80030476Y-132064676D02*
X80068571Y-132217057D01*
X80068571Y-132217057D02*
X80068571Y-132407533D01*
X80068571Y-132407533D02*
X80030476Y-132559914D01*
X80030476Y-132559914D02*
X79992381Y-132636104D01*
X79992381Y-132636104D02*
X79954286Y-132674200D01*
X79954286Y-132674200D02*
X79878095Y-132712295D01*
X79878095Y-132712295D02*
X79801905Y-132712295D01*
X79801905Y-132712295D02*
X79725714Y-132674200D01*
X79725714Y-132674200D02*
X79687619Y-132636104D01*
X79687619Y-132636104D02*
X79649524Y-132559914D01*
X79649524Y-132559914D02*
X79611428Y-132407533D01*
X79611428Y-132407533D02*
X79611428Y-132217057D01*
X79611428Y-132217057D02*
X79649524Y-132064676D01*
X79649524Y-132064676D02*
X79687619Y-131988485D01*
X79687619Y-131988485D02*
X79725714Y-131950390D01*
X79725714Y-131950390D02*
X79801905Y-131912295D01*
X89532261Y-134952295D02*
X89151309Y-134952295D01*
X89151309Y-134952295D02*
X89151309Y-134152295D01*
X89798928Y-134533247D02*
X90065594Y-134533247D01*
X90179880Y-134952295D02*
X89798928Y-134952295D01*
X89798928Y-134952295D02*
X89798928Y-134152295D01*
X89798928Y-134152295D02*
X90179880Y-134152295D01*
X90522738Y-134952295D02*
X90522738Y-134152295D01*
X90522738Y-134152295D02*
X90713214Y-134152295D01*
X90713214Y-134152295D02*
X90827500Y-134190390D01*
X90827500Y-134190390D02*
X90903690Y-134266580D01*
X90903690Y-134266580D02*
X90941785Y-134342771D01*
X90941785Y-134342771D02*
X90979881Y-134495152D01*
X90979881Y-134495152D02*
X90979881Y-134609438D01*
X90979881Y-134609438D02*
X90941785Y-134761819D01*
X90941785Y-134761819D02*
X90903690Y-134838009D01*
X90903690Y-134838009D02*
X90827500Y-134914200D01*
X90827500Y-134914200D02*
X90713214Y-134952295D01*
X90713214Y-134952295D02*
X90522738Y-134952295D01*
X91284642Y-134228485D02*
X91322738Y-134190390D01*
X91322738Y-134190390D02*
X91398928Y-134152295D01*
X91398928Y-134152295D02*
X91589404Y-134152295D01*
X91589404Y-134152295D02*
X91665595Y-134190390D01*
X91665595Y-134190390D02*
X91703690Y-134228485D01*
X91703690Y-134228485D02*
X91741785Y-134304676D01*
X91741785Y-134304676D02*
X91741785Y-134380866D01*
X91741785Y-134380866D02*
X91703690Y-134495152D01*
X91703690Y-134495152D02*
X91246547Y-134952295D01*
X91246547Y-134952295D02*
X91741785Y-134952295D01*
X128615476Y-120512295D02*
X128615476Y-121159914D01*
X128615476Y-121159914D02*
X128653571Y-121236104D01*
X128653571Y-121236104D02*
X128691666Y-121274200D01*
X128691666Y-121274200D02*
X128767857Y-121312295D01*
X128767857Y-121312295D02*
X128920238Y-121312295D01*
X128920238Y-121312295D02*
X128996428Y-121274200D01*
X128996428Y-121274200D02*
X129034523Y-121236104D01*
X129034523Y-121236104D02*
X129072619Y-121159914D01*
X129072619Y-121159914D02*
X129072619Y-120512295D01*
X129796428Y-120512295D02*
X129644047Y-120512295D01*
X129644047Y-120512295D02*
X129567856Y-120550390D01*
X129567856Y-120550390D02*
X129529761Y-120588485D01*
X129529761Y-120588485D02*
X129453571Y-120702771D01*
X129453571Y-120702771D02*
X129415475Y-120855152D01*
X129415475Y-120855152D02*
X129415475Y-121159914D01*
X129415475Y-121159914D02*
X129453571Y-121236104D01*
X129453571Y-121236104D02*
X129491666Y-121274200D01*
X129491666Y-121274200D02*
X129567856Y-121312295D01*
X129567856Y-121312295D02*
X129720237Y-121312295D01*
X129720237Y-121312295D02*
X129796428Y-121274200D01*
X129796428Y-121274200D02*
X129834523Y-121236104D01*
X129834523Y-121236104D02*
X129872618Y-121159914D01*
X129872618Y-121159914D02*
X129872618Y-120969438D01*
X129872618Y-120969438D02*
X129834523Y-120893247D01*
X129834523Y-120893247D02*
X129796428Y-120855152D01*
X129796428Y-120855152D02*
X129720237Y-120817057D01*
X129720237Y-120817057D02*
X129567856Y-120817057D01*
X129567856Y-120817057D02*
X129491666Y-120855152D01*
X129491666Y-120855152D02*
X129453571Y-120893247D01*
X129453571Y-120893247D02*
X129415475Y-120969438D01*
X90307142Y-140493247D02*
X90421428Y-140531342D01*
X90421428Y-140531342D02*
X90459523Y-140569438D01*
X90459523Y-140569438D02*
X90497619Y-140645628D01*
X90497619Y-140645628D02*
X90497619Y-140759914D01*
X90497619Y-140759914D02*
X90459523Y-140836104D01*
X90459523Y-140836104D02*
X90421428Y-140874200D01*
X90421428Y-140874200D02*
X90345238Y-140912295D01*
X90345238Y-140912295D02*
X90040476Y-140912295D01*
X90040476Y-140912295D02*
X90040476Y-140112295D01*
X90040476Y-140112295D02*
X90307142Y-140112295D01*
X90307142Y-140112295D02*
X90383333Y-140150390D01*
X90383333Y-140150390D02*
X90421428Y-140188485D01*
X90421428Y-140188485D02*
X90459523Y-140264676D01*
X90459523Y-140264676D02*
X90459523Y-140340866D01*
X90459523Y-140340866D02*
X90421428Y-140417057D01*
X90421428Y-140417057D02*
X90383333Y-140455152D01*
X90383333Y-140455152D02*
X90307142Y-140493247D01*
X90307142Y-140493247D02*
X90040476Y-140493247D01*
X90840476Y-140112295D02*
X90840476Y-140759914D01*
X90840476Y-140759914D02*
X90878571Y-140836104D01*
X90878571Y-140836104D02*
X90916666Y-140874200D01*
X90916666Y-140874200D02*
X90992857Y-140912295D01*
X90992857Y-140912295D02*
X91145238Y-140912295D01*
X91145238Y-140912295D02*
X91221428Y-140874200D01*
X91221428Y-140874200D02*
X91259523Y-140836104D01*
X91259523Y-140836104D02*
X91297619Y-140759914D01*
X91297619Y-140759914D02*
X91297619Y-140112295D01*
X91640475Y-140874200D02*
X91754761Y-140912295D01*
X91754761Y-140912295D02*
X91945237Y-140912295D01*
X91945237Y-140912295D02*
X92021428Y-140874200D01*
X92021428Y-140874200D02*
X92059523Y-140836104D01*
X92059523Y-140836104D02*
X92097618Y-140759914D01*
X92097618Y-140759914D02*
X92097618Y-140683723D01*
X92097618Y-140683723D02*
X92059523Y-140607533D01*
X92059523Y-140607533D02*
X92021428Y-140569438D01*
X92021428Y-140569438D02*
X91945237Y-140531342D01*
X91945237Y-140531342D02*
X91792856Y-140493247D01*
X91792856Y-140493247D02*
X91716666Y-140455152D01*
X91716666Y-140455152D02*
X91678571Y-140417057D01*
X91678571Y-140417057D02*
X91640475Y-140340866D01*
X91640475Y-140340866D02*
X91640475Y-140264676D01*
X91640475Y-140264676D02*
X91678571Y-140188485D01*
X91678571Y-140188485D02*
X91716666Y-140150390D01*
X91716666Y-140150390D02*
X91792856Y-140112295D01*
X91792856Y-140112295D02*
X91983333Y-140112295D01*
X91983333Y-140112295D02*
X92097618Y-140150390D01*
X113496428Y-112833723D02*
X113877381Y-112833723D01*
X113420238Y-113062295D02*
X113686905Y-112262295D01*
X113686905Y-112262295D02*
X113953571Y-113062295D01*
X114372619Y-112262295D02*
X114525000Y-112262295D01*
X114525000Y-112262295D02*
X114601190Y-112300390D01*
X114601190Y-112300390D02*
X114677381Y-112376580D01*
X114677381Y-112376580D02*
X114715476Y-112528961D01*
X114715476Y-112528961D02*
X114715476Y-112795628D01*
X114715476Y-112795628D02*
X114677381Y-112948009D01*
X114677381Y-112948009D02*
X114601190Y-113024200D01*
X114601190Y-113024200D02*
X114525000Y-113062295D01*
X114525000Y-113062295D02*
X114372619Y-113062295D01*
X114372619Y-113062295D02*
X114296428Y-113024200D01*
X114296428Y-113024200D02*
X114220238Y-112948009D01*
X114220238Y-112948009D02*
X114182142Y-112795628D01*
X114182142Y-112795628D02*
X114182142Y-112528961D01*
X114182142Y-112528961D02*
X114220238Y-112376580D01*
X114220238Y-112376580D02*
X114296428Y-112300390D01*
X114296428Y-112300390D02*
X114372619Y-112262295D01*
X115058333Y-113062295D02*
X115058333Y-112262295D01*
X115058333Y-112262295D02*
X115515476Y-113062295D01*
X115515476Y-113062295D02*
X115515476Y-112262295D01*
X68649524Y-132832295D02*
X68649524Y-133479914D01*
X68649524Y-133479914D02*
X68687619Y-133556104D01*
X68687619Y-133556104D02*
X68725714Y-133594200D01*
X68725714Y-133594200D02*
X68801905Y-133632295D01*
X68801905Y-133632295D02*
X68954286Y-133632295D01*
X68954286Y-133632295D02*
X69030476Y-133594200D01*
X69030476Y-133594200D02*
X69068571Y-133556104D01*
X69068571Y-133556104D02*
X69106667Y-133479914D01*
X69106667Y-133479914D02*
X69106667Y-132832295D01*
X69449523Y-132908485D02*
X69487619Y-132870390D01*
X69487619Y-132870390D02*
X69563809Y-132832295D01*
X69563809Y-132832295D02*
X69754285Y-132832295D01*
X69754285Y-132832295D02*
X69830476Y-132870390D01*
X69830476Y-132870390D02*
X69868571Y-132908485D01*
X69868571Y-132908485D02*
X69906666Y-132984676D01*
X69906666Y-132984676D02*
X69906666Y-133060866D01*
X69906666Y-133060866D02*
X69868571Y-133175152D01*
X69868571Y-133175152D02*
X69411428Y-133632295D01*
X69411428Y-133632295D02*
X69906666Y-133632295D01*
X70211428Y-132908485D02*
X70249524Y-132870390D01*
X70249524Y-132870390D02*
X70325714Y-132832295D01*
X70325714Y-132832295D02*
X70516190Y-132832295D01*
X70516190Y-132832295D02*
X70592381Y-132870390D01*
X70592381Y-132870390D02*
X70630476Y-132908485D01*
X70630476Y-132908485D02*
X70668571Y-132984676D01*
X70668571Y-132984676D02*
X70668571Y-133060866D01*
X70668571Y-133060866D02*
X70630476Y-133175152D01*
X70630476Y-133175152D02*
X70173333Y-133632295D01*
X70173333Y-133632295D02*
X70668571Y-133632295D01*
X70668333Y-141883247D02*
X70401667Y-141883247D01*
X70401667Y-142302295D02*
X70401667Y-141502295D01*
X70401667Y-141502295D02*
X70782619Y-141502295D01*
X71087381Y-142302295D02*
X71087381Y-141502295D01*
X71087381Y-141502295D02*
X71392143Y-141502295D01*
X71392143Y-141502295D02*
X71468333Y-141540390D01*
X71468333Y-141540390D02*
X71506428Y-141578485D01*
X71506428Y-141578485D02*
X71544524Y-141654676D01*
X71544524Y-141654676D02*
X71544524Y-141768961D01*
X71544524Y-141768961D02*
X71506428Y-141845152D01*
X71506428Y-141845152D02*
X71468333Y-141883247D01*
X71468333Y-141883247D02*
X71392143Y-141921342D01*
X71392143Y-141921342D02*
X71087381Y-141921342D01*
X72344524Y-142226104D02*
X72306428Y-142264200D01*
X72306428Y-142264200D02*
X72192143Y-142302295D01*
X72192143Y-142302295D02*
X72115952Y-142302295D01*
X72115952Y-142302295D02*
X72001666Y-142264200D01*
X72001666Y-142264200D02*
X71925476Y-142188009D01*
X71925476Y-142188009D02*
X71887381Y-142111819D01*
X71887381Y-142111819D02*
X71849285Y-141959438D01*
X71849285Y-141959438D02*
X71849285Y-141845152D01*
X71849285Y-141845152D02*
X71887381Y-141692771D01*
X71887381Y-141692771D02*
X71925476Y-141616580D01*
X71925476Y-141616580D02*
X72001666Y-141540390D01*
X72001666Y-141540390D02*
X72115952Y-141502295D01*
X72115952Y-141502295D02*
X72192143Y-141502295D01*
X72192143Y-141502295D02*
X72306428Y-141540390D01*
X72306428Y-141540390D02*
X72344524Y-141578485D01*
X72611190Y-141502295D02*
X73106428Y-141502295D01*
X73106428Y-141502295D02*
X72839762Y-141807057D01*
X72839762Y-141807057D02*
X72954047Y-141807057D01*
X72954047Y-141807057D02*
X73030238Y-141845152D01*
X73030238Y-141845152D02*
X73068333Y-141883247D01*
X73068333Y-141883247D02*
X73106428Y-141959438D01*
X73106428Y-141959438D02*
X73106428Y-142149914D01*
X73106428Y-142149914D02*
X73068333Y-142226104D01*
X73068333Y-142226104D02*
X73030238Y-142264200D01*
X73030238Y-142264200D02*
X72954047Y-142302295D01*
X72954047Y-142302295D02*
X72725476Y-142302295D01*
X72725476Y-142302295D02*
X72649285Y-142264200D01*
X72649285Y-142264200D02*
X72611190Y-142226104D01*
X92934524Y-139387295D02*
X92934524Y-138587295D01*
X92934524Y-138587295D02*
X93125000Y-138587295D01*
X93125000Y-138587295D02*
X93239286Y-138625390D01*
X93239286Y-138625390D02*
X93315476Y-138701580D01*
X93315476Y-138701580D02*
X93353571Y-138777771D01*
X93353571Y-138777771D02*
X93391667Y-138930152D01*
X93391667Y-138930152D02*
X93391667Y-139044438D01*
X93391667Y-139044438D02*
X93353571Y-139196819D01*
X93353571Y-139196819D02*
X93315476Y-139273009D01*
X93315476Y-139273009D02*
X93239286Y-139349200D01*
X93239286Y-139349200D02*
X93125000Y-139387295D01*
X93125000Y-139387295D02*
X92934524Y-139387295D01*
X93696428Y-138663485D02*
X93734524Y-138625390D01*
X93734524Y-138625390D02*
X93810714Y-138587295D01*
X93810714Y-138587295D02*
X94001190Y-138587295D01*
X94001190Y-138587295D02*
X94077381Y-138625390D01*
X94077381Y-138625390D02*
X94115476Y-138663485D01*
X94115476Y-138663485D02*
X94153571Y-138739676D01*
X94153571Y-138739676D02*
X94153571Y-138815866D01*
X94153571Y-138815866D02*
X94115476Y-138930152D01*
X94115476Y-138930152D02*
X93658333Y-139387295D01*
X93658333Y-139387295D02*
X94153571Y-139387295D01*
X116509795Y-122015475D02*
X117157414Y-122015475D01*
X117157414Y-122015475D02*
X117233604Y-121977380D01*
X117233604Y-121977380D02*
X117271700Y-121939285D01*
X117271700Y-121939285D02*
X117309795Y-121863094D01*
X117309795Y-121863094D02*
X117309795Y-121710713D01*
X117309795Y-121710713D02*
X117271700Y-121634523D01*
X117271700Y-121634523D02*
X117233604Y-121596428D01*
X117233604Y-121596428D02*
X117157414Y-121558332D01*
X117157414Y-121558332D02*
X116509795Y-121558332D01*
X117309795Y-120758333D02*
X117309795Y-121215476D01*
X117309795Y-120986904D02*
X116509795Y-120986904D01*
X116509795Y-120986904D02*
X116624080Y-121063095D01*
X116624080Y-121063095D02*
X116700271Y-121139285D01*
X116700271Y-121139285D02*
X116738366Y-121215476D01*
X116509795Y-120072618D02*
X116509795Y-120224999D01*
X116509795Y-120224999D02*
X116547890Y-120301190D01*
X116547890Y-120301190D02*
X116585985Y-120339285D01*
X116585985Y-120339285D02*
X116700271Y-120415475D01*
X116700271Y-120415475D02*
X116852652Y-120453571D01*
X116852652Y-120453571D02*
X117157414Y-120453571D01*
X117157414Y-120453571D02*
X117233604Y-120415475D01*
X117233604Y-120415475D02*
X117271700Y-120377380D01*
X117271700Y-120377380D02*
X117309795Y-120301190D01*
X117309795Y-120301190D02*
X117309795Y-120148809D01*
X117309795Y-120148809D02*
X117271700Y-120072618D01*
X117271700Y-120072618D02*
X117233604Y-120034523D01*
X117233604Y-120034523D02*
X117157414Y-119996428D01*
X117157414Y-119996428D02*
X116966938Y-119996428D01*
X116966938Y-119996428D02*
X116890747Y-120034523D01*
X116890747Y-120034523D02*
X116852652Y-120072618D01*
X116852652Y-120072618D02*
X116814557Y-120148809D01*
X116814557Y-120148809D02*
X116814557Y-120301190D01*
X116814557Y-120301190D02*
X116852652Y-120377380D01*
X116852652Y-120377380D02*
X116890747Y-120415475D01*
X116890747Y-120415475D02*
X116966938Y-120453571D01*
X124466666Y-122537295D02*
X124085714Y-122537295D01*
X124085714Y-122537295D02*
X124085714Y-121737295D01*
X124657142Y-121737295D02*
X125152380Y-121737295D01*
X125152380Y-121737295D02*
X124885714Y-122042057D01*
X124885714Y-122042057D02*
X124999999Y-122042057D01*
X124999999Y-122042057D02*
X125076190Y-122080152D01*
X125076190Y-122080152D02*
X125114285Y-122118247D01*
X125114285Y-122118247D02*
X125152380Y-122194438D01*
X125152380Y-122194438D02*
X125152380Y-122384914D01*
X125152380Y-122384914D02*
X125114285Y-122461104D01*
X125114285Y-122461104D02*
X125076190Y-122499200D01*
X125076190Y-122499200D02*
X124999999Y-122537295D01*
X124999999Y-122537295D02*
X124771428Y-122537295D01*
X124771428Y-122537295D02*
X124695237Y-122499200D01*
X124695237Y-122499200D02*
X124657142Y-122461104D01*
X118287023Y-136933247D02*
X118401309Y-136971342D01*
X118401309Y-136971342D02*
X118439404Y-137009438D01*
X118439404Y-137009438D02*
X118477500Y-137085628D01*
X118477500Y-137085628D02*
X118477500Y-137199914D01*
X118477500Y-137199914D02*
X118439404Y-137276104D01*
X118439404Y-137276104D02*
X118401309Y-137314200D01*
X118401309Y-137314200D02*
X118325119Y-137352295D01*
X118325119Y-137352295D02*
X118020357Y-137352295D01*
X118020357Y-137352295D02*
X118020357Y-136552295D01*
X118020357Y-136552295D02*
X118287023Y-136552295D01*
X118287023Y-136552295D02*
X118363214Y-136590390D01*
X118363214Y-136590390D02*
X118401309Y-136628485D01*
X118401309Y-136628485D02*
X118439404Y-136704676D01*
X118439404Y-136704676D02*
X118439404Y-136780866D01*
X118439404Y-136780866D02*
X118401309Y-136857057D01*
X118401309Y-136857057D02*
X118363214Y-136895152D01*
X118363214Y-136895152D02*
X118287023Y-136933247D01*
X118287023Y-136933247D02*
X118020357Y-136933247D01*
X118782261Y-137123723D02*
X119163214Y-137123723D01*
X118706071Y-137352295D02*
X118972738Y-136552295D01*
X118972738Y-136552295D02*
X119239404Y-137352295D01*
X119391785Y-136552295D02*
X119848928Y-136552295D01*
X119620356Y-137352295D02*
X119620356Y-136552295D01*
X103074166Y-127482295D02*
X102693214Y-127482295D01*
X102693214Y-127482295D02*
X102693214Y-126682295D01*
X103759880Y-127482295D02*
X103302737Y-127482295D01*
X103531309Y-127482295D02*
X103531309Y-126682295D01*
X103531309Y-126682295D02*
X103455118Y-126796580D01*
X103455118Y-126796580D02*
X103378928Y-126872771D01*
X103378928Y-126872771D02*
X103302737Y-126910866D01*
X83670833Y-141803247D02*
X83404167Y-141803247D01*
X83404167Y-142222295D02*
X83404167Y-141422295D01*
X83404167Y-141422295D02*
X83785119Y-141422295D01*
X84089881Y-142222295D02*
X84089881Y-141422295D01*
X84089881Y-141422295D02*
X84394643Y-141422295D01*
X84394643Y-141422295D02*
X84470833Y-141460390D01*
X84470833Y-141460390D02*
X84508928Y-141498485D01*
X84508928Y-141498485D02*
X84547024Y-141574676D01*
X84547024Y-141574676D02*
X84547024Y-141688961D01*
X84547024Y-141688961D02*
X84508928Y-141765152D01*
X84508928Y-141765152D02*
X84470833Y-141803247D01*
X84470833Y-141803247D02*
X84394643Y-141841342D01*
X84394643Y-141841342D02*
X84089881Y-141841342D01*
X85347024Y-142146104D02*
X85308928Y-142184200D01*
X85308928Y-142184200D02*
X85194643Y-142222295D01*
X85194643Y-142222295D02*
X85118452Y-142222295D01*
X85118452Y-142222295D02*
X85004166Y-142184200D01*
X85004166Y-142184200D02*
X84927976Y-142108009D01*
X84927976Y-142108009D02*
X84889881Y-142031819D01*
X84889881Y-142031819D02*
X84851785Y-141879438D01*
X84851785Y-141879438D02*
X84851785Y-141765152D01*
X84851785Y-141765152D02*
X84889881Y-141612771D01*
X84889881Y-141612771D02*
X84927976Y-141536580D01*
X84927976Y-141536580D02*
X85004166Y-141460390D01*
X85004166Y-141460390D02*
X85118452Y-141422295D01*
X85118452Y-141422295D02*
X85194643Y-141422295D01*
X85194643Y-141422295D02*
X85308928Y-141460390D01*
X85308928Y-141460390D02*
X85347024Y-141498485D01*
X86032738Y-141688961D02*
X86032738Y-142222295D01*
X85842262Y-141384200D02*
X85651785Y-141955628D01*
X85651785Y-141955628D02*
X86147024Y-141955628D01*
X130629524Y-140432295D02*
X130629524Y-139632295D01*
X130629524Y-139632295D02*
X130820000Y-139632295D01*
X130820000Y-139632295D02*
X130934286Y-139670390D01*
X130934286Y-139670390D02*
X131010476Y-139746580D01*
X131010476Y-139746580D02*
X131048571Y-139822771D01*
X131048571Y-139822771D02*
X131086667Y-139975152D01*
X131086667Y-139975152D02*
X131086667Y-140089438D01*
X131086667Y-140089438D02*
X131048571Y-140241819D01*
X131048571Y-140241819D02*
X131010476Y-140318009D01*
X131010476Y-140318009D02*
X130934286Y-140394200D01*
X130934286Y-140394200D02*
X130820000Y-140432295D01*
X130820000Y-140432295D02*
X130629524Y-140432295D01*
X131848571Y-140432295D02*
X131391428Y-140432295D01*
X131620000Y-140432295D02*
X131620000Y-139632295D01*
X131620000Y-139632295D02*
X131543809Y-139746580D01*
X131543809Y-139746580D02*
X131467619Y-139822771D01*
X131467619Y-139822771D02*
X131391428Y-139860866D01*
X89421905Y-46864819D02*
X89421905Y-47674342D01*
X89421905Y-47674342D02*
X89469524Y-47769580D01*
X89469524Y-47769580D02*
X89517143Y-47817200D01*
X89517143Y-47817200D02*
X89612381Y-47864819D01*
X89612381Y-47864819D02*
X89802857Y-47864819D01*
X89802857Y-47864819D02*
X89898095Y-47817200D01*
X89898095Y-47817200D02*
X89945714Y-47769580D01*
X89945714Y-47769580D02*
X89993333Y-47674342D01*
X89993333Y-47674342D02*
X89993333Y-46864819D01*
X90993333Y-47864819D02*
X90421905Y-47864819D01*
X90707619Y-47864819D02*
X90707619Y-46864819D01*
X90707619Y-46864819D02*
X90612381Y-47007676D01*
X90612381Y-47007676D02*
X90517143Y-47102914D01*
X90517143Y-47102914D02*
X90421905Y-47150533D01*
X91374286Y-46960057D02*
X91421905Y-46912438D01*
X91421905Y-46912438D02*
X91517143Y-46864819D01*
X91517143Y-46864819D02*
X91755238Y-46864819D01*
X91755238Y-46864819D02*
X91850476Y-46912438D01*
X91850476Y-46912438D02*
X91898095Y-46960057D01*
X91898095Y-46960057D02*
X91945714Y-47055295D01*
X91945714Y-47055295D02*
X91945714Y-47150533D01*
X91945714Y-47150533D02*
X91898095Y-47293390D01*
X91898095Y-47293390D02*
X91326667Y-47864819D01*
X91326667Y-47864819D02*
X91945714Y-47864819D01*
X100310747Y-145126666D02*
X100310747Y-145393332D01*
X100729795Y-145393332D02*
X99929795Y-145393332D01*
X99929795Y-145393332D02*
X99929795Y-145012380D01*
X100005985Y-144745714D02*
X99967890Y-144707618D01*
X99967890Y-144707618D02*
X99929795Y-144631428D01*
X99929795Y-144631428D02*
X99929795Y-144440952D01*
X99929795Y-144440952D02*
X99967890Y-144364761D01*
X99967890Y-144364761D02*
X100005985Y-144326666D01*
X100005985Y-144326666D02*
X100082176Y-144288571D01*
X100082176Y-144288571D02*
X100158366Y-144288571D01*
X100158366Y-144288571D02*
X100272652Y-144326666D01*
X100272652Y-144326666D02*
X100729795Y-144783809D01*
X100729795Y-144783809D02*
X100729795Y-144288571D01*
X85604795Y-118525475D02*
X86252414Y-118525475D01*
X86252414Y-118525475D02*
X86328604Y-118487380D01*
X86328604Y-118487380D02*
X86366700Y-118449285D01*
X86366700Y-118449285D02*
X86404795Y-118373094D01*
X86404795Y-118373094D02*
X86404795Y-118220713D01*
X86404795Y-118220713D02*
X86366700Y-118144523D01*
X86366700Y-118144523D02*
X86328604Y-118106428D01*
X86328604Y-118106428D02*
X86252414Y-118068332D01*
X86252414Y-118068332D02*
X85604795Y-118068332D01*
X85680985Y-117725476D02*
X85642890Y-117687380D01*
X85642890Y-117687380D02*
X85604795Y-117611190D01*
X85604795Y-117611190D02*
X85604795Y-117420714D01*
X85604795Y-117420714D02*
X85642890Y-117344523D01*
X85642890Y-117344523D02*
X85680985Y-117306428D01*
X85680985Y-117306428D02*
X85757176Y-117268333D01*
X85757176Y-117268333D02*
X85833366Y-117268333D01*
X85833366Y-117268333D02*
X85947652Y-117306428D01*
X85947652Y-117306428D02*
X86404795Y-117763571D01*
X86404795Y-117763571D02*
X86404795Y-117268333D01*
X86404795Y-116506428D02*
X86404795Y-116963571D01*
X86404795Y-116734999D02*
X85604795Y-116734999D01*
X85604795Y-116734999D02*
X85719080Y-116811190D01*
X85719080Y-116811190D02*
X85795271Y-116887380D01*
X85795271Y-116887380D02*
X85833366Y-116963571D01*
X112065119Y-129912295D02*
X111684167Y-129912295D01*
X111684167Y-129912295D02*
X111684167Y-129112295D01*
X112331786Y-129912295D02*
X112331786Y-129112295D01*
X112331786Y-129112295D02*
X112522262Y-129112295D01*
X112522262Y-129112295D02*
X112636548Y-129150390D01*
X112636548Y-129150390D02*
X112712738Y-129226580D01*
X112712738Y-129226580D02*
X112750833Y-129302771D01*
X112750833Y-129302771D02*
X112788929Y-129455152D01*
X112788929Y-129455152D02*
X112788929Y-129569438D01*
X112788929Y-129569438D02*
X112750833Y-129721819D01*
X112750833Y-129721819D02*
X112712738Y-129798009D01*
X112712738Y-129798009D02*
X112636548Y-129874200D01*
X112636548Y-129874200D02*
X112522262Y-129912295D01*
X112522262Y-129912295D02*
X112331786Y-129912295D01*
X67072295Y-74648333D02*
X67072295Y-75029285D01*
X67072295Y-75029285D02*
X66272295Y-75029285D01*
X66348485Y-74419762D02*
X66310390Y-74381666D01*
X66310390Y-74381666D02*
X66272295Y-74305476D01*
X66272295Y-74305476D02*
X66272295Y-74115000D01*
X66272295Y-74115000D02*
X66310390Y-74038809D01*
X66310390Y-74038809D02*
X66348485Y-74000714D01*
X66348485Y-74000714D02*
X66424676Y-73962619D01*
X66424676Y-73962619D02*
X66500866Y-73962619D01*
X66500866Y-73962619D02*
X66615152Y-74000714D01*
X66615152Y-74000714D02*
X67072295Y-74457857D01*
X67072295Y-74457857D02*
X67072295Y-73962619D01*
X62540476Y-103232295D02*
X62540476Y-103879914D01*
X62540476Y-103879914D02*
X62578571Y-103956104D01*
X62578571Y-103956104D02*
X62616666Y-103994200D01*
X62616666Y-103994200D02*
X62692857Y-104032295D01*
X62692857Y-104032295D02*
X62845238Y-104032295D01*
X62845238Y-104032295D02*
X62921428Y-103994200D01*
X62921428Y-103994200D02*
X62959523Y-103956104D01*
X62959523Y-103956104D02*
X62997619Y-103879914D01*
X62997619Y-103879914D02*
X62997619Y-103232295D01*
X63492856Y-103575152D02*
X63416666Y-103537057D01*
X63416666Y-103537057D02*
X63378571Y-103498961D01*
X63378571Y-103498961D02*
X63340475Y-103422771D01*
X63340475Y-103422771D02*
X63340475Y-103384676D01*
X63340475Y-103384676D02*
X63378571Y-103308485D01*
X63378571Y-103308485D02*
X63416666Y-103270390D01*
X63416666Y-103270390D02*
X63492856Y-103232295D01*
X63492856Y-103232295D02*
X63645237Y-103232295D01*
X63645237Y-103232295D02*
X63721428Y-103270390D01*
X63721428Y-103270390D02*
X63759523Y-103308485D01*
X63759523Y-103308485D02*
X63797618Y-103384676D01*
X63797618Y-103384676D02*
X63797618Y-103422771D01*
X63797618Y-103422771D02*
X63759523Y-103498961D01*
X63759523Y-103498961D02*
X63721428Y-103537057D01*
X63721428Y-103537057D02*
X63645237Y-103575152D01*
X63645237Y-103575152D02*
X63492856Y-103575152D01*
X63492856Y-103575152D02*
X63416666Y-103613247D01*
X63416666Y-103613247D02*
X63378571Y-103651342D01*
X63378571Y-103651342D02*
X63340475Y-103727533D01*
X63340475Y-103727533D02*
X63340475Y-103879914D01*
X63340475Y-103879914D02*
X63378571Y-103956104D01*
X63378571Y-103956104D02*
X63416666Y-103994200D01*
X63416666Y-103994200D02*
X63492856Y-104032295D01*
X63492856Y-104032295D02*
X63645237Y-104032295D01*
X63645237Y-104032295D02*
X63721428Y-103994200D01*
X63721428Y-103994200D02*
X63759523Y-103956104D01*
X63759523Y-103956104D02*
X63797618Y-103879914D01*
X63797618Y-103879914D02*
X63797618Y-103727533D01*
X63797618Y-103727533D02*
X63759523Y-103651342D01*
X63759523Y-103651342D02*
X63721428Y-103613247D01*
X63721428Y-103613247D02*
X63645237Y-103575152D01*
X100972976Y-138605228D02*
X100972976Y-139252847D01*
X100972976Y-139252847D02*
X101011071Y-139329037D01*
X101011071Y-139329037D02*
X101049166Y-139367133D01*
X101049166Y-139367133D02*
X101125357Y-139405228D01*
X101125357Y-139405228D02*
X101277738Y-139405228D01*
X101277738Y-139405228D02*
X101353928Y-139367133D01*
X101353928Y-139367133D02*
X101392023Y-139329037D01*
X101392023Y-139329037D02*
X101430119Y-139252847D01*
X101430119Y-139252847D02*
X101430119Y-138605228D01*
X101734880Y-138605228D02*
X102230118Y-138605228D01*
X102230118Y-138605228D02*
X101963452Y-138909990D01*
X101963452Y-138909990D02*
X102077737Y-138909990D01*
X102077737Y-138909990D02*
X102153928Y-138948085D01*
X102153928Y-138948085D02*
X102192023Y-138986180D01*
X102192023Y-138986180D02*
X102230118Y-139062371D01*
X102230118Y-139062371D02*
X102230118Y-139252847D01*
X102230118Y-139252847D02*
X102192023Y-139329037D01*
X102192023Y-139329037D02*
X102153928Y-139367133D01*
X102153928Y-139367133D02*
X102077737Y-139405228D01*
X102077737Y-139405228D02*
X101849166Y-139405228D01*
X101849166Y-139405228D02*
X101772975Y-139367133D01*
X101772975Y-139367133D02*
X101734880Y-139329037D01*
X76433333Y-45553247D02*
X76166667Y-45553247D01*
X76166667Y-45972295D02*
X76166667Y-45172295D01*
X76166667Y-45172295D02*
X76547619Y-45172295D01*
X76852381Y-45972295D02*
X76852381Y-45172295D01*
X76852381Y-45172295D02*
X77157143Y-45172295D01*
X77157143Y-45172295D02*
X77233333Y-45210390D01*
X77233333Y-45210390D02*
X77271428Y-45248485D01*
X77271428Y-45248485D02*
X77309524Y-45324676D01*
X77309524Y-45324676D02*
X77309524Y-45438961D01*
X77309524Y-45438961D02*
X77271428Y-45515152D01*
X77271428Y-45515152D02*
X77233333Y-45553247D01*
X77233333Y-45553247D02*
X77157143Y-45591342D01*
X77157143Y-45591342D02*
X76852381Y-45591342D01*
X78109524Y-45896104D02*
X78071428Y-45934200D01*
X78071428Y-45934200D02*
X77957143Y-45972295D01*
X77957143Y-45972295D02*
X77880952Y-45972295D01*
X77880952Y-45972295D02*
X77766666Y-45934200D01*
X77766666Y-45934200D02*
X77690476Y-45858009D01*
X77690476Y-45858009D02*
X77652381Y-45781819D01*
X77652381Y-45781819D02*
X77614285Y-45629438D01*
X77614285Y-45629438D02*
X77614285Y-45515152D01*
X77614285Y-45515152D02*
X77652381Y-45362771D01*
X77652381Y-45362771D02*
X77690476Y-45286580D01*
X77690476Y-45286580D02*
X77766666Y-45210390D01*
X77766666Y-45210390D02*
X77880952Y-45172295D01*
X77880952Y-45172295D02*
X77957143Y-45172295D01*
X77957143Y-45172295D02*
X78071428Y-45210390D01*
X78071428Y-45210390D02*
X78109524Y-45248485D01*
X78414285Y-45248485D02*
X78452381Y-45210390D01*
X78452381Y-45210390D02*
X78528571Y-45172295D01*
X78528571Y-45172295D02*
X78719047Y-45172295D01*
X78719047Y-45172295D02*
X78795238Y-45210390D01*
X78795238Y-45210390D02*
X78833333Y-45248485D01*
X78833333Y-45248485D02*
X78871428Y-45324676D01*
X78871428Y-45324676D02*
X78871428Y-45400866D01*
X78871428Y-45400866D02*
X78833333Y-45515152D01*
X78833333Y-45515152D02*
X78376190Y-45972295D01*
X78376190Y-45972295D02*
X78871428Y-45972295D01*
X114315476Y-134542295D02*
X114315476Y-135189914D01*
X114315476Y-135189914D02*
X114353571Y-135266104D01*
X114353571Y-135266104D02*
X114391666Y-135304200D01*
X114391666Y-135304200D02*
X114467857Y-135342295D01*
X114467857Y-135342295D02*
X114620238Y-135342295D01*
X114620238Y-135342295D02*
X114696428Y-135304200D01*
X114696428Y-135304200D02*
X114734523Y-135266104D01*
X114734523Y-135266104D02*
X114772619Y-135189914D01*
X114772619Y-135189914D02*
X114772619Y-134542295D01*
X115496428Y-134808961D02*
X115496428Y-135342295D01*
X115305952Y-134504200D02*
X115115475Y-135075628D01*
X115115475Y-135075628D02*
X115610714Y-135075628D01*
X70237295Y-67852975D02*
X70884914Y-67852975D01*
X70884914Y-67852975D02*
X70961104Y-67814880D01*
X70961104Y-67814880D02*
X70999200Y-67776785D01*
X70999200Y-67776785D02*
X71037295Y-67700594D01*
X71037295Y-67700594D02*
X71037295Y-67548213D01*
X71037295Y-67548213D02*
X70999200Y-67472023D01*
X70999200Y-67472023D02*
X70961104Y-67433928D01*
X70961104Y-67433928D02*
X70884914Y-67395832D01*
X70884914Y-67395832D02*
X70237295Y-67395832D01*
X70313485Y-67052976D02*
X70275390Y-67014880D01*
X70275390Y-67014880D02*
X70237295Y-66938690D01*
X70237295Y-66938690D02*
X70237295Y-66748214D01*
X70237295Y-66748214D02*
X70275390Y-66672023D01*
X70275390Y-66672023D02*
X70313485Y-66633928D01*
X70313485Y-66633928D02*
X70389676Y-66595833D01*
X70389676Y-66595833D02*
X70465866Y-66595833D01*
X70465866Y-66595833D02*
X70580152Y-66633928D01*
X70580152Y-66633928D02*
X71037295Y-67091071D01*
X71037295Y-67091071D02*
X71037295Y-66595833D01*
X70237295Y-66100594D02*
X70237295Y-66024404D01*
X70237295Y-66024404D02*
X70275390Y-65948213D01*
X70275390Y-65948213D02*
X70313485Y-65910118D01*
X70313485Y-65910118D02*
X70389676Y-65872023D01*
X70389676Y-65872023D02*
X70542057Y-65833928D01*
X70542057Y-65833928D02*
X70732533Y-65833928D01*
X70732533Y-65833928D02*
X70884914Y-65872023D01*
X70884914Y-65872023D02*
X70961104Y-65910118D01*
X70961104Y-65910118D02*
X70999200Y-65948213D01*
X70999200Y-65948213D02*
X71037295Y-66024404D01*
X71037295Y-66024404D02*
X71037295Y-66100594D01*
X71037295Y-66100594D02*
X70999200Y-66176785D01*
X70999200Y-66176785D02*
X70961104Y-66214880D01*
X70961104Y-66214880D02*
X70884914Y-66252975D01*
X70884914Y-66252975D02*
X70732533Y-66291071D01*
X70732533Y-66291071D02*
X70542057Y-66291071D01*
X70542057Y-66291071D02*
X70389676Y-66252975D01*
X70389676Y-66252975D02*
X70313485Y-66214880D01*
X70313485Y-66214880D02*
X70275390Y-66176785D01*
X70275390Y-66176785D02*
X70237295Y-66100594D01*
X67254761Y-54242295D02*
X66873809Y-54242295D01*
X66873809Y-54242295D02*
X66873809Y-53442295D01*
X67521428Y-53823247D02*
X67788094Y-53823247D01*
X67902380Y-54242295D02*
X67521428Y-54242295D01*
X67521428Y-54242295D02*
X67521428Y-53442295D01*
X67521428Y-53442295D02*
X67902380Y-53442295D01*
X68245238Y-54242295D02*
X68245238Y-53442295D01*
X68245238Y-53442295D02*
X68435714Y-53442295D01*
X68435714Y-53442295D02*
X68550000Y-53480390D01*
X68550000Y-53480390D02*
X68626190Y-53556580D01*
X68626190Y-53556580D02*
X68664285Y-53632771D01*
X68664285Y-53632771D02*
X68702381Y-53785152D01*
X68702381Y-53785152D02*
X68702381Y-53899438D01*
X68702381Y-53899438D02*
X68664285Y-54051819D01*
X68664285Y-54051819D02*
X68626190Y-54128009D01*
X68626190Y-54128009D02*
X68550000Y-54204200D01*
X68550000Y-54204200D02*
X68435714Y-54242295D01*
X68435714Y-54242295D02*
X68245238Y-54242295D01*
X68969047Y-53442295D02*
X69464285Y-53442295D01*
X69464285Y-53442295D02*
X69197619Y-53747057D01*
X69197619Y-53747057D02*
X69311904Y-53747057D01*
X69311904Y-53747057D02*
X69388095Y-53785152D01*
X69388095Y-53785152D02*
X69426190Y-53823247D01*
X69426190Y-53823247D02*
X69464285Y-53899438D01*
X69464285Y-53899438D02*
X69464285Y-54089914D01*
X69464285Y-54089914D02*
X69426190Y-54166104D01*
X69426190Y-54166104D02*
X69388095Y-54204200D01*
X69388095Y-54204200D02*
X69311904Y-54242295D01*
X69311904Y-54242295D02*
X69083333Y-54242295D01*
X69083333Y-54242295D02*
X69007142Y-54204200D01*
X69007142Y-54204200D02*
X68969047Y-54166104D01*
X125962619Y-102761104D02*
X125924523Y-102799200D01*
X125924523Y-102799200D02*
X125810238Y-102837295D01*
X125810238Y-102837295D02*
X125734047Y-102837295D01*
X125734047Y-102837295D02*
X125619761Y-102799200D01*
X125619761Y-102799200D02*
X125543571Y-102723009D01*
X125543571Y-102723009D02*
X125505476Y-102646819D01*
X125505476Y-102646819D02*
X125467380Y-102494438D01*
X125467380Y-102494438D02*
X125467380Y-102380152D01*
X125467380Y-102380152D02*
X125505476Y-102227771D01*
X125505476Y-102227771D02*
X125543571Y-102151580D01*
X125543571Y-102151580D02*
X125619761Y-102075390D01*
X125619761Y-102075390D02*
X125734047Y-102037295D01*
X125734047Y-102037295D02*
X125810238Y-102037295D01*
X125810238Y-102037295D02*
X125924523Y-102075390D01*
X125924523Y-102075390D02*
X125962619Y-102113485D01*
X126572142Y-102418247D02*
X126686428Y-102456342D01*
X126686428Y-102456342D02*
X126724523Y-102494438D01*
X126724523Y-102494438D02*
X126762619Y-102570628D01*
X126762619Y-102570628D02*
X126762619Y-102684914D01*
X126762619Y-102684914D02*
X126724523Y-102761104D01*
X126724523Y-102761104D02*
X126686428Y-102799200D01*
X126686428Y-102799200D02*
X126610238Y-102837295D01*
X126610238Y-102837295D02*
X126305476Y-102837295D01*
X126305476Y-102837295D02*
X126305476Y-102037295D01*
X126305476Y-102037295D02*
X126572142Y-102037295D01*
X126572142Y-102037295D02*
X126648333Y-102075390D01*
X126648333Y-102075390D02*
X126686428Y-102113485D01*
X126686428Y-102113485D02*
X126724523Y-102189676D01*
X126724523Y-102189676D02*
X126724523Y-102265866D01*
X126724523Y-102265866D02*
X126686428Y-102342057D01*
X126686428Y-102342057D02*
X126648333Y-102380152D01*
X126648333Y-102380152D02*
X126572142Y-102418247D01*
X126572142Y-102418247D02*
X126305476Y-102418247D01*
X127105476Y-102037295D02*
X127105476Y-102684914D01*
X127105476Y-102684914D02*
X127143571Y-102761104D01*
X127143571Y-102761104D02*
X127181666Y-102799200D01*
X127181666Y-102799200D02*
X127257857Y-102837295D01*
X127257857Y-102837295D02*
X127410238Y-102837295D01*
X127410238Y-102837295D02*
X127486428Y-102799200D01*
X127486428Y-102799200D02*
X127524523Y-102761104D01*
X127524523Y-102761104D02*
X127562619Y-102684914D01*
X127562619Y-102684914D02*
X127562619Y-102037295D01*
X127905475Y-102799200D02*
X128019761Y-102837295D01*
X128019761Y-102837295D02*
X128210237Y-102837295D01*
X128210237Y-102837295D02*
X128286428Y-102799200D01*
X128286428Y-102799200D02*
X128324523Y-102761104D01*
X128324523Y-102761104D02*
X128362618Y-102684914D01*
X128362618Y-102684914D02*
X128362618Y-102608723D01*
X128362618Y-102608723D02*
X128324523Y-102532533D01*
X128324523Y-102532533D02*
X128286428Y-102494438D01*
X128286428Y-102494438D02*
X128210237Y-102456342D01*
X128210237Y-102456342D02*
X128057856Y-102418247D01*
X128057856Y-102418247D02*
X127981666Y-102380152D01*
X127981666Y-102380152D02*
X127943571Y-102342057D01*
X127943571Y-102342057D02*
X127905475Y-102265866D01*
X127905475Y-102265866D02*
X127905475Y-102189676D01*
X127905475Y-102189676D02*
X127943571Y-102113485D01*
X127943571Y-102113485D02*
X127981666Y-102075390D01*
X127981666Y-102075390D02*
X128057856Y-102037295D01*
X128057856Y-102037295D02*
X128248333Y-102037295D01*
X128248333Y-102037295D02*
X128362618Y-102075390D01*
X59970476Y-92422295D02*
X59970476Y-93069914D01*
X59970476Y-93069914D02*
X60008571Y-93146104D01*
X60008571Y-93146104D02*
X60046666Y-93184200D01*
X60046666Y-93184200D02*
X60122857Y-93222295D01*
X60122857Y-93222295D02*
X60275238Y-93222295D01*
X60275238Y-93222295D02*
X60351428Y-93184200D01*
X60351428Y-93184200D02*
X60389523Y-93146104D01*
X60389523Y-93146104D02*
X60427619Y-93069914D01*
X60427619Y-93069914D02*
X60427619Y-92422295D01*
X60770475Y-92498485D02*
X60808571Y-92460390D01*
X60808571Y-92460390D02*
X60884761Y-92422295D01*
X60884761Y-92422295D02*
X61075237Y-92422295D01*
X61075237Y-92422295D02*
X61151428Y-92460390D01*
X61151428Y-92460390D02*
X61189523Y-92498485D01*
X61189523Y-92498485D02*
X61227618Y-92574676D01*
X61227618Y-92574676D02*
X61227618Y-92650866D01*
X61227618Y-92650866D02*
X61189523Y-92765152D01*
X61189523Y-92765152D02*
X60732380Y-93222295D01*
X60732380Y-93222295D02*
X61227618Y-93222295D01*
X127509524Y-117614295D02*
X127509524Y-116814295D01*
X127509524Y-116814295D02*
X127814286Y-116814295D01*
X127814286Y-116814295D02*
X127890476Y-116852390D01*
X127890476Y-116852390D02*
X127928571Y-116890485D01*
X127928571Y-116890485D02*
X127966667Y-116966676D01*
X127966667Y-116966676D02*
X127966667Y-117080961D01*
X127966667Y-117080961D02*
X127928571Y-117157152D01*
X127928571Y-117157152D02*
X127890476Y-117195247D01*
X127890476Y-117195247D02*
X127814286Y-117233342D01*
X127814286Y-117233342D02*
X127509524Y-117233342D01*
X128309524Y-117195247D02*
X128576190Y-117195247D01*
X128690476Y-117614295D02*
X128309524Y-117614295D01*
X128309524Y-117614295D02*
X128309524Y-116814295D01*
X128309524Y-116814295D02*
X128690476Y-116814295D01*
X129490477Y-117614295D02*
X129223810Y-117233342D01*
X129033334Y-117614295D02*
X129033334Y-116814295D01*
X129033334Y-116814295D02*
X129338096Y-116814295D01*
X129338096Y-116814295D02*
X129414286Y-116852390D01*
X129414286Y-116852390D02*
X129452381Y-116890485D01*
X129452381Y-116890485D02*
X129490477Y-116966676D01*
X129490477Y-116966676D02*
X129490477Y-117080961D01*
X129490477Y-117080961D02*
X129452381Y-117157152D01*
X129452381Y-117157152D02*
X129414286Y-117195247D01*
X129414286Y-117195247D02*
X129338096Y-117233342D01*
X129338096Y-117233342D02*
X129033334Y-117233342D01*
X129833334Y-117614295D02*
X129833334Y-116814295D01*
X129833334Y-117195247D02*
X130290477Y-117195247D01*
X130290477Y-117614295D02*
X130290477Y-116814295D01*
X116410747Y-144936666D02*
X116410747Y-145203332D01*
X116829795Y-145203332D02*
X116029795Y-145203332D01*
X116029795Y-145203332D02*
X116029795Y-144822380D01*
X116829795Y-144098571D02*
X116829795Y-144555714D01*
X116829795Y-144327142D02*
X116029795Y-144327142D01*
X116029795Y-144327142D02*
X116144080Y-144403333D01*
X116144080Y-144403333D02*
X116220271Y-144479523D01*
X116220271Y-144479523D02*
X116258366Y-144555714D01*
X128087295Y-110709523D02*
X127287295Y-110709523D01*
X127668247Y-110709523D02*
X127668247Y-110252380D01*
X128087295Y-110252380D02*
X127287295Y-110252380D01*
X127287295Y-109947619D02*
X127287295Y-109452381D01*
X127287295Y-109452381D02*
X127592057Y-109719047D01*
X127592057Y-109719047D02*
X127592057Y-109604762D01*
X127592057Y-109604762D02*
X127630152Y-109528571D01*
X127630152Y-109528571D02*
X127668247Y-109490476D01*
X127668247Y-109490476D02*
X127744438Y-109452381D01*
X127744438Y-109452381D02*
X127934914Y-109452381D01*
X127934914Y-109452381D02*
X128011104Y-109490476D01*
X128011104Y-109490476D02*
X128049200Y-109528571D01*
X128049200Y-109528571D02*
X128087295Y-109604762D01*
X128087295Y-109604762D02*
X128087295Y-109833333D01*
X128087295Y-109833333D02*
X128049200Y-109909524D01*
X128049200Y-109909524D02*
X128011104Y-109947619D01*
X102887295Y-120040475D02*
X103534914Y-120040475D01*
X103534914Y-120040475D02*
X103611104Y-120002380D01*
X103611104Y-120002380D02*
X103649200Y-119964285D01*
X103649200Y-119964285D02*
X103687295Y-119888094D01*
X103687295Y-119888094D02*
X103687295Y-119735713D01*
X103687295Y-119735713D02*
X103649200Y-119659523D01*
X103649200Y-119659523D02*
X103611104Y-119621428D01*
X103611104Y-119621428D02*
X103534914Y-119583332D01*
X103534914Y-119583332D02*
X102887295Y-119583332D01*
X103687295Y-118783333D02*
X103687295Y-119240476D01*
X103687295Y-119011904D02*
X102887295Y-119011904D01*
X102887295Y-119011904D02*
X103001580Y-119088095D01*
X103001580Y-119088095D02*
X103077771Y-119164285D01*
X103077771Y-119164285D02*
X103115866Y-119240476D01*
X102887295Y-118516666D02*
X102887295Y-117983332D01*
X102887295Y-117983332D02*
X103687295Y-118326190D01*
X124075483Y-125697250D02*
X124075483Y-126344869D01*
X124075483Y-126344869D02*
X124113578Y-126421059D01*
X124113578Y-126421059D02*
X124151673Y-126459155D01*
X124151673Y-126459155D02*
X124227864Y-126497250D01*
X124227864Y-126497250D02*
X124380245Y-126497250D01*
X124380245Y-126497250D02*
X124456435Y-126459155D01*
X124456435Y-126459155D02*
X124494530Y-126421059D01*
X124494530Y-126421059D02*
X124532626Y-126344869D01*
X124532626Y-126344869D02*
X124532626Y-125697250D01*
X125294530Y-125697250D02*
X124913578Y-125697250D01*
X124913578Y-125697250D02*
X124875482Y-126078202D01*
X124875482Y-126078202D02*
X124913578Y-126040107D01*
X124913578Y-126040107D02*
X124989768Y-126002012D01*
X124989768Y-126002012D02*
X125180244Y-126002012D01*
X125180244Y-126002012D02*
X125256435Y-126040107D01*
X125256435Y-126040107D02*
X125294530Y-126078202D01*
X125294530Y-126078202D02*
X125332625Y-126154393D01*
X125332625Y-126154393D02*
X125332625Y-126344869D01*
X125332625Y-126344869D02*
X125294530Y-126421059D01*
X125294530Y-126421059D02*
X125256435Y-126459155D01*
X125256435Y-126459155D02*
X125180244Y-126497250D01*
X125180244Y-126497250D02*
X124989768Y-126497250D01*
X124989768Y-126497250D02*
X124913578Y-126459155D01*
X124913578Y-126459155D02*
X124875482Y-126421059D01*
X91240476Y-87287295D02*
X91240476Y-86487295D01*
X91240476Y-86868247D02*
X91697619Y-86868247D01*
X91697619Y-87287295D02*
X91697619Y-86487295D01*
X92497618Y-87287295D02*
X92040475Y-87287295D01*
X92269047Y-87287295D02*
X92269047Y-86487295D01*
X92269047Y-86487295D02*
X92192856Y-86601580D01*
X92192856Y-86601580D02*
X92116666Y-86677771D01*
X92116666Y-86677771D02*
X92040475Y-86715866D01*
X71484761Y-61612295D02*
X71103809Y-61612295D01*
X71103809Y-61612295D02*
X71103809Y-60812295D01*
X71751428Y-61193247D02*
X72018094Y-61193247D01*
X72132380Y-61612295D02*
X71751428Y-61612295D01*
X71751428Y-61612295D02*
X71751428Y-60812295D01*
X71751428Y-60812295D02*
X72132380Y-60812295D01*
X72475238Y-61612295D02*
X72475238Y-60812295D01*
X72475238Y-60812295D02*
X72665714Y-60812295D01*
X72665714Y-60812295D02*
X72780000Y-60850390D01*
X72780000Y-60850390D02*
X72856190Y-60926580D01*
X72856190Y-60926580D02*
X72894285Y-61002771D01*
X72894285Y-61002771D02*
X72932381Y-61155152D01*
X72932381Y-61155152D02*
X72932381Y-61269438D01*
X72932381Y-61269438D02*
X72894285Y-61421819D01*
X72894285Y-61421819D02*
X72856190Y-61498009D01*
X72856190Y-61498009D02*
X72780000Y-61574200D01*
X72780000Y-61574200D02*
X72665714Y-61612295D01*
X72665714Y-61612295D02*
X72475238Y-61612295D01*
X73656190Y-60812295D02*
X73275238Y-60812295D01*
X73275238Y-60812295D02*
X73237142Y-61193247D01*
X73237142Y-61193247D02*
X73275238Y-61155152D01*
X73275238Y-61155152D02*
X73351428Y-61117057D01*
X73351428Y-61117057D02*
X73541904Y-61117057D01*
X73541904Y-61117057D02*
X73618095Y-61155152D01*
X73618095Y-61155152D02*
X73656190Y-61193247D01*
X73656190Y-61193247D02*
X73694285Y-61269438D01*
X73694285Y-61269438D02*
X73694285Y-61459914D01*
X73694285Y-61459914D02*
X73656190Y-61536104D01*
X73656190Y-61536104D02*
X73618095Y-61574200D01*
X73618095Y-61574200D02*
X73541904Y-61612295D01*
X73541904Y-61612295D02*
X73351428Y-61612295D01*
X73351428Y-61612295D02*
X73275238Y-61574200D01*
X73275238Y-61574200D02*
X73237142Y-61536104D01*
X136047619Y-133237295D02*
X135666667Y-133237295D01*
X135666667Y-133237295D02*
X135628571Y-133618247D01*
X135628571Y-133618247D02*
X135666667Y-133580152D01*
X135666667Y-133580152D02*
X135742857Y-133542057D01*
X135742857Y-133542057D02*
X135933333Y-133542057D01*
X135933333Y-133542057D02*
X136009524Y-133580152D01*
X136009524Y-133580152D02*
X136047619Y-133618247D01*
X136047619Y-133618247D02*
X136085714Y-133694438D01*
X136085714Y-133694438D02*
X136085714Y-133884914D01*
X136085714Y-133884914D02*
X136047619Y-133961104D01*
X136047619Y-133961104D02*
X136009524Y-133999200D01*
X136009524Y-133999200D02*
X135933333Y-134037295D01*
X135933333Y-134037295D02*
X135742857Y-134037295D01*
X135742857Y-134037295D02*
X135666667Y-133999200D01*
X135666667Y-133999200D02*
X135628571Y-133961104D01*
X136314286Y-133237295D02*
X136580953Y-134037295D01*
X136580953Y-134037295D02*
X136847619Y-133237295D01*
X78472295Y-126534523D02*
X79119914Y-126534523D01*
X79119914Y-126534523D02*
X79196104Y-126496428D01*
X79196104Y-126496428D02*
X79234200Y-126458333D01*
X79234200Y-126458333D02*
X79272295Y-126382142D01*
X79272295Y-126382142D02*
X79272295Y-126229761D01*
X79272295Y-126229761D02*
X79234200Y-126153571D01*
X79234200Y-126153571D02*
X79196104Y-126115476D01*
X79196104Y-126115476D02*
X79119914Y-126077380D01*
X79119914Y-126077380D02*
X78472295Y-126077380D01*
X78472295Y-125772619D02*
X78472295Y-125239285D01*
X78472295Y-125239285D02*
X79272295Y-125582143D01*
X125043332Y-59534200D02*
X125157618Y-59572295D01*
X125157618Y-59572295D02*
X125348094Y-59572295D01*
X125348094Y-59572295D02*
X125424285Y-59534200D01*
X125424285Y-59534200D02*
X125462380Y-59496104D01*
X125462380Y-59496104D02*
X125500475Y-59419914D01*
X125500475Y-59419914D02*
X125500475Y-59343723D01*
X125500475Y-59343723D02*
X125462380Y-59267533D01*
X125462380Y-59267533D02*
X125424285Y-59229438D01*
X125424285Y-59229438D02*
X125348094Y-59191342D01*
X125348094Y-59191342D02*
X125195713Y-59153247D01*
X125195713Y-59153247D02*
X125119523Y-59115152D01*
X125119523Y-59115152D02*
X125081428Y-59077057D01*
X125081428Y-59077057D02*
X125043332Y-59000866D01*
X125043332Y-59000866D02*
X125043332Y-58924676D01*
X125043332Y-58924676D02*
X125081428Y-58848485D01*
X125081428Y-58848485D02*
X125119523Y-58810390D01*
X125119523Y-58810390D02*
X125195713Y-58772295D01*
X125195713Y-58772295D02*
X125386190Y-58772295D01*
X125386190Y-58772295D02*
X125500475Y-58810390D01*
X125767142Y-58772295D02*
X125957618Y-59572295D01*
X125957618Y-59572295D02*
X126109999Y-59000866D01*
X126109999Y-59000866D02*
X126262380Y-59572295D01*
X126262380Y-59572295D02*
X126452857Y-58772295D01*
X127176666Y-59572295D02*
X126719523Y-59572295D01*
X126948095Y-59572295D02*
X126948095Y-58772295D01*
X126948095Y-58772295D02*
X126871904Y-58886580D01*
X126871904Y-58886580D02*
X126795714Y-58962771D01*
X126795714Y-58962771D02*
X126719523Y-59000866D01*
X127994751Y-101390475D02*
X128642370Y-101390475D01*
X128642370Y-101390475D02*
X128718560Y-101352380D01*
X128718560Y-101352380D02*
X128756656Y-101314285D01*
X128756656Y-101314285D02*
X128794751Y-101238094D01*
X128794751Y-101238094D02*
X128794751Y-101085713D01*
X128794751Y-101085713D02*
X128756656Y-101009523D01*
X128756656Y-101009523D02*
X128718560Y-100971428D01*
X128718560Y-100971428D02*
X128642370Y-100933332D01*
X128642370Y-100933332D02*
X127994751Y-100933332D01*
X128756656Y-100590476D02*
X128794751Y-100476190D01*
X128794751Y-100476190D02*
X128794751Y-100285714D01*
X128794751Y-100285714D02*
X128756656Y-100209523D01*
X128756656Y-100209523D02*
X128718560Y-100171428D01*
X128718560Y-100171428D02*
X128642370Y-100133333D01*
X128642370Y-100133333D02*
X128566179Y-100133333D01*
X128566179Y-100133333D02*
X128489989Y-100171428D01*
X128489989Y-100171428D02*
X128451894Y-100209523D01*
X128451894Y-100209523D02*
X128413798Y-100285714D01*
X128413798Y-100285714D02*
X128375703Y-100438095D01*
X128375703Y-100438095D02*
X128337608Y-100514285D01*
X128337608Y-100514285D02*
X128299513Y-100552380D01*
X128299513Y-100552380D02*
X128223322Y-100590476D01*
X128223322Y-100590476D02*
X128147132Y-100590476D01*
X128147132Y-100590476D02*
X128070941Y-100552380D01*
X128070941Y-100552380D02*
X128032846Y-100514285D01*
X128032846Y-100514285D02*
X127994751Y-100438095D01*
X127994751Y-100438095D02*
X127994751Y-100247618D01*
X127994751Y-100247618D02*
X128032846Y-100133333D01*
X128375703Y-99523809D02*
X128413798Y-99409523D01*
X128413798Y-99409523D02*
X128451894Y-99371428D01*
X128451894Y-99371428D02*
X128528084Y-99333332D01*
X128528084Y-99333332D02*
X128642370Y-99333332D01*
X128642370Y-99333332D02*
X128718560Y-99371428D01*
X128718560Y-99371428D02*
X128756656Y-99409523D01*
X128756656Y-99409523D02*
X128794751Y-99485713D01*
X128794751Y-99485713D02*
X128794751Y-99790475D01*
X128794751Y-99790475D02*
X127994751Y-99790475D01*
X127994751Y-99790475D02*
X127994751Y-99523809D01*
X127994751Y-99523809D02*
X128032846Y-99447618D01*
X128032846Y-99447618D02*
X128070941Y-99409523D01*
X128070941Y-99409523D02*
X128147132Y-99371428D01*
X128147132Y-99371428D02*
X128223322Y-99371428D01*
X128223322Y-99371428D02*
X128299513Y-99409523D01*
X128299513Y-99409523D02*
X128337608Y-99447618D01*
X128337608Y-99447618D02*
X128375703Y-99523809D01*
X128375703Y-99523809D02*
X128375703Y-99790475D01*
X128718560Y-98533332D02*
X128756656Y-98571428D01*
X128756656Y-98571428D02*
X128794751Y-98685713D01*
X128794751Y-98685713D02*
X128794751Y-98761904D01*
X128794751Y-98761904D02*
X128756656Y-98876190D01*
X128756656Y-98876190D02*
X128680465Y-98952380D01*
X128680465Y-98952380D02*
X128604275Y-98990475D01*
X128604275Y-98990475D02*
X128451894Y-99028571D01*
X128451894Y-99028571D02*
X128337608Y-99028571D01*
X128337608Y-99028571D02*
X128185227Y-98990475D01*
X128185227Y-98990475D02*
X128109036Y-98952380D01*
X128109036Y-98952380D02*
X128032846Y-98876190D01*
X128032846Y-98876190D02*
X127994751Y-98761904D01*
X127994751Y-98761904D02*
X127994751Y-98685713D01*
X127994751Y-98685713D02*
X128032846Y-98571428D01*
X128032846Y-98571428D02*
X128070941Y-98533332D01*
X128794751Y-97771428D02*
X128794751Y-98228571D01*
X128794751Y-97999999D02*
X127994751Y-97999999D01*
X127994751Y-97999999D02*
X128109036Y-98076190D01*
X128109036Y-98076190D02*
X128185227Y-98152380D01*
X128185227Y-98152380D02*
X128223322Y-98228571D01*
X112166666Y-121087295D02*
X111785714Y-121087295D01*
X111785714Y-121087295D02*
X111785714Y-120287295D01*
X112776190Y-120553961D02*
X112776190Y-121087295D01*
X112585714Y-120249200D02*
X112395237Y-120820628D01*
X112395237Y-120820628D02*
X112890476Y-120820628D01*
%TO.C,CN10*%
D12*
X133672500Y-57350000D02*
X133672500Y-53550000D01*
X134072500Y-53550000D02*
X134572500Y-53550000D01*
X134072500Y-57350000D02*
X134072500Y-53550000D01*
X134572500Y-53950000D02*
X134772500Y-53950000D01*
X134572500Y-54950000D02*
X134772500Y-54950000D01*
X134572500Y-55950000D02*
X134772500Y-55950000D01*
X134572500Y-56950000D02*
X134772500Y-56950000D01*
X134572500Y-57350000D02*
X134072500Y-57350000D01*
X135172500Y-57350000D02*
X135822500Y-57350000D01*
X135572500Y-52450000D02*
X136572500Y-52450000D01*
X135572500Y-52950000D02*
X136572500Y-52950000D01*
X135572500Y-57950000D02*
X136572500Y-57950000D01*
X135572500Y-58450000D02*
X136572500Y-58450000D01*
X135822500Y-53550000D02*
X135172500Y-53550000D01*
X135822500Y-57350000D02*
X135822500Y-53550000D01*
X135972500Y-52450000D02*
X135972500Y-52950000D01*
X135972500Y-52950000D02*
X135972500Y-52450000D01*
X135972500Y-57950000D02*
X135972500Y-58450000D01*
X135972500Y-58450000D02*
X135972500Y-57950000D01*
X136572500Y-52450000D02*
X136572500Y-53350000D01*
X136572500Y-52950000D02*
X135572500Y-52950000D01*
X136572500Y-57950000D02*
X135572500Y-57950000D01*
X136572500Y-58450000D02*
X136572500Y-57550000D01*
X137232500Y-57700000D02*
G75*
G02*
X137221411Y-57699802I-10010J-250000D01*
G01*
D13*
X137322500Y-58450000D02*
G75*
G02*
X137262500Y-58450000I-30000J0D01*
G01*
X137262500Y-58450000D02*
G75*
G02*
X137322500Y-58450000I30000J0D01*
G01*
%TO.C,R7*%
D10*
X66770000Y-57270000D02*
X66770000Y-58590000D01*
X66770000Y-58590000D02*
X67730000Y-58590000D01*
X67730000Y-57270000D02*
X66770000Y-57270000D01*
X68590000Y-57270000D02*
X69550000Y-57270000D01*
X69550000Y-57270000D02*
X69550000Y-58590000D01*
X69550000Y-58590000D02*
X68590000Y-58590000D01*
D13*
X68990000Y-57530000D02*
G75*
G02*
X68930000Y-57530000I-30000J0D01*
G01*
X68930000Y-57530000D02*
G75*
G02*
X68990000Y-57530000I30000J0D01*
G01*
%TO.C,U18*%
D14*
X65090000Y-93500000D02*
X65090000Y-103500000D01*
X65090000Y-93500000D02*
X69590000Y-93500000D01*
X65090000Y-99500000D02*
X65590000Y-99500000D01*
X65590000Y-94000000D02*
X65590000Y-97500000D01*
X65590000Y-97500000D02*
X65190000Y-97500000D01*
X65590000Y-99500000D02*
X65590000Y-103000000D01*
X65590000Y-103000000D02*
X66490000Y-103000000D01*
X66490000Y-93500000D02*
X66490000Y-94000000D01*
X66490000Y-94000000D02*
X65590000Y-94000000D01*
X66490000Y-103000000D02*
X66490000Y-103500000D01*
X67290000Y-94000000D02*
X67290000Y-93500000D01*
X67290000Y-103000000D02*
X69090000Y-103000000D01*
X67290000Y-103500000D02*
X67290000Y-103000000D01*
X69090000Y-94000000D02*
X67290000Y-94000000D01*
X69090000Y-103000000D02*
X69090000Y-94000000D01*
X69590000Y-103500000D02*
X65090000Y-103500000D01*
X69590000Y-103500000D02*
X69590000Y-93500000D01*
D13*
X69620000Y-103450000D02*
G75*
G02*
X69560000Y-103450000I-30000J0D01*
G01*
X69560000Y-103450000D02*
G75*
G02*
X69620000Y-103450000I30000J0D01*
G01*
%TO.C,CN5*%
D14*
X84620000Y-102070000D02*
X84620000Y-105070000D01*
X84620000Y-105070000D02*
X85790000Y-105070000D01*
X85380000Y-102810000D02*
X106460000Y-102810000D01*
X85380000Y-104330000D02*
X85380000Y-102810000D01*
X85790000Y-102070000D02*
X84620000Y-102070000D01*
X106050000Y-105070000D02*
X107220000Y-105070000D01*
X106460000Y-102810000D02*
X106460000Y-104330000D01*
X106460000Y-104330000D02*
X85380000Y-104330000D01*
X107220000Y-102070000D02*
X106050000Y-102070000D01*
X107220000Y-105070000D02*
X107220000Y-102070000D01*
D13*
X107250000Y-101880000D02*
G75*
G02*
X107190000Y-101880000I-30000J0D01*
G01*
X107190000Y-101880000D02*
G75*
G02*
X107250000Y-101880000I30000J0D01*
G01*
D15*
G36*
X106460975Y-101792000D02*
G01*
X106333975Y-101919000D01*
X106079975Y-101665000D01*
X106206975Y-101665000D01*
X106587975Y-101665000D01*
X106460975Y-101792000D01*
G37*
%TO.C,C58*%
D14*
X132160000Y-131925000D02*
X132160000Y-131125000D01*
X133270000Y-130815000D02*
X132470000Y-130815000D01*
X133270000Y-132235000D02*
X132470000Y-132235000D01*
X133830000Y-130815000D02*
X134630000Y-130815000D01*
X133830000Y-132235000D02*
X134630000Y-132235000D01*
X134940000Y-131125000D02*
X134940000Y-131925000D01*
X132160000Y-131125000D02*
G75*
G02*
X132470000Y-130815000I310000J0D01*
G01*
X132470000Y-132235000D02*
G75*
G02*
X132160000Y-131925000I0J310000D01*
G01*
X134630000Y-130815000D02*
G75*
G02*
X134940000Y-131125000I0J-310000D01*
G01*
X134940000Y-131925000D02*
G75*
G02*
X134630000Y-132235000I-310000J0D01*
G01*
D13*
X134380000Y-131125000D02*
G75*
G02*
X134320000Y-131125000I-30000J0D01*
G01*
X134320000Y-131125000D02*
G75*
G02*
X134380000Y-131125000I30000J0D01*
G01*
%TO.C,U1*%
D10*
X130210000Y-61360000D02*
X135610000Y-61360000D01*
X130210000Y-61370000D02*
X130220000Y-61360000D01*
X130210000Y-69300000D02*
X130210000Y-61370000D01*
X131680000Y-62320000D02*
X134220000Y-62320000D01*
X131680000Y-63270000D02*
X131680000Y-62320000D01*
X131680000Y-63590000D02*
X134220000Y-63590000D01*
X131680000Y-64540000D02*
X131680000Y-63590000D01*
X131680000Y-64860000D02*
X134220000Y-64860000D01*
X131680000Y-65810000D02*
X131680000Y-64860000D01*
X131680000Y-66130000D02*
X134220000Y-66130000D01*
X131680000Y-67080000D02*
X131680000Y-66130000D01*
X131680000Y-67400000D02*
X134220000Y-67400000D01*
X131680000Y-68350000D02*
X131680000Y-67400000D01*
X134220000Y-62320000D02*
X134220000Y-63270000D01*
X134220000Y-63270000D02*
X131680000Y-63270000D01*
X134220000Y-63590000D02*
X134220000Y-64540000D01*
X134220000Y-64540000D02*
X131680000Y-64540000D01*
X134220000Y-64860000D02*
X134220000Y-65810000D01*
X134220000Y-65810000D02*
X131680000Y-65810000D01*
X134220000Y-66130000D02*
X134220000Y-67080000D01*
X134220000Y-67080000D02*
X131680000Y-67080000D01*
X134220000Y-67400000D02*
X134220000Y-68350000D01*
X134220000Y-68350000D02*
X131680000Y-68350000D01*
X135610000Y-61360000D02*
X135610000Y-69300000D01*
X135610000Y-69300000D02*
X130210000Y-69300000D01*
D13*
X137110000Y-69310000D02*
G75*
G02*
X137050000Y-69310000I-30000J0D01*
G01*
X137050000Y-69310000D02*
G75*
G02*
X137110000Y-69310000I30000J0D01*
G01*
D15*
G36*
X132506013Y-68394002D02*
G01*
X132369996Y-68342999D01*
X132455010Y-68342999D01*
X132506013Y-68394002D01*
G37*
G36*
X133309999Y-63250019D02*
G01*
X132410001Y-63250019D01*
X132410001Y-62350021D01*
X133309999Y-62350021D01*
X133309999Y-63250019D01*
G37*
G36*
X133309999Y-64519994D02*
G01*
X132410001Y-64519994D01*
X132410001Y-63619996D01*
X133309999Y-63619996D01*
X133309999Y-64519994D01*
G37*
G36*
X133309999Y-65789994D02*
G01*
X132410001Y-65789994D01*
X132410001Y-64889996D01*
X133309999Y-64889996D01*
X133309999Y-65789994D01*
G37*
G36*
X133309999Y-67059994D02*
G01*
X132410001Y-67059994D01*
X132410001Y-66159996D01*
X133309999Y-66159996D01*
X133309999Y-67059994D01*
G37*
G36*
X133309999Y-68329994D02*
G01*
X132410001Y-68329994D01*
X132410001Y-67429996D01*
X133309999Y-67429996D01*
X133309999Y-68329994D01*
G37*
%TO.C,USBC2*%
D14*
X58957456Y-133705000D02*
X60437456Y-133705000D01*
X58957456Y-142645000D02*
X58957456Y-133705000D01*
X58957456Y-142645000D02*
X60437456Y-142645000D01*
X62667456Y-133705000D02*
X64537456Y-133705000D01*
X62667456Y-142645000D02*
X64537456Y-142645000D01*
D13*
X66837456Y-142655000D02*
G75*
G02*
X66777456Y-142655000I-30000J0D01*
G01*
X66777456Y-142655000D02*
G75*
G02*
X66837456Y-142655000I30000J0D01*
G01*
%TO.C,FPC1*%
D14*
X114705000Y-47250000D02*
X114705000Y-47900000D01*
X114705000Y-50570000D02*
X114705000Y-51850000D01*
X114705000Y-51850000D02*
X116225000Y-51850000D01*
X115105000Y-46250000D02*
X115105000Y-47250000D01*
X125765000Y-48680000D02*
X125705000Y-48750000D01*
X126505000Y-47940000D02*
X125765000Y-48680000D01*
X127315000Y-48760000D02*
X125705000Y-48750000D01*
X127315000Y-48760000D02*
X126505000Y-47940000D01*
X127385000Y-51850000D02*
X127605000Y-51850000D01*
X127385000Y-51850000D02*
X128905000Y-51850000D01*
X128525000Y-46250000D02*
X115105000Y-46250000D01*
X128525000Y-47250000D02*
X128525000Y-46250000D01*
X128905000Y-47250000D02*
X114705000Y-47250000D01*
X128905000Y-47900000D02*
X128905000Y-47250000D01*
X128905000Y-51850000D02*
X128905000Y-50570000D01*
X127805000Y-52350000D02*
G75*
G02*
X127405000Y-52350000I-200000J0D01*
G01*
X127405000Y-52350000D02*
G75*
G02*
X127805000Y-52350000I200000J0D01*
G01*
D13*
X129485000Y-52650000D02*
G75*
G02*
X129425000Y-52650000I-30000J0D01*
G01*
X129425000Y-52650000D02*
G75*
G02*
X129485000Y-52650000I30000J0D01*
G01*
%TO.C,C43*%
D10*
X133115000Y-120875000D02*
X133115000Y-119375000D01*
X133265000Y-119225000D02*
X134675000Y-119225000D01*
X134675000Y-121025000D02*
X133265000Y-121025000D01*
X135475000Y-121025000D02*
X136885000Y-121025000D01*
X136885000Y-119225000D02*
X135475000Y-119225000D01*
X137035000Y-120875000D02*
X137035000Y-119375000D01*
X133115000Y-119375000D02*
G75*
G02*
X133265000Y-119225000I150000J0D01*
G01*
X133265000Y-121025000D02*
G75*
G02*
X133115000Y-120875000I0J150000D01*
G01*
X136885000Y-119225000D02*
G75*
G02*
X137035000Y-119375000I0J-150000D01*
G01*
X137035000Y-120875000D02*
G75*
G02*
X136885000Y-121025000I-150000J0D01*
G01*
D13*
X134105000Y-120755000D02*
G75*
G02*
X134045000Y-120755000I-30000J0D01*
G01*
X134045000Y-120755000D02*
G75*
G02*
X134105000Y-120755000I30000J0D01*
G01*
%TO.C,R11*%
D10*
X123785000Y-136115000D02*
X123785000Y-137435000D01*
X123785000Y-137435000D02*
X124745000Y-137435000D01*
X124745000Y-136115000D02*
X123785000Y-136115000D01*
X125605000Y-136115000D02*
X126565000Y-136115000D01*
X126565000Y-136115000D02*
X126565000Y-137435000D01*
X126565000Y-137435000D02*
X125605000Y-137435000D01*
D13*
X126005000Y-136375000D02*
G75*
G02*
X125945000Y-136375000I-30000J0D01*
G01*
X125945000Y-136375000D02*
G75*
G02*
X126005000Y-136375000I30000J0D01*
G01*
%TO.C,R39*%
D10*
X116060000Y-116865000D02*
X117020000Y-116865000D01*
X116060000Y-118185000D02*
X116060000Y-116865000D01*
X117020000Y-118185000D02*
X116060000Y-118185000D01*
X117880000Y-118185000D02*
X118840000Y-118185000D01*
X118840000Y-116865000D02*
X117880000Y-116865000D01*
X118840000Y-118185000D02*
X118840000Y-116865000D01*
D13*
X116680000Y-117925000D02*
G75*
G02*
X116620000Y-117925000I-30000J0D01*
G01*
X116620000Y-117925000D02*
G75*
G02*
X116680000Y-117925000I30000J0D01*
G01*
%TO.C,U10*%
D10*
X77130000Y-133020000D02*
X80670000Y-133020000D01*
X77130000Y-138180000D02*
X77130000Y-133020000D01*
X80670000Y-133020000D02*
X80670000Y-138180000D01*
X80670000Y-138180000D02*
X77130000Y-138180000D01*
D13*
X75730000Y-133100000D02*
G75*
G02*
X75670000Y-133100000I-30000J0D01*
G01*
X75670000Y-133100000D02*
G75*
G02*
X75730000Y-133100000I30000J0D01*
G01*
D16*
X76180000Y-132700000D02*
G75*
G02*
X75880000Y-132700000I-150000J0D01*
G01*
X75880000Y-132700000D02*
G75*
G02*
X76180000Y-132700000I150000J0D01*
G01*
X78040000Y-133320000D02*
G75*
G02*
X77720000Y-133320000I-160000J0D01*
G01*
X77720000Y-133320000D02*
G75*
G02*
X78040000Y-133320000I160000J0D01*
G01*
%TO.C,LED2*%
D10*
X89157500Y-136760000D02*
X89157500Y-135280000D01*
X90307500Y-135260000D02*
X89157500Y-135260000D01*
X90307500Y-136760000D02*
X89157500Y-136760000D01*
X90327500Y-135680000D02*
X90337500Y-135680000D01*
X90327500Y-136010000D02*
X90667500Y-136010000D01*
X90327500Y-136350000D02*
X90667500Y-136010000D01*
X90327500Y-136360000D02*
X90327500Y-135680000D01*
X90327500Y-136360000D02*
X90327500Y-136350000D01*
X90337500Y-135680000D02*
X90667500Y-136010000D01*
X90687500Y-135250000D02*
X91737500Y-135250000D01*
X90687500Y-136750000D02*
X91737500Y-136750000D01*
X92037500Y-135550000D02*
X91737500Y-135250000D01*
X92037500Y-135650000D02*
X92037500Y-135550000D01*
X92037500Y-136350000D02*
X92037500Y-135650000D01*
X92037500Y-136350000D02*
X92037500Y-136450000D01*
X92037500Y-136450000D02*
X91737500Y-136750000D01*
D13*
X91377500Y-135600000D02*
G75*
G02*
X91317500Y-135600000I-30000J0D01*
G01*
X91317500Y-135600000D02*
G75*
G02*
X91377500Y-135600000I30000J0D01*
G01*
%TO.C,U6*%
D14*
X128140000Y-121610000D02*
X136840000Y-121610000D01*
X128140000Y-122780000D02*
X128140000Y-121610000D01*
X128140000Y-129810000D02*
X128140000Y-128640000D01*
X128140000Y-129810000D02*
X136840000Y-129810000D01*
X136840000Y-122780000D02*
X136840000Y-121610000D01*
X136840000Y-129810000D02*
X136840000Y-128640000D01*
D13*
X136830000Y-121620000D02*
G75*
G02*
X136770000Y-121620000I-30000J0D01*
G01*
X136770000Y-121620000D02*
G75*
G02*
X136830000Y-121620000I30000J0D01*
G01*
%TO.C,R36*%
D10*
X109035000Y-127665000D02*
X109035000Y-128985000D01*
X109035000Y-128985000D02*
X109995000Y-128985000D01*
X109995000Y-127665000D02*
X109035000Y-127665000D01*
X110855000Y-127665000D02*
X111815000Y-127665000D01*
X111815000Y-127665000D02*
X111815000Y-128985000D01*
X111815000Y-128985000D02*
X110855000Y-128985000D01*
D13*
X111255000Y-127925000D02*
G75*
G02*
X111195000Y-127925000I-30000J0D01*
G01*
X111195000Y-127925000D02*
G75*
G02*
X111255000Y-127925000I30000J0D01*
G01*
%TO.C,BUS*%
D12*
X92025000Y-141925000D02*
G75*
G02*
X90125000Y-141925000I-950000J0D01*
G01*
X90125000Y-141925000D02*
G75*
G02*
X92025000Y-141925000I950000J0D01*
G01*
%TO.C,R61*%
D10*
X67610000Y-59040000D02*
X67610000Y-60360000D01*
X67610000Y-60360000D02*
X68570000Y-60360000D01*
X68570000Y-59040000D02*
X67610000Y-59040000D01*
X69430000Y-59040000D02*
X70390000Y-59040000D01*
X70390000Y-59040000D02*
X70390000Y-60360000D01*
X70390000Y-60360000D02*
X69430000Y-60360000D01*
D13*
X69830000Y-59300000D02*
G75*
G02*
X69770000Y-59300000I-30000J0D01*
G01*
X69770000Y-59300000D02*
G75*
G02*
X69830000Y-59300000I30000J0D01*
G01*
%TO.C,CN7*%
D14*
X59220000Y-71900000D02*
X63720000Y-71900000D01*
X59220000Y-77900000D02*
X59220000Y-71900000D01*
X59780000Y-72490000D02*
X59780000Y-74650000D01*
X59780000Y-74650000D02*
X59270000Y-74650000D01*
X59780000Y-75230000D02*
X59270000Y-75230000D01*
X59780000Y-77390000D02*
X59780000Y-75230000D01*
X60540000Y-71980000D02*
X60540000Y-72490000D01*
X60540000Y-72490000D02*
X59780000Y-72490000D01*
X60540000Y-77390000D02*
X59780000Y-77390000D01*
X60540000Y-77900000D02*
X60540000Y-77390000D01*
X61170000Y-71980000D02*
X61170000Y-72490000D01*
X61170000Y-72490000D02*
X63080000Y-72490000D01*
X61170000Y-77440000D02*
X61170000Y-77820000D01*
X63080000Y-72490000D02*
X63080000Y-77440000D01*
X63080000Y-77440000D02*
X61170000Y-77440000D01*
X63720000Y-71900000D02*
X63720000Y-77900000D01*
X63720000Y-77900000D02*
X59220000Y-77900000D01*
D13*
X63750000Y-77850000D02*
G75*
G02*
X63690000Y-77850000I-30000J0D01*
G01*
X63690000Y-77850000D02*
G75*
G02*
X63750000Y-77850000I30000J0D01*
G01*
%TO.C,AON*%
D12*
X115450000Y-114200000D02*
G75*
G02*
X113550000Y-114200000I-950000J0D01*
G01*
X113550000Y-114200000D02*
G75*
G02*
X115450000Y-114200000I950000J0D01*
G01*
%TO.C,C11*%
D10*
X85440000Y-132570000D02*
X85440000Y-134050000D01*
X85440000Y-137390000D02*
X85440000Y-135910000D01*
X87470000Y-132420000D02*
X85590000Y-132420000D01*
X87470000Y-137540000D02*
X85590000Y-137540000D01*
X87620000Y-134050000D02*
X87620000Y-132570000D01*
X87620000Y-135910000D02*
X87620000Y-137390000D01*
X85440000Y-132570000D02*
G75*
G02*
X85590000Y-132420000I150000J0D01*
G01*
X85590000Y-137540000D02*
G75*
G02*
X85440000Y-137390000I0J150000D01*
G01*
X87470000Y-132420000D02*
G75*
G02*
X87620000Y-132570000I0J-150000D01*
G01*
X87620000Y-137390000D02*
G75*
G02*
X87470000Y-137540000I-150000J0D01*
G01*
D13*
X87360000Y-136580000D02*
G75*
G02*
X87300000Y-136580000I-30000J0D01*
G01*
X87300000Y-136580000D02*
G75*
G02*
X87360000Y-136580000I30000J0D01*
G01*
%TO.C,U22*%
D14*
X64545000Y-127510000D02*
X74705000Y-127510000D01*
X64545000Y-132590000D02*
X64545000Y-127510000D01*
X72165000Y-130050000D02*
X72165000Y-127510000D01*
X74705000Y-127510000D02*
X74705000Y-132590000D01*
X74705000Y-130050000D02*
X72165000Y-130050000D01*
X74705000Y-132590000D02*
X64555000Y-132590000D01*
D13*
X74735000Y-127550000D02*
G75*
G02*
X74675000Y-127550000I-30000J0D01*
G01*
X74675000Y-127550000D02*
G75*
G02*
X74735000Y-127550000I30000J0D01*
G01*
%TO.C,R68*%
D10*
X78310000Y-130040000D02*
X79270000Y-130040000D01*
X78310000Y-131360000D02*
X78310000Y-130040000D01*
X79270000Y-131360000D02*
X78310000Y-131360000D01*
X80130000Y-131360000D02*
X81090000Y-131360000D01*
X81090000Y-130040000D02*
X80130000Y-130040000D01*
X81090000Y-131360000D02*
X81090000Y-130040000D01*
D13*
X78930000Y-131100000D02*
G75*
G02*
X78870000Y-131100000I-30000J0D01*
G01*
X78870000Y-131100000D02*
G75*
G02*
X78930000Y-131100000I30000J0D01*
G01*
%TO.C,C29*%
D10*
X133115000Y-116550000D02*
X133115000Y-115050000D01*
X133265000Y-114900000D02*
X134675000Y-114900000D01*
X134675000Y-116700000D02*
X133265000Y-116700000D01*
X135475000Y-116700000D02*
X136885000Y-116700000D01*
X136885000Y-114900000D02*
X135475000Y-114900000D01*
X137035000Y-116550000D02*
X137035000Y-115050000D01*
X133115000Y-115050000D02*
G75*
G02*
X133265000Y-114900000I150000J0D01*
G01*
X133265000Y-116700000D02*
G75*
G02*
X133115000Y-116550000I0J150000D01*
G01*
X136885000Y-114900000D02*
G75*
G02*
X137035000Y-115050000I0J-150000D01*
G01*
X137035000Y-116550000D02*
G75*
G02*
X136885000Y-116700000I-150000J0D01*
G01*
D13*
X134105000Y-116430000D02*
G75*
G02*
X134045000Y-116430000I-30000J0D01*
G01*
X134045000Y-116430000D02*
G75*
G02*
X134105000Y-116430000I30000J0D01*
G01*
%TO.C,R65*%
D10*
X82935000Y-138115000D02*
X82935000Y-139435000D01*
X82935000Y-139435000D02*
X83895000Y-139435000D01*
X83895000Y-138115000D02*
X82935000Y-138115000D01*
X84755000Y-138115000D02*
X85715000Y-138115000D01*
X85715000Y-138115000D02*
X85715000Y-139435000D01*
X85715000Y-139435000D02*
X84755000Y-139435000D01*
D13*
X85155000Y-138375000D02*
G75*
G02*
X85095000Y-138375000I-30000J0D01*
G01*
X85095000Y-138375000D02*
G75*
G02*
X85155000Y-138375000I30000J0D01*
G01*
%TO.C,R15*%
D10*
X103610000Y-123340000D02*
X104570000Y-123340000D01*
X103610000Y-124660000D02*
X103610000Y-123340000D01*
X104570000Y-124660000D02*
X103610000Y-124660000D01*
X105430000Y-124660000D02*
X106390000Y-124660000D01*
X106390000Y-123340000D02*
X105430000Y-123340000D01*
X106390000Y-124660000D02*
X106390000Y-123340000D01*
D13*
X104230000Y-124400000D02*
G75*
G02*
X104170000Y-124400000I-30000J0D01*
G01*
X104170000Y-124400000D02*
G75*
G02*
X104230000Y-124400000I30000J0D01*
G01*
%TO.C,FPC3*%
D14*
X65875000Y-143677500D02*
X65875000Y-144867500D01*
X65875000Y-143677500D02*
X66295000Y-143677500D01*
X65875000Y-144737500D02*
X67395000Y-144737500D01*
X65875000Y-146307500D02*
X65875000Y-144737500D01*
X65875000Y-149737500D02*
X65875000Y-149077500D01*
X66295000Y-143677500D02*
X66295000Y-144737500D01*
X68855000Y-144737500D02*
X68895000Y-144737500D01*
X70355000Y-144737500D02*
X70395000Y-144737500D01*
X71855000Y-144737500D02*
X71895000Y-144737500D01*
X73355000Y-144737500D02*
X73395000Y-144737500D01*
X74855000Y-144737500D02*
X74895000Y-144737500D01*
X76355000Y-144737500D02*
X77875000Y-144737500D01*
X77435000Y-143687500D02*
X77435000Y-144737500D01*
X77875000Y-143687500D02*
X77435000Y-143687500D01*
X77875000Y-143687500D02*
X77875000Y-144867500D01*
X77875000Y-144737500D02*
X77875000Y-146307500D01*
X77875000Y-149077500D02*
X77875000Y-149737500D01*
X77875000Y-149737500D02*
X65875000Y-149737500D01*
D13*
X65905000Y-143237500D02*
G75*
G02*
X65845000Y-143237500I-30000J0D01*
G01*
X65845000Y-143237500D02*
G75*
G02*
X65905000Y-143237500I30000J0D01*
G01*
D16*
X67325000Y-143867500D02*
G75*
G02*
X67025000Y-143867500I-150000J0D01*
G01*
X67025000Y-143867500D02*
G75*
G02*
X67325000Y-143867500I150000J0D01*
G01*
%TO.C,D2*%
D10*
X94327500Y-141950000D02*
X94327500Y-141710000D01*
X94337500Y-139340000D02*
X94327500Y-139110000D01*
X97807500Y-141950000D02*
X97807500Y-139090000D01*
X99527500Y-139090000D02*
X94327500Y-139090000D01*
X99527500Y-141950000D02*
X94327500Y-141950000D01*
D13*
X99567500Y-139220000D02*
G75*
G02*
X99507500Y-139220000I-30000J0D01*
G01*
X99507500Y-139220000D02*
G75*
G02*
X99567500Y-139220000I30000J0D01*
G01*
D15*
G36*
X99900138Y-139021959D02*
G01*
X99896481Y-139424041D01*
X99439281Y-139424041D01*
X99440601Y-139017438D01*
X99900138Y-139021959D01*
G37*
G36*
X99908368Y-141620328D02*
G01*
X99904710Y-142022410D01*
X99447510Y-142022410D01*
X99448831Y-141615807D01*
X99908368Y-141620328D01*
G37*
%TO.C,C57*%
D10*
X131540000Y-134650000D02*
X131540000Y-133150000D01*
X131690000Y-133000000D02*
X133100000Y-133000000D01*
X133100000Y-134800000D02*
X131690000Y-134800000D01*
X133900000Y-134800000D02*
X135310000Y-134800000D01*
X135310000Y-133000000D02*
X133900000Y-133000000D01*
X135460000Y-134650000D02*
X135460000Y-133150000D01*
X131540000Y-133150000D02*
G75*
G02*
X131690000Y-133000000I150000J0D01*
G01*
X131690000Y-134800000D02*
G75*
G02*
X131540000Y-134650000I0J150000D01*
G01*
X135310000Y-133000000D02*
G75*
G02*
X135460000Y-133150000I0J-150000D01*
G01*
X135460000Y-134650000D02*
G75*
G02*
X135310000Y-134800000I-150000J0D01*
G01*
D13*
X132530000Y-134530000D02*
G75*
G02*
X132470000Y-134530000I-30000J0D01*
G01*
X132470000Y-134530000D02*
G75*
G02*
X132530000Y-134530000I30000J0D01*
G01*
%TO.C,R23*%
D10*
X90915000Y-130660000D02*
X92235000Y-130660000D01*
X90915000Y-131620000D02*
X90915000Y-130660000D01*
X90915000Y-132480000D02*
X90915000Y-133440000D01*
X90915000Y-133440000D02*
X92235000Y-133440000D01*
X92235000Y-130660000D02*
X92235000Y-131620000D01*
X92235000Y-133440000D02*
X92235000Y-132480000D01*
D13*
X91205000Y-131250000D02*
G75*
G02*
X91145000Y-131250000I-30000J0D01*
G01*
X91145000Y-131250000D02*
G75*
G02*
X91205000Y-131250000I30000J0D01*
G01*
%TO.C,U16*%
D10*
X117607500Y-120185000D02*
X117607500Y-121965000D01*
X120687500Y-120185000D02*
X120687500Y-121965000D01*
D13*
X120637500Y-119675000D02*
G75*
G02*
X120577500Y-119675000I-30000J0D01*
G01*
X120577500Y-119675000D02*
G75*
G02*
X120637500Y-119675000I30000J0D01*
G01*
D16*
X120967500Y-119775000D02*
G75*
G02*
X120667500Y-119775000I-150000J0D01*
G01*
X120667500Y-119775000D02*
G75*
G02*
X120967500Y-119775000I150000J0D01*
G01*
%TO.C,C9*%
D14*
X66110000Y-106025000D02*
X66110000Y-105225000D01*
X67220000Y-104915000D02*
X66420000Y-104915000D01*
X67220000Y-106335000D02*
X66420000Y-106335000D01*
X67780000Y-104915000D02*
X68580000Y-104915000D01*
X67780000Y-106335000D02*
X68580000Y-106335000D01*
X68890000Y-105225000D02*
X68890000Y-106025000D01*
X66110000Y-105225000D02*
G75*
G02*
X66420000Y-104915000I310000J0D01*
G01*
X66420000Y-106335000D02*
G75*
G02*
X66110000Y-106025000I0J310000D01*
G01*
X68580000Y-104915000D02*
G75*
G02*
X68890000Y-105225000I0J-310000D01*
G01*
X68890000Y-106025000D02*
G75*
G02*
X68580000Y-106335000I-310000J0D01*
G01*
D13*
X68330000Y-105225000D02*
G75*
G02*
X68270000Y-105225000I-30000J0D01*
G01*
X68270000Y-105225000D02*
G75*
G02*
X68330000Y-105225000I30000J0D01*
G01*
%TO.C,L3*%
D14*
X122250000Y-120825000D02*
X122250000Y-116825000D01*
X126750000Y-120825000D02*
X126750000Y-116825000D01*
D13*
X126530000Y-120825000D02*
G75*
G02*
X126470000Y-120825000I-30000J0D01*
G01*
X126470000Y-120825000D02*
G75*
G02*
X126530000Y-120825000I30000J0D01*
G01*
D15*
%TO.C,G\u002A\u002A\u002A*%
G36*
X79327925Y-61065469D02*
G01*
X79327925Y-61523685D01*
X78827962Y-61523686D01*
X78327999Y-61523686D01*
X78331981Y-61070448D01*
X78335964Y-60617210D01*
X78831944Y-60612232D01*
X79327925Y-60607254D01*
X79327925Y-61065469D01*
G37*
G36*
X80953974Y-59364965D02*
G01*
X80953974Y-60177990D01*
X80066189Y-60177990D01*
X79178403Y-60177990D01*
X79178403Y-59364965D01*
X79178403Y-58551941D01*
X80066189Y-58551941D01*
X80953974Y-58551941D01*
X80953974Y-59364965D01*
G37*
G36*
X81084805Y-61972250D02*
G01*
X81084805Y-62495576D01*
X80514754Y-62495576D01*
X79944702Y-62495576D01*
X79944702Y-61972250D01*
X79944702Y-61448924D01*
X80514754Y-61448924D01*
X81084805Y-61448924D01*
X81084805Y-61972250D01*
G37*
G36*
X88733292Y-61451166D02*
G01*
X88759871Y-61482480D01*
X88761881Y-61523919D01*
X88742935Y-61561062D01*
X88706647Y-61579487D01*
X88701067Y-61579756D01*
X88670900Y-61567769D01*
X88658080Y-61557327D01*
X88637065Y-61516898D01*
X88643955Y-61477463D01*
X88671339Y-61449485D01*
X88711801Y-61443430D01*
X88733292Y-61451166D01*
G37*
G36*
X88747793Y-62065701D02*
G01*
X88747819Y-62183349D01*
X88747893Y-62288246D01*
X88748007Y-62374669D01*
X88748152Y-62436894D01*
X88748320Y-62469198D01*
X88748374Y-62472213D01*
X88732805Y-62484701D01*
X88701648Y-62492145D01*
X88654342Y-62498059D01*
X88654342Y-62085633D01*
X88654342Y-61673207D01*
X88701067Y-61673207D01*
X88747793Y-61673207D01*
X88747793Y-62065701D01*
G37*
G36*
X91214901Y-58776224D02*
G01*
X91214901Y-59000506D01*
X90691575Y-59000506D01*
X90168249Y-59000506D01*
X90168249Y-60028468D01*
X90168249Y-61056430D01*
X89934621Y-61056430D01*
X89700994Y-61056430D01*
X89700994Y-60028468D01*
X89700994Y-59000506D01*
X89196358Y-59000506D01*
X88691722Y-59000506D01*
X88691722Y-58776224D01*
X88691722Y-58551941D01*
X89953311Y-58551941D01*
X91214901Y-58551941D01*
X91214901Y-58776224D01*
G37*
G36*
X78090031Y-59621956D02*
G01*
X78085026Y-60075193D01*
X77597827Y-60080170D01*
X77466457Y-60081036D01*
X77347530Y-60080911D01*
X77246118Y-60079873D01*
X77167293Y-60078003D01*
X77116128Y-60075378D01*
X77097863Y-60072382D01*
X77094283Y-60050855D01*
X77091091Y-59997271D01*
X77088435Y-59916953D01*
X77086463Y-59815225D01*
X77085323Y-59697409D01*
X77085100Y-59614168D01*
X77085100Y-59168718D01*
X77590068Y-59168718D01*
X78095036Y-59168718D01*
X78090031Y-59621956D01*
G37*
G36*
X83369610Y-59425634D02*
G01*
X84243451Y-60299327D01*
X84243451Y-59425634D01*
X84243451Y-58551941D01*
X84477079Y-58551941D01*
X84710707Y-58551941D01*
X84710707Y-59804185D01*
X84710707Y-61056430D01*
X84481825Y-61056430D01*
X84252944Y-61056430D01*
X83379103Y-60182737D01*
X82505261Y-59309044D01*
X82505261Y-60182737D01*
X82505261Y-61056430D01*
X82271634Y-61056430D01*
X82038006Y-61056430D01*
X82038006Y-59804185D01*
X82038006Y-58551941D01*
X82266887Y-58551941D01*
X82495769Y-58551941D01*
X83369610Y-59425634D01*
G37*
G36*
X87813282Y-61729277D02*
G01*
X87811240Y-61762470D01*
X87798687Y-61779022D01*
X87765979Y-61784718D01*
X87719831Y-61785348D01*
X87626380Y-61785348D01*
X87626380Y-62140462D01*
X87626380Y-62495576D01*
X87582769Y-62495576D01*
X87543518Y-62490745D01*
X87526699Y-62483116D01*
X87522738Y-62461299D01*
X87519296Y-62408233D01*
X87516589Y-62330048D01*
X87514832Y-62232876D01*
X87514239Y-62128002D01*
X87514239Y-61785348D01*
X87430133Y-61785348D01*
X87378415Y-61783722D01*
X87353919Y-61774338D01*
X87346502Y-61750430D01*
X87346027Y-61729277D01*
X87346027Y-61673207D01*
X87579654Y-61673207D01*
X87813282Y-61673207D01*
X87813282Y-61729277D01*
G37*
G36*
X89779726Y-61843982D02*
G01*
X89785100Y-62014758D01*
X89889579Y-61848655D01*
X89938098Y-61773249D01*
X89973524Y-61724227D01*
X90001567Y-61695668D01*
X90027942Y-61681651D01*
X90055645Y-61676507D01*
X90087085Y-61674960D01*
X90103815Y-61680972D01*
X90104493Y-61699223D01*
X90087779Y-61734395D01*
X90052332Y-61791171D01*
X90000646Y-61868551D01*
X89958779Y-61932803D01*
X89926498Y-61986544D01*
X89908634Y-62021539D01*
X89906586Y-62028926D01*
X89915556Y-62052527D01*
X89939947Y-62101015D01*
X89975978Y-62167203D01*
X90017610Y-62240035D01*
X90073253Y-62335847D01*
X90111519Y-62404138D01*
X90134078Y-62449547D01*
X90142601Y-62476717D01*
X90138758Y-62490287D01*
X90124222Y-62494899D01*
X90109505Y-62495290D01*
X90077867Y-62492844D01*
X90051905Y-62482220D01*
X90026344Y-62457780D01*
X89995910Y-62413888D01*
X89955326Y-62344905D01*
X89934873Y-62308674D01*
X89890874Y-62230317D01*
X89861501Y-62179514D01*
X89842722Y-62151427D01*
X89830508Y-62141217D01*
X89820825Y-62144046D01*
X89809644Y-62155077D01*
X89808151Y-62156582D01*
X89796320Y-62185088D01*
X89785366Y-62240399D01*
X89777229Y-62311953D01*
X89775754Y-62332893D01*
X89770637Y-62408232D01*
X89764596Y-62454059D01*
X89754653Y-62478186D01*
X89737828Y-62488425D01*
X89715011Y-62492145D01*
X89663613Y-62498059D01*
X89663613Y-62085633D01*
X89663613Y-61673207D01*
X89718982Y-61673207D01*
X89774352Y-61673207D01*
X89779726Y-61843982D01*
G37*
G36*
X82210891Y-61676830D02*
G01*
X82291495Y-61684141D01*
X82359532Y-61695755D01*
X82403439Y-61709617D01*
X82407143Y-61711708D01*
X82459935Y-61765479D01*
X82491868Y-61840217D01*
X82502898Y-61925842D01*
X82492979Y-62012269D01*
X82462066Y-62089416D01*
X82410112Y-62147202D01*
X82409112Y-62147912D01*
X82365085Y-62178938D01*
X82439846Y-62320213D01*
X82481195Y-62398544D01*
X82506387Y-62449351D01*
X82516367Y-62478349D01*
X82512077Y-62491254D01*
X82494461Y-62493781D01*
X82468199Y-62491922D01*
X82437766Y-62486526D01*
X82412655Y-62471234D01*
X82386733Y-62439356D01*
X82353868Y-62384201D01*
X82330995Y-62342236D01*
X82289089Y-62268315D01*
X82257290Y-62223200D01*
X82231027Y-62201318D01*
X82211677Y-62196795D01*
X82190799Y-62199349D01*
X82177983Y-62212453D01*
X82170748Y-62243781D01*
X82166616Y-62301004D01*
X82164951Y-62341382D01*
X82161644Y-62414185D01*
X82156490Y-62457694D01*
X82146444Y-62479977D01*
X82128466Y-62489101D01*
X82108094Y-62492145D01*
X82056696Y-62498059D01*
X82056696Y-62084391D01*
X82168838Y-62084391D01*
X82242263Y-62084391D01*
X82297276Y-62077488D01*
X82338838Y-62060432D01*
X82343835Y-62056245D01*
X82382192Y-61992541D01*
X82388262Y-61910254D01*
X82384746Y-61886746D01*
X82361960Y-61829323D01*
X82316841Y-61796704D01*
X82244306Y-61785434D01*
X82235482Y-61785348D01*
X82168838Y-61785348D01*
X82168838Y-61934870D01*
X82168838Y-62084391D01*
X82056696Y-62084391D01*
X82056696Y-62083289D01*
X82056696Y-61934870D01*
X82056696Y-61668519D01*
X82210891Y-61676830D01*
G37*
G36*
X84960659Y-61679066D02*
G01*
X85049373Y-61698121D01*
X85111339Y-61732174D01*
X85129929Y-61753413D01*
X85165391Y-61840709D01*
X85165226Y-61932377D01*
X85142036Y-61998333D01*
X85104457Y-62071142D01*
X85150554Y-62125926D01*
X85186838Y-62193765D01*
X85197022Y-62271422D01*
X85182980Y-62348232D01*
X85146587Y-62413527D01*
X85092653Y-62455343D01*
X85049467Y-62467998D01*
X84982489Y-62479990D01*
X84905272Y-62488953D01*
X84895467Y-62489751D01*
X84818496Y-62494286D01*
X84771307Y-62492881D01*
X84746669Y-62484830D01*
X84738804Y-62474443D01*
X84735953Y-62448352D01*
X84733905Y-62390940D01*
X84732738Y-62308260D01*
X84732707Y-62293150D01*
X84843640Y-62293150D01*
X84846010Y-62341197D01*
X84849235Y-62357844D01*
X84873962Y-62376057D01*
X84920782Y-62382903D01*
X84976255Y-62378625D01*
X85026944Y-62363467D01*
X85042972Y-62354340D01*
X85077340Y-62310439D01*
X85084511Y-62264461D01*
X85074677Y-62196330D01*
X85042205Y-62154592D01*
X84982641Y-62135116D01*
X84942141Y-62132447D01*
X84850883Y-62131117D01*
X84845149Y-62231685D01*
X84843640Y-62293150D01*
X84732707Y-62293150D01*
X84732526Y-62206365D01*
X84733347Y-62091307D01*
X84733669Y-62065196D01*
X84735934Y-61894374D01*
X84737379Y-61785348D01*
X84841538Y-61785348D01*
X84841538Y-61894374D01*
X84843524Y-61955230D01*
X84848662Y-61999954D01*
X84853998Y-62015860D01*
X84890751Y-62029440D01*
X84942694Y-62023751D01*
X84994987Y-62001783D01*
X85019945Y-61982445D01*
X85058334Y-61924945D01*
X85062892Y-61869765D01*
X85036902Y-61823690D01*
X84983645Y-61793502D01*
X84924584Y-61785348D01*
X84841538Y-61785348D01*
X84737379Y-61785348D01*
X84738742Y-61682552D01*
X84850883Y-61676574D01*
X84960659Y-61679066D01*
G37*
G36*
X83712462Y-61684735D02*
G01*
X83782429Y-61732975D01*
X83808344Y-61764749D01*
X83826077Y-61794258D01*
X83838098Y-61825529D01*
X83845498Y-61866365D01*
X83849371Y-61924566D01*
X83850808Y-62007935D01*
X83850957Y-62069065D01*
X83848692Y-62197284D01*
X83840876Y-62293876D01*
X83825982Y-62364375D01*
X83802478Y-62414319D01*
X83768837Y-62449242D01*
X83741216Y-62466299D01*
X83660989Y-62490745D01*
X83570951Y-62492381D01*
X83488319Y-62471610D01*
X83465577Y-62459885D01*
X83427805Y-62430284D01*
X83400431Y-62390606D01*
X83381969Y-62335029D01*
X83370935Y-62257727D01*
X83365841Y-62152878D01*
X83365104Y-62075425D01*
X83477153Y-62075425D01*
X83478816Y-62165125D01*
X83483330Y-62243736D01*
X83489981Y-62302144D01*
X83497065Y-62329647D01*
X83539493Y-62374841D01*
X83596285Y-62391781D01*
X83656582Y-62379809D01*
X83706108Y-62342360D01*
X83720505Y-62319750D01*
X83730074Y-62286733D01*
X83735713Y-62236163D01*
X83738316Y-62160896D01*
X83738816Y-62081471D01*
X83738383Y-61986257D01*
X83736217Y-61920792D01*
X83731017Y-61877450D01*
X83721481Y-61848602D01*
X83706309Y-61826621D01*
X83692940Y-61812534D01*
X83650523Y-61780933D01*
X83610074Y-61766719D01*
X83607984Y-61766658D01*
X83568369Y-61779354D01*
X83525463Y-61810152D01*
X83523029Y-61812534D01*
X83503300Y-61834456D01*
X83490217Y-61858405D01*
X83482421Y-61892157D01*
X83478554Y-61943491D01*
X83477260Y-62020186D01*
X83477153Y-62075425D01*
X83365104Y-62075425D01*
X83365011Y-62065676D01*
X83365575Y-61965381D01*
X83368013Y-61894571D01*
X83373440Y-61845359D01*
X83382973Y-61809857D01*
X83397731Y-61780178D01*
X83407624Y-61764749D01*
X83468889Y-61703799D01*
X83546347Y-61670147D01*
X83630653Y-61663792D01*
X83712462Y-61684735D01*
G37*
G36*
X86383878Y-61677696D02*
G01*
X86433269Y-61698784D01*
X86476785Y-61735287D01*
X86507615Y-61782732D01*
X86527589Y-61847412D01*
X86538538Y-61935617D01*
X86542292Y-62053641D01*
X86542348Y-62073799D01*
X86539779Y-62195946D01*
X86530862Y-62287720D01*
X86513775Y-62355854D01*
X86486700Y-62407080D01*
X86447816Y-62448130D01*
X86439296Y-62455057D01*
X86377537Y-62484135D01*
X86298442Y-62495661D01*
X86218193Y-62488625D01*
X86169566Y-62471896D01*
X86130025Y-62440505D01*
X86091379Y-62392915D01*
X86085460Y-62383393D01*
X86069315Y-62351469D01*
X86058376Y-62315422D01*
X86051672Y-62267449D01*
X86048235Y-62199750D01*
X86047096Y-62104521D01*
X86047068Y-62083035D01*
X86168543Y-62083035D01*
X86168773Y-62181956D01*
X86170302Y-62250497D01*
X86174387Y-62295656D01*
X86182288Y-62324434D01*
X86195263Y-62343831D01*
X86214570Y-62360845D01*
X86219132Y-62364444D01*
X86281315Y-62392587D01*
X86345275Y-62385207D01*
X86392826Y-62353502D01*
X86404937Y-62333568D01*
X86413179Y-62297769D01*
X86418159Y-62240220D01*
X86420485Y-62155036D01*
X86420861Y-62082072D01*
X86420526Y-61982159D01*
X86418795Y-61912728D01*
X86414580Y-61866884D01*
X86406793Y-61837731D01*
X86394347Y-61818373D01*
X86376738Y-61802387D01*
X86314348Y-61771083D01*
X86252359Y-61774351D01*
X86205924Y-61804038D01*
X86190407Y-61823039D01*
X86179857Y-61848072D01*
X86173338Y-61886112D01*
X86169916Y-61944135D01*
X86168655Y-62029118D01*
X86168543Y-62083035D01*
X86047068Y-62083035D01*
X86047057Y-62074224D01*
X86048581Y-61957981D01*
X86054549Y-61872175D01*
X86067052Y-61809936D01*
X86088183Y-61764396D01*
X86120033Y-61728684D01*
X86161663Y-61697908D01*
X86225873Y-61673566D01*
X86305713Y-61666848D01*
X86383878Y-61677696D01*
G37*
G36*
X87257193Y-58551986D02*
G01*
X87460185Y-58552175D01*
X87631403Y-58552588D01*
X87773651Y-58553306D01*
X87889732Y-58554408D01*
X87982449Y-58555975D01*
X88054605Y-58558088D01*
X88109005Y-58560827D01*
X88148450Y-58564272D01*
X88175746Y-58568504D01*
X88193694Y-58573602D01*
X88205098Y-58579648D01*
X88212225Y-58586120D01*
X88222395Y-58601495D01*
X88230102Y-58625390D01*
X88235674Y-58662614D01*
X88239439Y-58717978D01*
X88241723Y-58796291D01*
X88242853Y-58902365D01*
X88243157Y-59040911D01*
X88243157Y-59461522D01*
X88042279Y-59504385D01*
X87958469Y-59522616D01*
X87887213Y-59538761D01*
X87837098Y-59550836D01*
X87817997Y-59556230D01*
X87808041Y-59551439D01*
X87801166Y-59525217D01*
X87796937Y-59473194D01*
X87794921Y-59390999D01*
X87794592Y-59320239D01*
X87794592Y-59075267D01*
X87009603Y-59075267D01*
X86224614Y-59075267D01*
X86224614Y-59804185D01*
X86224614Y-60533104D01*
X87009603Y-60533104D01*
X87794592Y-60533104D01*
X87794592Y-60339954D01*
X87794592Y-60146805D01*
X88014202Y-60101078D01*
X88233812Y-60055351D01*
X88238811Y-60521349D01*
X88240143Y-60667234D01*
X88240464Y-60780327D01*
X88239532Y-60865210D01*
X88237109Y-60926465D01*
X88232953Y-60968673D01*
X88226824Y-60996415D01*
X88218482Y-61014273D01*
X88212552Y-61021889D01*
X88204717Y-61028949D01*
X88193103Y-61034978D01*
X88174905Y-61040056D01*
X88147317Y-61044265D01*
X88107533Y-61047686D01*
X88052748Y-61050400D01*
X87980156Y-61052488D01*
X87886950Y-61054032D01*
X87770327Y-61055113D01*
X87627479Y-61055812D01*
X87455601Y-61056210D01*
X87251887Y-61056389D01*
X87019623Y-61056430D01*
X86776794Y-61056317D01*
X86568703Y-61055940D01*
X86392710Y-61055241D01*
X86246174Y-61054161D01*
X86126453Y-61052641D01*
X86030907Y-61050623D01*
X85956895Y-61048048D01*
X85901775Y-61044858D01*
X85862907Y-61040995D01*
X85837650Y-61036400D01*
X85823362Y-61031015D01*
X85821674Y-61029901D01*
X85814375Y-61023558D01*
X85808127Y-61014177D01*
X85802847Y-60999003D01*
X85798455Y-60975284D01*
X85794868Y-60940266D01*
X85792005Y-60891198D01*
X85789785Y-60825325D01*
X85788126Y-60739895D01*
X85786947Y-60632154D01*
X85786167Y-60499350D01*
X85785703Y-60338729D01*
X85785474Y-60147539D01*
X85785399Y-59923027D01*
X85785394Y-59804185D01*
X85785424Y-59562918D01*
X85785570Y-59356277D01*
X85785912Y-59181511D01*
X85786533Y-59035867D01*
X85787513Y-58916590D01*
X85788934Y-58820929D01*
X85790878Y-58746130D01*
X85793426Y-58689440D01*
X85796659Y-58648106D01*
X85800660Y-58619376D01*
X85805509Y-58600495D01*
X85811288Y-58588711D01*
X85818079Y-58581271D01*
X85821674Y-58578470D01*
X85834182Y-58572928D01*
X85857160Y-58568187D01*
X85893247Y-58564190D01*
X85945086Y-58560877D01*
X86015318Y-58558191D01*
X86106583Y-58556072D01*
X86221523Y-58554462D01*
X86362778Y-58553303D01*
X86532989Y-58552536D01*
X86734799Y-58552103D01*
X86970847Y-58551945D01*
X87019623Y-58551941D01*
X87257193Y-58551986D01*
G37*
%TO.C,R9*%
D10*
X128360000Y-54880000D02*
X128360000Y-56200000D01*
X128360000Y-56200000D02*
X129320000Y-56200000D01*
X129320000Y-54880000D02*
X128360000Y-54880000D01*
X130180000Y-54880000D02*
X131140000Y-54880000D01*
X131140000Y-54880000D02*
X131140000Y-56200000D01*
X131140000Y-56200000D02*
X130180000Y-56200000D01*
D13*
X130580000Y-55140000D02*
G75*
G02*
X130520000Y-55140000I-30000J0D01*
G01*
X130520000Y-55140000D02*
G75*
G02*
X130580000Y-55140000I30000J0D01*
G01*
%TO.C,R76*%
D10*
X63980000Y-84400000D02*
X64940000Y-84400000D01*
X63980000Y-85720000D02*
X63980000Y-84400000D01*
X64940000Y-85720000D02*
X63980000Y-85720000D01*
X65800000Y-85720000D02*
X66760000Y-85720000D01*
X66760000Y-84400000D02*
X65800000Y-84400000D01*
X66760000Y-85720000D02*
X66760000Y-84400000D01*
D13*
X64600000Y-85460000D02*
G75*
G02*
X64540000Y-85460000I-30000J0D01*
G01*
X64540000Y-85460000D02*
G75*
G02*
X64600000Y-85460000I30000J0D01*
G01*
%TO.C,C31*%
D14*
X121535000Y-124750000D02*
X121535000Y-123950000D01*
X122645000Y-123640000D02*
X121845000Y-123640000D01*
X122645000Y-125060000D02*
X121845000Y-125060000D01*
X123205000Y-123640000D02*
X124005000Y-123640000D01*
X123205000Y-125060000D02*
X124005000Y-125060000D01*
X124315000Y-123950000D02*
X124315000Y-124750000D01*
X121535000Y-123950000D02*
G75*
G02*
X121845000Y-123640000I310000J0D01*
G01*
X121845000Y-125060000D02*
G75*
G02*
X121535000Y-124750000I0J310000D01*
G01*
X124005000Y-123640000D02*
G75*
G02*
X124315000Y-123950000I0J-310000D01*
G01*
X124315000Y-124750000D02*
G75*
G02*
X124005000Y-125060000I-310000J0D01*
G01*
D13*
X123755000Y-123950000D02*
G75*
G02*
X123695000Y-123950000I-30000J0D01*
G01*
X123695000Y-123950000D02*
G75*
G02*
X123755000Y-123950000I30000J0D01*
G01*
%TO.C,BAT*%
D12*
X119817500Y-138280000D02*
G75*
G02*
X117917500Y-138280000I-950000J0D01*
G01*
X117917500Y-138280000D02*
G75*
G02*
X119817500Y-138280000I950000J0D01*
G01*
%TO.C,R17*%
D10*
X108507500Y-137860000D02*
X109947500Y-137860000D01*
X108507500Y-141780000D02*
X108507500Y-137860000D01*
X109947500Y-141780000D02*
X108507500Y-141780000D01*
X114947500Y-141780000D02*
X116387500Y-141780000D01*
X116387500Y-137860000D02*
X114947500Y-137860000D01*
X116387500Y-141780000D02*
X116387500Y-137860000D01*
D13*
X109297500Y-141420000D02*
G75*
G02*
X109257500Y-141420000I-20000J0D01*
G01*
X109257500Y-141420000D02*
G75*
G02*
X109297500Y-141420000I20000J0D01*
G01*
%TO.C,L1*%
D10*
X101167500Y-127670000D02*
X101167500Y-127870000D01*
X101177500Y-131670000D02*
X101177500Y-131870000D01*
X101177500Y-131870000D02*
X105327500Y-131870000D01*
X105317500Y-127670000D02*
X101167500Y-127670000D01*
X105317500Y-127880000D02*
X105317500Y-127670000D01*
X105327500Y-131870000D02*
X105327500Y-131650000D01*
D13*
X105277500Y-127770000D02*
G75*
G02*
X105217500Y-127770000I-30000J0D01*
G01*
X105217500Y-127770000D02*
G75*
G02*
X105277500Y-127770000I30000J0D01*
G01*
%TO.C,FPC4*%
D14*
X78837500Y-143587500D02*
X78837500Y-144777500D01*
X78837500Y-143587500D02*
X79257500Y-143587500D01*
X78837500Y-144647500D02*
X80357500Y-144647500D01*
X78837500Y-146217500D02*
X78837500Y-144647500D01*
X78837500Y-149647500D02*
X78837500Y-148987500D01*
X79257500Y-143587500D02*
X79257500Y-144647500D01*
X81817500Y-144647500D02*
X81857500Y-144647500D01*
X83317500Y-144647500D02*
X83357500Y-144647500D01*
X84817500Y-144647500D02*
X84857500Y-144647500D01*
X86317500Y-144647500D02*
X86357500Y-144647500D01*
X87817500Y-144647500D02*
X87857500Y-144647500D01*
X89317500Y-144647500D02*
X90837500Y-144647500D01*
X90397500Y-143597500D02*
X90397500Y-144647500D01*
X90837500Y-143597500D02*
X90397500Y-143597500D01*
X90837500Y-143597500D02*
X90837500Y-144777500D01*
X90837500Y-144647500D02*
X90837500Y-146217500D01*
X90837500Y-148987500D02*
X90837500Y-149647500D01*
X90837500Y-149647500D02*
X78837500Y-149647500D01*
D13*
X78867500Y-143147500D02*
G75*
G02*
X78807500Y-143147500I-30000J0D01*
G01*
X78807500Y-143147500D02*
G75*
G02*
X78867500Y-143147500I30000J0D01*
G01*
D16*
X80287500Y-143777500D02*
G75*
G02*
X79987500Y-143777500I-150000J0D01*
G01*
X79987500Y-143777500D02*
G75*
G02*
X80287500Y-143777500I150000J0D01*
G01*
%TO.C,D1*%
D10*
X124297500Y-138110000D02*
X129777500Y-138110000D01*
X124297500Y-141890000D02*
X129777500Y-141890000D01*
X126017500Y-138110000D02*
X126017500Y-141890000D01*
X129777500Y-138110000D02*
X129777500Y-138700000D01*
X129777500Y-141890000D02*
X129777500Y-141300000D01*
D13*
X124417500Y-141800000D02*
G75*
G02*
X124357500Y-141800000I-30000J0D01*
G01*
X124357500Y-141800000D02*
G75*
G02*
X124417500Y-141800000I30000J0D01*
G01*
D15*
G36*
X124369992Y-138751412D02*
G01*
X123912792Y-138751412D01*
X123912792Y-138037596D01*
X124369992Y-138037596D01*
X124369992Y-138751412D01*
G37*
G36*
X124369992Y-141962404D02*
G01*
X123912792Y-141962404D01*
X123912792Y-141248588D01*
X124369992Y-141248588D01*
X124369992Y-141962404D01*
G37*
%TO.C,CN11*%
D14*
X108127500Y-143390000D02*
X108127500Y-149190000D01*
X108127500Y-143390000D02*
X115627500Y-143390000D01*
X108127500Y-147710000D02*
X108707500Y-147710000D01*
X108147500Y-149180000D02*
X115647500Y-149180000D01*
X108157500Y-143410000D02*
X108157500Y-143490000D01*
X108157500Y-143490000D02*
X108767500Y-144100000D01*
X108737500Y-144020000D02*
X115007500Y-144020000D01*
X108737500Y-144050000D02*
X108767500Y-144050000D01*
X108737500Y-148570000D02*
X108737500Y-144050000D01*
X109377500Y-149150000D02*
X109377500Y-148570000D01*
X110147500Y-149170000D02*
X110147500Y-148580000D01*
X113617500Y-149150000D02*
X113617500Y-148570000D01*
X114387500Y-149170000D02*
X114387500Y-148580000D01*
X115007500Y-144020000D02*
X115007500Y-148570000D01*
X115007500Y-148570000D02*
X108737500Y-148570000D01*
X115037500Y-147880000D02*
X115617500Y-147880000D01*
X115597500Y-143410000D02*
X115597500Y-143490000D01*
X115597500Y-143490000D02*
X114987500Y-144100000D01*
X115647500Y-143390000D02*
X115647500Y-149180000D01*
D13*
X108097500Y-149140000D02*
G75*
G02*
X108037500Y-149140000I-30000J0D01*
G01*
X108037500Y-149140000D02*
G75*
G02*
X108097500Y-149140000I30000J0D01*
G01*
%TO.C,U12*%
D14*
X89080000Y-50750000D02*
X89080000Y-49150000D01*
X91120000Y-50910000D02*
X90240000Y-50910000D01*
X92300000Y-50710000D02*
X92300000Y-49170000D01*
D13*
X92170000Y-48540000D02*
G75*
G02*
X92110000Y-48540000I-30000J0D01*
G01*
X92110000Y-48540000D02*
G75*
G02*
X92170000Y-48540000I30000J0D01*
G01*
D14*
X92340000Y-48480000D02*
G75*
G02*
X92220000Y-48480000I-60000J0D01*
G01*
X92220000Y-48480000D02*
G75*
G02*
X92340000Y-48480000I60000J0D01*
G01*
%TO.C,F2*%
X100777500Y-142520000D02*
X100777500Y-140520000D01*
X100777500Y-149120000D02*
X100777500Y-147120000D01*
X101177500Y-140220000D02*
X106177500Y-140220000D01*
X101177500Y-149420000D02*
X106177500Y-149420000D01*
X106577500Y-142520000D02*
X106577500Y-140520000D01*
X106577500Y-149120000D02*
X106577500Y-147120000D01*
X102157500Y-144820000D02*
G75*
G02*
X103677500Y-144820000I760000J0D01*
G01*
X105204043Y-144575856D02*
G75*
G02*
X103677500Y-144820000I-756543J-164144D01*
G01*
D13*
X106207500Y-148520000D02*
G75*
G02*
X106147500Y-148520000I-30000J0D01*
G01*
X106147500Y-148520000D02*
G75*
G02*
X106207500Y-148520000I30000J0D01*
G01*
%TO.C,C47*%
D10*
X109115000Y-112775000D02*
X109115000Y-114275000D01*
X109265000Y-114425000D02*
X110675000Y-114425000D01*
X110675000Y-112625000D02*
X109265000Y-112625000D01*
X111475000Y-112625000D02*
X112885000Y-112625000D01*
X112885000Y-114425000D02*
X111475000Y-114425000D01*
X113035000Y-112775000D02*
X113035000Y-114275000D01*
X109115000Y-112775000D02*
G75*
G02*
X109265000Y-112625000I150000J0D01*
G01*
X109265000Y-114425000D02*
G75*
G02*
X109115000Y-114275000I0J150000D01*
G01*
X112885000Y-112625000D02*
G75*
G02*
X113035000Y-112775000I0J-150000D01*
G01*
X113035000Y-114275000D02*
G75*
G02*
X112885000Y-114425000I-150000J0D01*
G01*
D13*
X112105000Y-112895000D02*
G75*
G02*
X112045000Y-112895000I-30000J0D01*
G01*
X112045000Y-112895000D02*
G75*
G02*
X112105000Y-112895000I30000J0D01*
G01*
%TO.C,U21*%
D10*
X86722500Y-115905000D02*
X91882500Y-115905000D01*
X86722500Y-119445000D02*
X86722500Y-115905000D01*
X91882500Y-115905000D02*
X91882500Y-119445000D01*
X91882500Y-119445000D02*
X86722500Y-119445000D01*
D16*
X91482500Y-116405000D02*
G75*
G02*
X91182500Y-116405000I-150000J0D01*
G01*
X91182500Y-116405000D02*
G75*
G02*
X91482500Y-116405000I150000J0D01*
G01*
D13*
X91832500Y-114475000D02*
G75*
G02*
X91772500Y-114475000I-30000J0D01*
G01*
X91772500Y-114475000D02*
G75*
G02*
X91832500Y-114475000I30000J0D01*
G01*
D16*
X92352500Y-114805000D02*
G75*
G02*
X92052500Y-114805000I-150000J0D01*
G01*
X92052500Y-114805000D02*
G75*
G02*
X92352500Y-114805000I150000J0D01*
G01*
%TO.C,R62*%
D10*
X82660000Y-114660000D02*
X83620000Y-114660000D01*
X82660000Y-115980000D02*
X82660000Y-114660000D01*
X83620000Y-115980000D02*
X82660000Y-115980000D01*
X84480000Y-115980000D02*
X85440000Y-115980000D01*
X85440000Y-114660000D02*
X84480000Y-114660000D01*
X85440000Y-115980000D02*
X85440000Y-114660000D01*
D13*
X83280000Y-115720000D02*
G75*
G02*
X83220000Y-115720000I-30000J0D01*
G01*
X83220000Y-115720000D02*
G75*
G02*
X83280000Y-115720000I30000J0D01*
G01*
%TO.C,LD*%
D12*
X113147500Y-130920000D02*
G75*
G02*
X111247500Y-130920000I-950000J0D01*
G01*
X111247500Y-130920000D02*
G75*
G02*
X113147500Y-130920000I950000J0D01*
G01*
%TO.C,R30*%
D10*
X94085000Y-126665000D02*
X95045000Y-126665000D01*
X94085000Y-127985000D02*
X94085000Y-126665000D01*
X95045000Y-127985000D02*
X94085000Y-127985000D01*
X95905000Y-127985000D02*
X96865000Y-127985000D01*
X96865000Y-126665000D02*
X95905000Y-126665000D01*
X96865000Y-127985000D02*
X96865000Y-126665000D01*
D13*
X94705000Y-127725000D02*
G75*
G02*
X94645000Y-127725000I-30000J0D01*
G01*
X94645000Y-127725000D02*
G75*
G02*
X94705000Y-127725000I30000J0D01*
G01*
%TO.C,C30*%
D14*
X107985000Y-122750000D02*
X107985000Y-121950000D01*
X109095000Y-121640000D02*
X108295000Y-121640000D01*
X109095000Y-123060000D02*
X108295000Y-123060000D01*
X109655000Y-121640000D02*
X110455000Y-121640000D01*
X109655000Y-123060000D02*
X110455000Y-123060000D01*
X110765000Y-121950000D02*
X110765000Y-122750000D01*
X107985000Y-121950000D02*
G75*
G02*
X108295000Y-121640000I310000J0D01*
G01*
X108295000Y-123060000D02*
G75*
G02*
X107985000Y-122750000I0J310000D01*
G01*
X110455000Y-121640000D02*
G75*
G02*
X110765000Y-121950000I0J-310000D01*
G01*
X110765000Y-122750000D02*
G75*
G02*
X110455000Y-123060000I-310000J0D01*
G01*
D13*
X110205000Y-121950000D02*
G75*
G02*
X110145000Y-121950000I-30000J0D01*
G01*
X110145000Y-121950000D02*
G75*
G02*
X110205000Y-121950000I30000J0D01*
G01*
%TO.C,L2*%
D14*
X67380000Y-72935000D02*
X67380000Y-74205000D01*
X67380000Y-74965000D02*
X67380000Y-76105000D01*
X67380000Y-76105000D02*
X67380000Y-76235000D01*
X67380000Y-76235000D02*
X67640000Y-76495000D01*
X67640000Y-72685000D02*
X67380000Y-72935000D01*
X67640000Y-76495000D02*
X69040000Y-76495000D01*
X67770000Y-72685000D02*
X67640000Y-72685000D01*
X69040000Y-76495000D02*
X69160000Y-76495000D01*
X69160000Y-72685000D02*
X67770000Y-72685000D01*
X69160000Y-76495000D02*
X69420000Y-76235000D01*
X69420000Y-72935000D02*
X69160000Y-72685000D01*
X69420000Y-73065000D02*
X69420000Y-72935000D01*
X69420000Y-74205000D02*
X69420000Y-73065000D01*
X69420000Y-76235000D02*
X69420000Y-74965000D01*
D13*
X69070000Y-75545000D02*
G75*
G02*
X69010000Y-75545000I-30000J0D01*
G01*
X69010000Y-75545000D02*
G75*
G02*
X69070000Y-75545000I30000J0D01*
G01*
%TO.C,R77*%
D10*
X64000000Y-82840000D02*
X64960000Y-82840000D01*
X64000000Y-84160000D02*
X64000000Y-82840000D01*
X64960000Y-84160000D02*
X64000000Y-84160000D01*
X65820000Y-84160000D02*
X66780000Y-84160000D01*
X66780000Y-82840000D02*
X65820000Y-82840000D01*
X66780000Y-84160000D02*
X66780000Y-82840000D01*
D13*
X64620000Y-83900000D02*
G75*
G02*
X64560000Y-83900000I-30000J0D01*
G01*
X64560000Y-83900000D02*
G75*
G02*
X64620000Y-83900000I30000J0D01*
G01*
%TO.C,R21*%
D10*
X99660000Y-119540000D02*
X100620000Y-119540000D01*
X99660000Y-120860000D02*
X99660000Y-119540000D01*
X100620000Y-120860000D02*
X99660000Y-120860000D01*
X101480000Y-120860000D02*
X102440000Y-120860000D01*
X102440000Y-119540000D02*
X101480000Y-119540000D01*
X102440000Y-120860000D02*
X102440000Y-119540000D01*
D13*
X100280000Y-120600000D02*
G75*
G02*
X100220000Y-120600000I-30000J0D01*
G01*
X100220000Y-120600000D02*
G75*
G02*
X100280000Y-120600000I30000J0D01*
G01*
%TO.C,U8*%
D10*
X61570000Y-104070000D02*
X61570000Y-104320000D01*
X61570000Y-106730000D02*
X61570000Y-106480000D01*
X62320000Y-104070000D02*
X61570000Y-104070000D01*
X62320000Y-106730000D02*
X61570000Y-106730000D01*
X63980000Y-104070000D02*
X64730000Y-104070000D01*
X63980000Y-106730000D02*
X64730000Y-106730000D01*
X64730000Y-104070000D02*
X64730000Y-104320000D01*
X64730000Y-106730000D02*
X64730000Y-106480000D01*
X61450000Y-104640000D02*
G75*
G02*
X61290000Y-104640000I-80000J0D01*
G01*
X61290000Y-104640000D02*
G75*
G02*
X61450000Y-104640000I80000J0D01*
G01*
D13*
X61680000Y-104150000D02*
G75*
G02*
X61620000Y-104150000I-30000J0D01*
G01*
X61620000Y-104150000D02*
G75*
G02*
X61680000Y-104150000I30000J0D01*
G01*
%TO.C,R52*%
D10*
X63950000Y-89180000D02*
X63950000Y-90500000D01*
X63950000Y-90500000D02*
X64910000Y-90500000D01*
X64910000Y-89180000D02*
X63950000Y-89180000D01*
X65770000Y-89180000D02*
X66730000Y-89180000D01*
X66730000Y-89180000D02*
X66730000Y-90500000D01*
X66730000Y-90500000D02*
X65770000Y-90500000D01*
D13*
X66170000Y-89440000D02*
G75*
G02*
X66110000Y-89440000I-30000J0D01*
G01*
X66110000Y-89440000D02*
G75*
G02*
X66170000Y-89440000I30000J0D01*
G01*
%TO.C,R26*%
D10*
X86670000Y-54200000D02*
X86670000Y-55160000D01*
X86670000Y-56980000D02*
X86670000Y-56020000D01*
X87990000Y-54200000D02*
X86670000Y-54200000D01*
X87990000Y-55160000D02*
X87990000Y-54200000D01*
X87990000Y-56020000D02*
X87990000Y-56980000D01*
X87990000Y-56980000D02*
X86670000Y-56980000D01*
D13*
X87760000Y-56390000D02*
G75*
G02*
X87700000Y-56390000I-30000J0D01*
G01*
X87700000Y-56390000D02*
G75*
G02*
X87760000Y-56390000I30000J0D01*
G01*
%TO.C,U3*%
D10*
X101667500Y-134170000D02*
X101987500Y-134170000D01*
X101667500Y-134280000D02*
X101667500Y-134190000D01*
X101667500Y-138160000D02*
X101667500Y-138050000D01*
X101937500Y-138160000D02*
X101667500Y-138160000D01*
X105347500Y-134170000D02*
X105667500Y-134170000D01*
X105667500Y-134170000D02*
X105667500Y-134280000D01*
X105667500Y-138050000D02*
X105667500Y-138160000D01*
X105667500Y-138160000D02*
X105397500Y-138160000D01*
D17*
X101187500Y-134200000D02*
G75*
G02*
X100927500Y-134200000I-130000J0D01*
G01*
X100927500Y-134200000D02*
G75*
G02*
X101187500Y-134200000I130000J0D01*
G01*
D13*
X101647500Y-134160000D02*
G75*
G02*
X101587500Y-134160000I-30000J0D01*
G01*
X101587500Y-134160000D02*
G75*
G02*
X101647500Y-134160000I30000J0D01*
G01*
%TO.C,FPC2*%
D14*
X70430000Y-47250000D02*
X70430000Y-47900000D01*
X70430000Y-50570000D02*
X70430000Y-51850000D01*
X70430000Y-51850000D02*
X71950000Y-51850000D01*
X70830000Y-46250000D02*
X70830000Y-47250000D01*
X81490000Y-48680000D02*
X81430000Y-48750000D01*
X82230000Y-47940000D02*
X81490000Y-48680000D01*
X83040000Y-48760000D02*
X81430000Y-48750000D01*
X83040000Y-48760000D02*
X82230000Y-47940000D01*
X83110000Y-51850000D02*
X83330000Y-51850000D01*
X83110000Y-51850000D02*
X84630000Y-51850000D01*
X84250000Y-46250000D02*
X70830000Y-46250000D01*
X84250000Y-47250000D02*
X84250000Y-46250000D01*
X84630000Y-47250000D02*
X70430000Y-47250000D01*
X84630000Y-47900000D02*
X84630000Y-47250000D01*
X84630000Y-51850000D02*
X84630000Y-50570000D01*
X83530000Y-52350000D02*
G75*
G02*
X83130000Y-52350000I-200000J0D01*
G01*
X83130000Y-52350000D02*
G75*
G02*
X83530000Y-52350000I200000J0D01*
G01*
D13*
X85210000Y-52650000D02*
G75*
G02*
X85150000Y-52650000I-30000J0D01*
G01*
X85150000Y-52650000D02*
G75*
G02*
X85210000Y-52650000I30000J0D01*
G01*
%TO.C,U4*%
D10*
X113405000Y-127070000D02*
X113405000Y-130170000D01*
X116505000Y-127070000D02*
X113405000Y-127070000D01*
X116505000Y-130170000D02*
X113405000Y-130170000D01*
X116525000Y-127910000D02*
X116525000Y-127070000D01*
X116525000Y-130170000D02*
X116525000Y-129330000D01*
X116534762Y-129293037D02*
G75*
G02*
X116525000Y-127910000I210238J693037D01*
G01*
D13*
X116455000Y-126180000D02*
G75*
G02*
X116395000Y-126180000I-30000J0D01*
G01*
X116395000Y-126180000D02*
G75*
G02*
X116455000Y-126180000I30000J0D01*
G01*
D18*
X116545000Y-126650000D02*
G75*
G02*
X116345000Y-126650000I-100000J0D01*
G01*
X116345000Y-126650000D02*
G75*
G02*
X116545000Y-126650000I100000J0D01*
G01*
%TO.C,U20*%
D14*
X66675000Y-65350000D02*
X66675000Y-65750000D01*
X66675000Y-67960000D02*
X66675000Y-68350000D01*
X67065000Y-65350000D02*
X66675000Y-65350000D01*
X67065000Y-68350000D02*
X66675000Y-68350000D01*
X69675000Y-65350000D02*
X69275000Y-65350000D01*
X69675000Y-65750000D02*
X69675000Y-65350000D01*
X69675000Y-68350000D02*
X69275000Y-68350000D01*
X69675000Y-68350000D02*
X69675000Y-67960000D01*
X69525000Y-65010000D02*
G75*
G02*
X69405000Y-65010000I-60000J0D01*
G01*
X69405000Y-65010000D02*
G75*
G02*
X69525000Y-65010000I60000J0D01*
G01*
D13*
X69705000Y-65350000D02*
G75*
G02*
X69645000Y-65350000I-30000J0D01*
G01*
X69645000Y-65350000D02*
G75*
G02*
X69705000Y-65350000I30000J0D01*
G01*
%TO.C,R51*%
D10*
X63970000Y-90830000D02*
X63970000Y-92150000D01*
X63970000Y-92150000D02*
X64930000Y-92150000D01*
X64930000Y-90830000D02*
X63970000Y-90830000D01*
X65790000Y-90830000D02*
X66750000Y-90830000D01*
X66750000Y-90830000D02*
X66750000Y-92150000D01*
X66750000Y-92150000D02*
X65790000Y-92150000D01*
D13*
X66190000Y-91090000D02*
G75*
G02*
X66130000Y-91090000I-30000J0D01*
G01*
X66130000Y-91090000D02*
G75*
G02*
X66190000Y-91090000I30000J0D01*
G01*
%TO.C,R33*%
D10*
X82650000Y-112980000D02*
X83610000Y-112980000D01*
X82650000Y-114300000D02*
X82650000Y-112980000D01*
X83610000Y-114300000D02*
X82650000Y-114300000D01*
X84470000Y-114300000D02*
X85430000Y-114300000D01*
X85430000Y-112980000D02*
X84470000Y-112980000D01*
X85430000Y-114300000D02*
X85430000Y-112980000D01*
D13*
X83270000Y-114040000D02*
G75*
G02*
X83210000Y-114040000I-30000J0D01*
G01*
X83210000Y-114040000D02*
G75*
G02*
X83270000Y-114040000I30000J0D01*
G01*
%TO.C,CN3*%
D14*
X133275000Y-106100000D02*
X133275000Y-114100000D01*
X137975000Y-106100000D02*
X133275000Y-106100000D01*
X137975000Y-106100000D02*
X137975000Y-114100000D01*
X137975000Y-114100000D02*
X133275000Y-114100000D01*
D13*
X133305000Y-106100000D02*
G75*
G02*
X133245000Y-106100000I-30000J0D01*
G01*
X133245000Y-106100000D02*
G75*
G02*
X133305000Y-106100000I30000J0D01*
G01*
%TO.C,R41*%
D10*
X98560000Y-125890000D02*
X98560000Y-127210000D01*
X98560000Y-127210000D02*
X99520000Y-127210000D01*
X99520000Y-125890000D02*
X98560000Y-125890000D01*
X100380000Y-125890000D02*
X101340000Y-125890000D01*
X101340000Y-125890000D02*
X101340000Y-127210000D01*
X101340000Y-127210000D02*
X100380000Y-127210000D01*
D13*
X100780000Y-126150000D02*
G75*
G02*
X100720000Y-126150000I-30000J0D01*
G01*
X100720000Y-126150000D02*
G75*
G02*
X100780000Y-126150000I30000J0D01*
G01*
%TO.C,R20*%
D10*
X99690000Y-123140000D02*
X100650000Y-123140000D01*
X99690000Y-124460000D02*
X99690000Y-123140000D01*
X100650000Y-124460000D02*
X99690000Y-124460000D01*
X101510000Y-124460000D02*
X102470000Y-124460000D01*
X102470000Y-123140000D02*
X101510000Y-123140000D01*
X102470000Y-124460000D02*
X102470000Y-123140000D01*
D13*
X100310000Y-124200000D02*
G75*
G02*
X100250000Y-124200000I-30000J0D01*
G01*
X100250000Y-124200000D02*
G75*
G02*
X100310000Y-124200000I30000J0D01*
G01*
%TO.C,CN4*%
D14*
X84620000Y-68070000D02*
X84620000Y-71070000D01*
X84620000Y-71070000D02*
X85790000Y-71070000D01*
X85380000Y-68810000D02*
X106460000Y-68810000D01*
X85380000Y-70330000D02*
X85380000Y-68810000D01*
X85790000Y-68070000D02*
X84620000Y-68070000D01*
X106050000Y-71070000D02*
X107220000Y-71070000D01*
X106460000Y-68810000D02*
X106460000Y-70330000D01*
X106460000Y-70330000D02*
X85380000Y-70330000D01*
X107220000Y-68070000D02*
X106050000Y-68070000D01*
X107220000Y-71070000D02*
X107220000Y-68070000D01*
D13*
X107250000Y-67880000D02*
G75*
G02*
X107190000Y-67880000I-30000J0D01*
G01*
X107190000Y-67880000D02*
G75*
G02*
X107250000Y-67880000I30000J0D01*
G01*
D15*
G36*
X106460975Y-67792000D02*
G01*
X106333975Y-67919000D01*
X106079975Y-67665000D01*
X106206975Y-67665000D01*
X106587975Y-67665000D01*
X106460975Y-67792000D01*
G37*
%TO.C,LED3*%
D10*
X66630000Y-54850000D02*
X66930000Y-54550000D01*
X66630000Y-54950000D02*
X66630000Y-54850000D01*
X66630000Y-54950000D02*
X66630000Y-55650000D01*
X66630000Y-55650000D02*
X66630000Y-55750000D01*
X66630000Y-55750000D02*
X66930000Y-56050000D01*
X67980000Y-54550000D02*
X66930000Y-54550000D01*
X67980000Y-56050000D02*
X66930000Y-56050000D01*
X68330000Y-55620000D02*
X68000000Y-55290000D01*
X68340000Y-54940000D02*
X68340000Y-54950000D01*
X68340000Y-54940000D02*
X68340000Y-55620000D01*
X68340000Y-54950000D02*
X68000000Y-55290000D01*
X68340000Y-55290000D02*
X68000000Y-55290000D01*
X68340000Y-55620000D02*
X68330000Y-55620000D01*
X68360000Y-54540000D02*
X69510000Y-54540000D01*
X68360000Y-56040000D02*
X69510000Y-56040000D01*
X69510000Y-54540000D02*
X69510000Y-56020000D01*
D13*
X67350000Y-55700000D02*
G75*
G02*
X67290000Y-55700000I-30000J0D01*
G01*
X67290000Y-55700000D02*
G75*
G02*
X67350000Y-55700000I30000J0D01*
G01*
%TO.C,R56*%
D10*
X93427500Y-130820000D02*
X93427500Y-131780000D01*
X93427500Y-133600000D02*
X93427500Y-132640000D01*
X94747500Y-130820000D02*
X93427500Y-130820000D01*
X94747500Y-131780000D02*
X94747500Y-130820000D01*
X94747500Y-132640000D02*
X94747500Y-133600000D01*
X94747500Y-133600000D02*
X93427500Y-133600000D01*
D13*
X94517500Y-133010000D02*
G75*
G02*
X94457500Y-133010000I-30000J0D01*
G01*
X94457500Y-133010000D02*
G75*
G02*
X94517500Y-133010000I30000J0D01*
G01*
%TO.C,CBUS*%
D12*
X127640000Y-103700000D02*
G75*
G02*
X126240000Y-103700000I-700000J0D01*
G01*
X126240000Y-103700000D02*
G75*
G02*
X127640000Y-103700000I700000J0D01*
G01*
%TO.C,U2*%
D14*
X59350000Y-93500000D02*
X59350000Y-103500000D01*
X59350000Y-93500000D02*
X63850000Y-93500000D01*
X59350000Y-99500000D02*
X59850000Y-99500000D01*
X59850000Y-94000000D02*
X59850000Y-97500000D01*
X59850000Y-97500000D02*
X59450000Y-97500000D01*
X59850000Y-99500000D02*
X59850000Y-103000000D01*
X59850000Y-103000000D02*
X60750000Y-103000000D01*
X60750000Y-93500000D02*
X60750000Y-94000000D01*
X60750000Y-94000000D02*
X59850000Y-94000000D01*
X60750000Y-103000000D02*
X60750000Y-103500000D01*
X61550000Y-94000000D02*
X61550000Y-93500000D01*
X61550000Y-103000000D02*
X63350000Y-103000000D01*
X61550000Y-103500000D02*
X61550000Y-103000000D01*
X63350000Y-94000000D02*
X61550000Y-94000000D01*
X63350000Y-103000000D02*
X63350000Y-94000000D01*
X63850000Y-103500000D02*
X59350000Y-103500000D01*
X63850000Y-103500000D02*
X63850000Y-93500000D01*
D13*
X63880000Y-103450000D02*
G75*
G02*
X63820000Y-103450000I-30000J0D01*
G01*
X63820000Y-103450000D02*
G75*
G02*
X63880000Y-103450000I30000J0D01*
G01*
%TO.C,R1*%
D10*
X89207500Y-137200000D02*
X89207500Y-138520000D01*
X89207500Y-138520000D02*
X90167500Y-138520000D01*
X90167500Y-137200000D02*
X89207500Y-137200000D01*
X91027500Y-137200000D02*
X91987500Y-137200000D01*
X91987500Y-137200000D02*
X91987500Y-138520000D01*
X91987500Y-138520000D02*
X91027500Y-138520000D01*
D13*
X91427500Y-137460000D02*
G75*
G02*
X91367500Y-137460000I-30000J0D01*
G01*
X91367500Y-137460000D02*
G75*
G02*
X91427500Y-137460000I30000J0D01*
G01*
%TO.C,PERH*%
D12*
X129850000Y-118900000D02*
G75*
G02*
X127950000Y-118900000I-950000J0D01*
G01*
X127950000Y-118900000D02*
G75*
G02*
X129850000Y-118900000I950000J0D01*
G01*
%TO.C,C14*%
D10*
X121490000Y-115600000D02*
X121490000Y-114100000D01*
X121640000Y-113950000D02*
X123050000Y-113950000D01*
X123050000Y-115750000D02*
X121640000Y-115750000D01*
X123850000Y-115750000D02*
X125260000Y-115750000D01*
X125260000Y-113950000D02*
X123850000Y-113950000D01*
X125410000Y-115600000D02*
X125410000Y-114100000D01*
X121490000Y-114100000D02*
G75*
G02*
X121640000Y-113950000I150000J0D01*
G01*
X121640000Y-115750000D02*
G75*
G02*
X121490000Y-115600000I0J150000D01*
G01*
X125260000Y-113950000D02*
G75*
G02*
X125410000Y-114100000I0J-150000D01*
G01*
X125410000Y-115600000D02*
G75*
G02*
X125260000Y-115750000I-150000J0D01*
G01*
D13*
X122480000Y-115480000D02*
G75*
G02*
X122420000Y-115480000I-30000J0D01*
G01*
X122420000Y-115480000D02*
G75*
G02*
X122480000Y-115480000I30000J0D01*
G01*
%TO.C,R66*%
D10*
X86010000Y-137765000D02*
X86010000Y-139085000D01*
X86010000Y-139085000D02*
X86970000Y-139085000D01*
X86970000Y-137765000D02*
X86010000Y-137765000D01*
X87830000Y-137765000D02*
X88790000Y-137765000D01*
X88790000Y-137765000D02*
X88790000Y-139085000D01*
X88790000Y-139085000D02*
X87830000Y-139085000D01*
D13*
X88230000Y-138025000D02*
G75*
G02*
X88170000Y-138025000I-30000J0D01*
G01*
X88170000Y-138025000D02*
G75*
G02*
X88230000Y-138025000I30000J0D01*
G01*
%TO.C,R58*%
D10*
X99685000Y-121165000D02*
X100645000Y-121165000D01*
X99685000Y-122485000D02*
X99685000Y-121165000D01*
X100645000Y-122485000D02*
X99685000Y-122485000D01*
X101505000Y-122485000D02*
X102465000Y-122485000D01*
X102465000Y-121165000D02*
X101505000Y-121165000D01*
X102465000Y-122485000D02*
X102465000Y-121165000D01*
D13*
X100305000Y-122225000D02*
G75*
G02*
X100245000Y-122225000I-30000J0D01*
G01*
X100245000Y-122225000D02*
G75*
G02*
X100305000Y-122225000I30000J0D01*
G01*
%TO.C,R40*%
D10*
X102335000Y-115190000D02*
X103295000Y-115190000D01*
X102335000Y-116510000D02*
X102335000Y-115190000D01*
X103295000Y-116510000D02*
X102335000Y-116510000D01*
X104155000Y-116510000D02*
X105115000Y-116510000D01*
X105115000Y-115190000D02*
X104155000Y-115190000D01*
X105115000Y-116510000D02*
X105115000Y-115190000D01*
D13*
X102955000Y-116250000D02*
G75*
G02*
X102895000Y-116250000I-30000J0D01*
G01*
X102895000Y-116250000D02*
G75*
G02*
X102955000Y-116250000I30000J0D01*
G01*
%TO.C,CN8*%
D14*
X124037500Y-143390000D02*
X124037500Y-149190000D01*
X124037500Y-143390000D02*
X131537500Y-143390000D01*
X124037500Y-147710000D02*
X124617500Y-147710000D01*
X124057500Y-149180000D02*
X131557500Y-149180000D01*
X124067500Y-143410000D02*
X124067500Y-143490000D01*
X124067500Y-143490000D02*
X124677500Y-144100000D01*
X124647500Y-144020000D02*
X130917500Y-144020000D01*
X124647500Y-144050000D02*
X124677500Y-144050000D01*
X124647500Y-148570000D02*
X124647500Y-144050000D01*
X125287500Y-149150000D02*
X125287500Y-148570000D01*
X126057500Y-149170000D02*
X126057500Y-148580000D01*
X129527500Y-149150000D02*
X129527500Y-148570000D01*
X130297500Y-149170000D02*
X130297500Y-148580000D01*
X130917500Y-144020000D02*
X130917500Y-148570000D01*
X130917500Y-148570000D02*
X124647500Y-148570000D01*
X130947500Y-147880000D02*
X131527500Y-147880000D01*
X131507500Y-143410000D02*
X131507500Y-143490000D01*
X131507500Y-143490000D02*
X130897500Y-144100000D01*
X131557500Y-143390000D02*
X131557500Y-149180000D01*
D13*
X124007500Y-149140000D02*
G75*
G02*
X123947500Y-149140000I-30000J0D01*
G01*
X123947500Y-149140000D02*
G75*
G02*
X124007500Y-149140000I30000J0D01*
G01*
%TO.C,F1*%
D14*
X116957500Y-142520000D02*
X116957500Y-140520000D01*
X116957500Y-149120000D02*
X116957500Y-147120000D01*
X117357500Y-140220000D02*
X122357500Y-140220000D01*
X117357500Y-149420000D02*
X122357500Y-149420000D01*
X122757500Y-142520000D02*
X122757500Y-140520000D01*
X122757500Y-149120000D02*
X122757500Y-147120000D01*
X118337500Y-144820000D02*
G75*
G02*
X119857500Y-144820000I760000J0D01*
G01*
X121384043Y-144575856D02*
G75*
G02*
X119857500Y-144820000I-756543J-164144D01*
G01*
D13*
X122387500Y-148520000D02*
G75*
G02*
X122327500Y-148520000I-30000J0D01*
G01*
X122327500Y-148520000D02*
G75*
G02*
X122387500Y-148520000I30000J0D01*
G01*
%TO.C,CN1*%
D14*
X59390000Y-79910000D02*
X62690000Y-79910000D01*
X59390000Y-91850000D02*
X59390000Y-80040000D01*
X62690000Y-79910000D02*
X62690000Y-91850000D01*
X62690000Y-91850000D02*
X59390000Y-91850000D01*
D13*
X62850000Y-91980000D02*
G75*
G02*
X62790000Y-91980000I-30000J0D01*
G01*
X62790000Y-91980000D02*
G75*
G02*
X62850000Y-91980000I30000J0D01*
G01*
%TO.C,R44*%
D10*
X64365000Y-143160000D02*
X64365000Y-144120000D01*
X64365000Y-145940000D02*
X64365000Y-144980000D01*
X65685000Y-143160000D02*
X64365000Y-143160000D01*
X65685000Y-144120000D02*
X65685000Y-143160000D01*
X65685000Y-144980000D02*
X65685000Y-145940000D01*
X65685000Y-145940000D02*
X64365000Y-145940000D01*
D13*
X65455000Y-145350000D02*
G75*
G02*
X65395000Y-145350000I-30000J0D01*
G01*
X65395000Y-145350000D02*
G75*
G02*
X65455000Y-145350000I30000J0D01*
G01*
%TO.C,R72*%
D10*
X113410000Y-121565000D02*
X113410000Y-122885000D01*
X113410000Y-122885000D02*
X114370000Y-122885000D01*
X114370000Y-121565000D02*
X113410000Y-121565000D01*
X115230000Y-121565000D02*
X116190000Y-121565000D01*
X116190000Y-121565000D02*
X116190000Y-122885000D01*
X116190000Y-122885000D02*
X115230000Y-122885000D01*
D13*
X115630000Y-121825000D02*
G75*
G02*
X115570000Y-121825000I-30000J0D01*
G01*
X115570000Y-121825000D02*
G75*
G02*
X115630000Y-121825000I30000J0D01*
G01*
%TO.C,H3*%
D18*
X128505000Y-106180000D02*
X128505000Y-113800000D01*
X128505000Y-113800000D02*
X131045000Y-113800000D01*
X131045000Y-106180000D02*
X128505000Y-106180000D01*
X131045000Y-108090000D02*
X131045000Y-106180000D01*
X131045000Y-113800000D02*
X131045000Y-108090000D01*
D13*
X128555000Y-106180000D02*
G75*
G02*
X128495000Y-106180000I-30000J0D01*
G01*
X128495000Y-106180000D02*
G75*
G02*
X128555000Y-106180000I30000J0D01*
G01*
%TO.C,CN2*%
D14*
X59000000Y-127125000D02*
X63500000Y-127125000D01*
X59000000Y-133125000D02*
X59000000Y-127125000D01*
X59560000Y-127715000D02*
X59560000Y-129875000D01*
X59560000Y-129875000D02*
X59050000Y-129875000D01*
X59560000Y-130455000D02*
X59050000Y-130455000D01*
X59560000Y-132615000D02*
X59560000Y-130455000D01*
X60320000Y-127205000D02*
X60320000Y-127715000D01*
X60320000Y-127715000D02*
X59560000Y-127715000D01*
X60320000Y-132615000D02*
X59560000Y-132615000D01*
X60320000Y-133125000D02*
X60320000Y-132615000D01*
X60950000Y-127205000D02*
X60950000Y-127715000D01*
X60950000Y-127715000D02*
X62860000Y-127715000D01*
X60950000Y-132665000D02*
X60950000Y-133045000D01*
X62860000Y-127715000D02*
X62860000Y-132665000D01*
X62860000Y-132665000D02*
X60950000Y-132665000D01*
X63500000Y-127125000D02*
X63500000Y-133125000D01*
X63500000Y-133125000D02*
X59000000Y-133125000D01*
D13*
X63530000Y-133075000D02*
G75*
G02*
X63470000Y-133075000I-30000J0D01*
G01*
X63470000Y-133075000D02*
G75*
G02*
X63530000Y-133075000I30000J0D01*
G01*
%TO.C,R4*%
D10*
X125830000Y-105430000D02*
X125830000Y-106390000D01*
X125830000Y-108210000D02*
X125830000Y-107250000D01*
X127150000Y-105430000D02*
X125830000Y-105430000D01*
X127150000Y-106390000D02*
X127150000Y-105430000D01*
X127150000Y-107250000D02*
X127150000Y-108210000D01*
X127150000Y-108210000D02*
X125830000Y-108210000D01*
D13*
X126920000Y-107620000D02*
G75*
G02*
X126860000Y-107620000I-30000J0D01*
G01*
X126860000Y-107620000D02*
G75*
G02*
X126920000Y-107620000I30000J0D01*
G01*
%TO.C,R55*%
D10*
X114040000Y-118310000D02*
X114040000Y-119270000D01*
X114040000Y-121090000D02*
X114040000Y-120130000D01*
X115360000Y-118310000D02*
X114040000Y-118310000D01*
X115360000Y-119270000D02*
X115360000Y-118310000D01*
X115360000Y-120130000D02*
X115360000Y-121090000D01*
X115360000Y-121090000D02*
X114040000Y-121090000D01*
D13*
X115130000Y-120500000D02*
G75*
G02*
X115070000Y-120500000I-30000J0D01*
G01*
X115070000Y-120500000D02*
G75*
G02*
X115130000Y-120500000I30000J0D01*
G01*
%TO.C,R6*%
D10*
X66800000Y-51350000D02*
X66800000Y-52670000D01*
X66800000Y-52670000D02*
X67760000Y-52670000D01*
X67760000Y-51350000D02*
X66800000Y-51350000D01*
X68620000Y-51350000D02*
X69580000Y-51350000D01*
X69580000Y-51350000D02*
X69580000Y-52670000D01*
X69580000Y-52670000D02*
X68620000Y-52670000D01*
D13*
X69020000Y-51610000D02*
G75*
G02*
X68960000Y-51610000I-30000J0D01*
G01*
X68960000Y-51610000D02*
G75*
G02*
X69020000Y-51610000I30000J0D01*
G01*
%TO.C,CN12*%
D14*
X91737500Y-143390000D02*
X91737500Y-149190000D01*
X91737500Y-143390000D02*
X99237500Y-143390000D01*
X91737500Y-147710000D02*
X92317500Y-147710000D01*
X91757500Y-149180000D02*
X99257500Y-149180000D01*
X91767500Y-143410000D02*
X91767500Y-143490000D01*
X91767500Y-143490000D02*
X92377500Y-144100000D01*
X92347500Y-144020000D02*
X98617500Y-144020000D01*
X92347500Y-144050000D02*
X92377500Y-144050000D01*
X92347500Y-148570000D02*
X92347500Y-144050000D01*
X92987500Y-149150000D02*
X92987500Y-148570000D01*
X93757500Y-149170000D02*
X93757500Y-148580000D01*
X97227500Y-149150000D02*
X97227500Y-148570000D01*
X97997500Y-149170000D02*
X97997500Y-148580000D01*
X98617500Y-144020000D02*
X98617500Y-148570000D01*
X98617500Y-148570000D02*
X92347500Y-148570000D01*
X98647500Y-147880000D02*
X99227500Y-147880000D01*
X99207500Y-143410000D02*
X99207500Y-143490000D01*
X99207500Y-143490000D02*
X98597500Y-144100000D01*
X99257500Y-143390000D02*
X99257500Y-149180000D01*
D13*
X91707500Y-149140000D02*
G75*
G02*
X91647500Y-149140000I-30000J0D01*
G01*
X91647500Y-149140000D02*
G75*
G02*
X91707500Y-149140000I30000J0D01*
G01*
%TO.C,R63*%
D10*
X79470000Y-123120000D02*
X80430000Y-123120000D01*
X79470000Y-124440000D02*
X79470000Y-123120000D01*
X80430000Y-124440000D02*
X79470000Y-124440000D01*
X81290000Y-124440000D02*
X82250000Y-124440000D01*
X82250000Y-123120000D02*
X81290000Y-123120000D01*
X82250000Y-124440000D02*
X82250000Y-123120000D01*
D13*
X80090000Y-124180000D02*
G75*
G02*
X80030000Y-124180000I-30000J0D01*
G01*
X80030000Y-124180000D02*
G75*
G02*
X80090000Y-124180000I30000J0D01*
G01*
%TO.C,U17*%
D10*
X103907500Y-118160000D02*
X103907500Y-119940000D01*
X106987500Y-118160000D02*
X106987500Y-119940000D01*
D13*
X106937500Y-117650000D02*
G75*
G02*
X106877500Y-117650000I-30000J0D01*
G01*
X106877500Y-117650000D02*
G75*
G02*
X106937500Y-117650000I30000J0D01*
G01*
D16*
X107267500Y-117750000D02*
G75*
G02*
X106967500Y-117750000I-150000J0D01*
G01*
X106967500Y-117750000D02*
G75*
G02*
X107267500Y-117750000I150000J0D01*
G01*
%TO.C,C44*%
D10*
X133125000Y-118710000D02*
X133125000Y-117210000D01*
X133275000Y-117060000D02*
X134685000Y-117060000D01*
X134685000Y-118860000D02*
X133275000Y-118860000D01*
X135485000Y-118860000D02*
X136895000Y-118860000D01*
X136895000Y-117060000D02*
X135485000Y-117060000D01*
X137045000Y-118710000D02*
X137045000Y-117210000D01*
X133125000Y-117210000D02*
G75*
G02*
X133275000Y-117060000I150000J0D01*
G01*
X133275000Y-118860000D02*
G75*
G02*
X133125000Y-118710000I0J150000D01*
G01*
X136895000Y-117060000D02*
G75*
G02*
X137045000Y-117210000I0J-150000D01*
G01*
X137045000Y-118710000D02*
G75*
G02*
X136895000Y-118860000I-150000J0D01*
G01*
D13*
X134115000Y-118590000D02*
G75*
G02*
X134055000Y-118590000I-30000J0D01*
G01*
X134055000Y-118590000D02*
G75*
G02*
X134115000Y-118590000I30000J0D01*
G01*
%TO.C,U5*%
D10*
X123130000Y-127240000D02*
X123130000Y-127420000D01*
X123130000Y-128170000D02*
X123130000Y-128580000D01*
X123130000Y-129330000D02*
X123130000Y-129370000D01*
X123130000Y-129980000D02*
X123130000Y-130340000D01*
X123130000Y-130340000D02*
X123630000Y-130340000D01*
X123630000Y-127240000D02*
X123130000Y-127240000D01*
X125730000Y-130340000D02*
X126230000Y-130340000D01*
X126230000Y-127240000D02*
X125240000Y-127240000D01*
X126230000Y-127570000D02*
X126230000Y-127240000D01*
X126230000Y-129370000D02*
X126230000Y-128680000D01*
X126230000Y-130340000D02*
X126230000Y-129980000D01*
D13*
X123210000Y-130290000D02*
G75*
G02*
X123150000Y-130290000I-30000J0D01*
G01*
X123150000Y-130290000D02*
G75*
G02*
X123210000Y-130290000I30000J0D01*
G01*
D10*
X123700000Y-130590000D02*
G75*
G02*
X123560000Y-130590000I-70000J0D01*
G01*
X123560000Y-130590000D02*
G75*
G02*
X123700000Y-130590000I70000J0D01*
G01*
%TO.C,R8*%
X64500000Y-54710000D02*
X64500000Y-55670000D01*
X64500000Y-57490000D02*
X64500000Y-56530000D01*
X65820000Y-54710000D02*
X64500000Y-54710000D01*
X65820000Y-55670000D02*
X65820000Y-54710000D01*
X65820000Y-56530000D02*
X65820000Y-57490000D01*
X65820000Y-57490000D02*
X64500000Y-57490000D01*
D13*
X65590000Y-56900000D02*
G75*
G02*
X65530000Y-56900000I-30000J0D01*
G01*
X65530000Y-56900000D02*
G75*
G02*
X65590000Y-56900000I30000J0D01*
G01*
%TO.C,C7*%
D14*
X59065000Y-105070000D02*
X59065000Y-104270000D01*
X59065000Y-105630000D02*
X59065000Y-106430000D01*
X59375000Y-103960000D02*
X60175000Y-103960000D01*
X60175000Y-106740000D02*
X59375000Y-106740000D01*
X60485000Y-105070000D02*
X60485000Y-104270000D01*
X60485000Y-105630000D02*
X60485000Y-106430000D01*
X59065000Y-104270000D02*
G75*
G02*
X59375000Y-103960000I310000J0D01*
G01*
X59375000Y-106740000D02*
G75*
G02*
X59065000Y-106430000I0J310000D01*
G01*
X60175000Y-103960000D02*
G75*
G02*
X60485000Y-104270000I0J-310000D01*
G01*
X60485000Y-106430000D02*
G75*
G02*
X60175000Y-106740000I-310000J0D01*
G01*
D13*
X59405000Y-104550000D02*
G75*
G02*
X59345000Y-104550000I-30000J0D01*
G01*
X59345000Y-104550000D02*
G75*
G02*
X59405000Y-104550000I30000J0D01*
G01*
%TO.C,R43*%
D10*
X67835000Y-133715000D02*
X67835000Y-135035000D01*
X67835000Y-135035000D02*
X68795000Y-135035000D01*
X68795000Y-133715000D02*
X67835000Y-133715000D01*
X69655000Y-133715000D02*
X70615000Y-133715000D01*
X70615000Y-133715000D02*
X70615000Y-135035000D01*
X70615000Y-135035000D02*
X69655000Y-135035000D01*
D13*
X70055000Y-133975000D02*
G75*
G02*
X69995000Y-133975000I-30000J0D01*
G01*
X69995000Y-133975000D02*
G75*
G02*
X70055000Y-133975000I30000J0D01*
G01*
%TO.C,R22*%
D10*
X70760000Y-54630000D02*
X70760000Y-55950000D01*
X70760000Y-55950000D02*
X71720000Y-55950000D01*
X71720000Y-54630000D02*
X70760000Y-54630000D01*
X72580000Y-54630000D02*
X73540000Y-54630000D01*
X73540000Y-54630000D02*
X73540000Y-55950000D01*
X73540000Y-55950000D02*
X72580000Y-55950000D01*
D13*
X72980000Y-54890000D02*
G75*
G02*
X72920000Y-54890000I-30000J0D01*
G01*
X72920000Y-54890000D02*
G75*
G02*
X72980000Y-54890000I30000J0D01*
G01*
%TO.C,LED5*%
D10*
X70960000Y-60410000D02*
X70960000Y-58930000D01*
X72110000Y-58910000D02*
X70960000Y-58910000D01*
X72110000Y-60410000D02*
X70960000Y-60410000D01*
X72130000Y-59330000D02*
X72140000Y-59330000D01*
X72130000Y-59660000D02*
X72470000Y-59660000D01*
X72130000Y-60000000D02*
X72470000Y-59660000D01*
X72130000Y-60010000D02*
X72130000Y-59330000D01*
X72130000Y-60010000D02*
X72130000Y-60000000D01*
X72140000Y-59330000D02*
X72470000Y-59660000D01*
X72490000Y-58900000D02*
X73540000Y-58900000D01*
X72490000Y-60400000D02*
X73540000Y-60400000D01*
X73840000Y-59200000D02*
X73540000Y-58900000D01*
X73840000Y-59300000D02*
X73840000Y-59200000D01*
X73840000Y-60000000D02*
X73840000Y-59300000D01*
X73840000Y-60000000D02*
X73840000Y-60100000D01*
X73840000Y-60100000D02*
X73540000Y-60400000D01*
D13*
X73180000Y-59250000D02*
G75*
G02*
X73120000Y-59250000I-30000J0D01*
G01*
X73120000Y-59250000D02*
G75*
G02*
X73180000Y-59250000I30000J0D01*
G01*
%TO.C,5V*%
D12*
X137050000Y-132025000D02*
G75*
G02*
X135150000Y-132025000I-950000J0D01*
G01*
X135150000Y-132025000D02*
G75*
G02*
X137050000Y-132025000I950000J0D01*
G01*
%TO.C,R54*%
D10*
X63970000Y-85950000D02*
X63970000Y-87270000D01*
X63970000Y-87270000D02*
X64930000Y-87270000D01*
X64930000Y-85950000D02*
X63970000Y-85950000D01*
X65790000Y-85950000D02*
X66750000Y-85950000D01*
X66750000Y-85950000D02*
X66750000Y-87270000D01*
X66750000Y-87270000D02*
X65790000Y-87270000D01*
D13*
X66190000Y-86210000D02*
G75*
G02*
X66130000Y-86210000I-30000J0D01*
G01*
X66130000Y-86210000D02*
G75*
G02*
X66190000Y-86210000I30000J0D01*
G01*
%TO.C,U7*%
D14*
X52630000Y-108300000D02*
X52630000Y-126300000D01*
X52630000Y-126300000D02*
X59440000Y-126300000D01*
X53780000Y-110000000D02*
X53780000Y-112240000D01*
X53780000Y-112030000D02*
X53780000Y-114890000D01*
X53780000Y-114890000D02*
X55940000Y-114890000D01*
X53780000Y-117430000D02*
X53780000Y-119970000D01*
X53780000Y-119970000D02*
X55940000Y-119970000D01*
X53780000Y-122250000D02*
X53780000Y-124540000D01*
X53780000Y-124540000D02*
X57460000Y-124540000D01*
X55940000Y-114890000D02*
X55940000Y-117430000D01*
X55940000Y-117430000D02*
X53780000Y-117430000D01*
X55940000Y-119970000D02*
X55940000Y-122250000D01*
X55940000Y-122250000D02*
X53780000Y-122250000D01*
X58660000Y-110000000D02*
X53780000Y-110000000D01*
X58660000Y-112030000D02*
X53780000Y-112030000D01*
X58660000Y-126300000D02*
X58660000Y-108280000D01*
X59440000Y-108280000D02*
X52640000Y-108280000D01*
X77320000Y-126300000D02*
X78160000Y-126300000D01*
X78160000Y-108280000D02*
X77320000Y-108280000D01*
X78160000Y-109630000D02*
X78160000Y-108280000D01*
X78160000Y-126300000D02*
X78160000Y-124970000D01*
D13*
X52660000Y-126300000D02*
G75*
G02*
X52600000Y-126300000I-30000J0D01*
G01*
X52600000Y-126300000D02*
G75*
G02*
X52660000Y-126300000I30000J0D01*
G01*
D15*
%TO.C,R35*%
D10*
X103610000Y-125065000D02*
X104570000Y-125065000D01*
X103610000Y-126385000D02*
X103610000Y-125065000D01*
X104570000Y-126385000D02*
X103610000Y-126385000D01*
X105430000Y-126385000D02*
X106390000Y-126385000D01*
X106390000Y-125065000D02*
X105430000Y-125065000D01*
X106390000Y-126385000D02*
X106390000Y-125065000D01*
D13*
X104230000Y-126125000D02*
G75*
G02*
X104170000Y-126125000I-30000J0D01*
G01*
X104170000Y-126125000D02*
G75*
G02*
X104230000Y-126125000I30000J0D01*
G01*
%TO.C,R78*%
D10*
X64000000Y-81200000D02*
X64960000Y-81200000D01*
X64000000Y-82520000D02*
X64000000Y-81200000D01*
X64960000Y-82520000D02*
X64000000Y-82520000D01*
X65820000Y-82520000D02*
X66780000Y-82520000D01*
X66780000Y-81200000D02*
X65820000Y-81200000D01*
X66780000Y-82520000D02*
X66780000Y-81200000D01*
D13*
X64620000Y-82260000D02*
G75*
G02*
X64560000Y-82260000I-30000J0D01*
G01*
X64560000Y-82260000D02*
G75*
G02*
X64620000Y-82260000I30000J0D01*
G01*
%TO.C,C46*%
D10*
X107190000Y-125125000D02*
X107190000Y-126625000D01*
X107340000Y-126775000D02*
X108750000Y-126775000D01*
X108750000Y-124975000D02*
X107340000Y-124975000D01*
X109550000Y-124975000D02*
X110960000Y-124975000D01*
X110960000Y-126775000D02*
X109550000Y-126775000D01*
X111110000Y-125125000D02*
X111110000Y-126625000D01*
X107190000Y-125125000D02*
G75*
G02*
X107340000Y-124975000I150000J0D01*
G01*
X107340000Y-126775000D02*
G75*
G02*
X107190000Y-126625000I0J150000D01*
G01*
X110960000Y-124975000D02*
G75*
G02*
X111110000Y-125125000I0J-150000D01*
G01*
X111110000Y-126625000D02*
G75*
G02*
X110960000Y-126775000I-150000J0D01*
G01*
D13*
X110180000Y-125245000D02*
G75*
G02*
X110120000Y-125245000I-30000J0D01*
G01*
X110120000Y-125245000D02*
G75*
G02*
X110180000Y-125245000I30000J0D01*
G01*
%TO.C,C40*%
D14*
X118160000Y-135800000D02*
X118160000Y-135000000D01*
X119270000Y-134690000D02*
X118470000Y-134690000D01*
X119270000Y-136110000D02*
X118470000Y-136110000D01*
X119830000Y-134690000D02*
X120630000Y-134690000D01*
X119830000Y-136110000D02*
X120630000Y-136110000D01*
X120940000Y-135000000D02*
X120940000Y-135800000D01*
X118160000Y-135000000D02*
G75*
G02*
X118470000Y-134690000I310000J0D01*
G01*
X118470000Y-136110000D02*
G75*
G02*
X118160000Y-135800000I0J310000D01*
G01*
X120630000Y-134690000D02*
G75*
G02*
X120940000Y-135000000I0J-310000D01*
G01*
X120940000Y-135800000D02*
G75*
G02*
X120630000Y-136110000I-310000J0D01*
G01*
D13*
X118780000Y-135800000D02*
G75*
G02*
X118720000Y-135800000I-30000J0D01*
G01*
X118720000Y-135800000D02*
G75*
G02*
X118780000Y-135800000I30000J0D01*
G01*
%TO.C,R50*%
D10*
X67160000Y-63390000D02*
X68120000Y-63390000D01*
X67160000Y-64710000D02*
X67160000Y-63390000D01*
X68120000Y-64710000D02*
X67160000Y-64710000D01*
X68980000Y-64710000D02*
X69940000Y-64710000D01*
X69940000Y-63390000D02*
X68980000Y-63390000D01*
X69940000Y-64710000D02*
X69940000Y-63390000D01*
D13*
X67780000Y-64450000D02*
G75*
G02*
X67720000Y-64450000I-30000J0D01*
G01*
X67720000Y-64450000D02*
G75*
G02*
X67780000Y-64450000I30000J0D01*
G01*
%TO.C,R25*%
D10*
X128290000Y-130210000D02*
X128290000Y-131170000D01*
X128290000Y-132990000D02*
X128290000Y-132030000D01*
X129610000Y-130210000D02*
X128290000Y-130210000D01*
X129610000Y-131170000D02*
X129610000Y-130210000D01*
X129610000Y-132030000D02*
X129610000Y-132990000D01*
X129610000Y-132990000D02*
X128290000Y-132990000D01*
D13*
X129380000Y-132400000D02*
G75*
G02*
X129320000Y-132400000I-30000J0D01*
G01*
X129320000Y-132400000D02*
G75*
G02*
X129380000Y-132400000I30000J0D01*
G01*
%TO.C,R49*%
D10*
X67160000Y-61940000D02*
X68120000Y-61940000D01*
X67160000Y-63260000D02*
X67160000Y-61940000D01*
X68120000Y-63260000D02*
X67160000Y-63260000D01*
X68980000Y-63260000D02*
X69940000Y-63260000D01*
X69940000Y-61940000D02*
X68980000Y-61940000D01*
X69940000Y-63260000D02*
X69940000Y-61940000D01*
D13*
X67780000Y-63000000D02*
G75*
G02*
X67720000Y-63000000I-30000J0D01*
G01*
X67720000Y-63000000D02*
G75*
G02*
X67780000Y-63000000I30000J0D01*
G01*
%TO.C,R5*%
D10*
X126740000Y-93490000D02*
X127700000Y-93490000D01*
X126740000Y-94810000D02*
X126740000Y-93490000D01*
X127700000Y-94810000D02*
X126740000Y-94810000D01*
X128560000Y-94810000D02*
X129520000Y-94810000D01*
X129520000Y-93490000D02*
X128560000Y-93490000D01*
X129520000Y-94810000D02*
X129520000Y-93490000D01*
D13*
X127360000Y-94550000D02*
G75*
G02*
X127300000Y-94550000I-30000J0D01*
G01*
X127300000Y-94550000D02*
G75*
G02*
X127360000Y-94550000I30000J0D01*
G01*
%TO.C,C41*%
D14*
X116260000Y-132500000D02*
X116260000Y-131700000D01*
X117370000Y-131390000D02*
X116570000Y-131390000D01*
X117370000Y-132810000D02*
X116570000Y-132810000D01*
X117930000Y-131390000D02*
X118730000Y-131390000D01*
X117930000Y-132810000D02*
X118730000Y-132810000D01*
X119040000Y-131700000D02*
X119040000Y-132500000D01*
X116260000Y-131700000D02*
G75*
G02*
X116570000Y-131390000I310000J0D01*
G01*
X116570000Y-132810000D02*
G75*
G02*
X116260000Y-132500000I0J310000D01*
G01*
X118730000Y-131390000D02*
G75*
G02*
X119040000Y-131700000I0J-310000D01*
G01*
X119040000Y-132500000D02*
G75*
G02*
X118730000Y-132810000I-310000J0D01*
G01*
D13*
X116880000Y-132500000D02*
G75*
G02*
X116820000Y-132500000I-30000J0D01*
G01*
X116820000Y-132500000D02*
G75*
G02*
X116880000Y-132500000I30000J0D01*
G01*
%TO.C,R14*%
D10*
X102335000Y-113440000D02*
X103295000Y-113440000D01*
X102335000Y-114760000D02*
X102335000Y-113440000D01*
X103295000Y-114760000D02*
X102335000Y-114760000D01*
X104155000Y-114760000D02*
X105115000Y-114760000D01*
X105115000Y-113440000D02*
X104155000Y-113440000D01*
X105115000Y-114760000D02*
X105115000Y-113440000D01*
D13*
X102955000Y-114500000D02*
G75*
G02*
X102895000Y-114500000I-30000J0D01*
G01*
X102895000Y-114500000D02*
G75*
G02*
X102955000Y-114500000I30000J0D01*
G01*
%TO.C,CN6*%
D14*
X58880000Y-57720000D02*
X58880000Y-68020000D01*
X58880000Y-57720000D02*
X59340000Y-57720000D01*
X58880000Y-68020000D02*
X59340000Y-68020000D01*
X63140000Y-56550000D02*
X62760000Y-56550000D01*
X63140000Y-59110000D02*
X63140000Y-56550000D01*
X63140000Y-69340000D02*
X62760000Y-69340000D01*
X63140000Y-69340000D02*
X63140000Y-66770000D01*
D13*
X64250000Y-56560000D02*
G75*
G02*
X64190000Y-56560000I-30000J0D01*
G01*
X64190000Y-56560000D02*
G75*
G02*
X64250000Y-56560000I30000J0D01*
G01*
D15*
G36*
X64412518Y-58445066D02*
G01*
X63312520Y-58845065D01*
X63312520Y-58045067D01*
X64412518Y-58445066D01*
G37*
%TO.C,Card1*%
D14*
X95120000Y-57210000D02*
X95120000Y-49970000D01*
X95120000Y-60850000D02*
X95120000Y-60470000D01*
X95120000Y-60850000D02*
X95620000Y-60850000D01*
X95620000Y-60850000D02*
X95620000Y-60470000D01*
X95940000Y-58570000D02*
X95930000Y-58570000D01*
X97040000Y-58570000D02*
X96760000Y-58570000D01*
X98140000Y-58570000D02*
X97860000Y-58570000D01*
X99240000Y-58570000D02*
X98960000Y-58570000D01*
X100340000Y-58570000D02*
X100060000Y-58570000D01*
X100730000Y-46800000D02*
X95770000Y-46800000D01*
X100730000Y-46800000D02*
X100820000Y-46800000D01*
X101440000Y-58570000D02*
X101160000Y-58570000D01*
X102330000Y-46800000D02*
X102770000Y-46800000D01*
X102540000Y-58570000D02*
X102260000Y-58570000D01*
X102770000Y-46800000D02*
X105160000Y-46800000D01*
X103640000Y-58570000D02*
X103360000Y-58570000D01*
X104970000Y-58570000D02*
X104460000Y-58570000D01*
X105520000Y-60850000D02*
X104970000Y-58570000D01*
X106520000Y-46800000D02*
X107570000Y-46800000D01*
X108220000Y-58180000D02*
X108220000Y-49970000D01*
X108220000Y-60850000D02*
X105520000Y-60850000D01*
X108220000Y-60850000D02*
X108220000Y-60470000D01*
D13*
X108240000Y-60740000D02*
G75*
G02*
X108180000Y-60740000I-30000J0D01*
G01*
X108180000Y-60740000D02*
G75*
G02*
X108240000Y-60740000I30000J0D01*
G01*
%TO.C,C35*%
D14*
X105690000Y-115145000D02*
X105690000Y-114345000D01*
X105690000Y-115705000D02*
X105690000Y-116505000D01*
X106000000Y-114035000D02*
X106800000Y-114035000D01*
X106800000Y-116815000D02*
X106000000Y-116815000D01*
X107110000Y-115145000D02*
X107110000Y-114345000D01*
X107110000Y-115705000D02*
X107110000Y-116505000D01*
X105690000Y-114345000D02*
G75*
G02*
X106000000Y-114035000I310000J0D01*
G01*
X106000000Y-116815000D02*
G75*
G02*
X105690000Y-116505000I0J310000D01*
G01*
X106800000Y-114035000D02*
G75*
G02*
X107110000Y-114345000I0J-310000D01*
G01*
X107110000Y-116505000D02*
G75*
G02*
X106800000Y-116815000I-310000J0D01*
G01*
D13*
X106030000Y-114625000D02*
G75*
G02*
X105970000Y-114625000I-30000J0D01*
G01*
X105970000Y-114625000D02*
G75*
G02*
X106030000Y-114625000I30000J0D01*
G01*
%TO.C,R67*%
D10*
X82715000Y-125310000D02*
X84035000Y-125310000D01*
X82715000Y-126270000D02*
X82715000Y-125310000D01*
X82715000Y-127130000D02*
X82715000Y-128090000D01*
X82715000Y-128090000D02*
X84035000Y-128090000D01*
X84035000Y-125310000D02*
X84035000Y-126270000D01*
X84035000Y-128090000D02*
X84035000Y-127130000D01*
D13*
X83005000Y-125900000D02*
G75*
G02*
X82945000Y-125900000I-30000J0D01*
G01*
X82945000Y-125900000D02*
G75*
G02*
X83005000Y-125900000I30000J0D01*
G01*
%TO.C,R13*%
D10*
X116060000Y-115065000D02*
X117020000Y-115065000D01*
X116060000Y-116385000D02*
X116060000Y-115065000D01*
X117020000Y-116385000D02*
X116060000Y-116385000D01*
X117880000Y-116385000D02*
X118840000Y-116385000D01*
X118840000Y-115065000D02*
X117880000Y-115065000D01*
X118840000Y-116385000D02*
X118840000Y-115065000D01*
D13*
X116680000Y-116125000D02*
G75*
G02*
X116620000Y-116125000I-30000J0D01*
G01*
X116620000Y-116125000D02*
G75*
G02*
X116680000Y-116125000I30000J0D01*
G01*
%TO.C,R53*%
D10*
X63960000Y-87550000D02*
X63960000Y-88870000D01*
X63960000Y-88870000D02*
X64920000Y-88870000D01*
X64920000Y-87550000D02*
X63960000Y-87550000D01*
X65780000Y-87550000D02*
X66740000Y-87550000D01*
X66740000Y-87550000D02*
X66740000Y-88870000D01*
X66740000Y-88870000D02*
X65780000Y-88870000D01*
D13*
X66180000Y-87810000D02*
G75*
G02*
X66120000Y-87810000I-30000J0D01*
G01*
X66120000Y-87810000D02*
G75*
G02*
X66180000Y-87810000I30000J0D01*
G01*
%TO.C,R24*%
D10*
X88315000Y-130710000D02*
X88315000Y-131670000D01*
X88315000Y-133490000D02*
X88315000Y-132530000D01*
X89635000Y-130710000D02*
X88315000Y-130710000D01*
X89635000Y-131670000D02*
X89635000Y-130710000D01*
X89635000Y-132530000D02*
X89635000Y-133490000D01*
X89635000Y-133490000D02*
X88315000Y-133490000D01*
D13*
X89405000Y-132900000D02*
G75*
G02*
X89345000Y-132900000I-30000J0D01*
G01*
X89345000Y-132900000D02*
G75*
G02*
X89405000Y-132900000I30000J0D01*
G01*
%TO.C,SW1*%
D10*
X128050000Y-57670000D02*
X132110000Y-57670000D01*
X128050000Y-58100000D02*
X128050000Y-57670000D01*
X128050000Y-60750000D02*
X128050000Y-60320000D01*
X128050000Y-60750000D02*
X132110000Y-60750000D01*
X132110000Y-57670000D02*
X132110000Y-58100000D01*
X132110000Y-60750000D02*
X132110000Y-60320000D01*
D13*
X127610000Y-60680000D02*
G75*
G02*
X127550000Y-60680000I-30000J0D01*
G01*
X127550000Y-60680000D02*
G75*
G02*
X127610000Y-60680000I30000J0D01*
G01*
D14*
X130980000Y-59210000D02*
G75*
G02*
X129180000Y-59210000I-900000J0D01*
G01*
X129180000Y-59210000D02*
G75*
G02*
X130980000Y-59210000I900000J0D01*
G01*
%TO.C,USBC1*%
X133940000Y-95480000D02*
X132070000Y-95480000D01*
X133940000Y-104420000D02*
X132070000Y-104420000D01*
X137650000Y-95480000D02*
X136170000Y-95480000D01*
X137650000Y-95480000D02*
X137650000Y-104420000D01*
X137650000Y-104420000D02*
X136170000Y-104420000D01*
D13*
X129830000Y-95470000D02*
G75*
G02*
X129770000Y-95470000I-30000J0D01*
G01*
X129770000Y-95470000D02*
G75*
G02*
X129830000Y-95470000I30000J0D01*
G01*
%TO.C,L4*%
D14*
X108775000Y-119525000D02*
X108775000Y-115525000D01*
X113275000Y-119525000D02*
X113275000Y-115525000D01*
D13*
X113055000Y-119525000D02*
G75*
G02*
X112995000Y-119525000I-30000J0D01*
G01*
X112995000Y-119525000D02*
G75*
G02*
X113055000Y-119525000I30000J0D01*
G01*
%TO.C,CN9*%
D14*
X132360000Y-135210000D02*
X132360000Y-142710000D01*
X132370000Y-137210000D02*
X132960000Y-137210000D01*
X132370000Y-141450000D02*
X132960000Y-141450000D01*
X132390000Y-136440000D02*
X132970000Y-136440000D01*
X132390000Y-140680000D02*
X132970000Y-140680000D01*
X132970000Y-135800000D02*
X137490000Y-135800000D01*
X132970000Y-142070000D02*
X132970000Y-135800000D01*
X133660000Y-142100000D02*
X133660000Y-142680000D01*
X133830000Y-135190000D02*
X133830000Y-135770000D01*
X137490000Y-135800000D02*
X137490000Y-135830000D01*
X137520000Y-135800000D02*
X137520000Y-142070000D01*
X137520000Y-142070000D02*
X132970000Y-142070000D01*
X138050000Y-135220000D02*
X137440000Y-135830000D01*
X138050000Y-142660000D02*
X137440000Y-142050000D01*
X138130000Y-135220000D02*
X138050000Y-135220000D01*
X138130000Y-142660000D02*
X138050000Y-142660000D01*
X138150000Y-135190000D02*
X132350000Y-135190000D01*
X138150000Y-135190000D02*
X138150000Y-142690000D01*
X138150000Y-142710000D02*
X132360000Y-142710000D01*
D13*
X132430000Y-135130000D02*
G75*
G02*
X132370000Y-135130000I-30000J0D01*
G01*
X132370000Y-135130000D02*
G75*
G02*
X132430000Y-135130000I30000J0D01*
G01*
%TD*%
%LPC*%
D19*
%TO.C,H12*%
X135450000Y-146725000D03*
%TD*%
D20*
%TO.C,CN10*%
X134372500Y-58250000D03*
X134372500Y-52650000D03*
D21*
X136892500Y-56950000D03*
X136892500Y-55950000D03*
X136892500Y-54950000D03*
X136892500Y-53950000D03*
%TD*%
D22*
%TO.C,R7*%
X68910000Y-57930000D03*
X67410000Y-57930000D03*
%TD*%
D23*
%TO.C,U18*%
X66790000Y-101500000D03*
D24*
X66790000Y-99500000D03*
X66790000Y-97500000D03*
X66790000Y-95500000D03*
%TD*%
D25*
%TO.C,CN5*%
X105720000Y-102030000D03*
X105720000Y-105110000D03*
X105320000Y-102030000D03*
X105320000Y-105110000D03*
X104920000Y-102030000D03*
X104920000Y-105110000D03*
X104520000Y-102030000D03*
X104520000Y-105110000D03*
X104120000Y-102030000D03*
X104120000Y-105110000D03*
X103720000Y-102030000D03*
X103720000Y-105110000D03*
X103320000Y-102030000D03*
X103320000Y-105110000D03*
X102920000Y-102030000D03*
X102920000Y-105110000D03*
X102520000Y-102030000D03*
X102520000Y-105110000D03*
X102120000Y-102030000D03*
X102120000Y-105110000D03*
X101720000Y-102030000D03*
X101720000Y-105110000D03*
X101320000Y-102030000D03*
X101320000Y-105110000D03*
X100920000Y-102030000D03*
X100920000Y-105110000D03*
X100520000Y-102030000D03*
X100520000Y-105110000D03*
X100120000Y-102030000D03*
X100120000Y-105110000D03*
X99720000Y-102030000D03*
X99720000Y-105110000D03*
X99320000Y-102030000D03*
X99320000Y-105110000D03*
X98920000Y-102030000D03*
X98920000Y-105110000D03*
X98520000Y-102030000D03*
X98520000Y-105110000D03*
X98120000Y-102030000D03*
X98120000Y-105110000D03*
X97720000Y-102030000D03*
X97720000Y-105110000D03*
X97320000Y-102030000D03*
X97320000Y-105110000D03*
X96920000Y-102030000D03*
X96920000Y-105110000D03*
X96520000Y-102030000D03*
X96520000Y-105110000D03*
X96120000Y-102030000D03*
X96120000Y-105110000D03*
X95720000Y-102030000D03*
X95720000Y-105110000D03*
X95320000Y-102030000D03*
X95320000Y-105110000D03*
X94920000Y-102030000D03*
X94920000Y-105110000D03*
X94520000Y-102030000D03*
X94520000Y-105110000D03*
X94120000Y-102030000D03*
X94120000Y-105110000D03*
X93720000Y-102030000D03*
X93720000Y-105110000D03*
X93320000Y-102030000D03*
X93320000Y-105110000D03*
X92920000Y-102030000D03*
X92920000Y-105110000D03*
X92520000Y-102030000D03*
X92520000Y-105110000D03*
X92120000Y-102030000D03*
X92120000Y-105110000D03*
X91720000Y-102030000D03*
X91720000Y-105110000D03*
X91320000Y-102030000D03*
X91320000Y-105110000D03*
X90920000Y-102030000D03*
X90920000Y-105110000D03*
X90520000Y-102030000D03*
X90520000Y-105110000D03*
X90120000Y-102030000D03*
X90120000Y-105110000D03*
X89720000Y-102030000D03*
X89720000Y-105110000D03*
X89320000Y-102030000D03*
X89320000Y-105110000D03*
X88920000Y-102030000D03*
X88920000Y-105110000D03*
X88520000Y-102030000D03*
X88520000Y-105110000D03*
X88120000Y-102030000D03*
X88120000Y-105110000D03*
X87720000Y-102030000D03*
X87720000Y-105110000D03*
X87320000Y-102030000D03*
X87320000Y-105110000D03*
X86920000Y-102030000D03*
X86920000Y-105110000D03*
X86520000Y-102030000D03*
X86520000Y-105110000D03*
X86120000Y-102030000D03*
X86120000Y-105110000D03*
%TD*%
D26*
%TO.C,C13*%
X106470000Y-134090000D03*
X107310000Y-134090000D03*
%TD*%
D27*
%TO.C,C58*%
X134250000Y-131525000D03*
X132850000Y-131525000D03*
%TD*%
D28*
%TO.C,U1*%
X136720000Y-67870000D03*
X136720000Y-66600000D03*
X136720000Y-65330000D03*
X136720000Y-64060000D03*
X136720000Y-62790000D03*
X129100000Y-62790000D03*
X129100000Y-64060000D03*
X129100000Y-65330000D03*
X129100000Y-66600000D03*
X129100000Y-67870000D03*
%TD*%
D29*
%TO.C,USBC2*%
X65257456Y-135275000D03*
X65257456Y-141075000D03*
D30*
X65757456Y-142505000D03*
D31*
X61577456Y-142505000D03*
X61577456Y-133845000D03*
D30*
X65757456Y-133845000D03*
D32*
X66517456Y-134975000D03*
D33*
X66517456Y-135775000D03*
D34*
X66517456Y-136925000D03*
X66517456Y-137925000D03*
X66517456Y-138425000D03*
X66517456Y-139425000D03*
D35*
X66517456Y-141375000D03*
X66517456Y-140575000D03*
D34*
X66517456Y-139925000D03*
X66517456Y-138925000D03*
X66517456Y-137425000D03*
X66517456Y-136425000D03*
%TD*%
D36*
%TO.C,FPC1*%
X127055000Y-52250000D03*
X126555000Y-52250000D03*
X126055000Y-52250000D03*
X125555000Y-52250000D03*
X125055000Y-52250000D03*
X124555000Y-52250000D03*
X124055000Y-52250000D03*
X123555000Y-52250000D03*
X123055000Y-52250000D03*
X122555000Y-52250000D03*
X122055000Y-52250000D03*
X121555000Y-52250000D03*
X121055000Y-52250000D03*
X120555000Y-52250000D03*
X120055000Y-52250000D03*
X119555000Y-52250000D03*
X119055000Y-52250000D03*
X118555000Y-52250000D03*
X118055000Y-52250000D03*
X117555000Y-52250000D03*
X117055000Y-52250000D03*
X116555000Y-52250000D03*
D37*
X114505000Y-49230000D03*
X129105000Y-49230000D03*
%TD*%
D38*
%TO.C,C43*%
X134075000Y-120125000D03*
X136075000Y-120125000D03*
%TD*%
D22*
%TO.C,R11*%
X125925000Y-136775000D03*
X124425000Y-136775000D03*
%TD*%
%TO.C,R39*%
X116700000Y-117525000D03*
X118200000Y-117525000D03*
%TD*%
D39*
%TO.C,U10*%
X76030000Y-133320000D03*
X76030000Y-133970000D03*
X76030000Y-134620000D03*
X76030000Y-135280000D03*
X76030000Y-135930000D03*
X76030000Y-136580000D03*
X76030000Y-137230000D03*
X76030000Y-137880000D03*
X81770000Y-137880000D03*
X81770000Y-137230000D03*
X81770000Y-136580000D03*
X81770000Y-135930000D03*
D40*
X79400000Y-135100000D03*
X78400000Y-135100000D03*
D39*
X81770000Y-135280000D03*
D40*
X79400000Y-136100000D03*
X78400000Y-136100000D03*
D39*
X81770000Y-134620000D03*
X81770000Y-133970000D03*
X81770000Y-133320000D03*
D41*
X78900000Y-135600000D03*
%TD*%
D42*
%TO.C,LED2*%
X91297500Y-136000000D03*
X89797500Y-136000000D03*
%TD*%
D43*
%TO.C,U6*%
X136110000Y-125710000D03*
X128870000Y-125710000D03*
%TD*%
D22*
%TO.C,R36*%
X111175000Y-128325000D03*
X109675000Y-128325000D03*
%TD*%
D27*
%TO.C,C6*%
X107497500Y-128360000D03*
X106097500Y-128360000D03*
%TD*%
D44*
%TO.C,BUS*%
X91075000Y-141925000D03*
%TD*%
D22*
%TO.C,R61*%
X69750000Y-59700000D03*
X68250000Y-59700000D03*
%TD*%
D45*
%TO.C,CN7*%
X60920000Y-75900000D03*
X60920000Y-73900000D03*
%TD*%
D27*
%TO.C,C48*%
X96927500Y-138010000D03*
X98327500Y-138010000D03*
%TD*%
D44*
%TO.C,AON*%
X114500000Y-114200000D03*
%TD*%
D46*
%TO.C,C11*%
X86530000Y-136570000D03*
X86530000Y-133390000D03*
%TD*%
D19*
%TO.C,H2*%
X62000000Y-48275000D03*
%TD*%
D47*
%TO.C,U22*%
X73435000Y-128780000D03*
D48*
X73435000Y-131320000D03*
X70895000Y-128780000D03*
X70895000Y-131320000D03*
X68355000Y-128780000D03*
X68355000Y-131320000D03*
X65815000Y-128780000D03*
X65815000Y-131320000D03*
%TD*%
D19*
%TO.C,H5*%
X74420000Y-70070000D03*
%TD*%
D22*
%TO.C,R68*%
X78950000Y-130700000D03*
X80450000Y-130700000D03*
%TD*%
D38*
%TO.C,C60*%
X115617500Y-137010000D03*
X113617500Y-137010000D03*
%TD*%
D27*
%TO.C,C45*%
X127125000Y-131925000D03*
X125725000Y-131925000D03*
%TD*%
D38*
%TO.C,C16*%
X96337500Y-136310000D03*
X98337500Y-136310000D03*
%TD*%
%TO.C,C29*%
X134075000Y-115800000D03*
X136075000Y-115800000D03*
%TD*%
D49*
%TO.C,C24*%
X106275000Y-130175000D03*
X106275000Y-132175000D03*
%TD*%
D22*
%TO.C,R65*%
X85075000Y-138775000D03*
X83575000Y-138775000D03*
%TD*%
%TO.C,R15*%
X104250000Y-124000000D03*
X105750000Y-124000000D03*
%TD*%
D50*
%TO.C,FPC3*%
X68125000Y-144237500D03*
X69625000Y-144237500D03*
X71125000Y-144237500D03*
X72625000Y-144237500D03*
X74125000Y-144237500D03*
X75625000Y-144237500D03*
D51*
X77575000Y-147697500D03*
X66175000Y-147697500D03*
%TD*%
D52*
%TO.C,D2*%
X99127500Y-140520000D03*
X94727500Y-140520000D03*
%TD*%
D38*
%TO.C,C57*%
X132500000Y-133900000D03*
X134500000Y-133900000D03*
%TD*%
D53*
%TO.C,R23*%
X91575000Y-131300000D03*
X91575000Y-132800000D03*
%TD*%
D54*
%TO.C,U16*%
X120097500Y-119925000D03*
X119147500Y-119925000D03*
X118197500Y-119925000D03*
X118197500Y-122225000D03*
X119147500Y-122225000D03*
X120097500Y-122225000D03*
%TD*%
D27*
%TO.C,C9*%
X68200000Y-105625000D03*
X66800000Y-105625000D03*
%TD*%
D55*
%TO.C,L3*%
X124500000Y-120625000D03*
X124500000Y-117025000D03*
%TD*%
D22*
%TO.C,R9*%
X130500000Y-55540000D03*
X129000000Y-55540000D03*
%TD*%
%TO.C,R76*%
X64620000Y-85060000D03*
X66120000Y-85060000D03*
%TD*%
D27*
%TO.C,C31*%
X123625000Y-124350000D03*
X122225000Y-124350000D03*
%TD*%
D49*
%TO.C,C36*%
X100162500Y-130650000D03*
X100162500Y-132650000D03*
%TD*%
D44*
%TO.C,BAT*%
X118867500Y-138280000D03*
%TD*%
D56*
%TO.C,R17*%
X109377500Y-139820000D03*
X115517500Y-139820000D03*
%TD*%
D57*
%TO.C,L1*%
X104447500Y-129770000D03*
X102047500Y-129770000D03*
%TD*%
D50*
%TO.C,FPC4*%
X81087500Y-144147500D03*
X82587500Y-144147500D03*
X84087500Y-144147500D03*
X85587500Y-144147500D03*
X87087500Y-144147500D03*
X88587500Y-144147500D03*
D51*
X90537500Y-147607500D03*
X79137500Y-147607500D03*
%TD*%
D49*
%TO.C,C37*%
X98262500Y-130650000D03*
X98262500Y-132650000D03*
%TD*%
D58*
%TO.C,D1*%
X124677500Y-140000000D03*
X129397500Y-140000000D03*
%TD*%
D59*
%TO.C,CN11*%
X110567500Y-146740000D03*
X113067500Y-146740000D03*
%TD*%
D27*
%TO.C,C5*%
X100697500Y-128400000D03*
X99297500Y-128400000D03*
%TD*%
D60*
%TO.C,U12*%
X91640000Y-48650000D03*
X90690000Y-48650000D03*
X89740000Y-48650000D03*
X89740000Y-51230000D03*
X91640000Y-51230000D03*
%TD*%
D61*
%TO.C,F2*%
X103677500Y-148120000D03*
X103677500Y-141520000D03*
%TD*%
D38*
%TO.C,C47*%
X112075000Y-113525000D03*
X110075000Y-113525000D03*
%TD*%
D62*
%TO.C,U21*%
X91582500Y-114805000D03*
X90932500Y-114805000D03*
X90282500Y-114805000D03*
X89622500Y-114805000D03*
X88972500Y-114805000D03*
X88322500Y-114805000D03*
X87672500Y-114805000D03*
X87022500Y-114805000D03*
X87022500Y-120545000D03*
X87672500Y-120545000D03*
X88322500Y-120545000D03*
X88972500Y-120545000D03*
X89622500Y-120545000D03*
X90282500Y-120545000D03*
X90932500Y-120545000D03*
X91582500Y-120545000D03*
%TD*%
D22*
%TO.C,R62*%
X83300000Y-115320000D03*
X84800000Y-115320000D03*
%TD*%
D44*
%TO.C,LD*%
X112197500Y-130920000D03*
%TD*%
D49*
%TO.C,C38*%
X96387500Y-130650000D03*
X96387500Y-132650000D03*
%TD*%
D53*
%TO.C,R37*%
X121600000Y-132790000D03*
X121600000Y-131290000D03*
%TD*%
D22*
%TO.C,R30*%
X94725000Y-127325000D03*
X96225000Y-127325000D03*
%TD*%
D27*
%TO.C,C30*%
X110075000Y-122350000D03*
X108675000Y-122350000D03*
%TD*%
D63*
%TO.C,L2*%
X68400000Y-75515000D03*
X68400000Y-73575000D03*
%TD*%
D22*
%TO.C,R77*%
X64640000Y-83500000D03*
X66140000Y-83500000D03*
%TD*%
D53*
%TO.C,R32*%
X117477500Y-136480000D03*
X117477500Y-134980000D03*
%TD*%
D22*
%TO.C,R21*%
X100300000Y-120200000D03*
X101800000Y-120200000D03*
%TD*%
D64*
%TO.C,U8*%
X61980000Y-104650000D03*
X61980000Y-105150000D03*
X61980000Y-105650000D03*
X61980000Y-106150000D03*
D65*
X62650000Y-106330000D03*
X63150000Y-106330000D03*
X63650000Y-106330000D03*
D64*
X64320000Y-106150000D03*
X64320000Y-105650000D03*
X64320000Y-105150000D03*
X64320000Y-104650000D03*
D65*
X63650000Y-104470000D03*
X63150000Y-104470000D03*
X62650000Y-104470000D03*
%TD*%
D49*
%TO.C,C27*%
X119500000Y-128230000D03*
X119500000Y-126230000D03*
%TD*%
D38*
%TO.C,C55*%
X109325000Y-135275000D03*
X107325000Y-135275000D03*
%TD*%
D22*
%TO.C,R52*%
X66090000Y-89840000D03*
X64590000Y-89840000D03*
%TD*%
D53*
%TO.C,R26*%
X87330000Y-56340000D03*
X87330000Y-54840000D03*
%TD*%
D66*
%TO.C,U3*%
X101897500Y-134570000D03*
D67*
X102277500Y-134320000D03*
D68*
X101717500Y-134970000D03*
X101717500Y-135370000D03*
X101717500Y-135770000D03*
X101717500Y-136170000D03*
X101717500Y-136570000D03*
X101717500Y-136970000D03*
X101717500Y-137370000D03*
D69*
X101867500Y-137770000D03*
D70*
X102217500Y-138020000D03*
D71*
X102667500Y-138070000D03*
X103067500Y-138070000D03*
X103467500Y-138070000D03*
X103867500Y-138070000D03*
X104267500Y-138070000D03*
X104667500Y-138070000D03*
D72*
X105117500Y-138020000D03*
D73*
X105467500Y-137770000D03*
D74*
X105567500Y-137370000D03*
D75*
X105587500Y-136970000D03*
D76*
X105577500Y-136570000D03*
D68*
X105617500Y-136170000D03*
X105617500Y-135770000D03*
X105617500Y-135370000D03*
X105617500Y-134970000D03*
D72*
X105067500Y-134320000D03*
D77*
X105447500Y-134570000D03*
D78*
X104567500Y-134470000D03*
X104117500Y-134470000D03*
X103667500Y-134470000D03*
X103217500Y-134470000D03*
D79*
X102767500Y-134440000D03*
%TD*%
D36*
%TO.C,FPC2*%
X82780000Y-52250000D03*
X82280000Y-52250000D03*
X81780000Y-52250000D03*
X81280000Y-52250000D03*
X80780000Y-52250000D03*
X80280000Y-52250000D03*
X79780000Y-52250000D03*
X79280000Y-52250000D03*
X78780000Y-52250000D03*
X78280000Y-52250000D03*
X77780000Y-52250000D03*
X77280000Y-52250000D03*
X76780000Y-52250000D03*
X76280000Y-52250000D03*
X75780000Y-52250000D03*
X75280000Y-52250000D03*
X74780000Y-52250000D03*
X74280000Y-52250000D03*
X73780000Y-52250000D03*
X73280000Y-52250000D03*
X72780000Y-52250000D03*
X72280000Y-52250000D03*
D37*
X70230000Y-49230000D03*
X84830000Y-49230000D03*
%TD*%
D27*
%TO.C,C51*%
X115867500Y-133680000D03*
X114467500Y-133680000D03*
%TD*%
D80*
%TO.C,U4*%
X115925000Y-126280000D03*
X115425000Y-126280000D03*
X114925000Y-126280000D03*
X114425000Y-126280000D03*
X113925000Y-126280000D03*
X113925000Y-130980000D03*
X114425000Y-130980000D03*
X114925000Y-130980000D03*
X115425000Y-130980000D03*
X115925000Y-130980000D03*
%TD*%
D38*
%TO.C,C15*%
X96957500Y-134450000D03*
X98957500Y-134450000D03*
%TD*%
D81*
%TO.C,U20*%
X68925000Y-65350000D03*
X68425000Y-65350000D03*
X67925000Y-65350000D03*
X67425000Y-65350000D03*
D82*
X66675000Y-66100000D03*
X66675000Y-66600000D03*
X66675000Y-67100000D03*
X66675000Y-67600000D03*
D81*
X67425000Y-68350000D03*
X67925000Y-68350000D03*
X68425000Y-68350000D03*
X68925000Y-68350000D03*
D82*
X69675000Y-67600000D03*
X69675000Y-67100000D03*
X69675000Y-66600000D03*
X69675000Y-66100000D03*
D83*
X68175000Y-66850000D03*
%TD*%
D22*
%TO.C,R51*%
X66110000Y-91490000D03*
X64610000Y-91490000D03*
%TD*%
%TO.C,R33*%
X83290000Y-113640000D03*
X84790000Y-113640000D03*
%TD*%
D83*
%TO.C,CN3*%
X136225000Y-108100000D03*
D44*
X136225000Y-110100000D03*
X136225000Y-112100000D03*
%TD*%
D22*
%TO.C,R41*%
X100700000Y-126550000D03*
X99200000Y-126550000D03*
%TD*%
D19*
%TO.C,H10*%
X135450000Y-48275000D03*
%TD*%
D84*
%TO.C,C42*%
X126080000Y-126320000D03*
X126080000Y-124920000D03*
%TD*%
D22*
%TO.C,R20*%
X100330000Y-123800000D03*
X101830000Y-123800000D03*
%TD*%
D25*
%TO.C,CN4*%
X105720000Y-68030000D03*
X105720000Y-71110000D03*
X105320000Y-68030000D03*
X105320000Y-71110000D03*
X104920000Y-68030000D03*
X104920000Y-71110000D03*
X104520000Y-68030000D03*
X104520000Y-71110000D03*
X104120000Y-68030000D03*
X104120000Y-71110000D03*
X103720000Y-68030000D03*
X103720000Y-71110000D03*
X103320000Y-68030000D03*
X103320000Y-71110000D03*
X102920000Y-68030000D03*
X102920000Y-71110000D03*
X102520000Y-68030000D03*
X102520000Y-71110000D03*
X102120000Y-68030000D03*
X102120000Y-71110000D03*
X101720000Y-68030000D03*
X101720000Y-71110000D03*
X101320000Y-68030000D03*
X101320000Y-71110000D03*
X100920000Y-68030000D03*
X100920000Y-71110000D03*
X100520000Y-68030000D03*
X100520000Y-71110000D03*
X100120000Y-68030000D03*
X100120000Y-71110000D03*
X99720000Y-68030000D03*
X99720000Y-71110000D03*
X99320000Y-68030000D03*
X99320000Y-71110000D03*
X98920000Y-68030000D03*
X98920000Y-71110000D03*
X98520000Y-68030000D03*
X98520000Y-71110000D03*
X98120000Y-68030000D03*
X98120000Y-71110000D03*
X97720000Y-68030000D03*
X97720000Y-71110000D03*
X97320000Y-68030000D03*
X97320000Y-71110000D03*
X96920000Y-68030000D03*
X96920000Y-71110000D03*
X96520000Y-68030000D03*
X96520000Y-71110000D03*
X96120000Y-68030000D03*
X96120000Y-71110000D03*
X95720000Y-68030000D03*
X95720000Y-71110000D03*
X95320000Y-68030000D03*
X95320000Y-71110000D03*
X94920000Y-68030000D03*
X94920000Y-71110000D03*
X94520000Y-68030000D03*
X94520000Y-71110000D03*
X94120000Y-68030000D03*
X94120000Y-71110000D03*
X93720000Y-68030000D03*
X93720000Y-71110000D03*
X93320000Y-68030000D03*
X93320000Y-71110000D03*
X92920000Y-68030000D03*
X92920000Y-71110000D03*
X92520000Y-68030000D03*
X92520000Y-71110000D03*
X92120000Y-68030000D03*
X92120000Y-71110000D03*
X91720000Y-68030000D03*
X91720000Y-71110000D03*
X91320000Y-68030000D03*
X91320000Y-71110000D03*
X90920000Y-68030000D03*
X90920000Y-71110000D03*
X90520000Y-68030000D03*
X90520000Y-71110000D03*
X90120000Y-68030000D03*
X90120000Y-71110000D03*
X89720000Y-68030000D03*
X89720000Y-71110000D03*
X89320000Y-68030000D03*
X89320000Y-71110000D03*
X88920000Y-68030000D03*
X88920000Y-71110000D03*
X88520000Y-68030000D03*
X88520000Y-71110000D03*
X88120000Y-68030000D03*
X88120000Y-71110000D03*
X87720000Y-68030000D03*
X87720000Y-71110000D03*
X87320000Y-68030000D03*
X87320000Y-71110000D03*
X86920000Y-68030000D03*
X86920000Y-71110000D03*
X86520000Y-68030000D03*
X86520000Y-71110000D03*
X86120000Y-68030000D03*
X86120000Y-71110000D03*
%TD*%
D85*
%TO.C,C17*%
X102087500Y-132390000D03*
X102087500Y-133230000D03*
%TD*%
D42*
%TO.C,LED3*%
X67370000Y-55300000D03*
X68870000Y-55300000D03*
%TD*%
D53*
%TO.C,R56*%
X94087500Y-132960000D03*
X94087500Y-131460000D03*
%TD*%
D86*
%TO.C,CBUS*%
X126940000Y-103700000D03*
%TD*%
D19*
%TO.C,H4*%
X122430000Y-103070000D03*
%TD*%
%TO.C,H11*%
X62000000Y-146725000D03*
%TD*%
D23*
%TO.C,U2*%
X61050000Y-101500000D03*
D24*
X61050000Y-99500000D03*
X61050000Y-97500000D03*
X61050000Y-95500000D03*
%TD*%
D22*
%TO.C,R1*%
X91347500Y-137860000D03*
X89847500Y-137860000D03*
%TD*%
D44*
%TO.C,PERH*%
X128900000Y-118900000D03*
%TD*%
D38*
%TO.C,C14*%
X122450000Y-114850000D03*
X124450000Y-114850000D03*
%TD*%
D19*
%TO.C,H6*%
X74420000Y-103070000D03*
%TD*%
D22*
%TO.C,R66*%
X88150000Y-138425000D03*
X86650000Y-138425000D03*
%TD*%
%TO.C,R58*%
X100325000Y-121825000D03*
X101825000Y-121825000D03*
%TD*%
%TO.C,R40*%
X102975000Y-115850000D03*
X104475000Y-115850000D03*
%TD*%
D27*
%TO.C,C56*%
X107620000Y-136490000D03*
X109020000Y-136490000D03*
%TD*%
D59*
%TO.C,CN8*%
X126477500Y-146740000D03*
X128977500Y-146740000D03*
%TD*%
D61*
%TO.C,F1*%
X119857500Y-148120000D03*
X119857500Y-141520000D03*
%TD*%
D87*
%TO.C,CN1*%
X60660000Y-90260000D03*
D88*
X60660000Y-89010000D03*
D89*
X60660000Y-87760000D03*
D88*
X60660000Y-86500000D03*
X60660000Y-85260000D03*
X60660000Y-84010000D03*
X60660000Y-82750000D03*
X60660000Y-81500000D03*
%TD*%
D53*
%TO.C,R38*%
X124425000Y-132875000D03*
X124425000Y-131375000D03*
%TD*%
D85*
%TO.C,C4*%
X104867500Y-132500000D03*
X104867500Y-133340000D03*
%TD*%
D53*
%TO.C,R44*%
X65025000Y-145300000D03*
X65025000Y-143800000D03*
%TD*%
D22*
%TO.C,R72*%
X115550000Y-122225000D03*
X114050000Y-122225000D03*
%TD*%
D90*
%TO.C,H3*%
X129775000Y-107450000D03*
D59*
X129775000Y-109990000D03*
X129775000Y-112530000D03*
%TD*%
D45*
%TO.C,CN2*%
X60700000Y-131125000D03*
X60700000Y-129125000D03*
%TD*%
D49*
%TO.C,C23*%
X108100000Y-130175000D03*
X108100000Y-132175000D03*
%TD*%
%TO.C,C20*%
X110007500Y-130175000D03*
X110007500Y-132175000D03*
%TD*%
D53*
%TO.C,R4*%
X126490000Y-107570000D03*
X126490000Y-106070000D03*
%TD*%
%TO.C,R55*%
X114700000Y-120450000D03*
X114700000Y-118950000D03*
%TD*%
D22*
%TO.C,R6*%
X68940000Y-52010000D03*
X67440000Y-52010000D03*
%TD*%
D59*
%TO.C,CN12*%
X94177500Y-146740000D03*
X96677500Y-146740000D03*
%TD*%
D19*
%TO.C,H9*%
X122420000Y-70070000D03*
%TD*%
D22*
%TO.C,R63*%
X80110000Y-123780000D03*
X81610000Y-123780000D03*
%TD*%
D54*
%TO.C,U17*%
X106397500Y-117900000D03*
X105447500Y-117900000D03*
X104497500Y-117900000D03*
X104497500Y-120200000D03*
X105447500Y-120200000D03*
X106397500Y-120200000D03*
%TD*%
D22*
%TO.C,R19*%
X120775000Y-130175000D03*
X119275000Y-130175000D03*
%TD*%
D53*
%TO.C,R16*%
X122870000Y-132800000D03*
X122870000Y-131300000D03*
%TD*%
D38*
%TO.C,C44*%
X134085000Y-117960000D03*
X136085000Y-117960000D03*
%TD*%
D81*
%TO.C,U5*%
X123930000Y-130150000D03*
X124430000Y-130150000D03*
X124930000Y-130150000D03*
X125430000Y-130150000D03*
D82*
X126080000Y-129680000D03*
D91*
X125530000Y-128380000D03*
D82*
X126080000Y-127880000D03*
D92*
X124030000Y-127510000D03*
D93*
X124030000Y-128960000D03*
D82*
X123280000Y-129680000D03*
%TD*%
D53*
%TO.C,R8*%
X65160000Y-56850000D03*
X65160000Y-55350000D03*
%TD*%
D27*
%TO.C,C34*%
X121325000Y-117775000D03*
X119925000Y-117775000D03*
%TD*%
D84*
%TO.C,C7*%
X59775000Y-104650000D03*
X59775000Y-106050000D03*
%TD*%
D22*
%TO.C,R43*%
X69975000Y-134375000D03*
X68475000Y-134375000D03*
%TD*%
%TO.C,R22*%
X72900000Y-55290000D03*
X71400000Y-55290000D03*
%TD*%
D94*
%TO.C,H1*%
X91965000Y-83250000D03*
%TD*%
D42*
%TO.C,LED5*%
X73100000Y-59650000D03*
X71600000Y-59650000D03*
%TD*%
D44*
%TO.C,5V*%
X136100000Y-132025000D03*
%TD*%
D22*
%TO.C,R54*%
X66110000Y-86610000D03*
X64610000Y-86610000D03*
%TD*%
D95*
%TO.C,U7*%
X60130000Y-126050000D03*
X61400000Y-126050000D03*
X62670000Y-126050000D03*
X63940000Y-126050000D03*
X65210000Y-126050000D03*
X66480000Y-126050000D03*
X67750000Y-126050000D03*
X69020000Y-126050000D03*
X70290000Y-126050000D03*
X71560000Y-126050000D03*
X72830000Y-126050000D03*
X74100000Y-126050000D03*
X75370000Y-126050000D03*
X76640000Y-126050000D03*
D96*
X77910000Y-124290000D03*
X77910000Y-123020000D03*
X77910000Y-121750000D03*
X77910000Y-120470000D03*
X77910000Y-119200000D03*
X77910000Y-117930000D03*
X77910000Y-116660000D03*
X77910000Y-115390000D03*
X77910000Y-114120000D03*
X77910000Y-112850000D03*
X77910000Y-111580000D03*
X77880000Y-110310000D03*
D95*
X76640000Y-108550000D03*
X75370000Y-108550000D03*
X74100000Y-108550000D03*
X72830000Y-108550000D03*
X71560000Y-108550000D03*
X70290000Y-108550000D03*
X69020000Y-108550000D03*
X67750000Y-108550000D03*
X66480000Y-108550000D03*
X65210000Y-108550000D03*
X63940000Y-108550000D03*
X62670000Y-108550000D03*
X61400000Y-108550000D03*
X60130000Y-108550000D03*
D97*
X66450000Y-120200000D03*
X67850000Y-120200000D03*
X69250000Y-120200000D03*
X66450000Y-118800000D03*
X67850000Y-118800000D03*
X69250000Y-118800000D03*
X66450000Y-117400000D03*
X67850000Y-117400000D03*
X69250000Y-117400000D03*
%TD*%
D22*
%TO.C,R35*%
X104250000Y-125725000D03*
X105750000Y-125725000D03*
%TD*%
%TO.C,R78*%
X64640000Y-81860000D03*
X66140000Y-81860000D03*
%TD*%
D38*
%TO.C,C46*%
X110150000Y-125875000D03*
X108150000Y-125875000D03*
%TD*%
D27*
%TO.C,C40*%
X118850000Y-135400000D03*
X120250000Y-135400000D03*
%TD*%
D49*
%TO.C,C49*%
X117675000Y-125575000D03*
X117675000Y-127575000D03*
%TD*%
D22*
%TO.C,R50*%
X67800000Y-64050000D03*
X69300000Y-64050000D03*
%TD*%
D53*
%TO.C,R25*%
X128950000Y-132350000D03*
X128950000Y-130850000D03*
%TD*%
D38*
%TO.C,C59*%
X113627500Y-135210000D03*
X115627500Y-135210000D03*
%TD*%
D22*
%TO.C,R49*%
X67800000Y-62600000D03*
X69300000Y-62600000D03*
%TD*%
%TO.C,R5*%
X127380000Y-94150000D03*
X128880000Y-94150000D03*
%TD*%
D27*
%TO.C,C41*%
X116950000Y-132100000D03*
X118350000Y-132100000D03*
%TD*%
D22*
%TO.C,R14*%
X102975000Y-114100000D03*
X104475000Y-114100000D03*
%TD*%
D98*
%TO.C,CN6*%
X63700000Y-59750000D03*
X63700000Y-60990000D03*
X63700000Y-62250000D03*
X63700000Y-63500000D03*
X63700000Y-64750000D03*
X63700000Y-66000000D03*
D99*
X61100000Y-68380000D03*
X61100000Y-57360000D03*
%TD*%
D60*
%TO.C,Card1*%
X104090000Y-59340000D03*
X102990000Y-59340000D03*
X101890000Y-59340000D03*
X100790000Y-59340000D03*
X99690000Y-59340000D03*
X98590000Y-59340000D03*
X97490000Y-59340000D03*
X96390000Y-59340000D03*
D100*
X101570000Y-46800000D03*
D97*
X105840000Y-46860000D03*
D101*
X108150000Y-48070000D03*
D102*
X107930000Y-59330000D03*
D103*
X95270000Y-58840000D03*
D101*
X95190000Y-48070000D03*
%TD*%
D84*
%TO.C,C35*%
X106400000Y-114725000D03*
X106400000Y-116125000D03*
%TD*%
D53*
%TO.C,R18*%
X121525000Y-135625000D03*
X121525000Y-134125000D03*
%TD*%
D84*
%TO.C,C12*%
X65600000Y-68650000D03*
X65600000Y-67250000D03*
%TD*%
D53*
%TO.C,R67*%
X83375000Y-125950000D03*
X83375000Y-127450000D03*
%TD*%
D22*
%TO.C,R13*%
X116700000Y-115725000D03*
X118200000Y-115725000D03*
%TD*%
%TO.C,R53*%
X66100000Y-88210000D03*
X64600000Y-88210000D03*
%TD*%
D53*
%TO.C,R24*%
X88975000Y-132850000D03*
X88975000Y-131350000D03*
%TD*%
D104*
%TO.C,SW1*%
X132260000Y-59210000D03*
X127900000Y-59210000D03*
%TD*%
D29*
%TO.C,USBC1*%
X131350000Y-102850000D03*
X131350000Y-97050000D03*
D30*
X130850000Y-95620000D03*
D31*
X135030000Y-95620000D03*
X135030000Y-104280000D03*
D30*
X130850000Y-104280000D03*
D105*
X130090000Y-103150000D03*
D106*
X130090000Y-102350000D03*
D34*
X130090000Y-101200000D03*
X130090000Y-100200000D03*
X130090000Y-99700000D03*
X130090000Y-98700000D03*
D107*
X130090000Y-96750000D03*
X130090000Y-97550000D03*
D34*
X130090000Y-98200000D03*
X130090000Y-99200000D03*
X130090000Y-100700000D03*
X130090000Y-101700000D03*
%TD*%
D84*
%TO.C,C21*%
X100057500Y-136940000D03*
X100057500Y-138340000D03*
%TD*%
D53*
%TO.C,R31*%
X111307500Y-137080000D03*
X111307500Y-135580000D03*
%TD*%
D55*
%TO.C,L4*%
X111025000Y-119325000D03*
X111025000Y-115725000D03*
%TD*%
D59*
%TO.C,CN9*%
X134800000Y-137630000D03*
X134800000Y-140130000D03*
%TD*%
D108*
%TO.C,U14*%
X131670000Y-93250000D03*
D45*
X131670000Y-73250000D03*
%TD*%
%LPD*%
M02*
