M48
; DRILL file KiCad 10.0.1 date 2026-05-22T20:49:39
; FORMAT={-:-/ absolute / inch / decimal}
; #@! TF.CreationDate,2026-05-22T20:49:39+03:00
; #@! TF.GenerationSoftware,Kicad,Pcbnew,10.0.1
; #@! TF.FileFunction,Plated,1,6,PTH
FMAT,2
INCH
; #@! TA.AperFunction,Plated,PTH,ViaDrill
T1C0.0118
; #@! TA.AperFunction,Plated,PTH,ComponentDrill
T2C0.0118
; #@! TA.AperFunction,Plated,PTH,ComponentDrill
T3C0.0276
; #@! TA.AperFunction,Plated,PTH,ComponentDrill
T4C0.0276
; #@! TA.AperFunction,Plated,PTH,ComponentDrill
T5C0.0315
; #@! TA.AperFunction,Plated,PTH,ComponentDrill
T6C0.0354
; #@! TA.AperFunction,Plated,PTH,ComponentDrill
T7C0.0394
; #@! TA.AperFunction,Plated,PTH,ComponentDrill
T8C0.0433
; #@! TA.AperFunction,Plated,PTH,ComponentDrill
T9C0.0433
; #@! TA.AperFunction,Plated,PTH,ComponentDrill
T10C0.0472
; #@! TA.AperFunction,Plated,PTH,ComponentDrill
T11C0.1063
; #@! TA.AperFunction,Plated,PTH,ComponentDrill
T12C0.1457
%
G90
G05
T1
X2.3583Y-2.6024
X2.3598Y-5.5803
X2.3614Y-5.2937
X2.3799Y-3.6467
X2.3809Y-2.4862
X2.3819Y-2.5217
X2.3917Y-4.3701
X2.3917Y-4.437
X2.3917Y-4.5197
X2.3917Y-4.6063
X2.3917Y-4.6949
X2.3945Y-4.2169
X2.3961Y-4.0488
X2.4006Y-4.1791
X2.4059Y-4.1201
X2.4082Y-2.0669
X2.4082Y-2.7756
X2.4082Y-3.1299
X2.4082Y-5.374
X2.4082Y-5.4921
X2.4122Y-4.0831
X2.4173Y-4.8041
X2.4173Y-4.8327
X2.4173Y-4.8612
X2.4213Y-2.6043
X2.4213Y-3.6417
X2.4331Y-2.3543
X2.4331Y-2.4114
X2.4331Y-2.4685
X2.4616Y-4.4419
X2.4685Y-3.7323
X2.4833Y-4.8967
X2.4843Y-4.498
X2.4846Y-5.3232
X2.4854Y-5.378
X2.4862Y-4.5807
X2.487Y-5.4382
X2.4882Y-3.6295
X2.4902Y-3.5689
X2.4909Y-5.6488
X2.4961Y-3.502
X2.498Y-3.374
X2.498Y-3.439
X2.5Y-3.2539
X2.5Y-3.3189
X2.5004Y-4.1626
X2.502Y-2.7697
X2.502Y-3.1811
X2.5173Y-4.3909
X2.5189Y-5.0665
X2.5197Y-2.7205
X2.5217Y-5.1181
X2.5263Y-2.3031
X2.5263Y-3.0118
X2.5263Y-3.1299
X2.5333Y-4.0344
X2.5665Y-4.3909
X2.5705Y-2.1118
X2.5803Y-2.3102
X2.5807Y-4.2039
X2.5823Y-2.4583
X2.5846Y-2.5886
X2.5846Y-2.6152
X2.6Y-2.0752
X2.6024Y-2.501
X2.6075Y-2.4445
X2.6122Y-2.1228
X2.6142Y-2.0059
X2.6211Y-2.3711
X2.623Y-4.3406
X2.6244Y-4.5047
X2.6444Y-1.8307
X2.6444Y-1.9488
X2.6444Y-4.5472
X2.6457Y-2.0059
X2.6467Y-4.2244
X2.6575Y-4.1004
X2.6614Y-3.5049
X2.6642Y-4.9008
X2.6683Y-3.2215
X2.6713Y-3.5748
X2.6722Y-3.3474
X2.6752Y-4.3996
X2.6752Y-5.7835
X2.6752Y-5.8465
X2.6795Y-5.5402
X2.6822Y-5.6047
X2.6831Y-4.8494
X2.6841Y-2.6319
X2.6841Y-3.0246
X2.6843Y-2.0047
X2.685Y-4.5681
X2.685Y-5.5094
X2.686Y-2.424
X2.6929Y-3.6201
X2.6939Y-2.8317
X2.6939Y-2.8583
X2.6969Y-3.7913
X2.7001Y-5.5804
X2.7008Y-4.0079
X2.7028Y-4.0984
X2.7047Y-4.3661
X2.7047Y-4.9016
X2.7087Y-3.0866
X2.7087Y-3.1457
X2.7142Y-2.2307
X2.7215Y-2.0069
X2.7215Y-3.0236
X2.7244Y-4.4035
X2.7312Y-5.4715
X2.7313Y-5.5354
X2.748Y-2.9685
X2.748Y-3.0049
X2.7625Y-1.8307
X2.7625Y-2.7756
X2.7625Y-2.8937
X2.7625Y-5.8465
X2.7638Y-4.3848
X2.7638Y-5.7854
X2.7642Y-2.1071
X2.7667Y-2.5266
X2.7667Y-5.5827
X2.7717Y-3.7352
X2.7756Y-2.4646
X2.7834Y-4.9122
X2.8028Y-5.4843
X2.8051Y-2.5886
X2.8051Y-5.3632
X2.8115Y-5.4149
X2.813Y-2.2776
X2.8159Y-3.5374
X2.8214Y-4.8834
X2.8238Y-5.5846
X2.8248Y-3.7697
X2.8307Y-5.0305
X2.8366Y-4.4724
X2.8377Y-5.5452
X2.8409Y-3.6071
X2.8417Y-2.224
X2.8425Y-5.1299
X2.8484Y-5.378
X2.8627Y-5.3056
X2.8671Y-4.8839
X2.8768Y-3.928
X2.8807Y-1.8307
X2.8807Y-5.8465
X2.8819Y-5.7854
X2.8834Y-5.343
X2.8854Y-2.1264
X2.8898Y-5.4281
X2.9075Y-2.9232
X2.9102Y-2.5246
X2.9109Y-5.4926
X2.9126Y-3.9138
X2.9154Y-4.9124
X2.9163Y-4.5148
X2.9183Y-5.6024
X2.9208Y-5.3706
X2.9222Y-5.5614
X2.928Y-1.9992
X2.9281Y-5.326
X2.9311Y-5.2744
X2.9341Y-5.4242
X2.935Y-4.3346
X2.9508Y-3.753
X2.9537Y-4.5512
X2.9724Y-4.6319
X2.9754Y-5.4774
X2.9764Y-5.5157
X2.9771Y-5.6024
X2.9813Y-4.5955
X2.998Y-5.7854
X2.9988Y-1.8307
X2.9988Y-2.3031
X2.9988Y-2.4213
X2.9988Y-5.8465
X2.9996Y-4.7957
X3.001Y-4.3929
X3.0031Y-4.7634
X3.0098Y-5.563
X3.0207Y-5.5157
X3.0244Y-1.9992
X3.0331Y-5.0343
X3.0394Y-5.6102
X3.0512Y-5.4774
X3.0541Y-5.1486
X3.0563Y-3.7035
X3.0758Y-5.561
X3.0768Y-4.2333
X3.0846Y-5.4774
X3.1102Y-5.561
X3.1169Y-1.8307
X3.1169Y-3.3661
X3.1169Y-3.8386
X3.1169Y-5.6102
X3.1169Y-5.7283
X3.1171Y-5.4774
X3.1181Y-3.4331
X3.122Y-4.2264
X3.1303Y-4.9165
X3.1323Y-1.9992
X3.1425Y-4.6445
X3.1447Y-5.561
X3.1457Y-5.4774
X3.1602Y-4.9299
X3.1742Y-5.4774
X3.1762Y-5.561
X3.1924Y-5.5929
X3.1959Y-5.0768
X3.1969Y-4.2028
X3.2071Y-3.5016
X3.2161Y-5.0429
X3.2268Y-1.9992
X3.235Y-1.8307
X3.235Y-3.7205
X3.235Y-3.8386
X3.235Y-3.9567
X3.235Y-5.8465
X3.2362Y-5.7776
X3.2372Y-5.4705
X3.2392Y-5.5157
X3.2579Y-5.5679
X3.2841Y-5.3494
X3.287Y-2.1366
X3.2992Y-4.0516
X3.3173Y-2.1051
X3.3209Y-5.3146
X3.3307Y-5.4075
X3.3327Y-4.5984
X3.3358Y-5.1917
X3.3362Y-5.2378
X3.3465Y-2.0736
X3.3496Y-4.1035
X3.3531Y-1.8307
X3.3531Y-5.8465
X3.3543Y-5.7776
X3.3638Y-5.3146
X3.365Y-3.961
X3.374Y-2.5719
X3.3789Y-4.4256
X3.3858Y-5.1496
X3.389Y-4.5646
X3.3929Y-3.9736
X3.3937Y-4.5098
X3.3937Y-5.5541
X3.4055Y-5.5157
X3.4087Y-4.4256
X3.4134Y-2.8406
X3.4134Y-4.9587
X3.4139Y-2.5251
X3.4272Y-4.8465
X3.4286Y-5.593
X3.4449Y-5.0965
X3.4464Y-5.5369
X3.4508Y-3.0413
X3.4508Y-4.7982
X3.4567Y-4.9567
X3.4577Y-2.4892
X3.4606Y-4.5925
X3.4709Y-4.0839
X3.4712Y-1.8307
X3.4712Y-1.9488
X3.4712Y-3.248
X3.4712Y-5.8465
X3.4724Y-5.7776
X3.4734Y-2.9508
X3.4738Y-5.5644
X3.4774Y-4.8238
X3.4799Y-5.3862
X3.4833Y-2.5551
X3.4843Y-2.8425
X3.4877Y-5.5909
X3.4961Y-2.625
X3.4961Y-2.6496
X3.498Y-2.7077
X3.499Y-2.7618
X3.5Y-5.5024
X3.5059Y-2.8976
X3.5091Y-4.0823
X3.5138Y-5.0748
X3.5177Y-2.5551
X3.5244Y-5.4795
X3.5246Y-2.7608
X3.5256Y-2.7077
X3.5266Y-2.624
X3.5266Y-2.6486
X3.5284Y-4.6024
X3.5327Y-2.0606
X3.537Y-2.2173
X3.5384Y-4.8061
X3.5394Y-4.2106
X3.5413Y-2.8878
X3.5531Y-2.7067
X3.5541Y-2.624
X3.5551Y-2.6476
X3.564Y-2.8553
X3.5795Y-2.3868
X3.5846Y-4.4693
X3.5893Y-1.8307
X3.5893Y-2.185
X3.5893Y-3.1299
X3.5893Y-4.1929
X3.5893Y-4.311
X3.5893Y-5.4921
X3.5893Y-5.7283
X3.5965Y-2.7142
X3.6004Y-5.0728
X3.6196Y-5.2712
X3.6456Y-5.3783
X3.6457Y-4.2047
X3.652Y-1.9154
X3.6585Y-2.4656
X3.6638Y-4.0866
X3.6714Y-5.2892
X3.6768Y-1.9154
X3.6849Y-5.428
X3.69Y-2.7559
X3.6906Y-3.8091
X3.6988Y-2.6201
X3.7Y-2.3161
X3.7Y-2.3524
X3.7074Y-3.0118
X3.7074Y-3.1299
X3.7074Y-3.7205
X3.7074Y-4.1929
X3.7074Y-4.311
X3.7074Y-4.5472
X3.7074Y-4.7835
X3.7175Y-5.0679
X3.7209Y-3.8323
X3.7264Y-2.8406
X3.737Y-2.7234
X3.7392Y-4.4596
X3.75Y-2.4272
X3.7531Y-5.6094
X3.7559Y-4.5256
X3.7594Y-4.4395
X3.7618Y-4.7047
X3.7687Y-2.7402
X3.7697Y-5.8307
X3.7717Y-5.2929
X3.7724Y-4.2024
X3.7724Y-5.3224
X3.774Y-4.7886
X3.7795Y-4.4193
X3.7844Y-2.6368
X3.7913Y-5.4976
X3.7921Y-4.2343
X3.7925Y-5.5343
X3.8012Y-4.4921
X3.802Y-5.0969
X3.8106Y-3.9354
X3.8142Y-2.722
X3.8169Y-4.2646
X3.8189Y-4.6791
X3.8217Y-2.276
X3.8248Y-2.6358
X3.8255Y-1.8307
X3.8255Y-5.6102
X3.8282Y-4.5556
X3.8327Y-4.7823
X3.835Y-5.0949
X3.8374Y-4.8846
X3.8445Y-5.0148
X3.8448Y-5.5421
X3.8452Y-5.5075
X3.8543Y-2.8819
X3.8543Y-5.8217
X3.8586Y-5.4043
X3.8593Y-4.5246
X3.8609Y-5.463
X3.8612Y-2.7362
X3.8657Y-5.7417
X3.8731Y-5.0614
X3.8732Y-5.787
X3.874Y-2.3848
X3.8772Y-2.276
X3.8824Y-4.5015
X3.8857Y-5.4043
X3.8873Y-5.3311
X3.8877Y-5.4634
X3.8928Y-5.6031
X3.8947Y-2.6398
X3.8957Y-2.8445
X3.9311Y-2.6429
X3.937Y-2.9154
X3.9385Y-5.2866
X3.9397Y-5.3535
X3.9437Y-1.8307
X3.9437Y-1.9488
X3.9437Y-3.0118
X3.9444Y-5.315
X3.9469Y-2.8484
X3.9475Y-5.5992
X3.9498Y-5.4734
X3.9504Y-5.0972
X3.9528Y-5.6417
X3.9551Y-4.0795
X3.9681Y-2.2756
X3.9681Y-2.2972
X3.9719Y-5.3197
X3.9732Y-4.0555
X3.9764Y-2.8819
X3.9793Y-2.6171
X3.9822Y-5.4978
X3.9842Y-5.4516
X3.9862Y-2.4281
X3.9878Y-2.7496
X3.9902Y-2.9173
X4.0005Y-5.2731
X4.0047Y-2.5945
X4.0048Y-5.7596
X4.0107Y-5.4734
X4.0108Y-4.9823
X4.0117Y-5.5077
X4.0205Y-2.8843
X4.0268Y-5.6409
X4.0291Y-4.4441
X4.046Y-5.3661
X4.0472Y-5.3346
X4.048Y-4.1858
X4.0501Y-5.7596
X4.0512Y-2.0988
X4.0523Y-5.1945
X4.0551Y-2.3996
X4.0558Y-5.3969
X4.0559Y-4.8791
X4.0618Y-1.8307
X4.0618Y-1.9488
X4.0625Y-5.2232
X4.0669Y-5.2505
X4.0772Y-2.0988
X4.0787Y-5.4705
X4.0807Y-5.3346
X4.0889Y-5.3866
X4.0983Y-5.2539
X4.0983Y-5.2268
X4.0988Y-3.9701
X4.0997Y-5.1995
X4.1003Y-5.7596
X4.102Y-2.4406
X4.1102Y-5.4892
X4.1122Y-2.739
X4.1209Y-4.1902
X4.1231Y-5.4
X4.1283Y-5.6409
X4.1307Y-3.5512
X4.1399Y-3.9336
X4.1453Y-4.9898
X4.1457Y-2.7386
X4.1467Y-5.4862
X4.1495Y-5.7596
X4.1506Y-4.7726
X4.1516Y-4.2701
X4.1593Y-3.9531
X4.1594Y-2.4268
X4.1634Y-5.248
X4.1799Y-1.9488
X4.1799Y-2.185
X4.1799Y-2.3031
X4.1799Y-3.3661
X4.1799Y-3.6024
X4.1799Y-3.7205
X4.1826Y-4.8174
X4.1842Y-5.3224
X4.189Y-2.7921
X4.1925Y-4.1531
X4.1936Y-5.3839
X4.1937Y-2.6488
X4.2057Y-5.2461
X4.2109Y-5.4287
X4.2165Y-4.1736
X4.2217Y-5.0909
X4.2273Y-5.7567
X4.2273Y-5.7892
X4.2273Y-5.8217
X4.2273Y-5.8551
X4.2283Y-4.8632
X4.2441Y-5.247
X4.2453Y-4.1374
X4.2516Y-5.4075
X4.2621Y-5.4358
X4.2759Y-5.0614
X4.2784Y-5.7695
X4.2784Y-5.8108
X4.2861Y-5.4181
X4.2932Y-5.8463
X4.2937Y-5.0933
X4.2941Y-5.2301
X4.2949Y-5.2819
X4.298Y-2.185
X4.298Y-3.6024
X4.298Y-3.8386
X4.3002Y-4.8819
X4.3008Y-3.3272
X4.3083Y-3.2252
X4.3209Y-5.252
X4.3224Y-5.374
X4.3421Y-1.8709
X4.3465Y-3.1909
X4.3476Y-5.0187
X4.3524Y-5.252
X4.3552Y-5.8463
X4.3673Y-3.2256
X4.3862Y-3.3197
X4.3988Y-4.9165
X4.4065Y-4.8829
X4.4161Y-1.8307
X4.4161Y-1.9488
X4.4161Y-2.185
X4.4161Y-3.7205
X4.4161Y-4.1929
X4.4161Y-5.8465
X4.4197Y-5.6929
X4.426Y-4.7992
X4.439Y-4.9951
X4.4469Y-4.9203
X4.45Y-3.3217
X4.4614Y-2.089
X4.4654Y-5.6996
X4.4705Y-5.253
X4.4799Y-2.0713
X4.4803Y-5.5098
X4.4803Y-5.5925
X4.4961Y-5.1033
X4.502Y-4.6291
X4.5024Y-5.7205
X4.5089Y-4.8829
X4.5154Y-5.7709
X4.5319Y-5.0646
X4.5342Y-1.8307
X4.5342Y-2.4213
X4.5342Y-3.0118
X4.5342Y-3.6024
X4.5342Y-4.0748
X4.5342Y-4.1929
X4.5342Y-5.7283
X4.5342Y-5.8465
X4.5403Y-5.5953
X4.5539Y-5.0913
X4.562Y-4.9242
X4.5836Y-5.5953
X4.5965Y-2.1685
X4.5994Y-5.2441
X4.6142Y-4.8829
X4.6161Y-2.4205
X4.619Y-5.4545
X4.621Y-5.5018
X4.6303Y-5.098
X4.6329Y-5.2451
X4.6368Y-2.127
X4.6426Y-5.7616
X4.6523Y-1.8307
X4.6523Y-1.9488
X4.6523Y-2.8937
X4.6523Y-3.248
X4.6523Y-3.4843
X4.6523Y-3.9567
X4.6523Y-4.0748
X4.6523Y-4.1929
X4.6535Y-3.1378
X4.6563Y-3.1937
X4.6575Y-5.6791
X4.6618Y-5.0661
X4.6723Y-2.3715
X4.683Y-5.5018
X4.6869Y-5.7616
X4.6872Y-2.124
X4.6908Y-4.8553
X4.6909Y-4.8967
X4.7077Y-5.2844
X4.7131Y-5.1629
X4.719Y-4.9296
X4.7303Y-5.2441
X4.741Y-5.4545
X4.745Y-5.5018
X4.746Y-5.7616
X4.751Y-4.9616
X4.7539Y-5.3937
X4.7614Y-4.4945
X4.7685Y-5.0299
X4.7704Y-1.8307
X4.7704Y-1.9488
X4.7704Y-2.8937
X4.7704Y-3.8386
X4.7704Y-4.1929
X4.7835Y-5.6772
X4.7904Y-4.9966
X4.7943Y-2.6004
X4.7962Y-5.7616
X4.7971Y-5.4545
X4.7971Y-5.5018
X4.8169Y-5.1392
X4.8204Y-5.0458
X4.8258Y-4.9646
X4.8258Y-4.9902
X4.8258Y-5.0217
X4.8346Y-5.3937
X4.8543Y-4.9636
X4.8552Y-5.7587
X4.8552Y-5.798
X4.8552Y-5.8374
X4.8553Y-4.9892
X4.8709Y-3.1209
X4.8799Y-5.3189
X4.8811Y-3.9004
X4.8811Y-3.928
X4.8858Y-4.9646
X4.8885Y-1.8307
X4.8885Y-1.9488
X4.8885Y-3.7205
X4.8885Y-3.8386
X4.8885Y-4.1929
X4.8885Y-5.6102
X4.9055Y-3.0925
X4.9064Y-5.7606
X4.9064Y-5.8039
X4.9064Y-5.8443
X4.9091Y-4.2898
X4.9144Y-4.9646
X4.9268Y-4.8665
X4.9376Y-2.6211
X4.9433Y-2.5713
X4.9472Y-2.5217
X4.9527Y-5.8443
X4.963Y-4.8469
X4.9823Y-5.3189
X4.9902Y-2.6555
X4.9902Y-2.7244
X4.9925Y-4.824
X4.996Y-5.8443
X5.0059Y-5.3848
X5.0066Y-1.8307
X5.0066Y-1.9488
X5.0066Y-3.8386
X5.0066Y-4.311
X5.0066Y-4.5472
X5.0066Y-5.4921
X5.0066Y-5.6102
X5.0071Y-5.6898
X5.0123Y-5.1176
X5.0177Y-5.248
X5.0209Y-2.1866
X5.0307Y-2.2421
X5.0398Y-2.124
X5.0492Y-3.1445
X5.0547Y-5.6984
X5.0549Y-4.1093
X5.0567Y-5.8433
X5.0614Y-3.1846
X5.063Y-3.8406
X5.0768Y-5.2673
X5.0827Y-2.4291
X5.0906Y-5.698
X5.1248Y-1.8307
X5.1248Y-2.7756
X5.1248Y-4.5472
X5.1248Y-4.7835
X5.1248Y-5.2559
X5.1248Y-5.374
X5.1248Y-5.6102
X5.1248Y-5.7283
X5.1248Y-5.8465
X5.1712Y-3.2857
X5.1752Y-2.0098
X5.1772Y-1.8878
X5.1772Y-1.9508
X5.1781Y-4.3297
X5.1843Y-3.137
X5.185Y-4.8248
X5.185Y-4.9154
X5.187Y-5.0059
X5.187Y-5.0827
X5.1906Y-3.3052
X5.1941Y-2.1866
X5.1988Y-4.5126
X5.2259Y-4.3066
X5.2295Y-2.0087
X5.2429Y-2.5394
X5.2429Y-2.6575
X5.2429Y-2.7756
X5.2429Y-3.0118
X5.2429Y-3.3661
X5.2429Y-3.4843
X5.2429Y-3.6024
X5.2429Y-4.1929
X5.2429Y-4.4291
X5.2429Y-4.9016
X5.2429Y-5.374
X5.2429Y-5.4921
X5.2429Y-5.6102
X5.2844Y-4.8071
X5.2854Y-5.0285
X5.2863Y-3.215
X5.2863Y-3.2425
X5.2864Y-4.9311
X5.2864Y-4.9754
X5.2864Y-5.0827
X5.2874Y-4.8455
X5.2884Y-4.8829
X5.2972Y-5.1368
X5.2972Y-5.2205
X5.3059Y-3.1654
X5.3059Y-3.1929
X5.3071Y-2.3689
X5.312Y-4.8061
X5.3209Y-5.0846
X5.3319Y-2.3689
X5.3553Y-5.1166
X5.361Y-2.0669
X5.361Y-2.7756
X5.361Y-3.8386
X5.361Y-3.9567
X5.361Y-4.1929
X5.361Y-5.6102
X5.3612Y-5.2854
X5.3693Y-2.3689
X5.3809Y-5.4193
X5.3819Y-5.3701
X5.3895Y-2.3487
X5.4134Y-2.4213
X5.4134Y-5.2864
X5.4144Y-5.1368
X5.4144Y-5.2234
X5.4144Y-5.3701
X5.4144Y-5.4183
X5.4262Y-4.2569
X5.4262Y-4.3681
X5.4262Y-4.502
X5.4262Y-4.6102
X5.4262Y-4.7126
X5.4262Y-4.802
X5.4262Y-4.8854
T2
X3.0866Y-5.3189
X3.0866Y-5.3583
X3.126Y-5.3189
X3.126Y-5.3583
T3
X2.3882Y-3.2087
X2.3882Y-3.2579
X2.3882Y-3.3075
X2.3882Y-3.3567
X2.3882Y-3.4055
X2.3882Y-3.5043
X2.3882Y-3.5535
T4
X2.3882Y-3.4551
T5
X2.4035Y-3.7598
X2.4035Y-3.8386
X2.4035Y-3.9173
X2.4035Y-3.9961
X2.6295Y-3.7598
X2.6295Y-3.8386
X2.6295Y-3.9173
X2.6295Y-3.9961
T6
X2.3898Y-5.0837
X2.3898Y-5.1624
X2.3984Y-2.9094
X2.3984Y-2.9882
T7
X5.3632Y-4.2559
X5.3632Y-4.3346
X5.3632Y-4.4134
T8
X2.5911Y-5.0701
X2.5911Y-5.1701
X2.6911Y-5.0701
X2.6911Y-5.1701
X2.7911Y-5.0701
X2.7911Y-5.1701
X2.8911Y-5.0701
X2.8911Y-5.1701
T9
X3.7078Y-5.7772
X3.8062Y-5.7772
X4.3531Y-5.7772
X4.4515Y-5.7772
X4.9794Y-5.7772
X5.0779Y-5.7772
X5.3071Y-5.4185
X5.3071Y-5.5169
T10
X5.1093Y-4.2303
X5.1093Y-4.3303
X5.1093Y-4.4303
T11
X2.4409Y-1.9006
X2.4409Y-5.7766
X2.9299Y-2.7587
X2.9299Y-4.0579
X4.8197Y-2.7587
X4.8201Y-4.0579
X5.3327Y-1.9006
X5.3327Y-5.7766
T12
X3.6207Y-3.2776
T5
G00X2.4361Y-5.2695
M15
G01X2.4125Y-5.2695
M16
G05
G00X2.4361Y-5.6104
M15
G01X2.4125Y-5.6104
M16
G05
G00X2.6046Y-5.2695
M15
G01X2.5731Y-5.2695
M16
G05
G00X2.6046Y-5.6104
M15
G01X2.5731Y-5.6104
M16
G05
G00X5.1358Y-3.7646
M15
G01X5.1673Y-3.7646
M16
G05
G00X5.1358Y-4.1055
M15
G01X5.1673Y-4.1055
M16
G05
G00X5.3043Y-3.7646
M15
G01X5.328Y-3.7646
M16
G05
G00X5.3043Y-4.1055
M15
G01X5.328Y-4.1055
M16
G05
M30
