M48
; DRILL file KiCad 10.0.1 date 2026-06-27T01:13:22
; FORMAT={-:-/ absolute / inch / decimal}
; #@! TF.CreationDate,2026-06-27T01:13:22+03:00
; #@! TF.GenerationSoftware,Kicad,Pcbnew,10.0.1
; #@! TF.FileFunction,Plated,1,6,PTH
FMAT,2
INCH
; #@! TA.AperFunction,Plated,PTH,ViaDrill
T1C0.0079
; #@! TA.AperFunction,Plated,PTH,ViaDrill
T2C0.0118
; #@! TA.AperFunction,Plated,PTH,ComponentDrill
T3C0.0118
; #@! TA.AperFunction,Plated,PTH,ComponentDrill
T4C0.0276
; #@! TA.AperFunction,Plated,PTH,ComponentDrill
T5C0.0276
; #@! TA.AperFunction,Plated,PTH,ComponentDrill
T6C0.0315
; #@! TA.AperFunction,Plated,PTH,ComponentDrill
T7C0.0354
; #@! TA.AperFunction,Plated,PTH,ComponentDrill
T8C0.0394
; #@! TA.AperFunction,Plated,PTH,ComponentDrill
T9C0.0433
; #@! TA.AperFunction,Plated,PTH,ComponentDrill
T10C0.0433
; #@! TA.AperFunction,Plated,PTH,ComponentDrill
T11C0.0472
; #@! TA.AperFunction,Plated,PTH,ComponentDrill
T12C0.1063
%
G90
G05
T1
X2.3343Y-4.2803
X2.3346Y-4.226
X2.3362Y-4.3059
X2.3575Y-4.2303
X2.3654Y-3.1106
X2.3996Y-4.1417
X2.4421Y-3.1122
X2.4469Y-5.1913
X2.513Y-2.6295
X2.5232Y-5.1638
X2.5614Y-5.1205
X2.5886Y-2.5449
X2.6004Y-4.7764
X2.6134Y-4.5803
X2.6165Y-2.5441
X2.6185Y-4.7614
X2.6213Y-4.5445
X2.6457Y-4.6476
X2.6465Y-4.5811
X2.6563Y-4.5559
X2.6768Y-2.5965
X2.6945Y-2.5961
X2.6992Y-4.7472
X2.6996Y-4.6484
X2.7224Y-2.7807
X2.7224Y-5.1205
X2.7374Y-2.763
X2.7457Y-2.5728
X2.75Y-2.7488
X2.7555Y-2.452
X2.7559Y-2.4713
X2.7803Y-2.4925
X2.8043Y-4.8843
X2.828Y-4.7484
X2.8354Y-4.8079
X2.8437Y-5.1886
X2.8453Y-4.474
X2.8461Y-4.5031
X2.8476Y-4.8823
X2.8807Y-2.5386
X3.002Y-4.3937
X3.0055Y-4.3614
X3.0921Y-5.6154
X3.1366Y-5.6157
X3.1427Y-2.1091
X3.1634Y-4.3181
X3.1683Y-2.1091
X3.2018Y-2.0661
X3.2228Y-5.5516
X3.2274Y-2.0661
X3.2382Y-5.6008
X3.2628Y-2.0874
X3.2811Y-5.2972
X3.2827Y-2.1091
X3.2874Y-4.5976
X3.3146Y-5.2713
X3.3157Y-2.0732
X3.3382Y-2.0957
X3.3618Y-1.8031
X3.3618Y-4.389
X3.3906Y-1.8031
X3.4087Y-4.2996
X3.4094Y-4.924
X3.413Y-4.472
X3.478Y-5.3161
X3.513Y-4.2386
X3.5382Y-4.3677
X3.5421Y-4.2413
X3.5469Y-4.4685
X3.5598Y-4.3803
X3.5634Y-4.5752
X3.565Y-4.3071
X3.5681Y-4.2736
X3.5705Y-4.4685
X3.5929Y-4.4689
X3.5945Y-4.0744
X3.5992Y-3.9835
X3.6016Y-3.9492
X3.623Y-2.7868
X3.6264Y-3.926
X3.6266Y-4.4628
X3.6681Y-4.0024
X3.6685Y-3.9323
X3.6689Y-2.7886
X3.6705Y-2.5681
X3.6795Y-4.1764
X3.6803Y-4.7776
X3.6827Y-4.8071
X3.6972Y-4.1602
X3.7031Y-3.9303
X3.7031Y-4.8283
X3.7039Y-4.1827
X3.7138Y-4.0051
X3.715Y-2.7965
X3.7169Y-2.5701
X3.7217Y-4.1634
X3.7217Y-4.8449
X3.7417Y-5.7165
X3.7445Y-4.1791
X3.7488Y-4.3894
X3.7624Y-2.5711
X3.7626Y-2.7949
X3.7657Y-4.8709
X3.7736Y-4.0035
X3.787Y-3.9295
X3.7917Y-4.8461
X3.7929Y-3.8996
X3.7949Y-4.0543
X3.7972Y-3.8047
X3.8083Y-2.5756
X3.8091Y-3.6992
X3.8098Y-2.7961
X3.8157Y-2.1055
X3.8209Y-4.0413
X3.8476Y-4.2567
X3.8543Y-2.5717
X3.8575Y-2.7945
X3.8577Y-3.9281
X3.8587Y-3.8807
X3.8591Y-4.0193
X3.8679Y-2.7099
X3.887Y-4.1634
X3.8886Y-4.0406
X3.8909Y-3.6594
X3.8935Y-2.7099
X3.9043Y-2.7925
X3.9063Y-4.7878
X3.9075Y-4.7508
X3.9098Y-5.7732
X3.9118Y-3.6854
X3.9152Y-2.6876
X3.9185Y-2.585
X3.9185Y-4.2173
X3.9201Y-4.1614
X3.9213Y-4.5319
X3.9244Y-3.9126
X3.9248Y-1.974
X3.935Y-3.763
X3.935Y-3.8138
X3.935Y-3.937
X3.9407Y-2.6876
X3.9425Y-4.1437
X3.9433Y-4.5059
X3.9543Y-4.5264
X3.9563Y-3.9165
X3.957Y-2.111
X3.9615Y-1.9823
X3.9728Y-2.6768
X3.9736Y-3.8827
X3.9803Y-1.9657
X3.9902Y-3.1472
X3.9909Y-5.2024
X3.9913Y-4.0157
X3.9984Y-2.6784
X3.9988Y-3.9343
X4.0002Y-1.984
X4.002Y-4.0429
X4.0047Y-4.1429
X4.0077Y-2.2978
X4.0105Y-2.1303
X4.0205Y-3.9075
X4.0213Y-1.9667
X4.023Y-2.2825
X4.024Y-2.6779
X4.0283Y-3.9283
X4.0295Y-2.7051
X4.0303Y-4.1287
X4.0327Y-5.3244
X4.0419Y-5.3411
X4.0433Y-3.1063
X4.0442Y-5.366
X4.0449Y-1.9394
X4.0532Y-4.011
X4.0535Y-4.1496
X4.0543Y-3.5776
X4.0551Y-2.1551
X4.0558Y-5.3969
X4.0563Y-2.7157
X4.0579Y-4.6709
X4.0602Y-5.3346
X4.0776Y-2.6882
X4.0776Y-4.1295
X4.0795Y-2.1815
X4.0807Y-5.3346
X4.0832Y-4.0393
X4.0858Y-3.6028
X4.089Y-5.4106
X4.0894Y-5.3866
X4.0916Y-2.1431
X4.0941Y-2.6661
X4.0941Y-3.0654
X4.1016Y-4.1496
X4.1028Y-4.0228
X4.1031Y-2.7063
X4.1069Y-2.1278
X4.1165Y-2.6835
X4.1231Y-5.4
X4.1248Y-4.1299
X4.1276Y-3.6382
X4.128Y-4.0476
X4.1386Y-4.2587
X4.1394Y-3.0331
X4.1394Y-4.6858
X4.1402Y-2.7953
X4.1419Y-2.5919
X4.1429Y-3.3051
X4.1496Y-4.1461
X4.1563Y-4.0417
X4.1587Y-3.9264
X4.1622Y-3.5508
X4.1701Y-4.128
X4.1705Y-3.9024
X4.1732Y-3.6886
X4.1835Y-4.0248
X4.1839Y-3.6114
X4.185Y-2.9642
X4.1854Y-4.4768
X4.1878Y-2.5929
X4.1878Y-2.7929
X4.1878Y-3.9299
X4.1986Y-2.7092
X4.1996Y-2.3283
X4.2057Y-2.1809
X4.2114Y-3.735
X4.2209Y-3.8354
X4.2232Y-4.6106
X4.224Y-3.2303
X4.2242Y-2.7092
X4.2283Y-4.5748
X4.2315Y-3.6535
X4.2343Y-2.7909
X4.235Y-2.5886
X4.2449Y-2.8965
X4.2459Y-2.687
X4.2508Y-3.839
X4.2555Y-3.7772
X4.2715Y-2.687
X4.2795Y-3.6972
X4.2823Y-2.5902
X4.2835Y-2.7937
X4.2931Y-2.7109
X4.2933Y-5.1228
X4.2941Y-3.8638
X4.2941Y-5.1508
X4.2972Y-2.0154
X4.302Y-4.6161
X4.3031Y-1.978
X4.3083Y-2.0535
X4.3094Y-2.8402
X4.3126Y-3.1398
X4.3187Y-2.7109
X4.3209Y-4.6366
X4.3244Y-3.3744
X4.3295Y-2.5689
X4.3295Y-2.7937
X4.3392Y-2.0886
X4.3394Y-4.0555
X4.3404Y-2.687
X4.3577Y-3.9309
X4.3648Y-2.0886
X4.3659Y-2.687
X4.3697Y-4.0571
X4.3736Y-2.7933
X4.3823Y-1.977
X4.387Y-2.7134
X4.3902Y-3.8646
X4.3906Y-3.8146
X4.3909Y-3.6083
X4.3917Y-3.6665
X4.3961Y-3.928
X4.3982Y-2.074
X4.3984Y-2.6713
X4.4035Y-2.6953
X4.4146Y-4.0685
X4.4193Y-2.5835
X4.4205Y-4.3315
X4.4238Y-2.074
X4.4354Y-2.7283
X4.4358Y-3.2811
X4.4362Y-3.9197
X4.4409Y-1.9752
X4.4461Y-3.0035
X4.4539Y-4.3654
X4.4573Y-2.087
X4.4618Y-5.1657
X4.4622Y-4.4754
X4.4622Y-5.1409
X4.4657Y-3.9665
X4.4657Y-4.0835
X4.4665Y-2.5445
X4.4724Y-2.6091
X4.4764Y-4.4925
X4.4827Y-2.6866
X4.4829Y-2.087
X4.5008Y-1.9752
X4.5079Y-4.4961
X4.5122Y-4.0835
X4.5138Y-2.5016
X4.5146Y-4.0071
X4.5163Y-2.06
X4.5201Y-2.5736
X4.5256Y-4.5413
X4.5264Y-2.6331
X4.5331Y-3.1854
X4.5374Y-4.0071
X4.539Y-3.0622
X4.5419Y-2.06
X4.5496Y-4.5276
X4.5504Y-4.5697
X4.5508Y-2.8976
X4.5579Y-1.9736
X4.5587Y-4.1831
X4.5594Y-2.4555
X4.5594Y-4.0071
X4.5594Y-5.0441
X4.5606Y-4.5047
X4.5654Y-5.0181
X4.5689Y-2.5197
X4.574Y-4.4831
X4.5795Y-4.0866
X4.5803Y-2.5764
X4.5835Y-4.2181
X4.5882Y-5.0634
X4.5898Y-4.7811
X4.6031Y-4.4996
X4.6035Y-2.4083
X4.6087Y-2.4654
X4.6138Y-4.7819
X4.6181Y-1.9732
X4.6228Y-2.537
X4.628Y-4.1791
X4.6374Y-4.2146
X4.6425Y-3.0961
X4.6437Y-2.2098
X4.6445Y-2.263
X4.6453Y-2.3358
X4.6465Y-2.4177
X4.6465Y-2.5083
X4.6579Y-2.1819
X4.6587Y-3.939
X4.6602Y-2.8024
X4.6602Y-4.2917
X4.6614Y-4.3276
X4.6756Y-5.3941
X4.6768Y-1.974
X4.6803Y-4.2063
X4.7083Y-4.3461
X4.7098Y-5.3941
X4.7165Y-4.2232
X4.7173Y-4.4835
X4.7185Y-2.7453
X4.739Y-4.7622
X4.7406Y-2.287
X4.7457Y-2.9772
X4.7563Y-4.3449
X4.7614Y-2.115
X4.7732Y-4.9354
X4.7862Y-2.2425
X4.7882Y-2.022
X4.7917Y-4.95
X4.8024Y-4.4795
X4.8232Y-4.3453
X4.8472Y-4.8654
X4.8472Y-4.8906
X4.8492Y-4.3177
X4.8685Y-4.1717
X4.8709Y-4.289
X4.885Y-4.8535
X4.9106Y-4.8697
X4.9146Y-4.8421
X4.939Y-2.178
X4.9957Y-3.9535
X5.0181Y-2.8673
X5.0323Y-2.9681
X5.0945Y-2.737
X5.1094Y-5.1039
X5.1287Y-2.9681
X5.15Y-5.1039
X5.1665Y-5.2996
X5.1673Y-5.2626
X5.1949Y-5.3268
X5.1953Y-3.9413
X5.1965Y-5.1327
X5.1988Y-5.2213
X5.2169Y-4.5429
X5.2169Y-4.5661
X5.2402Y-3.5177
X5.252Y-4.5083
X5.2799Y-4.5083
X5.2862Y-4.4161
X5.2866Y-4.4638
X5.2988Y-3.8705
X5.3028Y-2.4161
X5.3315Y-2.4165
X5.3508Y-3.9953
X5.3614Y-2.5898
X5.3626Y-4.4677
T2
X2.3583Y-2.6024
X2.3598Y-5.5803
X2.3614Y-5.2937
X2.3661Y-4.8661
X2.3661Y-4.9079
X2.3799Y-3.6467
X2.3809Y-2.4862
X2.3819Y-2.5217
X2.3917Y-4.3701
X2.3917Y-4.437
X2.3917Y-4.5197
X2.3917Y-4.6063
X2.3917Y-4.6949
X2.3945Y-4.2169
X2.4006Y-4.1791
X2.4059Y-4.1201
X2.4122Y-4.0831
X2.4173Y-4.8041
X2.4173Y-4.8327
X2.4173Y-4.8612
X2.4213Y-2.6043
X2.4213Y-3.6417
X2.4331Y-2.3543
X2.4331Y-2.4114
X2.4331Y-2.4685
X2.4685Y-3.7323
X2.4833Y-4.8967
X2.4843Y-4.498
X2.4846Y-5.3232
X2.4854Y-5.378
X2.4862Y-4.5807
X2.487Y-5.4382
X2.4882Y-3.6295
X2.4902Y-3.5689
X2.4909Y-5.6488
X2.4961Y-3.502
X2.498Y-3.374
X2.498Y-3.439
X2.5Y-3.2539
X2.5Y-3.3189
X2.5004Y-4.1626
X2.502Y-2.7697
X2.502Y-3.1811
X2.5173Y-4.3909
X2.5189Y-5.0665
X2.5197Y-2.7205
X2.5217Y-5.1181
X2.5333Y-4.0344
X2.5665Y-4.3909
X2.5807Y-4.2039
X2.5823Y-2.4583
X2.5846Y-2.5886
X2.5846Y-2.6152
X2.6024Y-2.501
X2.6075Y-2.4445
X2.6211Y-2.3711
X2.623Y-4.3406
X2.6244Y-4.5047
X2.6467Y-4.2244
X2.6575Y-4.1004
X2.6614Y-3.5049
X2.6642Y-4.9008
X2.6683Y-3.2215
X2.6713Y-3.5748
X2.6722Y-3.3474
X2.6752Y-4.3996
X2.6752Y-5.7835
X2.6752Y-5.8465
X2.6795Y-5.5402
X2.6822Y-5.6047
X2.6841Y-3.0246
X2.685Y-4.5681
X2.685Y-5.5094
X2.686Y-2.424
X2.6929Y-3.6201
X2.6939Y-2.8317
X2.6939Y-2.8583
X2.6969Y-3.7913
X2.7001Y-5.5804
X2.7008Y-4.0079
X2.7028Y-4.0984
X2.7047Y-4.3661
X2.7047Y-4.9016
X2.7087Y-3.0866
X2.7087Y-3.1457
X2.7201Y-5.785
X2.7215Y-3.0236
X2.7244Y-4.4035
X2.7312Y-5.4715
X2.7313Y-5.5354
X2.748Y-2.9685
X2.748Y-3.0049
X2.7638Y-4.3848
X2.7638Y-5.7854
X2.7667Y-2.5266
X2.7667Y-5.5827
X2.7717Y-3.7352
X2.7834Y-4.9122
X2.8028Y-5.4843
X2.8051Y-5.3632
X2.8115Y-5.4149
X2.8159Y-3.5374
X2.8205Y-5.7862
X2.8238Y-5.5846
X2.8248Y-3.7697
X2.8307Y-5.0305
X2.8377Y-5.5452
X2.8425Y-5.1299
X2.8484Y-5.378
X2.8627Y-5.3056
X2.8819Y-5.7854
X2.8834Y-5.343
X2.8898Y-5.4281
X2.9109Y-5.4926
X2.9154Y-4.9124
X2.9163Y-4.5148
X2.9183Y-5.6024
X2.9208Y-5.3706
X2.9222Y-5.5614
X2.9281Y-5.326
X2.9311Y-5.2744
X2.9341Y-5.4242
X2.9366Y-1.9157
X2.9398Y-5.7862
X2.9537Y-4.5512
X2.9724Y-4.6319
X2.9754Y-5.4774
X2.9764Y-5.5157
X2.9771Y-5.6024
X2.9813Y-4.5955
X2.998Y-5.7854
X2.9996Y-4.7957
X3.0031Y-4.7634
X3.0098Y-5.563
X3.0207Y-5.5157
X3.0331Y-5.0343
X3.0394Y-5.6102
X3.0512Y-5.4774
X3.0673Y-1.9177
X3.0758Y-5.561
X3.0846Y-5.4774
X3.1102Y-5.561
X3.1171Y-5.4774
X3.1303Y-4.9165
X3.1425Y-4.6445
X3.1447Y-5.561
X3.1457Y-5.4774
X3.1539Y-5.1931
X3.1602Y-4.9299
X3.1742Y-5.4774
X3.1762Y-5.561
X3.1827Y-5.7803
X3.1924Y-5.5929
X3.1959Y-5.0768
X3.1969Y-4.2028
X3.2161Y-5.0429
X3.2213Y-4.437
X3.2362Y-5.7776
X3.2372Y-5.4705
X3.2392Y-5.5157
X3.2441Y-1.9177
X3.2579Y-5.5679
X3.2841Y-5.3494
X3.2902Y-5.7776
X3.3063Y-4.9083
X3.3209Y-5.3146
X3.3307Y-5.4075
X3.3327Y-4.5984
X3.3358Y-5.1917
X3.3362Y-5.2378
X3.3543Y-5.7776
X3.3638Y-5.3146
X3.3789Y-4.4256
X3.3858Y-5.1496
X3.389Y-4.5646
X3.3937Y-4.5098
X3.3937Y-5.5541
X3.4055Y-5.5157
X3.4087Y-4.4256
X3.4134Y-4.9587
X3.4197Y-5.776
X3.4272Y-4.8465
X3.4286Y-5.593
X3.4449Y-5.0965
X3.4464Y-5.5369
X3.4508Y-4.7982
X3.4567Y-4.9567
X3.4606Y-4.5925
X3.4724Y-5.7776
X3.4738Y-5.5644
X3.4774Y-4.8238
X3.4799Y-5.3862
X3.4877Y-5.5909
X3.5Y-5.5024
X3.5138Y-5.0748
X3.5284Y-4.6024
X3.5384Y-4.8061
X3.5693Y-5.4756
X3.587Y-4.8583
X3.6004Y-5.0728
X3.6196Y-5.2712
X3.6425Y-4.7807
X3.6456Y-5.3783
X3.6714Y-5.2892
X3.6849Y-5.428
X3.7175Y-5.0679
X3.7392Y-4.4596
X3.7531Y-5.6094
X3.7559Y-4.5256
X3.7594Y-4.4395
X3.7618Y-4.7047
X3.7717Y-5.2929
X3.7724Y-5.3224
X3.774Y-4.7886
X3.7795Y-4.4193
X3.7913Y-5.4976
X3.7925Y-5.5343
X3.8012Y-4.4921
X3.802Y-5.0969
X3.8189Y-4.6791
X3.8282Y-4.5556
X3.8327Y-4.7823
X3.835Y-5.0949
X3.8374Y-4.8846
X3.8445Y-5.0148
X3.8448Y-5.5421
X3.8452Y-5.5075
X3.8586Y-5.4043
X3.8593Y-4.5246
X3.8609Y-5.463
X3.8677Y-5.6327
X3.8731Y-5.0614
X3.8824Y-4.5015
X3.8857Y-5.4043
X3.8873Y-5.3311
X3.8877Y-5.4634
X3.8928Y-5.6031
X3.9385Y-5.2866
X3.9397Y-5.3535
X3.9444Y-5.315
X3.9475Y-5.5992
X3.9498Y-5.4734
X3.9504Y-5.0972
X3.9719Y-5.3197
X3.9822Y-5.4978
X3.9842Y-5.4516
X4.0005Y-5.2731
X4.0048Y-5.7596
X4.0107Y-5.4734
X4.0108Y-4.9823
X4.0117Y-5.5077
X4.0501Y-5.7596
X4.0559Y-4.8791
X4.0787Y-5.4705
X4.1003Y-5.7596
X4.1102Y-5.4892
X4.1453Y-4.9898
X4.1467Y-5.4862
X4.1495Y-5.7596
X4.1506Y-4.7726
X4.1634Y-5.248
X4.1826Y-4.8174
X4.1842Y-5.3224
X4.1936Y-5.3839
X4.2057Y-5.2461
X4.2109Y-5.4287
X4.2181Y-4.1902
X4.2201Y-4.1591
X4.2217Y-5.0909
X4.226Y-4.1256
X4.2273Y-5.7567
X4.2273Y-5.7892
X4.2273Y-5.8217
X4.2273Y-5.8551
X4.2283Y-4.8632
X4.2295Y-4.0567
X4.2441Y-5.247
X4.2567Y-4.0559
X4.2591Y-4.1988
X4.2602Y-4.1264
X4.2602Y-4.1583
X4.2621Y-5.4358
X4.2759Y-5.0614
X4.2784Y-5.7695
X4.2784Y-5.8108
X4.2827Y-4.0559
X4.2861Y-5.4181
X4.2932Y-5.8463
X4.2937Y-5.0933
X4.2941Y-5.2301
X4.2949Y-5.2819
X4.2953Y-4.1264
X4.2953Y-4.1567
X4.2961Y-4.1898
X4.3002Y-4.8819
X4.3067Y-2.1413
X4.3071Y-2.1902
X4.3079Y-2.2406
X4.3209Y-5.252
X4.3224Y-5.374
X4.3386Y-1.8756
X4.3486Y-5.0167
X4.3524Y-5.252
X4.3552Y-5.8463
X4.3862Y-4.8319
X4.3988Y-4.9165
X4.4065Y-4.8829
X4.4197Y-5.6929
X4.426Y-4.7992
X4.439Y-4.9951
X4.4469Y-4.9203
X4.4654Y-5.6996
X4.4712Y-5.2585
X4.4803Y-5.5098
X4.4803Y-5.5925
X4.4823Y-1.8752
X4.4961Y-5.1033
X4.5024Y-5.7205
X4.5089Y-4.8829
X4.5154Y-5.7709
X4.5319Y-5.0646
X4.5403Y-5.5953
X4.5539Y-5.0913
X4.5836Y-5.5953
X4.5994Y-5.2441
X4.6142Y-4.8829
X4.619Y-5.4545
X4.621Y-5.5018
X4.6303Y-5.098
X4.6329Y-5.2451
X4.6426Y-5.7616
X4.6575Y-5.6791
X4.6618Y-5.0661
X4.683Y-5.5018
X4.6869Y-5.7616
X4.6908Y-4.8553
X4.6909Y-4.8967
X4.7131Y-5.1629
X4.7184Y-5.2548
X4.719Y-4.9296
X4.7335Y-5.2366
X4.741Y-5.4545
X4.7445Y-1.9614
X4.745Y-5.5018
X4.746Y-5.7616
X4.751Y-4.9616
X4.7539Y-5.3937
X4.7614Y-4.4945
X4.7685Y-5.0299
X4.7701Y-1.9614
X4.7835Y-5.6772
X4.7904Y-4.9966
X4.7962Y-5.7616
X4.7971Y-5.4545
X4.7971Y-5.5018
X4.8169Y-5.1392
X4.8204Y-5.0458
X4.8258Y-4.9646
X4.8258Y-4.9902
X4.8258Y-5.0217
X4.8346Y-5.3937
X4.8543Y-4.9636
X4.8552Y-5.7587
X4.8552Y-5.798
X4.8552Y-5.8374
X4.8553Y-4.9892
X4.8799Y-5.3189
X4.8858Y-4.9646
X4.9064Y-5.7606
X4.9064Y-5.8039
X4.9064Y-5.8443
X4.9144Y-4.9646
X4.9527Y-5.8443
X4.9823Y-5.3189
X4.996Y-5.8443
X5.0059Y-5.3848
X5.0071Y-5.6898
X5.0123Y-5.1176
X5.0177Y-5.248
X5.0386Y-5.6146
X5.0547Y-5.6984
X5.0567Y-5.8433
X5.0575Y-5.2669
X5.0906Y-5.698
X5.1402Y-3.648
X5.1425Y-3.7169
X5.1567Y-3.8819
X5.1571Y-3.8492
X5.1602Y-5.5945
X5.1724Y-2.5965
X5.1799Y-4.3295
X5.185Y-4.8248
X5.185Y-4.9154
X5.1862Y-3.8677
X5.187Y-5.0059
X5.187Y-5.0827
X5.1988Y-4.5126
X5.2228Y-4.3094
X5.2392Y-2.8195
X5.2394Y-2.8457
X5.2402Y-3.2776
X5.2402Y-3.3059
X5.2402Y-3.3323
X5.2539Y-4.2815
X5.2835Y-2.5949
X5.2844Y-4.8071
X5.2854Y-5.0285
X5.2864Y-4.9311
X5.2864Y-4.9754
X5.2864Y-5.0827
X5.2874Y-4.8455
X5.2884Y-4.8829
X5.2969Y-4.2575
X5.2972Y-5.1368
X5.2972Y-5.2205
X5.312Y-4.8061
X5.3209Y-5.0846
X5.3553Y-5.1166
X5.3571Y-3.835
X5.3612Y-5.2854
X5.3809Y-5.4193
X5.3819Y-5.3701
X5.3902Y-3.3764
X5.3976Y-3.0909
X5.4134Y-5.2864
X5.4144Y-5.1368
X5.4144Y-5.2234
X5.4144Y-5.3701
X5.4144Y-5.4183
X5.4213Y-2.6776
X5.4228Y-2.7142
X5.4262Y-4.2569
X5.4262Y-4.3681
X5.4262Y-4.502
X5.4262Y-4.6102
X5.4262Y-4.7126
X5.4262Y-4.802
X5.4262Y-4.8854
T3
X3.0866Y-5.3189
X3.0866Y-5.3583
X3.126Y-5.3189
X3.126Y-5.3583
T4
X2.3882Y-3.2087
X2.3882Y-3.2579
X2.3882Y-3.3075
X2.3882Y-3.3567
X2.3882Y-3.4055
X2.3882Y-3.5043
X2.3882Y-3.5535
T5
X2.3882Y-3.4551
T6
X2.4035Y-3.7598
X2.4035Y-3.8386
X2.4035Y-3.9173
X2.4035Y-3.9961
X2.6295Y-3.7598
X2.6295Y-3.8386
X2.6295Y-3.9173
X2.6295Y-3.9961
T7
X2.3898Y-5.0837
X2.3898Y-5.1624
X2.3984Y-2.9094
X2.3984Y-2.9882
T8
X5.3632Y-4.2559
X5.3632Y-4.3346
X5.3632Y-4.4134
T9
X2.5911Y-5.0701
X2.5911Y-5.1701
X2.6911Y-5.0701
X2.6911Y-5.1701
X2.7911Y-5.0701
X2.7911Y-5.1701
X2.8911Y-5.0701
X2.8911Y-5.1701
T10
X4.3531Y-5.7772
X4.4515Y-5.7772
X4.9794Y-5.7772
X5.0779Y-5.7772
X5.3071Y-5.4185
X5.3071Y-5.5169
T11
X5.1093Y-4.2303
X5.1093Y-4.3303
X5.1093Y-4.4303
T12
X2.4409Y-1.9006
X2.4409Y-5.7766
X2.963Y-2.7114
X2.9634Y-4.0106
X4.8531Y-2.7114
X4.8531Y-4.0106
X5.3327Y-1.9006
X5.3327Y-5.7766
T5
G00X3.8583Y-1.897
M15
G01X3.8583Y-1.8577
M16
G05
G00X4.1024Y-1.897
M15
G01X4.1024Y-1.8577
M16
G05
T6
G00X2.4361Y-5.2695
M15
G01X2.4125Y-5.2695
M16
G05
G00X2.4361Y-5.6104
M15
G01X2.4125Y-5.6104
M16
G05
G00X2.6046Y-5.2695
M15
G01X2.5731Y-5.2695
M16
G05
G00X2.6046Y-5.6104
M15
G01X2.5731Y-5.6104
M16
G05
M30
