%TF.GenerationSoftware,KiCad,Pcbnew,10.0.1*%
%TF.CreationDate,2026-06-27T01:13:22+03:00*%
%TF.ProjectId,Orbit Mini Mainboard,4f726269-7420-44d6-996e-69204d61696e,rev?*%
%TF.SameCoordinates,Original*%
%TF.FileFunction,Soldermask,Bot*%
%TF.FilePolarity,Negative*%
%FSLAX46Y46*%
G04 Gerber Fmt 4.6, Leading zero omitted, Abs format (unit mm)*
G04 Created by KiCad (PCBNEW 10.0.1) date 2026-06-27 01:13:22*
%MOMM*%
%LPD*%
G01*
G04 APERTURE LIST*
%ADD10O,1.500000X2.550000*%
%ADD11C,5.400000*%
%ADD12R,1.400000X1.400000*%
%ADD13C,1.400000*%
%ADD14C,0.750000*%
%ADD15O,2.000000X1.200000*%
%ADD16O,1.800000X1.200000*%
%ADD17C,0.600000*%
%ADD18C,1.600000*%
%ADD19R,1.700000X1.700000*%
%ADD20C,1.700000*%
%ADD21C,1.800000*%
%ADD22R,1.500000X1.500000*%
%ADD23C,1.500000*%
%ADD24R,1.050000X0.900000*%
%ADD25C,1.040000*%
%ADD26C,1.050000*%
%ADD27R,1.800000X1.575000*%
G04 APERTURE END LIST*
D10*
%TO.C,USB3*%
X98000000Y-47685000D03*
X104200000Y-47685000D03*
%TD*%
D11*
%TO.C,H12*%
X135450000Y-146725000D03*
%TD*%
D12*
%TO.C,U18*%
X66790000Y-101500000D03*
D13*
X66790000Y-99500000D03*
X66790000Y-97500000D03*
X66790000Y-95500000D03*
%TD*%
D14*
%TO.C,USBC2*%
X65257456Y-135275000D03*
X65257456Y-141075000D03*
D15*
X65757456Y-142505000D03*
D16*
X61577456Y-142505000D03*
X61577456Y-133845000D03*
D15*
X65757456Y-133845000D03*
%TD*%
D17*
%TO.C,U10*%
X79400000Y-135100000D03*
X78400000Y-135100000D03*
X79400000Y-136100000D03*
X78400000Y-136100000D03*
%TD*%
D18*
%TO.C,CN7*%
X60920000Y-75900000D03*
X60920000Y-73900000D03*
%TD*%
D11*
%TO.C,H2*%
X62000000Y-48275000D03*
%TD*%
D19*
%TO.C,U22*%
X73435000Y-128780000D03*
D20*
X73435000Y-131320000D03*
X70895000Y-128780000D03*
X70895000Y-131320000D03*
X68355000Y-128780000D03*
X68355000Y-131320000D03*
X65815000Y-128780000D03*
X65815000Y-131320000D03*
%TD*%
D11*
%TO.C,H5*%
X123270000Y-101870000D03*
%TD*%
D21*
%TO.C,CN11*%
X110567500Y-146740000D03*
X113067500Y-146740000D03*
%TD*%
D22*
%TO.C,CN3*%
X136225000Y-108100000D03*
D23*
X136225000Y-110100000D03*
X136225000Y-112100000D03*
%TD*%
D11*
%TO.C,H10*%
X135450000Y-48275000D03*
%TD*%
%TO.C,H4*%
X75260000Y-68870000D03*
%TD*%
%TO.C,H11*%
X62000000Y-146725000D03*
%TD*%
D12*
%TO.C,U2*%
X61050000Y-101500000D03*
D13*
X61050000Y-99500000D03*
X61050000Y-97500000D03*
X61050000Y-95500000D03*
%TD*%
D11*
%TO.C,H6*%
X123270000Y-68870000D03*
%TD*%
D21*
%TO.C,CN8*%
X126477500Y-146740000D03*
X128977500Y-146740000D03*
%TD*%
D24*
%TO.C,CN1*%
X60660000Y-90260000D03*
D25*
X60660000Y-89010000D03*
D26*
X60660000Y-87760000D03*
D25*
X60660000Y-86500000D03*
X60660000Y-85260000D03*
X60660000Y-84010000D03*
X60660000Y-82750000D03*
X60660000Y-81500000D03*
%TD*%
D27*
%TO.C,H3*%
X129775000Y-107450000D03*
D21*
X129775000Y-109990000D03*
X129775000Y-112530000D03*
%TD*%
D18*
%TO.C,CN2*%
X60700000Y-131125000D03*
X60700000Y-129125000D03*
%TD*%
D11*
%TO.C,H9*%
X75270000Y-101870000D03*
%TD*%
D21*
%TO.C,CN9*%
X134800000Y-137630000D03*
X134800000Y-140130000D03*
%TD*%
M02*
