%TF.GenerationSoftware,KiCad,Pcbnew,10.0.1*%
%TF.CreationDate,2026-06-27T01:13:22+03:00*%
%TF.ProjectId,Orbit Mini Mainboard,4f726269-7420-44d6-996e-69204d61696e,rev?*%
%TF.SameCoordinates,Original*%
%TF.FileFunction,Paste,Top*%
%TF.FilePolarity,Positive*%
%FSLAX46Y46*%
G04 Gerber Fmt 4.6, Leading zero omitted, Abs format (unit mm)*
G04 Created by KiCad (PCBNEW 10.0.1) date 2026-06-27 01:13:22*
%MOMM*%
%LPD*%
G01*
G04 APERTURE LIST*
G04 Aperture macros list*
%AMRoundRect*
0 Rectangle with rounded corners*
0 $1 Rounding radius*
0 $2 $3 $4 $5 $6 $7 $8 $9 X,Y pos of 4 corners*
0 Add a 4 corners polygon primitive as box body*
4,1,4,$2,$3,$4,$5,$6,$7,$8,$9,$2,$3,0*
0 Add four circle primitives for the rounded corners*
1,1,$1+$1,$2,$3*
1,1,$1+$1,$4,$5*
1,1,$1+$1,$6,$7*
1,1,$1+$1,$8,$9*
0 Add four rect primitives between the rounded corners*
20,1,$1+$1,$2,$3,$4,$5,0*
20,1,$1+$1,$4,$5,$6,$7,0*
20,1,$1+$1,$6,$7,$8,$9,0*
20,1,$1+$1,$8,$9,$2,$3,0*%
%AMFreePoly0*
4,1,17,0.335278,0.685443,0.349923,0.650088,0.349923,-0.649935,0.335278,-0.685290,0.299923,-0.699935,0.000318,-0.699935,-0.000051,-0.700088,-0.300050,-0.700088,-0.335405,-0.685443,-0.350050,-0.650088,-0.350050,0.649935,-0.335405,0.685290,-0.300050,0.699935,-0.000445,0.699935,-0.000076,0.700088,0.299923,0.700088,0.335278,0.685443,0.335278,0.685443,$1*%
%AMFreePoly1*
4,1,17,0.335431,0.685290,0.350076,0.649935,0.350076,-0.650037,0.335431,-0.685392,0.300076,-0.700037,0.000187,-0.700037,0.000127,-0.700062,-0.299898,-0.700062,-0.335253,-0.685417,-0.349898,-0.650062,-0.349898,0.649910,-0.335253,0.685265,-0.299898,0.699910,-0.000009,0.699910,0.000051,0.699935,0.300076,0.699935,0.335431,0.685290,0.335431,0.685290,$1*%
%AMFreePoly2*
4,1,13,0.335227,0.685443,0.349872,0.650088,0.349872,-0.649884,0.335227,-0.685239,0.299872,-0.699884,-0.300152,-0.699884,-0.335507,-0.685239,-0.350152,-0.649884,-0.350152,0.650088,-0.335507,0.685443,-0.300152,0.700088,0.299872,0.700088,0.335227,0.685443,0.335227,0.685443,$1*%
%AMFreePoly3*
4,1,36,0.060552,0.520444,0.075197,0.485089,0.075197,-0.034988,0.225031,-0.034988,0.225031,0.485089,0.239676,0.520444,0.275031,0.535089,0.525069,0.535089,0.560424,0.520444,0.575069,0.485089,0.575069,-0.034988,0.725183,-0.034988,0.725183,0.485089,0.739828,0.520444,0.775183,0.535089,1.025195,0.535089,1.060550,0.520444,1.075195,0.485089,1.075195,-0.045430,1.085340,-0.049633,
1.099985,-0.084988,1.099985,-0.484988,1.085340,-0.520343,1.049985,-0.534988,-1.049985,-0.534988,-1.085340,-0.520343,-1.099985,-0.484988,-1.099985,-0.084988,-1.085340,-0.049633,-1.049985,-0.034988,-0.274815,-0.034988,-0.274815,0.485089,-0.260170,0.520444,-0.224815,0.535089,0.025197,0.535089,0.060552,0.520444,0.060552,0.520444,$1*%
G04 Aperture macros list end*
%ADD10R,2.000000X2.400000*%
%ADD11R,2.400000X1.380000*%
%ADD12R,0.200000X0.840000*%
%ADD13R,0.200000X1.000000*%
%ADD14R,1.800000X1.200000*%
%ADD15R,1.550000X0.600000*%
%ADD16R,0.864000X0.806000*%
%ADD17R,0.200000X0.700000*%
%ADD18R,0.500000X0.540000*%
%ADD19R,0.800000X0.900000*%
%ADD20R,1.524000X0.762000*%
%ADD21FreePoly0,270.000000*%
%ADD22FreePoly1,270.000000*%
%ADD23R,1.300000X0.300000*%
%ADD24FreePoly2,270.000000*%
%ADD25R,0.900000X0.800000*%
%ADD26R,1.410000X1.350000*%
%ADD27R,0.806000X0.864000*%
%ADD28O,1.747000X0.343000*%
%ADD29C,0.600000*%
%ADD30R,2.460000X3.550000*%
%ADD31R,0.800000X0.800000*%
%ADD32R,2.600000X5.400000*%
%ADD33R,1.728000X1.485000*%
%ADD34R,1.350000X1.410000*%
%ADD35R,1.600000X2.200000*%
%ADD36R,1.000000X3.000000*%
%ADD37R,1.100000X2.300000*%
%ADD38R,2.000000X2.000000*%
%ADD39R,0.532000X1.072000*%
%ADD40R,4.000000X1.500000*%
%ADD41R,1.283000X3.456000*%
%ADD42R,1.000000X3.800000*%
%ADD43R,3.260000X1.150000*%
%ADD44R,0.700000X1.100000*%
%ADD45R,5.300000X2.000000*%
%ADD46O,0.343000X1.731000*%
%ADD47R,1.377000X1.133000*%
%ADD48R,0.500000X0.280000*%
%ADD49R,0.280000X0.500000*%
%ADD50RoundRect,0.050000X-0.475000X-0.100000X0.475000X-0.100000X0.475000X0.100000X-0.475000X0.100000X0*%
%ADD51RoundRect,0.060000X0.090000X-0.340000X0.090000X0.340000X-0.090000X0.340000X-0.090000X-0.340000X0*%
%ADD52R,0.600000X0.200000*%
%ADD53RoundRect,0.075000X0.425000X0.075000X-0.425000X0.075000X-0.425000X-0.075000X0.425000X-0.075000X0*%
%ADD54RoundRect,0.075000X-0.075000X0.325000X-0.075000X-0.325000X0.075000X-0.325000X0.075000X0.325000X0*%
%ADD55R,0.200000X0.600000*%
%ADD56RoundRect,0.075000X0.075000X-0.325000X0.075000X0.325000X-0.075000X0.325000X-0.075000X-0.325000X0*%
%ADD57RoundRect,0.075000X-0.425000X-0.075000X0.425000X-0.075000X0.425000X0.075000X-0.425000X0.075000X0*%
%ADD58R,0.700000X0.200000*%
%ADD59R,0.650000X0.200000*%
%ADD60R,0.680000X0.200000*%
%ADD61RoundRect,0.075000X-0.450000X-0.075000X0.450000X-0.075000X0.450000X0.075000X-0.450000X0.075000X0*%
%ADD62R,0.220000X1.000000*%
%ADD63R,0.220000X0.950000*%
%ADD64R,0.300000X1.300000*%
%ADD65R,0.250000X0.600000*%
%ADD66R,0.600000X0.250000*%
%ADD67R,1.500000X1.500000*%
%ADD68R,0.540000X0.500000*%
%ADD69R,0.600000X1.100000*%
%ADD70R,1.700000X0.250000*%
%ADD71FreePoly3,0.000000*%
%ADD72R,2.100000X0.400000*%
%ADD73R,0.900000X1.500000*%
%ADD74R,1.500000X0.900000*%
%ADD75R,0.900000X0.900000*%
%ADD76R,0.600000X1.070000*%
%ADD77R,2.200000X0.800000*%
%ADD78R,2.500000X2.350000*%
%ADD79R,1.100000X0.700000*%
%ADD80R,0.780000X1.050000*%
%ADD81R,3.330000X0.700000*%
%ADD82R,1.830000X1.140000*%
%ADD83R,2.800000X0.860000*%
G04 APERTURE END LIST*
D10*
%TO.C,D3*%
X129180000Y-140230000D03*
X124380000Y-140230000D03*
%TD*%
D11*
%TO.C,USB3*%
X97650000Y-51285000D03*
X104550000Y-51285000D03*
D12*
X102900000Y-52685000D03*
D13*
X102700000Y-51465000D03*
D12*
X102500000Y-52685000D03*
D13*
X102300000Y-51465000D03*
D12*
X102100000Y-52685000D03*
D13*
X101900000Y-51465000D03*
D12*
X101700000Y-52685000D03*
D13*
X101500000Y-51465000D03*
D12*
X101300000Y-52685000D03*
D13*
X101100000Y-51465000D03*
D12*
X100900000Y-52685000D03*
D13*
X100700000Y-51465000D03*
D12*
X100500000Y-52685000D03*
D13*
X100300000Y-51465000D03*
D12*
X100100000Y-52685000D03*
D13*
X99900000Y-51465000D03*
D12*
X99700000Y-52685000D03*
D13*
X99500000Y-51465000D03*
D12*
X99300000Y-52685000D03*
%TD*%
D14*
%TO.C,CN10*%
X135947500Y-94800000D03*
X135947500Y-100400000D03*
D15*
X133427500Y-96100000D03*
X133427500Y-97100000D03*
X133427500Y-98100000D03*
X133427500Y-99100000D03*
%TD*%
D16*
%TO.C,R7*%
X120020000Y-52890000D03*
X120020000Y-54390000D03*
%TD*%
D17*
%TO.C,CN5*%
X91970000Y-69910000D03*
X91970000Y-66830000D03*
X92370000Y-69910000D03*
X92370000Y-66830000D03*
X92770000Y-69910000D03*
X92770000Y-66830000D03*
X93170000Y-69910000D03*
X93170000Y-66830000D03*
X93570000Y-69910000D03*
X93570000Y-66830000D03*
X93970000Y-69910000D03*
X93970000Y-66830000D03*
X94370000Y-69910000D03*
X94370000Y-66830000D03*
X94770000Y-69910000D03*
X94770000Y-66830000D03*
X95170000Y-69910000D03*
X95170000Y-66830000D03*
X95570000Y-69910000D03*
X95570000Y-66830000D03*
X95970000Y-69910000D03*
X95970000Y-66830000D03*
X96370000Y-69910000D03*
X96370000Y-66830000D03*
X96770000Y-69910000D03*
X96770000Y-66830000D03*
X97170000Y-69910000D03*
X97170000Y-66830000D03*
X97570000Y-69910000D03*
X97570000Y-66830000D03*
X97970000Y-69910000D03*
X97970000Y-66830000D03*
X98370000Y-69910000D03*
X98370000Y-66830000D03*
X98770000Y-69910000D03*
X98770000Y-66830000D03*
X99170000Y-69910000D03*
X99170000Y-66830000D03*
X99570000Y-69910000D03*
X99570000Y-66830000D03*
X99970000Y-69910000D03*
X99970000Y-66830000D03*
X100370000Y-69910000D03*
X100370000Y-66830000D03*
X100770000Y-69910000D03*
X100770000Y-66830000D03*
X101170000Y-69910000D03*
X101170000Y-66830000D03*
X101570000Y-69910000D03*
X101570000Y-66830000D03*
X101970000Y-69910000D03*
X101970000Y-66830000D03*
X102370000Y-69910000D03*
X102370000Y-66830000D03*
X102770000Y-69910000D03*
X102770000Y-66830000D03*
X103170000Y-69910000D03*
X103170000Y-66830000D03*
X103570000Y-69910000D03*
X103570000Y-66830000D03*
X103970000Y-69910000D03*
X103970000Y-66830000D03*
X104370000Y-69910000D03*
X104370000Y-66830000D03*
X104770000Y-69910000D03*
X104770000Y-66830000D03*
X105170000Y-69910000D03*
X105170000Y-66830000D03*
X105570000Y-69910000D03*
X105570000Y-66830000D03*
X105970000Y-69910000D03*
X105970000Y-66830000D03*
X106370000Y-69910000D03*
X106370000Y-66830000D03*
X106770000Y-69910000D03*
X106770000Y-66830000D03*
X107170000Y-69910000D03*
X107170000Y-66830000D03*
X107570000Y-69910000D03*
X107570000Y-66830000D03*
X107970000Y-69910000D03*
X107970000Y-66830000D03*
X108370000Y-69910000D03*
X108370000Y-66830000D03*
X108770000Y-69910000D03*
X108770000Y-66830000D03*
X109170000Y-69910000D03*
X109170000Y-66830000D03*
X109570000Y-69910000D03*
X109570000Y-66830000D03*
X109970000Y-69910000D03*
X109970000Y-66830000D03*
X110370000Y-69910000D03*
X110370000Y-66830000D03*
X110770000Y-69910000D03*
X110770000Y-66830000D03*
X111170000Y-69910000D03*
X111170000Y-66830000D03*
X111570000Y-69910000D03*
X111570000Y-66830000D03*
%TD*%
D18*
%TO.C,C13*%
X106470000Y-134090000D03*
X107310000Y-134090000D03*
%TD*%
D19*
%TO.C,C58*%
X134250000Y-131525000D03*
X132850000Y-131525000D03*
%TD*%
D20*
%TO.C,U1*%
X137010000Y-84720000D03*
X137010000Y-83450000D03*
X137010000Y-82180000D03*
X137010000Y-80910000D03*
X137010000Y-79640000D03*
X129390000Y-79640000D03*
X129390000Y-80910000D03*
X129390000Y-82180000D03*
X129390000Y-83450000D03*
X129390000Y-84720000D03*
%TD*%
D21*
%TO.C,USBC2*%
X66517456Y-134975000D03*
D22*
X66517456Y-135775000D03*
D23*
X66517456Y-136925000D03*
X66517456Y-137925000D03*
X66517456Y-138425000D03*
X66517456Y-139425000D03*
D24*
X66517456Y-141375000D03*
X66517456Y-140575000D03*
D23*
X66517456Y-139925000D03*
X66517456Y-138925000D03*
X66517456Y-137425000D03*
X66517456Y-136425000D03*
%TD*%
D16*
%TO.C,R59*%
X91000000Y-141650000D03*
X91000000Y-140150000D03*
%TD*%
D25*
%TO.C,C2*%
X105990000Y-58130000D03*
X105990000Y-56730000D03*
%TD*%
D26*
%TO.C,C43*%
X134075000Y-120125000D03*
X136075000Y-120125000D03*
%TD*%
D27*
%TO.C,R11*%
X125925000Y-136775000D03*
X124425000Y-136775000D03*
%TD*%
%TO.C,R39*%
X116700000Y-117525000D03*
X118200000Y-117525000D03*
%TD*%
D28*
%TO.C,U10*%
X76030000Y-133320000D03*
X76030000Y-133970000D03*
X76030000Y-134620000D03*
X76030000Y-135280000D03*
X76030000Y-135930000D03*
X76030000Y-136580000D03*
X76030000Y-137230000D03*
X76030000Y-137880000D03*
X81770000Y-137880000D03*
X81770000Y-137230000D03*
X81770000Y-136580000D03*
X81770000Y-135930000D03*
D29*
X79400000Y-135100000D03*
X78400000Y-135100000D03*
D28*
X81770000Y-135280000D03*
D29*
X79400000Y-136100000D03*
X78400000Y-136100000D03*
D28*
X81770000Y-134620000D03*
X81770000Y-133970000D03*
X81770000Y-133320000D03*
D30*
X78900000Y-135600000D03*
%TD*%
D31*
%TO.C,LED2*%
X91297500Y-136000000D03*
X89797500Y-136000000D03*
%TD*%
D32*
%TO.C,U6*%
X136110000Y-125710000D03*
X128870000Y-125710000D03*
%TD*%
D27*
%TO.C,R36*%
X111195000Y-128155000D03*
X109695000Y-128155000D03*
%TD*%
D19*
%TO.C,C6*%
X107497500Y-128360000D03*
X106097500Y-128360000D03*
%TD*%
D27*
%TO.C,R70*%
X95045000Y-109100000D03*
X96545000Y-109100000D03*
%TD*%
%TO.C,R61*%
X128170000Y-102370000D03*
X129670000Y-102370000D03*
%TD*%
D19*
%TO.C,C48*%
X96927500Y-138010000D03*
X98327500Y-138010000D03*
%TD*%
D33*
%TO.C,C11*%
X86530000Y-136570000D03*
X86530000Y-133390000D03*
%TD*%
D27*
%TO.C,R68*%
X78920000Y-130200000D03*
X80420000Y-130200000D03*
%TD*%
D26*
%TO.C,C60*%
X115617500Y-137010000D03*
X113617500Y-137010000D03*
%TD*%
D19*
%TO.C,C45*%
X127125000Y-131925000D03*
X125725000Y-131925000D03*
%TD*%
D26*
%TO.C,C16*%
X96337500Y-136310000D03*
X98337500Y-136310000D03*
%TD*%
%TO.C,C29*%
X134075000Y-115800000D03*
X136075000Y-115800000D03*
%TD*%
D34*
%TO.C,C24*%
X106275000Y-130175000D03*
X106275000Y-132175000D03*
%TD*%
D27*
%TO.C,R65*%
X85075000Y-138775000D03*
X83575000Y-138775000D03*
%TD*%
D13*
%TO.C,FPC1*%
X85400000Y-51110000D03*
X84900000Y-51110000D03*
X84400000Y-51110000D03*
X83900000Y-51110000D03*
X83400000Y-51110000D03*
X82900000Y-51110000D03*
X82400000Y-51110000D03*
X81900000Y-51110000D03*
X81400000Y-51110000D03*
X80900000Y-51110000D03*
X80400000Y-51110000D03*
X79900000Y-51110000D03*
X79400000Y-51110000D03*
X78900000Y-51110000D03*
X78400000Y-51110000D03*
X77900000Y-51110000D03*
X77400000Y-51110000D03*
X76900000Y-51110000D03*
X76400000Y-51110000D03*
X75900000Y-51110000D03*
X75400000Y-51110000D03*
X74900000Y-51110000D03*
D35*
X72850000Y-48090000D03*
X87450000Y-48090000D03*
%TD*%
D27*
%TO.C,R15*%
X104250000Y-124000000D03*
X105750000Y-124000000D03*
%TD*%
D36*
%TO.C,FPC3*%
X68125000Y-144237500D03*
X69625000Y-144237500D03*
X71125000Y-144237500D03*
X72625000Y-144237500D03*
X74125000Y-144237500D03*
X75625000Y-144237500D03*
D37*
X77575000Y-147697500D03*
X66175000Y-147697500D03*
%TD*%
D38*
%TO.C,D2*%
X99127500Y-140520000D03*
X94727500Y-140520000D03*
%TD*%
D26*
%TO.C,C57*%
X132500000Y-133900000D03*
X134500000Y-133900000D03*
%TD*%
D16*
%TO.C,R23*%
X91575000Y-131300000D03*
X91575000Y-132800000D03*
%TD*%
D39*
%TO.C,U16*%
X120097500Y-119925000D03*
X119147500Y-119925000D03*
X118197500Y-119925000D03*
X118197500Y-122225000D03*
X119147500Y-122225000D03*
X120097500Y-122225000D03*
%TD*%
D19*
%TO.C,C9*%
X68200000Y-105625000D03*
X66800000Y-105625000D03*
%TD*%
D40*
%TO.C,L3*%
X124500000Y-120625000D03*
X124500000Y-117025000D03*
%TD*%
D27*
%TO.C,R9*%
X135040000Y-90760000D03*
X133540000Y-90760000D03*
%TD*%
%TO.C,R76*%
X64620000Y-85060000D03*
X66120000Y-85060000D03*
%TD*%
D25*
%TO.C,C31*%
X123900000Y-124125000D03*
X123900000Y-125525000D03*
%TD*%
D34*
%TO.C,C36*%
X100162500Y-130650000D03*
X100162500Y-132650000D03*
%TD*%
D41*
%TO.C,R17*%
X109377500Y-139820000D03*
X115517500Y-139820000D03*
%TD*%
D42*
%TO.C,L1*%
X104447500Y-129770000D03*
X102047500Y-129770000D03*
%TD*%
D36*
%TO.C,FPC4*%
X81087500Y-144147500D03*
X82587500Y-144147500D03*
X84087500Y-144147500D03*
X85587500Y-144147500D03*
X87087500Y-144147500D03*
X88587500Y-144147500D03*
D37*
X90537500Y-147607500D03*
X79137500Y-147607500D03*
%TD*%
D43*
%TO.C,C3*%
X115700000Y-109395000D03*
X120800000Y-109395000D03*
%TD*%
D34*
%TO.C,C37*%
X98262500Y-130650000D03*
X98262500Y-132650000D03*
%TD*%
D19*
%TO.C,C5*%
X100697500Y-128400000D03*
X99297500Y-128400000D03*
%TD*%
D44*
%TO.C,U12*%
X130360000Y-68220000D03*
X129410000Y-68220000D03*
X128460000Y-68220000D03*
X128460000Y-70800000D03*
X130360000Y-70800000D03*
%TD*%
D45*
%TO.C,F2*%
X103677500Y-148120000D03*
X103677500Y-141520000D03*
%TD*%
D26*
%TO.C,C47*%
X110905000Y-113465000D03*
X108905000Y-113465000D03*
%TD*%
D46*
%TO.C,U21*%
X91582500Y-114805000D03*
X90932500Y-114805000D03*
X90282500Y-114805000D03*
X89622500Y-114805000D03*
X88972500Y-114805000D03*
X88322500Y-114805000D03*
X87672500Y-114805000D03*
X87022500Y-114805000D03*
X87022500Y-120545000D03*
X87672500Y-120545000D03*
X88322500Y-120545000D03*
X88972500Y-120545000D03*
X89622500Y-120545000D03*
X90282500Y-120545000D03*
X90932500Y-120545000D03*
X91582500Y-120545000D03*
%TD*%
D27*
%TO.C,R62*%
X83300000Y-115320000D03*
X84800000Y-115320000D03*
%TD*%
D34*
%TO.C,C38*%
X96387500Y-130650000D03*
X96387500Y-132650000D03*
%TD*%
D16*
%TO.C,R37*%
X121600000Y-132790000D03*
X121600000Y-131290000D03*
%TD*%
D27*
%TO.C,R30*%
X94725000Y-127325000D03*
X96225000Y-127325000D03*
%TD*%
D26*
%TO.C,C26*%
X122125000Y-124135000D03*
X120125000Y-124135000D03*
%TD*%
D19*
%TO.C,C30*%
X110075000Y-122350000D03*
X108675000Y-122350000D03*
%TD*%
D47*
%TO.C,L2*%
X68400000Y-75515000D03*
X68400000Y-73575000D03*
%TD*%
D16*
%TO.C,R42*%
X85400000Y-125010000D03*
X85400000Y-126510000D03*
%TD*%
D27*
%TO.C,R77*%
X64640000Y-83500000D03*
X66140000Y-83500000D03*
%TD*%
D16*
%TO.C,R32*%
X117477500Y-136480000D03*
X117477500Y-134980000D03*
%TD*%
D27*
%TO.C,R21*%
X100300000Y-120200000D03*
X101800000Y-120200000D03*
%TD*%
D48*
%TO.C,U8*%
X61980000Y-104650000D03*
X61980000Y-105150000D03*
X61980000Y-105650000D03*
X61980000Y-106150000D03*
D49*
X62650000Y-106330000D03*
X63150000Y-106330000D03*
X63650000Y-106330000D03*
D48*
X64320000Y-106150000D03*
X64320000Y-105650000D03*
X64320000Y-105150000D03*
X64320000Y-104650000D03*
D49*
X63650000Y-104470000D03*
X63150000Y-104470000D03*
X62650000Y-104470000D03*
%TD*%
D34*
%TO.C,C27*%
X119500000Y-128230000D03*
X119500000Y-126230000D03*
%TD*%
D26*
%TO.C,C55*%
X109325000Y-135275000D03*
X107325000Y-135275000D03*
%TD*%
D27*
%TO.C,R52*%
X66090000Y-89840000D03*
X64590000Y-89840000D03*
%TD*%
%TO.C,R26*%
X128560000Y-72680000D03*
X130060000Y-72680000D03*
%TD*%
D50*
%TO.C,U3*%
X101897500Y-134570000D03*
D51*
X102277500Y-134320000D03*
D52*
X101717500Y-134970000D03*
X101717500Y-135370000D03*
X101717500Y-135770000D03*
X101717500Y-136170000D03*
X101717500Y-136570000D03*
X101717500Y-136970000D03*
X101717500Y-137370000D03*
D53*
X101867500Y-137770000D03*
D54*
X102217500Y-138020000D03*
D55*
X102667500Y-138070000D03*
X103067500Y-138070000D03*
X103467500Y-138070000D03*
X103867500Y-138070000D03*
X104267500Y-138070000D03*
X104667500Y-138070000D03*
D56*
X105117500Y-138020000D03*
D57*
X105467500Y-137770000D03*
D58*
X105567500Y-137370000D03*
D59*
X105587500Y-136970000D03*
D60*
X105577500Y-136570000D03*
D52*
X105617500Y-136170000D03*
X105617500Y-135770000D03*
X105617500Y-135370000D03*
X105617500Y-134970000D03*
D56*
X105067500Y-134320000D03*
D61*
X105447500Y-134570000D03*
D62*
X104567500Y-134470000D03*
X104117500Y-134470000D03*
X103667500Y-134470000D03*
X103217500Y-134470000D03*
D63*
X102767500Y-134440000D03*
%TD*%
D34*
%TO.C,C22*%
X111840000Y-130055000D03*
X111840000Y-132055000D03*
%TD*%
D19*
%TO.C,C51*%
X115867500Y-133680000D03*
X114467500Y-133680000D03*
%TD*%
D64*
%TO.C,U4*%
X115925000Y-126280000D03*
X115425000Y-126280000D03*
X114925000Y-126280000D03*
X114425000Y-126280000D03*
X113925000Y-126280000D03*
X113925000Y-130980000D03*
X114425000Y-130980000D03*
X114925000Y-130980000D03*
X115425000Y-130980000D03*
X115925000Y-130980000D03*
%TD*%
D26*
%TO.C,C15*%
X96957500Y-134450000D03*
X98957500Y-134450000D03*
%TD*%
D65*
%TO.C,U20*%
X68925000Y-65350000D03*
X68425000Y-65350000D03*
X67925000Y-65350000D03*
X67425000Y-65350000D03*
D66*
X66675000Y-66100000D03*
X66675000Y-66600000D03*
X66675000Y-67100000D03*
X66675000Y-67600000D03*
D65*
X67425000Y-68350000D03*
X67925000Y-68350000D03*
X68425000Y-68350000D03*
X68925000Y-68350000D03*
D66*
X69675000Y-67600000D03*
X69675000Y-67100000D03*
X69675000Y-66600000D03*
X69675000Y-66100000D03*
D67*
X68175000Y-66850000D03*
%TD*%
D27*
%TO.C,R51*%
X66110000Y-91490000D03*
X64610000Y-91490000D03*
%TD*%
%TO.C,R33*%
X83290000Y-113640000D03*
X84790000Y-113640000D03*
%TD*%
D34*
%TO.C,C18*%
X65435000Y-76615000D03*
X65435000Y-78615000D03*
%TD*%
D25*
%TO.C,C8*%
X119490000Y-135875000D03*
X119490000Y-134475000D03*
%TD*%
D27*
%TO.C,R41*%
X100700000Y-126550000D03*
X99200000Y-126550000D03*
%TD*%
D25*
%TO.C,C1*%
X107890000Y-56780000D03*
X107890000Y-58180000D03*
%TD*%
%TO.C,C42*%
X126080000Y-126320000D03*
X126080000Y-124920000D03*
%TD*%
D27*
%TO.C,R20*%
X100330000Y-123800000D03*
X101830000Y-123800000D03*
%TD*%
D17*
%TO.C,CN4*%
X91970000Y-103910000D03*
X91970000Y-100830000D03*
X92370000Y-103910000D03*
X92370000Y-100830000D03*
X92770000Y-103910000D03*
X92770000Y-100830000D03*
X93170000Y-103910000D03*
X93170000Y-100830000D03*
X93570000Y-103910000D03*
X93570000Y-100830000D03*
X93970000Y-103910000D03*
X93970000Y-100830000D03*
X94370000Y-103910000D03*
X94370000Y-100830000D03*
X94770000Y-103910000D03*
X94770000Y-100830000D03*
X95170000Y-103910000D03*
X95170000Y-100830000D03*
X95570000Y-103910000D03*
X95570000Y-100830000D03*
X95970000Y-103910000D03*
X95970000Y-100830000D03*
X96370000Y-103910000D03*
X96370000Y-100830000D03*
X96770000Y-103910000D03*
X96770000Y-100830000D03*
X97170000Y-103910000D03*
X97170000Y-100830000D03*
X97570000Y-103910000D03*
X97570000Y-100830000D03*
X97970000Y-103910000D03*
X97970000Y-100830000D03*
X98370000Y-103910000D03*
X98370000Y-100830000D03*
X98770000Y-103910000D03*
X98770000Y-100830000D03*
X99170000Y-103910000D03*
X99170000Y-100830000D03*
X99570000Y-103910000D03*
X99570000Y-100830000D03*
X99970000Y-103910000D03*
X99970000Y-100830000D03*
X100370000Y-103910000D03*
X100370000Y-100830000D03*
X100770000Y-103910000D03*
X100770000Y-100830000D03*
X101170000Y-103910000D03*
X101170000Y-100830000D03*
X101570000Y-103910000D03*
X101570000Y-100830000D03*
X101970000Y-103910000D03*
X101970000Y-100830000D03*
X102370000Y-103910000D03*
X102370000Y-100830000D03*
X102770000Y-103910000D03*
X102770000Y-100830000D03*
X103170000Y-103910000D03*
X103170000Y-100830000D03*
X103570000Y-103910000D03*
X103570000Y-100830000D03*
X103970000Y-103910000D03*
X103970000Y-100830000D03*
X104370000Y-103910000D03*
X104370000Y-100830000D03*
X104770000Y-103910000D03*
X104770000Y-100830000D03*
X105170000Y-103910000D03*
X105170000Y-100830000D03*
X105570000Y-103910000D03*
X105570000Y-100830000D03*
X105970000Y-103910000D03*
X105970000Y-100830000D03*
X106370000Y-103910000D03*
X106370000Y-100830000D03*
X106770000Y-103910000D03*
X106770000Y-100830000D03*
X107170000Y-103910000D03*
X107170000Y-100830000D03*
X107570000Y-103910000D03*
X107570000Y-100830000D03*
X107970000Y-103910000D03*
X107970000Y-100830000D03*
X108370000Y-103910000D03*
X108370000Y-100830000D03*
X108770000Y-103910000D03*
X108770000Y-100830000D03*
X109170000Y-103910000D03*
X109170000Y-100830000D03*
X109570000Y-103910000D03*
X109570000Y-100830000D03*
X109970000Y-103910000D03*
X109970000Y-100830000D03*
X110370000Y-103910000D03*
X110370000Y-100830000D03*
X110770000Y-103910000D03*
X110770000Y-100830000D03*
X111170000Y-103910000D03*
X111170000Y-100830000D03*
X111570000Y-103910000D03*
X111570000Y-100830000D03*
%TD*%
D68*
%TO.C,C17*%
X102087500Y-132390000D03*
X102087500Y-133230000D03*
%TD*%
D16*
%TO.C,R56*%
X94087500Y-132960000D03*
X94087500Y-131460000D03*
%TD*%
D27*
%TO.C,R69*%
X91035000Y-107465000D03*
X92535000Y-107465000D03*
%TD*%
D16*
%TO.C,R34*%
X81995000Y-111295000D03*
X81995000Y-109795000D03*
%TD*%
D27*
%TO.C,R1*%
X91347500Y-137860000D03*
X89847500Y-137860000D03*
%TD*%
D16*
%TO.C,R48*%
X97785000Y-147710000D03*
X97785000Y-146210000D03*
%TD*%
D69*
%TO.C,U9*%
X93180000Y-109440000D03*
X92230000Y-109440000D03*
X91280000Y-109440000D03*
X91280000Y-112040000D03*
X93180000Y-112040000D03*
%TD*%
D26*
%TO.C,C14*%
X122450000Y-114850000D03*
X124450000Y-114850000D03*
%TD*%
D27*
%TO.C,R66*%
X88150000Y-138425000D03*
X86650000Y-138425000D03*
%TD*%
%TO.C,R58*%
X100325000Y-121825000D03*
X101825000Y-121825000D03*
%TD*%
%TO.C,R40*%
X102975000Y-115850000D03*
X104475000Y-115850000D03*
%TD*%
D19*
%TO.C,C56*%
X107620000Y-136490000D03*
X109020000Y-136490000D03*
%TD*%
D45*
%TO.C,F1*%
X119857500Y-148120000D03*
X119857500Y-141520000D03*
%TD*%
D16*
%TO.C,R38*%
X124425000Y-132875000D03*
X124425000Y-131375000D03*
%TD*%
D68*
%TO.C,C4*%
X105050000Y-132360000D03*
X105050000Y-133200000D03*
%TD*%
D16*
%TO.C,R44*%
X65025000Y-145300000D03*
X65025000Y-143800000D03*
%TD*%
D27*
%TO.C,R72*%
X115550000Y-122225000D03*
X114050000Y-122225000D03*
%TD*%
D34*
%TO.C,C23*%
X108100000Y-130175000D03*
X108100000Y-132175000D03*
%TD*%
%TO.C,C20*%
X110007500Y-130175000D03*
X110007500Y-132175000D03*
%TD*%
D16*
%TO.C,R55*%
X114700000Y-120450000D03*
X114700000Y-118950000D03*
%TD*%
%TO.C,R6*%
X121810000Y-52900000D03*
X121810000Y-54400000D03*
%TD*%
D27*
%TO.C,R63*%
X80110000Y-123780000D03*
X81610000Y-123780000D03*
%TD*%
D39*
%TO.C,U17*%
X106397500Y-117900000D03*
X105447500Y-117900000D03*
X104497500Y-117900000D03*
X104497500Y-120200000D03*
X105447500Y-120200000D03*
X106397500Y-120200000D03*
%TD*%
D31*
%TO.C,LED5*%
X126675000Y-104515000D03*
X128175000Y-104515000D03*
%TD*%
D27*
%TO.C,R19*%
X120775000Y-130175000D03*
X119275000Y-130175000D03*
%TD*%
D26*
%TO.C,C44*%
X134085000Y-117960000D03*
X136085000Y-117960000D03*
%TD*%
D65*
%TO.C,U5*%
X123930000Y-130150000D03*
X124430000Y-130150000D03*
X124930000Y-130150000D03*
X125430000Y-130150000D03*
D66*
X126080000Y-129680000D03*
D70*
X125530000Y-128380000D03*
D66*
X126080000Y-127880000D03*
D71*
X124030000Y-127510000D03*
D72*
X124030000Y-128960000D03*
D66*
X123280000Y-129680000D03*
%TD*%
D16*
%TO.C,R8*%
X128870000Y-101230000D03*
X128870000Y-99730000D03*
%TD*%
D31*
%TO.C,LED3*%
X128145000Y-98575000D03*
X129645000Y-98575000D03*
%TD*%
D19*
%TO.C,C34*%
X121325000Y-117775000D03*
X119925000Y-117775000D03*
%TD*%
D25*
%TO.C,C7*%
X59775000Y-104650000D03*
X59775000Y-106050000D03*
%TD*%
D27*
%TO.C,R57*%
X77460000Y-131905000D03*
X78960000Y-131905000D03*
%TD*%
%TO.C,R43*%
X69975000Y-134375000D03*
X68475000Y-134375000D03*
%TD*%
D16*
%TO.C,R22*%
X118090000Y-54410000D03*
X118090000Y-52910000D03*
%TD*%
%TO.C,R46*%
X122935000Y-131365000D03*
X122935000Y-132865000D03*
%TD*%
D27*
%TO.C,R54*%
X66110000Y-86610000D03*
X64610000Y-86610000D03*
%TD*%
%TO.C,R60*%
X96530000Y-107370000D03*
X95030000Y-107370000D03*
%TD*%
D73*
%TO.C,U7*%
X60130000Y-126050000D03*
X61400000Y-126050000D03*
X62670000Y-126050000D03*
X63940000Y-126050000D03*
X65210000Y-126050000D03*
X66480000Y-126050000D03*
X67750000Y-126050000D03*
X69020000Y-126050000D03*
X70290000Y-126050000D03*
X71560000Y-126050000D03*
X72830000Y-126050000D03*
X74100000Y-126050000D03*
X75370000Y-126050000D03*
X76640000Y-126050000D03*
D74*
X77910000Y-124290000D03*
X77910000Y-123020000D03*
X77910000Y-121750000D03*
X77910000Y-120470000D03*
X77910000Y-119200000D03*
X77910000Y-117930000D03*
X77910000Y-116660000D03*
X77910000Y-115390000D03*
X77910000Y-114120000D03*
X77910000Y-112850000D03*
X77910000Y-111580000D03*
X77880000Y-110310000D03*
D73*
X76640000Y-108550000D03*
X75370000Y-108550000D03*
X74100000Y-108550000D03*
X72830000Y-108550000D03*
X71560000Y-108550000D03*
X70290000Y-108550000D03*
X69020000Y-108550000D03*
X67750000Y-108550000D03*
X66480000Y-108550000D03*
X65210000Y-108550000D03*
X63940000Y-108550000D03*
X62670000Y-108550000D03*
X61400000Y-108550000D03*
X60130000Y-108550000D03*
D75*
X66450000Y-120200000D03*
X67850000Y-120200000D03*
X69250000Y-120200000D03*
X66450000Y-118800000D03*
X67850000Y-118800000D03*
X69250000Y-118800000D03*
X66450000Y-117400000D03*
X67850000Y-117400000D03*
X69250000Y-117400000D03*
%TD*%
D27*
%TO.C,R35*%
X104250000Y-125725000D03*
X105750000Y-125725000D03*
%TD*%
%TO.C,R78*%
X64640000Y-81860000D03*
X66140000Y-81860000D03*
%TD*%
D26*
%TO.C,C46*%
X110150000Y-125875000D03*
X108150000Y-125875000D03*
%TD*%
D25*
%TO.C,C40*%
X130650000Y-132350000D03*
X130650000Y-130950000D03*
%TD*%
D27*
%TO.C,R45*%
X99465000Y-144275000D03*
X97965000Y-144275000D03*
%TD*%
D25*
%TO.C,C50*%
X95510000Y-146155000D03*
X95510000Y-147555000D03*
%TD*%
D34*
%TO.C,C49*%
X117675000Y-125575000D03*
X117675000Y-127575000D03*
%TD*%
D27*
%TO.C,R50*%
X67800000Y-64050000D03*
X69300000Y-64050000D03*
%TD*%
D76*
%TO.C,U11*%
X105985000Y-55395000D03*
X107885000Y-55395000D03*
X106935000Y-52915000D03*
%TD*%
D16*
%TO.C,R25*%
X128590000Y-132370000D03*
X128590000Y-130870000D03*
%TD*%
D26*
%TO.C,C59*%
X113627500Y-135210000D03*
X115627500Y-135210000D03*
%TD*%
%TO.C,C52*%
X135910000Y-68220000D03*
X133910000Y-68220000D03*
%TD*%
D27*
%TO.C,R49*%
X67800000Y-62600000D03*
X69300000Y-62600000D03*
%TD*%
D19*
%TO.C,C41*%
X116950000Y-132100000D03*
X118350000Y-132100000D03*
%TD*%
D27*
%TO.C,R14*%
X102975000Y-114100000D03*
X104475000Y-114100000D03*
%TD*%
D13*
%TO.C,FPC2*%
X120290000Y-51110000D03*
X119790000Y-51110000D03*
X119290000Y-51110000D03*
X118790000Y-51110000D03*
X118290000Y-51110000D03*
X117790000Y-51110000D03*
X117290000Y-51110000D03*
X116790000Y-51110000D03*
X116290000Y-51110000D03*
X115790000Y-51110000D03*
X115290000Y-51110000D03*
X114790000Y-51110000D03*
X114290000Y-51110000D03*
X113790000Y-51110000D03*
X113290000Y-51110000D03*
X112790000Y-51110000D03*
X112290000Y-51110000D03*
X111790000Y-51110000D03*
X111290000Y-51110000D03*
X110790000Y-51110000D03*
X110290000Y-51110000D03*
X109790000Y-51110000D03*
D35*
X107740000Y-48090000D03*
X122340000Y-48090000D03*
%TD*%
D77*
%TO.C,CN6*%
X63700000Y-59750000D03*
X63700000Y-60990000D03*
X63700000Y-62250000D03*
X63700000Y-63500000D03*
X63700000Y-64750000D03*
X63700000Y-66000000D03*
D78*
X61100000Y-68380000D03*
X61100000Y-57360000D03*
%TD*%
D79*
%TO.C,Card1*%
X136460000Y-55873000D03*
X136460000Y-56973000D03*
X136460000Y-58073000D03*
X136460000Y-59173000D03*
X136460000Y-60273000D03*
X136460000Y-61373000D03*
X136460000Y-62473000D03*
X136460000Y-63573000D03*
D80*
X123920000Y-58393000D03*
D75*
X123980000Y-54123000D03*
D81*
X125190000Y-51813000D03*
D82*
X136450000Y-52033000D03*
D83*
X135960000Y-64693000D03*
D81*
X125190000Y-64773000D03*
%TD*%
D25*
%TO.C,C35*%
X106400000Y-114725000D03*
X106400000Y-116125000D03*
%TD*%
D16*
%TO.C,R18*%
X121525000Y-135625000D03*
X121525000Y-134125000D03*
%TD*%
D27*
%TO.C,R71*%
X86815000Y-110400000D03*
X85315000Y-110400000D03*
%TD*%
D25*
%TO.C,C12*%
X65600000Y-68650000D03*
X65600000Y-67250000D03*
%TD*%
D16*
%TO.C,R67*%
X83375000Y-125950000D03*
X83375000Y-127450000D03*
%TD*%
D27*
%TO.C,R13*%
X116700000Y-115725000D03*
X118200000Y-115725000D03*
%TD*%
%TO.C,R53*%
X66100000Y-88210000D03*
X64600000Y-88210000D03*
%TD*%
D16*
%TO.C,R24*%
X88975000Y-132850000D03*
X88975000Y-131350000D03*
%TD*%
D25*
%TO.C,C21*%
X100057500Y-136940000D03*
X100057500Y-138340000D03*
%TD*%
D16*
%TO.C,R31*%
X111307500Y-137080000D03*
X111307500Y-135580000D03*
%TD*%
D40*
%TO.C,L4*%
X111025000Y-119325000D03*
X111025000Y-115725000D03*
%TD*%
M02*
